<svg width="24" height="24" viewBox="0 0 24 24" fill="none" xmlns="http://www.w3.org/2000/svg">
<path d="M17.8 14.9992V8.4C17.8 6.96783 17.2311 5.59432 16.2184 4.58162C15.2057 3.56893 13.8322 3 12.4 3C10.9678 3 9.59432 3.56893 8.58162 4.58162C7.56893 5.59432 7 6.96783 7 8.4V17.4C7 18.3548 7.37928 19.2705 8.05442 19.9456C8.72955 20.6207 9.64522 21 10.6 21C11.5548 21 12.4705 20.6207 13.1456 19.9456C13.8207 19.2705 14.2 18.3548 14.2 17.4V8.4C14.2 7.92261 14.0104 7.46477 13.6728 7.12721C13.3352 6.78964 12.8774 6.6 12.4 6.6C11.9226 6.6 11.4648 6.78964 11.1272 7.12721C10.7896 7.46477 10.6 7.92261 10.6 8.4V16.2" stroke="#808080" stroke-width="1.5" stroke-linecap="round" stroke-linejoin="round"/>
</svg>
