<svg width="24" height="24" viewBox="0 0 24 24" fill="none" xmlns="http://www.w3.org/2000/svg">
<path d="M0.75 5.75C0.75 4.64543 1.64543 3.75 2.75 3.75H21.25C22.3546 3.75 23.25 4.64543 23.25 5.75V19.75C23.25 20.8546 22.3546 21.75 21.25 21.75H2.75C1.64543 21.75 0.75 20.8546 0.75 19.75V5.75Z" stroke="#808080" stroke-width="1.5" stroke-linecap="round" stroke-linejoin="round"/>
<path d="M10.419 8L8.287 10.842C8.2225 10.9279 8.14031 10.9989 8.04598 11.0503C7.95165 11.1017 7.84739 11.1322 7.74025 11.1397C7.63311 11.1473 7.52559 11.1318 7.42496 11.0943C7.32434 11.0567 7.23296 10.9979 7.157 10.922L6 9.766" stroke="#808080" stroke-width="1.5" stroke-linecap="round" stroke-linejoin="round"/>
<path d="M10.419 14.75L8.287 17.592C8.2225 17.6779 8.14031 17.7489 8.04598 17.8003C7.95165 17.8517 7.84739 17.8822 7.74025 17.8898C7.63311 17.8973 7.52559 17.8818 7.42496 17.8443C7.32434 17.8067 7.23296 17.7479 7.157 17.672L6 16.515" stroke="#808080" stroke-width="1.5" stroke-linecap="round" stroke-linejoin="round"/>
<path d="M13.5 11.142H18" stroke="#808080" stroke-width="1.5" stroke-linecap="round" stroke-linejoin="round"/>
<path d="M13.5 17.142H18" stroke="#808080" stroke-width="1.5" stroke-linecap="round" stroke-linejoin="round"/>
</svg>
