<svg width="24" height="24" viewBox="0 0 24 24" fill="none" xmlns="http://www.w3.org/2000/svg">
<path d="M1 5C1 3.89543 1.89543 3 3 3H20.8571C21.9617 3 22.8571 3.89543 22.8571 5V18C22.8571 19.1046 21.9617 20 20.8571 20H3C1.89543 20 1 19.1046 1 18V5Z" stroke="#808080" stroke-linecap="round" stroke-linejoin="round"/>
<path d="M17 9.25L14.5 10.0833V9.25C14.5 8.91848 14.3683 8.60054 14.1339 8.36612C13.8995 8.1317 13.5815 8 13.25 8H8.25C7.91848 8 7.60054 8.1317 7.36612 8.36612C7.1317 8.60054 7 8.91848 7 9.25V14.25C7 14.5815 7.1317 14.8995 7.36612 15.1339C7.60054 15.3683 7.91848 15.5 8.25 15.5H13.25C13.5815 15.5 13.8995 15.3683 14.1339 15.1339C14.3683 14.8995 14.5 14.5815 14.5 14.25V13.4167L17 14.25V9.25Z" stroke="#808080" stroke-linecap="round" stroke-linejoin="round"/>
</svg>
