<svg width="20" height="20" viewBox="0 0 20 20" fill="none" xmlns="http://www.w3.org/2000/svg">
<path d="M3.78531 9.33083L4.34856 9.89458C4.64141 10.1873 5.03856 10.3518 5.45265 10.3518C5.86675 10.3518 6.2639 10.1873 6.55675 9.89458L7.38496 9.06639C7.45752 8.99388 7.51508 8.90778 7.55435 8.81301C7.59362 8.71825 7.61383 8.61667 7.61383 8.51409C7.61383 8.41151 7.59362 8.30993 7.55435 8.21517C7.51508 8.1204 7.45752 8.0343 7.38496 7.96179L5.77488 6.35123C5.69603 6.27169 5.601 6.21005 5.49623 6.17048C5.39146 6.13091 5.27941 6.11434 5.16767 6.1219C5.05593 6.12945 4.94713 6.16095 4.84864 6.21426C4.75015 6.26757 4.66428 6.34145 4.59686 6.43087C2.90974 8.72127 3.93211 11.1335 6.00548 13.2073C8.07886 15.2812 10.4927 16.3025 12.7847 14.6154C12.8739 14.5477 12.9475 14.4617 13.0005 14.3631C13.0536 14.2645 13.0848 14.1556 13.092 14.0439C13.0993 13.9322 13.0824 13.8202 13.0426 13.7155C13.0028 13.6109 12.9409 13.516 12.8612 13.4374L11.2506 11.8268C11.1781 11.7543 11.092 11.6967 10.9972 11.6574C10.9025 11.6182 10.8009 11.598 10.6983 11.598C10.5957 11.598 10.4941 11.6182 10.3994 11.6574C10.3046 11.6967 10.2185 11.7543 10.146 11.8268L9.31778 12.655C9.17274 12.8 9.05768 12.9722 8.97918 13.1617C8.90068 13.3512 8.86028 13.5543 8.86028 13.7594C8.86028 13.9645 8.90068 14.1676 8.97918 14.357C9.05768 14.5465 9.17274 14.7187 9.31778 14.8637L9.89039 15.4332" stroke="black" stroke-linecap="round" stroke-linejoin="round"/>
<path d="M10.3872 8.82531L15.4626 3.75" stroke="black" stroke-linecap="round" stroke-linejoin="round"/>
<path d="M13.5105 8.82517H10.3872V5.7019" stroke="black" stroke-linecap="round" stroke-linejoin="round"/>
</svg>
