<svg width="20" height="20" viewBox="0 0 20 20" fill="none" xmlns="http://www.w3.org/2000/svg">
<path d="M3.43018 15.8583C2.56723 15.8583 1.86768 15.1588 1.86768 14.2958V5.70435C1.86768 4.8414 2.56723 4.14185 3.43018 4.14185H12.1884C13.0513 4.14185 13.7509 4.8414 13.7509 5.70435V14.2958C13.7509 15.1588 13.0513 15.8583 12.1884 15.8583H3.43018Z" stroke="black" stroke-linecap="round" stroke-linejoin="round"/>
<path d="M14.1571 11.9541C13.9068 11.817 13.7512 11.5543 13.7512 11.2689V8.73246C13.7512 8.44707 13.9068 8.18437 14.1571 8.04726L16.9754 6.50343C17.4961 6.21822 18.132 6.59497 18.132 7.18861V12.8128C18.132 13.4064 17.4961 13.7832 16.9754 13.4979L14.1571 11.9541Z" stroke="black" stroke-linecap="round" stroke-linejoin="round"/>
<path d="M7.15111 7.31395H10.3774V10.5403" stroke="black" stroke-linecap="round" stroke-linejoin="round"/>
<path d="M5.18738 12.5186L10.2834 7.42248" stroke="black" stroke-linecap="round" stroke-linejoin="round"/>
</svg>
