<svg width="20" height="20" viewBox="0 0 20 20" fill="none" xmlns="http://www.w3.org/2000/svg">
<path d="M3.78531 9.33083L4.34854 9.89458C4.64139 10.1873 5.03853 10.3518 5.45262 10.3518C5.86671 10.3518 6.26385 10.1873 6.5567 9.89458L7.38488 9.06639C7.45744 8.99388 7.515 8.90778 7.55427 8.81301C7.59354 8.71825 7.61376 8.61667 7.61376 8.51409C7.61376 8.41151 7.59354 8.30993 7.55427 8.21517C7.515 8.1204 7.45744 8.0343 7.38488 7.96179L5.77484 6.35123C5.69599 6.27169 5.60096 6.21005 5.4962 6.17048C5.39143 6.13091 5.27938 6.11434 5.16764 6.1219C5.05591 6.12945 4.9471 6.16095 4.84862 6.21426C4.75013 6.26757 4.66426 6.34145 4.59684 6.43087C2.90976 8.72127 3.93211 11.1335 6.00544 13.2073C8.07877 15.2812 10.4925 16.3025 12.7845 14.6154C12.8737 14.5477 12.9473 14.4617 13.0003 14.3631C13.0534 14.2645 13.0846 14.1556 13.0918 14.0439C13.0991 13.9322 13.0822 13.8202 13.0424 13.7155C13.0026 13.6109 12.9407 13.516 12.861 13.4374L11.2504 11.8268C11.1779 11.7543 11.0918 11.6967 10.9971 11.6574C10.9023 11.6182 10.8007 11.598 10.6982 11.598C10.5956 11.598 10.494 11.6182 10.3992 11.6574C10.3045 11.6967 10.2184 11.7543 10.1459 11.8268L9.31767 12.655C9.17263 12.8 9.05757 12.9722 8.97908 13.1617C8.90058 13.3512 8.86018 13.5543 8.86018 13.7594C8.86018 13.9645 8.90058 14.1676 8.97908 14.357C9.05757 14.5465 9.17263 14.7187 9.31767 14.8637L9.89027 15.4332" stroke="black" stroke-linecap="round" stroke-linejoin="round"/>
<path d="M15.4623 3.75L10.387 8.82531" stroke="black" stroke-linecap="round" stroke-linejoin="round"/>
<path d="M12.3391 3.75H15.4624V6.87327" stroke="black" stroke-linecap="round" stroke-linejoin="round"/>
</svg>
