<svg width="24" height="24" viewBox="0 0 24 24" fill="none" xmlns="http://www.w3.org/2000/svg">
<g id="Base_Icon">
<path id="Vector" d="M18.1305 10.8167H15.7845C15.5623 10.8167 15.3756 10.7387 15.2242 10.5827C15.0727 10.4268 14.997 10.2398 14.997 10.022C14.997 9.80417 15.0727 9.61825 15.2242 9.46425C15.3756 9.31025 15.5623 9.23325 15.7845 9.23325H18.1305V6.8875C18.1305 6.67167 18.2064 6.48642 18.3582 6.33175C18.5102 6.17725 18.6977 6.1 18.9207 6.1C19.1439 6.1 19.3318 6.17725 19.4845 6.33175C19.6373 6.48642 19.7137 6.67167 19.7137 6.8875V9.23325H22.0512C22.2734 9.23325 22.4616 9.31083 22.6157 9.466C22.7699 9.62117 22.847 9.80708 22.847 10.0238C22.847 10.2468 22.7699 10.4347 22.6157 10.5875C22.4616 10.7403 22.2734 10.8167 22.0512 10.8167H19.7137V13.1543C19.7137 13.3764 19.6364 13.5646 19.4817 13.7188C19.3269 13.8729 19.138 13.95 18.915 13.95C18.692 13.95 18.5055 13.8729 18.3555 13.7188C18.2055 13.5646 18.1305 13.3764 18.1305 13.1543V10.8167ZM9.01822 12C7.93189 12 7.03522 11.6467 6.32822 10.94C5.62139 10.2333 5.26797 9.33675 5.26797 8.25025C5.26797 7.16392 5.6213 6.26733 6.32797 5.5605C7.03464 4.8535 7.93114 4.5 9.01747 4.5C10.1038 4.5 11.0005 4.85333 11.7075 5.56C12.4145 6.26667 12.768 7.16325 12.768 8.24975C12.768 9.33608 12.4146 10.2327 11.7077 10.9395C11.0011 11.6465 10.1046 12 9.01822 12ZM1.16797 18.2V17.3823C1.16797 16.8154 1.3103 16.3024 1.59497 15.8433C1.87964 15.3839 2.2828 15.0371 2.80447 14.8027C3.96897 14.2731 5.04272 13.8909 6.02572 13.6562C7.00855 13.4216 8.00505 13.3043 9.01522 13.3043C10.0254 13.3043 11.0196 13.4216 11.998 13.6562C12.9761 13.8909 14.0492 14.2721 15.2172 14.7998C15.7371 15.0416 16.1421 15.3903 16.4325 15.8457C16.7228 16.3014 16.868 16.8137 16.868 17.3825V18.204C16.868 18.6363 16.7129 19.0077 16.4027 19.318C16.0927 19.6282 15.72 19.7833 15.2845 19.7833H2.75122C2.31572 19.7833 1.94297 19.6283 1.63297 19.3182C1.32297 19.0082 1.16797 18.6355 1.16797 18.2ZM2.75122 18.2H15.2845V17.3872C15.2845 17.1442 15.2192 16.9155 15.0887 16.701C14.9582 16.4865 14.7832 16.3264 14.5637 16.2207C13.4776 15.7124 12.5171 15.3632 11.6825 15.173C10.8476 14.9827 9.96014 14.8875 9.01997 14.8875C8.07414 14.8875 7.1818 14.9827 6.34297 15.173C5.50397 15.3632 4.54422 15.7124 3.46372 16.2207C3.23872 16.3264 3.06372 16.4861 2.93872 16.6997C2.81372 16.9134 2.75122 17.1412 2.75122 17.3832V18.2ZM9.01797 10.4167C9.63464 10.4167 10.1499 10.2098 10.5637 9.79575C10.9776 9.38192 11.1845 8.86667 11.1845 8.25C11.1845 7.63333 10.9776 7.11808 10.5637 6.70425C10.1499 6.29025 9.63464 6.08325 9.01797 6.08325C8.4013 6.08325 7.88597 6.29025 7.47197 6.70425C7.05814 7.11808 6.85122 7.63333 6.85122 8.25C6.85122 8.86667 7.05814 9.38192 7.47197 9.79575C7.88597 10.2098 8.4013 10.4167 9.01797 10.4167Z" fill="#6852D6"/>
</g>
</svg>
