<?xml version="1.0" encoding="UTF-8"?>
<svg width="16px" height="16px" viewBox="0 0 24 24" version="1.1" xmlns="http://www.w3.org/2000/svg" xmlns:xlink="http://www.w3.org/1999/xlink">
    <title>Icons/24 Extensions/Reactions Add</title>
    <g id="Icons" stroke="none" stroke-width="1" fill="none" fill-rule="evenodd">
        <g id="Icons/24-Extensions/Reactions-Add" fill="#000000" fill-rule="nonzero">
            <path d="M12,1.25 C13.2547515,1.25 14.4810955,1.46534515 15.6383943,1.88154366 C16.0281686,2.02171794 16.2305095,2.45132619 16.0903352,2.84110054 C15.9501609,3.2308749 15.5205527,3.43321574 15.1307783,3.29304146 C14.1357379,2.9351958 13.0810879,2.75 12,2.75 C6.89136606,2.75 2.75,6.89136606 2.75,12 C2.75,17.1086339 6.89136606,21.25 12,21.25 C17.1086339,21.25 21.25,17.1086339 21.25,12 C21.25,11.2729266 21.1662576,10.5573695 21.0020875,9.8629795 C20.906785,9.45987863 21.1563049,9.05584287 21.5594058,8.96054036 C21.9625066,8.86523784 22.3665424,9.11475771 22.4618449,9.51785857 C22.6527043,10.3251362 22.75,11.1565032 22.75,12 C22.75,17.9370611 17.9370611,22.75 12,22.75 C6.06293894,22.75 1.25,17.9370611 1.25,12 C1.25,6.06293894 6.06293894,1.25 12,1.25 Z M17.6586667,13.25 C18.1185754,13.25 18.5498402,13.4733153 18.8153335,13.8488361 C19.0808092,14.2243322 19.1475058,14.7053253 18.9944111,15.1383417 C17.9483179,18.1044405 15.1451634,20.0881971 12,20.0881971 C8.85483662,20.0881971 6.05168206,18.1044405 5.00578211,15.1388889 C4.85249421,14.7053253 4.91919084,14.2243322 5.18466653,13.8488361 C5.45015977,13.4733153 5.88142461,13.25 6.34133333,13.25 L6.34133333,13.25 Z M17.558,14.695 L17.538,14.749 L6.461,14.749 L6.50827179,14.8734156 C7.3732069,17.0322917 9.42640021,18.4853104 11.750045,18.5829516 L11.750045,18.5829516 L12,18.5881971 C14.5090629,18.5881971 16.7452873,17.0056497 17.5800043,14.6388889 L17.558,14.695 Z M8.11422222,8.58288148 C9.2798673,8.58288148 10.3188817,9.31776232 10.7071667,10.4168361 C10.8451443,10.8073935 10.6403879,11.2358557 10.2498306,11.3738333 C9.89181964,11.5003128 9.50195808,11.3388005 9.33318946,11.0101749 L9.29283333,10.9164972 C9.11634015,10.4169182 8.6440609,10.0828815 8.11422222,10.0828815 C7.62853677,10.0828815 7.19121722,10.3635651 6.98575875,10.7951488 L6.93561111,10.9164972 C6.79763351,11.3070546 6.36917126,11.5118109 5.97861389,11.3738333 C5.58805653,11.2358557 5.38330017,10.8073935 5.52127778,10.4168361 C5.90956279,9.31776232 6.94857714,8.58288148 8.11422222,8.58288148 Z M15.8857778,8.58288148 C17.0514229,8.58288148 18.0904372,9.31776232 18.4787222,10.4168361 C18.6166998,10.8073935 18.4119435,11.2358557 18.0213861,11.3738333 C17.6633752,11.5003128 17.2735136,11.3388005 17.104745,11.0101749 L17.0643889,10.9164972 C16.8878957,10.4169182 16.4156165,10.0828815 15.8857778,10.0828815 C15.4000923,10.0828815 14.9627728,10.3635651 14.7573143,10.7951488 L14.7071667,10.9164972 C14.5691891,11.3070546 14.1407268,11.5118109 13.7501694,11.3738333 C13.3596121,11.2358557 13.1548557,10.8073935 13.2928333,10.4168361 C13.6811183,9.31776232 14.7201327,8.58288148 15.8857778,8.58288148 Z M19.5,0.25 C19.8796958,0.25 20.193491,0.532153882 20.2431534,0.898229443 L20.25,1 L20.25,4.25 L23,4.25 C23.4142136,4.25 23.75,4.58578644 23.75,5 C23.75,5.37969577 23.4678461,5.69349096 23.1017706,5.74315338 L23,5.75 L20.25,5.75 L20.25,9 C20.25,9.41421356 19.9142136,9.75 19.5,9.75 C19.1203042,9.75 18.806509,9.46784612 18.7568466,9.10177056 L18.75,9 L18.75,5.75 L16,5.75 C15.5857864,5.75 15.25,5.41421356 15.25,5 C15.25,4.62030423 15.5321539,4.30650904 15.8982294,4.25684662 L16,4.25 L18.75,4.25 L18.75,1 C18.75,0.585786438 19.0857864,0.25 19.5,0.25 Z" id="Path"></path>
        </g>
    </g>
</svg>