<?xml version="1.0"?>
<svg version="1.0" xmlns="http://www.w3.org/2000/svg" width="100.000000pt" height="100.000000pt" viewBox="0 0 100.000000 100.000000" preserveAspectRatio="xMidYMid meet">
  <g transform="translate(0.000000,100.000000) scale(0.100000,-0.100000)" fill="#000000" stroke="none">
    <path d="M727 854 c-4 -4 -7 -15 -7 -24 0 -21 -28 -47 -55 -52 -14 -2 -20 -11 -20 -28 0 -17 6 -26 20 -28 28 -6 53 -30 57 -56 2 -15 10 -21 28 -21 18 0 26 6 28 21 4 26 29 50 57 56 29 5 28 52 -1 56 -26 4 -51 29 -56 57 -3 20 -37 32 -51 19z"/>
    <path d="M350 761 c-5 -11 -10 -32 -10 -48 -1 -74 -86 -160 -178 -178 -50 -10 -57 -14 -57 -36 0 -20 6 -25 42 -31 117 -20 170 -76 198 -211 12 -58 65 -38 65 25 0 84 88 168 193 186 36 6 42 11 42 31 0 22 -7 26 -56 36 -91 18 -162 84 -175 165 -12 76 -41 104 -64 61z m80 -212 c14 -14 33 -30 43 -35 15 -9 10 -17 -40 -69 l-58 -60 -57 59 c-57 59 -57 60 -35 75 30 20 87 82 88 95 0 6 8 0 17 -14 9 -14 28 -37 42 -51z"/>
    <path d="M727 354 c-4 -4 -7 -15 -7 -24 0 -21 -28 -47 -55 -52 -14 -2 -20 -11 -20 -28 0 -17 6 -26 20 -28 28 -6 53 -30 57 -56 4 -30 52 -30 56 0 4 26 29 50 57 56 29 5 28 52 -1 56 -26 4 -51 29 -56 57 -3 20 -37 32 -51 19z"/>
  </g>
</svg>
