<?xml version="1.0"?>
<svg version="1.0" xmlns="http://www.w3.org/2000/svg"
 width="100.000000pt" height="100.000000pt" viewBox="0 0 100.000000 100.000000"
 preserveAspectRatio="xMidYMid meet">

<g transform="translate(0.000000,100.000000) scale(0.100000,-0.100000)"
fill="#000000" stroke="none">
<path d="M375 847 c-221 -73 -326 -269 -254 -472 l22 -62 -25 -74 c-14 -41
-23 -80 -21 -86 6 -17 42 -15 138 6 77 17 82 17 138 -1 91 -28 257 -20 278 13
12 20 -9 52 -29 44 -9 -4 -51 -10 -94 -12 -59 -4 -92 -1 -145 15 -63 19 -72
20 -128 7 -88 -21 -87 -23 -64 42 l20 58 -26 56 c-52 116 -25 240 69 327 77
71 123 87 246 87 87 0 113 -4 152 -22 101 -47 188 -160 188 -246 0 -69 36
-102 61 -56 8 16 8 37 -1 83 -24 122 -96 212 -218 269 -59 28 -79 32 -167 34
-63 2 -115 -2 -140 -10z"/>
<path d="M764 347 c-2 -8 -4 -47 -2 -88 3 -71 4 -74 28 -74 25 0 25 1 25 85 0
81 -1 85 -23 88 -12 2 -24 -3 -28 -11z"/>
<path d="M764 95 c-4 -9 0 -23 8 -31 20 -20 50 -7 46 20 -4 26 -45 35 -54 11z"/>
</g>
</svg>
