<?xml version="1.0" encoding="UTF-8"?>
<svg width="24px" height="24px" viewBox="0 0 24 24" version="1.1" xmlns="http://www.w3.org/2000/svg" xmlns:xlink="http://www.w3.org/1999/xlink">
    <title>Icons/24 Emoji/Animals</title>
    <g id="Icons" stroke="none" stroke-width="1" fill="none" fill-rule="evenodd">
        <g id="Icons/24-Emoji/Animals" fill="#000001" fill-rule="nonzero">
            <g id="Group" transform="translate(1.250000, 1.250000)">
                <path d="M14.7040484,0.00374294363 C13.7499,-0.0312679275 12.8027496,0.179818592 11.9538015,0.616681975 C11.1047764,1.0535808 10.3825847,1.70158275 9.85681975,2.49829357 C9.33098933,3.29493248 9.01920613,4.21356642 8.95148961,5.16570939 C8.88377994,6.11776676 9.06250643,7.07125794 9.47039969,7.93437236 L9.59915191,8.18960866 C9.77928117,8.52495566 9.9929284,8.84004848 10.2362465,9.13030407 L10.274,9.17300018 L10.0770979,9.23138544 C9.45935152,9.40456866 8.83147422,9.54116659 8.19675301,9.64031048 C5.77957443,10.0208168 3.30648724,9.79612376 0.998221762,8.98655045 C0.510507364,8.81549535 0,9.17744187 0,9.69428342 L0,12.4426334 C0,15.0106661 1.02071319,17.473454 2.83756077,19.2892285 C4.65427794,21.104972 7.11826343,22.1250001 9.6875,22.1250001 C12.2567549,22.1250001 14.7206983,21.104985 16.53746,19.2892169 C18.3542992,17.4734707 19.375,15.0106873 19.375,12.4426334 L19.3841935,12.1823926 C19.3949565,11.2273607 19.1541154,10.2666418 18.6882618,9.40867178 L18.616,9.28400018 L18.7675482,9.11404439 C19.0843802,8.73688537 19.3502233,8.31805806 19.557115,7.86814643 C19.8881236,7.14832737 20.0604801,6.36578627 20.0625282,5.57354438 C20.064827,4.61889131 19.8212793,3.67987279 19.3552736,2.84677364 C18.8894014,2.01373452 18.2166828,1.31454575 17.4019756,0.816587932 C16.5874573,0.318691352 15.6583018,0.0387537761 14.7040484,0.00374294363 Z M14.3880595,1.50154152 L14.6704507,1.50321386 C15.3460922,1.52830828 16.0247685,1.73278104 16.6196767,2.09643496 C17.2146977,2.46011823 17.7059422,2.97069218 18.0461263,3.57898498 C18.3863934,4.18729557 18.5642067,4.87286955 18.5625285,5.56980212 C18.5610365,6.14689133 18.4354649,6.71701771 18.1943016,7.24145707 C17.9531143,7.76594872 17.6019648,8.23246714 17.1645977,8.60943743 C16.8673532,8.86563491 16.8178519,9.30765436 17.0510613,9.62325675 C17.5931397,10.356852 17.883668,11.2432486 17.8835493,12.1508533 L17.8762815,12.3988089 C17.875,14.6126784 17.012478,16.6938023 15.4771045,18.2282521 C13.9416342,19.7628827 11.8591076,20.6250001 9.6875,20.6250001 C7.51591123,20.6250001 5.43334574,19.7628703 3.89792208,18.2282695 L3.68317867,18.0053887 C2.28234393,16.4953839 1.5,14.5093222 1.5,12.4426334 L1.5,10.7150002 L1.86330524,10.8137598 C4.0034445,11.3602524 6.23748675,11.4672048 8.42912714,11.1222017 C9.64145115,10.9328363 10.8317634,10.6180512 11.9799552,10.1830648 C12.5412617,9.97041677 12.6377785,9.21736141 12.1482428,8.87003016 C11.5795342,8.46652487 11.1243557,7.92355749 10.8265836,7.2934628 C10.5287641,6.66326759 10.3982805,5.96714844 10.4477104,5.27212019 C10.4971515,4.57694259 10.7247869,3.90624081 11.1087394,3.32454841 C11.4926854,2.7427411 12.0200753,2.26952924 12.6401458,1.95044788 C13.1827314,1.67123672 13.7802513,1.51828455 14.3880595,1.50154152 Z" id="Path"></path>
                <path d="M20.9589749,3.57252819 C21.3036214,3.34276385 21.7692734,3.43589425 21.9990377,3.78054077 C22.2079144,4.09385578 22.1499359,4.50717534 21.8787301,4.75236032 L21.7910251,4.82060364 L20.664,5.57100018 L21.7910251,6.32252819 C22.1043402,6.53140487 22.2097906,6.93523003 22.0537487,7.26586456 L21.9990377,7.36259106 C21.790161,7.67590608 21.3863359,7.78135653 21.0557014,7.62531461 L20.9589749,7.57060364 L18.8964749,6.19560364 C18.4829822,5.91994185 18.453447,5.33604836 18.8078693,5.01635347 L18.8964749,4.94752819 L20.9589749,3.57252819 Z" id="Path"></path>
                <path d="M14.5170273,12.3842684 C14.9311341,12.3936723 15.2592106,12.7369956 15.2498067,13.1511024 C15.2280139,14.1107604 14.891379,15.0366503 14.2917182,15.7861986 C13.6920831,16.5357148 12.8626902,17.0673695 11.9319017,17.299182 C10.3328372,17.6989481 8.9724703,17.1888105 7.90948473,16.1258249 C7.43733181,15.653672 7.12309644,15.182319 6.95417961,14.8444853 C6.76893767,14.4740014 6.91910593,14.0234966 7.2895898,13.8382547 C7.62920002,13.6684496 8.03605003,13.7804822 8.24418342,14.0857004 L8.29582039,14.1736649 C8.39850849,14.3790411 8.62748301,14.7225029 8.9701449,15.0651647 C9.68956674,15.7845866 10.5359899,16.1019953 11.5687491,15.8438058 C12.1810568,15.6913107 12.7262687,15.3418207 13.1204318,14.8491349 C13.5145936,14.3564509 13.7358685,13.7478504 13.7501933,13.1170478 C13.7595972,12.702941 14.1029205,12.3748645 14.5170273,12.3842684 Z" id="Path"></path>
                <path d="M14.84375,6.32156592 C14.2396948,6.32156592 13.75,5.83187114 13.75,5.22781592 C13.75,4.66402255 14.1765785,4.19986569 14.724575,4.14048386 L14.84375,4.13406592 L14.84375,4.82156592 C15.0681219,4.82156592 15.25,5.00344402 15.25,5.22781592 C15.25,5.4521849 15.0681156,5.63406592 14.84375,5.63406592 L14.84375,6.32156592 Z" id="Path"></path>
                <path d="M14.4375,5.22781592 C14.4375,5.00344402 14.6193781,4.82156592 14.84375,4.82156592 L14.84375,4.13406592 C15.4478053,4.13406592 15.9375,4.62375159 15.9375,5.22781592 C15.9375,5.7916008 15.5109214,6.25576501 14.962925,6.31514786 L14.84375,6.32156592 L14.84375,5.63406592 C14.6193844,5.63406592 14.4375,5.4521849 14.4375,5.22781592 Z" id="Path"></path>
            </g>
        </g>
    </g>
</svg>