<?xml version="1.0" encoding="UTF-8"?>
<svg width="24px" height="24px" viewBox="0 0 24 24" version="1.1" xmlns="http://www.w3.org/2000/svg" xmlns:xlink="http://www.w3.org/1999/xlink">
    <title>Icons/24/Attachment File</title>
    <g id="Icons" stroke="none" stroke-width="1" fill="none" fill-rule="evenodd" stroke-linecap="round" stroke-linejoin="round">
        <g id="Icons/24/Attachment-File" stroke="#000000" stroke-width="1.5">
            <g id="Group" transform="translate(2.000000, 3.000000)">
                <path d="M9.33333333,14.6666667 C9.33333333,17.6121853 11.721148,20 14.6666667,20 C17.6121853,20 20,17.6121853 20,14.6666667 C20,11.721148 17.6121853,9.33333333 14.6666667,9.33333333 C11.721148,9.33333333 9.33333333,11.721148 9.33333333,14.6666667 Z" id="Path"></path>
                <line x1="14.6666667" y1="12" x2="14.6666667" y2="17.3333333" id="Path"></line>
                <line x1="12" y1="14.6666667" x2="17.3333333" y2="14.6666667" id="Path"></line>
                <path d="M6,17.3333333 L1.33333333,17.3333333 C0.596953667,17.3333333 0,16.7363797 0,16 L0,1.33333333 C0,0.596953667 0.596953667,0 1.33333333,0 L10.7813333,0 C11.1347086,0 11.4736014,0.140428224 11.7235556,0.390222222 L14.2764444,2.94311111 C14.5262384,3.19306523 14.6666667,3.53195804 14.6666667,3.88533333 L14.6666667,6" id="Path"></path>
            </g>
        </g>
    </g>
</svg>