<svg width="24" height="24" viewBox="0 0 24 24" fill="none" xmlns="http://www.w3.org/2000/svg">
<g id="Base_Icon">
<path id="Vector" d="M12.0022 21.8325C10.6404 21.8325 9.36222 21.5743 8.16772 21.0578C6.97322 20.5411 5.9323 19.8397 5.04497 18.9535C4.15747 18.0674 3.45605 17.0274 2.94072 15.8338C2.42555 14.6399 2.16797 13.3621 2.16797 12.0003C2.16797 10.6384 2.42622 9.36027 2.94272 8.16577C3.45939 6.97127 4.1608 5.93035 5.04697 5.04302C5.93314 4.15552 6.97305 3.4541 8.16672 2.93877C9.36055 2.4236 10.6384 2.16602 12.0002 2.16602C13.3621 2.16602 14.6402 2.42427 15.8347 2.94077C17.0292 3.45743 18.0701 4.15885 18.9575 5.04502C19.845 5.93118 20.5464 6.9711 21.0617 8.16477C21.5769 9.3586 21.8345 10.6364 21.8345 11.9983C21.8345 13.3601 21.5762 14.6383 21.0597 15.8328C20.5431 17.0273 19.8416 18.0682 18.9555 18.9555C18.0693 19.843 17.0294 20.5444 15.8357 21.0598C14.6419 21.5749 13.3641 21.8325 12.0022 21.8325ZM12.0012 20.2493C12.9807 20.2493 13.9197 20.0868 14.8182 19.7618C15.7169 19.4368 16.5335 18.9659 17.268 18.3493L5.65472 6.73252C5.04689 7.47702 4.57764 8.29693 4.24697 9.19227C3.91647 10.0876 3.75122 11.0233 3.75122 11.9993C3.75122 14.3006 4.55089 16.2509 6.15022 17.8503C7.74955 19.4496 9.69989 20.2493 12.0012 20.2493ZM18.3312 17.266C18.9279 16.5327 19.3971 15.7165 19.7387 14.8175C20.0804 13.9185 20.2512 12.9791 20.2512 11.9993C20.2512 9.69793 19.4516 7.7476 17.8522 6.14827C16.2529 4.54893 14.3026 3.74927 12.0012 3.74927C11.0257 3.74927 10.0905 3.91452 9.19547 4.24502C8.30047 4.57568 7.48014 5.04935 6.73447 5.66602L18.3312 17.266Z" fill="#F44649"/>
</g>
</svg>
