<svg width="16" height="17" viewBox="0 0 16 17" fill="none" xmlns="http://www.w3.org/2000/svg">
<g clip-path="url(#clip0_6620_62830)">
<path d="M14.0938 3.34375H1.90625C1.65761 3.34375 1.41915 3.44252 1.24334 3.61834C1.06752 3.79415 0.96875 4.03261 0.96875 4.28125V14.5938C0.96875 14.8424 1.06752 15.0808 1.24334 15.2567C1.41915 15.4325 1.65761 15.5313 1.90625 15.5313H14.0938C14.3424 15.5313 14.5808 15.4325 14.7567 15.2567C14.9325 15.0808 15.0313 14.8424 15.0313 14.5938V4.28125C15.0313 4.03261 14.9325 3.79415 14.7567 3.61834C14.5808 3.44252 14.3424 3.34375 14.0938 3.34375Z" stroke="#525252" stroke-width="1.2" stroke-linecap="round" stroke-linejoin="round"/>
<path d="M0.96875 7.09375H15.0313" stroke="#525252" stroke-width="1.2" stroke-linecap="round" stroke-linejoin="round"/>
<path d="M4.71875 4.75V1.46875" stroke="#525252" stroke-width="1.2" stroke-linecap="round" stroke-linejoin="round"/>
<path d="M11.2812 4.75V1.46875" stroke="#525252" stroke-width="1.2" stroke-linecap="round" stroke-linejoin="round"/>
<path d="M4.01563 9.90625C3.95346 9.90625 3.89385 9.88156 3.8499 9.8376C3.80594 9.79365 3.78125 9.73404 3.78125 9.67188C3.78125 9.60971 3.80594 9.5501 3.8499 9.50615C3.89385 9.46219 3.95346 9.4375 4.01563 9.4375" stroke="#525252" stroke-width="1.2"/>
<path d="M4.01562 9.90625C4.07779 9.90625 4.1374 9.88156 4.18135 9.8376C4.22531 9.79365 4.25 9.73404 4.25 9.67188C4.25 9.60971 4.22531 9.5501 4.18135 9.50615C4.1374 9.46219 4.07779 9.4375 4.01562 9.4375" stroke="#525252" stroke-width="1.2"/>
<path d="M4.01563 13.1875C3.95346 13.1875 3.89385 13.1628 3.8499 13.1189C3.80594 13.0749 3.78125 13.0153 3.78125 12.9531C3.78125 12.891 3.80594 12.8314 3.8499 12.7874C3.89385 12.7434 3.95346 12.7188 4.01563 12.7188" stroke="#525252" stroke-width="1.2"/>
<path d="M4.01562 13.1875C4.07779 13.1875 4.1374 13.1628 4.18135 13.1189C4.22531 13.0749 4.25 13.0153 4.25 12.9531C4.25 12.891 4.22531 12.8314 4.18135 12.7874C4.1374 12.7434 4.07779 12.7188 4.01562 12.7188" stroke="#525252" stroke-width="1.2"/>
<path d="M8 9.90625C7.93784 9.90625 7.87823 9.88156 7.83427 9.8376C7.79032 9.79365 7.76562 9.73404 7.76562 9.67188C7.76562 9.60971 7.79032 9.5501 7.83427 9.50615C7.87823 9.46219 7.93784 9.4375 8 9.4375" stroke="#525252" stroke-width="1.2"/>
<path d="M8 9.90625C8.06216 9.90625 8.12177 9.88156 8.16573 9.8376C8.20968 9.79365 8.23438 9.73404 8.23438 9.67188C8.23438 9.60971 8.20968 9.5501 8.16573 9.50615C8.12177 9.46219 8.06216 9.4375 8 9.4375" stroke="#525252" stroke-width="1.2"/>
<path d="M8 13.1875C7.93784 13.1875 7.87823 13.1628 7.83427 13.1189C7.79032 13.0749 7.76562 13.0153 7.76562 12.9531C7.76562 12.891 7.79032 12.8314 7.83427 12.7874C7.87823 12.7434 7.93784 12.7188 8 12.7188" stroke="#525252" stroke-width="1.2"/>
<path d="M8 13.1875C8.06216 13.1875 8.12177 13.1628 8.16573 13.1189C8.20968 13.0749 8.23438 13.0153 8.23438 12.9531C8.23438 12.891 8.20968 12.8314 8.16573 12.7874C8.12177 12.7434 8.06216 12.7188 8 12.7188" stroke="#525252" stroke-width="1.2"/>
<path d="M11.9844 9.90625C11.9222 9.90625 11.8626 9.88156 11.8186 9.8376C11.7747 9.79365 11.75 9.73404 11.75 9.67188C11.75 9.60971 11.7747 9.5501 11.8186 9.50615C11.8626 9.46219 11.9222 9.4375 11.9844 9.4375" stroke="#525252" stroke-width="1.2"/>
<path d="M11.9844 9.90625C12.0465 9.90625 12.1061 9.88156 12.1501 9.8376C12.1941 9.79365 12.2188 9.73404 12.2188 9.67188C12.2188 9.60971 12.1941 9.5501 12.1501 9.50615C12.1061 9.46219 12.0465 9.4375 11.9844 9.4375" stroke="#525252" stroke-width="1.2"/>
<path d="M11.9844 13.1875C11.9222 13.1875 11.8626 13.1628 11.8186 13.1189C11.7747 13.0749 11.75 13.0153 11.75 12.9531C11.75 12.891 11.7747 12.8314 11.8186 12.7874C11.8626 12.7434 11.9222 12.7188 11.9844 12.7188" stroke="#525252" stroke-width="1.2"/>
<path d="M11.9844 13.1875C12.0465 13.1875 12.1061 13.1628 12.1501 13.1189C12.1941 13.0749 12.2188 13.0153 12.2188 12.9531C12.2188 12.891 12.1941 12.8314 12.1501 12.7874C12.1061 12.7434 12.0465 12.7188 11.9844 12.7188" stroke="#525252" stroke-width="1.2"/>
</g>
<defs>
<clipPath id="clip0_6620_62830">
<rect width="16" height="16" fill="white" transform="translate(0 0.5)"/>
</clipPath>
</defs>
</svg>
