<svg width="120" height="120" viewBox="0 0 120 120" fill="none" xmlns="http://www.w3.org/2000/svg">
<g id="Base_Icon">
<mask id="mask0_4407_750863" style="mask-type:alpha" maskUnits="userSpaceOnUse" x="0" y="0" width="120" height="120">
<rect id="Bounding box" width="120" height="120" fill="#D9D9D9"/>
</mask>
<g mask="url(#mask0_4407_750863)">
<path id="call" d="M97.2012 102.5C87.7787 102.5 78.3125 100.309 68.8025 95.9275C59.2933 91.5458 50.5483 85.365 42.5675 77.385C34.6192 69.4042 28.4542 60.6667 24.0725 51.1725C19.6908 41.6792 17.5 32.2213 17.5 22.7988C17.5 21.2988 18 20.0404 19 19.0238C20 18.0079 21.25 17.5 22.75 17.5H39.0575C40.32 17.5 41.4338 17.9121 42.3988 18.7363C43.3638 19.5596 43.9775 20.5771 44.24 21.7887L47.1063 36.5C47.3046 37.865 47.2629 39.0379 46.9813 40.0188C46.6988 40.9996 46.1921 41.8233 45.4613 42.49L33.9137 53.7312C35.7721 57.1346 37.8954 60.3542 40.2837 63.39C42.6712 66.425 45.2563 69.3238 48.0387 72.0863C50.7821 74.8304 53.6987 77.3787 56.7887 79.7313C59.8787 82.0837 63.2154 84.2729 66.7988 86.2988L78.0188 74.9813C78.8013 74.1671 79.7488 73.5963 80.8613 73.2688C81.9729 72.9421 83.1283 72.8621 84.3275 73.0288L98.2113 75.8563C99.4737 76.1896 100.504 76.8337 101.302 77.7887C102.101 78.7437 102.5 79.8271 102.5 81.0387V97.25C102.5 98.75 101.992 100 100.976 101C99.9596 102 98.7012 102.5 97.2012 102.5Z" fill="#DCDCDC"/>
</g>
</g>
</svg>
