<?xml version="1.0" encoding="UTF-8"?>
<svg width="24px" height="24px" viewBox="0 0 24 24" version="1.1" xmlns="http://www.w3.org/2000/svg" xmlns:xlink="http://www.w3.org/1999/xlink">
    <title>Icons/24 Extensions/Collaborative Whiteboard</title>
    <g id="Icons" stroke="none" stroke-width="1" fill="none" fill-rule="evenodd">
        <g id="Icons/24-Extensions/Collaborative-Whiteboard" fill="#000000" fill-rule="nonzero">
            <path d="M6.2,1.25 C4.2473527,1.25 2.65,2.77128829 2.65,4.66666667 C2.65,6.56204505 4.2473527,8.08333333 6.2,8.08333333 C8.1526473,8.08333333 9.75,6.56204505 9.75,4.66666667 C9.75,2.77128829 8.1526473,1.25 6.2,1.25 Z M6.2,2.75 C7.3401473,2.75 8.25,3.61652638 8.25,4.66666667 C8.25,5.71680695 7.3401473,6.58333333 6.2,6.58333333 C5.0598527,6.58333333 4.15,5.71680695 4.15,4.66666667 C4.15,3.61652638 5.0598527,2.75 6.2,2.75 Z" id="Path"></path>
            <path d="M6.2,7.91666667 C6.57969577,7.91666667 6.89349096,8.19882055 6.94315338,8.56489611 L6.95,8.66666667 L6.95,14 C6.95,14.4142136 6.61421356,14.75 6.2,14.75 C5.82030423,14.75 5.50650904,14.4678461 5.45684662,14.1017706 L5.45,14 L5.45,8.66666667 C5.45,8.2524531 5.78578644,7.91666667 6.2,7.91666667 Z" id="Path"></path>
            <path d="M6.2,7.91666673 C3.47415406,7.91666673 1.25,10.0349087 1.25,12.6666667 L1.25,15.3333333 L1.25684662,15.4351039 C1.30650904,15.8011795 1.62030423,16.0833333 2,16.0833333 L2.725,16.083 L3.3541005,22.0783194 C3.39418895,22.4601142 3.71610639,22.75 4.1,22.75 L8.3,22.75 L8.40299648,22.7429615 C8.74009489,22.6965339 9.00945546,22.4254056 9.0458995,22.0783194 L9.674,16.083 L10.4,16.0833333 C10.8142136,16.0833333 11.15,15.7475469 11.15,15.3333333 L11.15,12.6666667 C11.15,10.0349087 8.92584594,7.91666673 6.2,7.91666673 Z M6.39003599,9.42150275 C8.21408216,9.514591 9.65,10.9396974 9.65,12.6666667 L9.649,14.583 L9,14.5833333 L8.89700352,14.5903718 C8.55990511,14.6367994 8.29054454,14.9079278 8.2541005,15.2550139 L7.624,21.25 L4.775,21.25 L4.1458995,15.2550139 L4.12814397,15.1533155 C4.04676841,14.8229084 3.74899419,14.5833333 3.4,14.5833333 L2.75,14.583 L2.75,12.6666667 C2.75,10.8801468 4.28665405,9.41666673 6.2,9.41666673 L6.39003599,9.42150275 Z" id="Path"></path>
            <path d="M21.6,1.25 C22.7281683,1.25 23.6652093,2.09570502 23.7445585,3.18354707 L23.75,3.33333333 L23.75,14.6666667 C23.75,15.7752741 22.8620097,16.6691795 21.7525939,16.7448147 L21.6,16.75 L13.2,16.75 C12.7857864,16.75 12.45,16.4142136 12.45,16 C12.45,15.6203042 12.7321539,15.306509 13.0982294,15.2568466 L13.2,15.25 L21.6,15.25 C21.9335897,15.25 22.1978428,15.0272126 22.2431318,14.7509728 L22.25,14.6666667 L22.25,3.33333333 C22.25,3.04809641 22.0160733,2.79937841 21.6978472,2.75651429 L21.6,2.75 L11.8,2.75 C11.3857864,2.75 11.05,2.41421356 11.05,2 C11.05,1.62030423 11.3321539,1.30650904 11.6982294,1.25684662 L11.8,1.25 L21.6,1.25 Z" id="Path"></path>
        </g>
    </g>
</svg>