<?xml version="1.0" encoding="UTF-8"?>
<svg width="24px" height="24px" viewBox="0 0 24 24" version="1.1" xmlns="http://www.w3.org/2000/svg" xmlns:xlink="http://www.w3.org/1999/xlink">
    <title>Icons/24 Extensions/Collaborative Document</title>
    <g id="Icons" stroke="none" stroke-width="1" fill="none" fill-rule="evenodd">
        <g id="Icons/24-Extensions/Collaborative-Document" fill="#000000" fill-rule="nonzero">
            <path d="M21.019664,11.0497498 C20.2968766,11.0497498 19.6037718,11.3372517 19.0931699,11.8488579 L11.9722287,18.9696649 C11.8675218,19.07437 11.7961523,19.207727 11.7671152,19.3529288 L11.0671938,22.8529288 C10.9622469,23.3777219 11.4249469,23.8404018 11.9497354,23.7354323 L15.4493424,23.0354323 C15.5945931,23.0063789 15.7279879,22.9349647 15.8327036,22.830196 L22.9504376,15.7088627 C24.0147495,14.6469387 24.0170552,12.9221237 22.9548584,11.8566265 L22.9136114,11.8181375 C22.4355563,11.3372517 21.7424514,11.0497498 21.019664,11.0497498 Z M21.019664,12.5497498 C21.2977603,12.5497498 21.5660731,12.6445675 21.7814054,12.816289 L21.9254022,12.9466625 L22.00838,13.0404351 C22.3677898,13.4966868 22.3370963,14.2018865 21.890239,14.6477416 L14.931,21.609 L12.758,22.043 L13.193,19.869 L20.1543459,12.9090017 C20.3840891,12.6788071 20.6952184,12.5497498 21.019664,12.5497498 Z" id="Path"></path>
            <path d="M17.3982707,1.25 C18.5339913,1.25 19.463993,2.13072139 19.5427157,3.24645803 L19.5481135,3.4 L19.5481135,9.7 C19.5481135,10.1142136 19.2123271,10.45 18.7981135,10.45 C18.4184177,10.45 18.1046226,10.1678461 18.0549601,9.80177056 L18.0481135,9.7 L18.0481135,3.4 C18.0481135,3.07363278 17.8076479,2.80347042 17.4942955,2.75704724 L17.3982707,2.75 L3.39984279,2.75 C3.07358878,2.75 2.80346372,2.99049261 2.75704639,3.30394351 L2.75,3.4 L2.75,18.8 C2.75,19.1263672 2.99046561,19.3965296 3.30381804,19.4429528 L3.39984279,19.45 L8.99921396,19.45 C9.41342753,19.45 9.74921396,19.7857864 9.74921396,20.2 C9.74921396,20.5796958 9.46706008,20.893491 9.10098452,20.9431534 L8.99921396,20.95 L3.39984279,20.95 C2.26412221,20.95 1.33412057,20.0692786 1.25539778,18.953542 L1.25,18.8 L1.25,3.4 C1.25,2.26423244 2.13062249,1.33412985 3.24630755,1.25539838 L3.39984279,1.25 L17.3982707,1.25 Z" id="Path"></path>
            <path d="M14.5985851,5.45 C15.0127987,5.45 15.3485851,5.78578644 15.3485851,6.2 C15.3485851,6.57969577 15.0664313,6.89349096 14.7003557,6.94315338 L14.5985851,6.95 L8.99921396,6.95 C8.5850004,6.95 8.24921396,6.61421356 8.24921396,6.2 C8.24921396,5.82030423 8.53136785,5.50650904 8.89744341,5.45684662 L8.99921396,5.45 L14.5985851,5.45 Z" id="Path"></path>
            <path d="M14.5985851,9.65 C15.0127987,9.65 15.3485851,9.98578644 15.3485851,10.4 C15.3485851,10.7796958 15.0664313,11.093491 14.7003557,11.1431534 L14.5985851,11.15 L6.19952838,11.15 C5.78531482,11.15 5.44952838,10.8142136 5.44952838,10.4 C5.44952838,10.0203042 5.73168226,9.70650904 6.09775782,9.65684662 L6.19952838,9.65 L14.5985851,9.65 Z" id="Path"></path>
            <path d="M13.1987423,13.85 C13.6129559,13.85 13.9487423,14.1857864 13.9487423,14.6 C13.9487423,14.9796958 13.6665885,15.293491 13.3005129,15.3431534 L13.1987423,15.35 L6.19952838,15.35 C5.78531482,15.35 5.44952838,15.0142136 5.44952838,14.6 C5.44952838,14.2203042 5.73168226,13.906509 6.09775782,13.8568466 L6.19952838,13.85 L13.1987423,13.85 Z" id="Path"></path>
        </g>
    </g>
</svg>