<?xml version="1.0" encoding="UTF-8"?>
<svg width="24px" height="24px" viewBox="0 0 24 24" version="1.1" xmlns="http://www.w3.org/2000/svg" xmlns:xlink="http://www.w3.org/1999/xlink">
    <title>Icons/24/Copy@2x</title>
    <g id="Icons" stroke="none" stroke-width="1" fill="none" fill-rule="evenodd" stroke-linecap="round" stroke-linejoin="round">
        <g id="Icons/24/Copy" stroke="#000000" stroke-width="1.5">
            <g id="Group" transform="translate(4.000000, 3.000000)">
                <path d="M15.6,6.00000118 L15.6,3.60000142 C15.6,2.93725978 15.0627417,2.40000154 14.4,2.40000154 L11.2,2.40000154" id="Path"></path>
                <path d="M4.4,2.40000154 L1.2,2.40000154 C0.5372583,2.40000154 0,2.93725978 0,3.60000142 L0,16.8000001 C0,17.4627418 0.5372583,18 1.2,18 L6,18" id="Path"></path>
                <path d="M10.9368,3.18960146 C10.8549236,3.43464248 10.625558,3.59990166 10.3672,3.60000142 L5.2328,3.60000142 C4.97444201,3.59990166 4.74507642,3.43464248 4.6632,3.18960146 L3.8632,0.789601696 C3.80186075,0.606570139 3.8324564,0.405197059 3.94539051,0.248643741 C4.05832463,0.0920904237 4.23976415,-0.000467229348 4.4328,0 L11.1672,0 C11.3602359,-0.000467229348 11.5416754,0.0920904237 11.6546095,0.248643741 C11.7675436,0.405197059 11.7981392,0.606570139 11.7368,0.789601696 L10.9368,3.18960146 Z" id="Path"></path>
                <polygon id="Path" points="8.4 8.40000095 18 8.40000095 18 18 8.4 18"></polygon>
                <line x1="10.8" y1="10.8000007" x2="15.6" y2="10.8000007" id="Path"></line>
                <line x1="10.8" y1="13.2000005" x2="15.6" y2="13.2000005" id="Path"></line>
                <line x1="10.8" y1="15.6000002" x2="12.6" y2="15.6000002" id="Path"></line>
            </g>
        </g>
    </g>
</svg>