<svg width="16" height="16" viewBox="0 0 16 16" fill="none" xmlns="http://www.w3.org/2000/svg">
<path d="M7.99897 11.7127C7.89214 11.7127 7.79355 11.694 7.70322 11.6565C7.61305 11.619 7.52764 11.5572 7.44697 11.471L3.81372 7.83774C3.65822 7.68474 3.58255 7.49924 3.58672 7.28124C3.59089 7.06341 3.66997 6.87666 3.82397 6.72099C3.9783 6.57099 4.16447 6.49533 4.38247 6.49399C4.60047 6.49266 4.7873 6.56974 4.94297 6.72524L7.21372 9.00449V0.954492C7.21372 0.737826 7.28972 0.552409 7.44172 0.398242C7.59355 0.244076 7.78105 0.166992 8.00422 0.166992C8.22722 0.166992 8.41514 0.244076 8.56797 0.398242C8.72064 0.552409 8.79697 0.737826 8.79697 0.954492V9.00449L11.0762 6.72524C11.2296 6.56974 11.4131 6.49541 11.6267 6.50224C11.8402 6.50924 12.027 6.58774 12.187 6.73774C12.3353 6.89324 12.4088 7.08074 12.4075 7.30024C12.4061 7.51974 12.3305 7.70449 12.1805 7.85449L8.56372 11.471C8.47755 11.5572 8.38864 11.619 8.29697 11.6565C8.20514 11.694 8.1058 11.7127 7.99897 11.7127ZM1.75122 15.8335C1.32339 15.8335 0.952552 15.6766 0.638719 15.3627C0.324885 15.0489 0.167969 14.6781 0.167969 14.2502V11.7002C0.167969 11.4781 0.245302 11.2899 0.399969 11.1357C0.554635 10.9816 0.743552 10.9045 0.966719 10.9045C1.18422 10.9045 1.3693 10.9816 1.52197 11.1357C1.6748 11.2899 1.75122 11.4781 1.75122 11.7002V14.2502H14.2512V11.7002C14.2512 11.4781 14.3286 11.2899 14.4832 11.1357C14.6381 10.9816 14.827 10.9045 15.05 10.9045C15.2675 10.9045 15.4526 10.9816 15.6055 11.1357C15.7581 11.2899 15.8345 11.4781 15.8345 11.7002V14.2502C15.8345 14.6781 15.6776 15.0489 15.3637 15.3627C15.0499 15.6766 14.6791 15.8335 14.2512 15.8335H1.75122Z" fill="#6852D6"/>
</svg>
