<svg width="24" height="24" viewBox="0 0 24 24" fill="none" xmlns="http://www.w3.org/2000/svg">
<g clip-path="url(#clip0_10446_6597)">
<path d="M20.997 12.2497C21.0472 10.4478 20.5552 8.6724 19.5847 7.1534C18.6142 5.63439 17.2099 4.44181 15.5537 3.73014C13.8976 3.01848 12.0659 2.82052 10.296 3.16192C8.526 3.50331 6.89934 4.36833 5.6267 5.64491C4.35406 6.9215 3.49408 8.55082 3.15815 10.3218C2.82223 12.0928 3.02585 13.9239 3.74263 15.5778C4.45942 17.2318 5.65633 18.6323 7.17834 19.5982C8.70034 20.564 10.4773 21.0505 12.279 20.9947" stroke="#A1A1A1" stroke-width="2" stroke-linecap="round" stroke-linejoin="round"/>
<path d="M16 19C16 19.7956 16.3161 20.5587 16.8787 21.1213C17.4413 21.6839 18.2044 22 19 22C19.7956 22 20.5587 21.6839 21.1213 21.1213C21.6839 20.5587 22 19.7956 22 19C22 18.2044 21.6839 17.4413 21.1213 16.8787C20.5587 16.3161 19.7956 16 19 16C18.2044 16 17.4413 16.3161 16.8787 16.8787C16.3161 17.4413 16 18.2044 16 19Z" stroke="#A1A1A1" stroke-width="2" stroke-linecap="round" stroke-linejoin="round"/>
<path d="M17 21L21 17" stroke="#A1A1A1" stroke-width="2" stroke-linecap="round" stroke-linejoin="round"/>
<path d="M12 7V12L14 14" fill="#A1A1A1"/>
<path d="M12 7V12L14 14" stroke="#A1A1A1" stroke-width="2" stroke-linecap="round" stroke-linejoin="round"/>
</g>
<defs>
<clipPath id="clip0_10446_6597">
<rect width="24" height="24" fill="white"/>
</clipPath>
</defs>
</svg>
