<svg xmlns="http://www.w3.org/2000/svg" fill="none" viewBox="0 0 24 24" height="24" width="24"><path stroke="#000000" d="M12 19.5c-0.2071 0 -0.375 -0.1679 -0.375 -0.375s0.1679 -0.375 0.375 -0.375" stroke-width="1.5"></path><path stroke="#000000" d="M12 19.5c0.2071 0 0.375 -0.1679 0.375 -0.375s-0.1679 -0.375 -0.375 -0.375" stroke-width="1.5"></path><path stroke="#000000" stroke-linecap="round" stroke-miterlimit="10" d="M12 15.75v-7.5" stroke-width="1.5"></path><path stroke="#000000" stroke-linecap="round" stroke-linejoin="round" d="M13.621 1.76001c-0.1488 -0.30299 -0.3796 -0.5582 -0.6661 -0.73668C12.6684 0.844851 12.3376 0.750244 12 0.750244s-0.6684 0.094607 -0.9549 0.273086c-0.2865 0.17848 -0.5173 0.43369 -0.6661 0.73668L0.90601 21.058c-0.11403 0.232 -0.167064 0.4892 -0.154094 0.7473 0.01297 0.2582 0.091516 0.5088 0.228221 0.7281 0.136703 0.2194 0.327063 0.4003 0.553103 0.5257 0.22603 0.1254 0.48029 0.1911 0.73877 0.1909H21.728c0.2585 0.0002 0.5127 -0.0655 0.7388 -0.1909 0.226 -0.1254 0.4164 -0.3063 0.5531 -0.5257 0.1367 -0.2193 0.2152 -0.4699 0.2282 -0.7281 0.013 -0.2581 -0.0401 -0.5153 -0.1541 -0.7473L13.621 1.76001Z" stroke-width="1.5"></path></svg>