<?xml version="1.0" encoding="UTF-8"?><svg version="1.1" width="24px" height="24px" viewBox="0 0 24.0 24.0" xmlns="http://www.w3.org/2000/svg" xmlns:xlink="http://www.w3.org/1999/xlink"><g transform="translate(2.0 2.0)"><path d="M1.36046512,0 L7.01162791,0 C7.76299204,-3.60067958e-16 8.37209302,0.60910098 8.37209302,1.36046512 L8.37209302,7.01162791 C8.37209302,7.76299204 7.76299204,8.37209302 7.01162791,8.37209302 L1.36046512,8.37209302 C0.60910098,8.37209302 -3.52073641e-16,7.76299204 0,7.01162791 L0,1.36046512 C-3.14060173e-16,0.60910098 0.60910098,-3.06065857e-16 1.36046512,0 Z" stroke="#000000" stroke-width="1.5" fill="none" stroke-linecap="round" stroke-linejoin="round"></path><g transform="translate(0.0 11.62790697674419)"><path d="M1.36046512,0 L7.01162791,0 C7.76299204,-3.60067958e-16 8.37209302,0.60910098 8.37209302,1.36046512 L8.37209302,7.01162791 C8.37209302,7.76299204 7.76299204,8.37209302 7.01162791,8.37209302 L1.36046512,8.37209302 C0.60910098,8.37209302 -3.52073641e-16,7.76299204 0,7.01162791 L0,1.36046512 C-3.14060173e-16,0.60910098 0.60910098,-3.06065857e-16 1.36046512,0 Z" stroke="#000000" stroke-width="1.5" fill="none" stroke-linecap="round" stroke-linejoin="round"></path></g><g transform="translate(11.62790697674419 0.0)"><path d="M1.36046512,0 L7.01162791,0 C7.76299204,-3.60067958e-16 8.37209302,0.60910098 8.37209302,1.36046512 L8.37209302,7.01162791 C8.37209302,7.76299204 7.76299204,8.37209302 7.01162791,8.37209302 L1.36046512,8.37209302 C0.60910098,8.37209302 -3.52073641e-16,7.76299204 0,7.01162791 L0,1.36046512 C-3.14060173e-16,0.60910098 0.60910098,-3.06065857e-16 1.36046512,0 Z" stroke="#000000" stroke-width="1.5" fill="none" stroke-linecap="round" stroke-linejoin="round"></path></g><g transform="translate(11.62790697674419 11.62790697674419)"><path d="M1.36046512,0 L7.01162791,0 C7.76299204,-3.60067958e-16 8.37209302,0.60910098 8.37209302,1.36046512 L8.37209302,7.01162791 C8.37209302,7.76299204 7.76299204,8.37209302 7.01162791,8.37209302 L1.36046512,8.37209302 C0.60910098,8.37209302 -3.52073641e-16,7.76299204 0,7.01162791 L0,1.36046512 C-3.14060173e-16,0.60910098 0.60910098,-3.06065857e-16 1.36046512,0 Z" stroke="#000000" stroke-width="1.5" fill="none" stroke-linecap="round" stroke-linejoin="round"></path></g></g></svg>