<svg width="33" height="32" viewBox="0 0 33 32" fill="none" xmlns="http://www.w3.org/2000/svg">
<g id="Base_Icon">
<path id="Vector" d="M2.11426 23.1759C2.11426 22.4195 2.30559 21.7347 2.68826 21.1216C3.07092 20.5085 3.60404 20.0461 4.28759 19.7346C5.81648 19.0453 7.23837 18.5404 8.55326 18.2199C9.86792 17.8997 11.2124 17.7396 12.5866 17.7396C13.9606 17.7396 15.2998 17.8997 16.6043 18.2199C17.9087 18.5404 19.3247 19.0449 20.8523 19.7336C21.5374 20.0451 22.0755 20.5076 22.4666 21.1209C22.8577 21.734 23.0533 22.4189 23.0533 23.1756V24.2673C23.0533 24.8479 22.8465 25.3449 22.4329 25.7583C22.0196 26.1716 21.5226 26.3783 20.9419 26.3783H4.22526C3.63792 26.3783 3.13926 26.1716 2.72926 25.7583C2.31926 25.3449 2.11426 24.8479 2.11426 24.2673V23.1759ZM28.7809 26.3783H24.6476C24.7883 26.0376 24.9096 25.6957 25.0116 25.3526C25.1134 25.0095 25.1643 24.6477 25.1643 24.2673V23.1783C25.1643 21.9243 24.8735 20.8645 24.2919 19.9989C23.7106 19.1334 22.831 18.4098 21.6533 17.8283C23.0199 17.9987 24.3041 18.2367 25.5059 18.5423C26.7077 18.8478 27.7253 19.2173 28.5586 19.6506C29.2884 20.0617 29.8597 20.5598 30.2726 21.1449C30.6855 21.7303 30.8919 22.3849 30.8919 23.1089V24.2626C30.8919 24.8484 30.6853 25.3475 30.2719 25.7599C29.8586 26.1721 29.3616 26.3783 28.7809 26.3783ZM12.5866 16.0006C11.1459 16.0006 9.95615 15.5311 9.01726 14.5923C8.07815 13.6531 7.60859 12.4634 7.60859 11.0229C7.60859 9.58225 8.07815 8.39248 9.01726 7.45359C9.95615 6.51448 11.1459 6.04492 12.5866 6.04492C14.027 6.04492 15.2168 6.51448 16.1559 7.45359C17.0948 8.39248 17.5643 9.58225 17.5643 11.0229C17.5643 12.4634 17.0948 13.6531 16.1559 14.5923C15.2168 15.5311 14.027 16.0006 12.5866 16.0006ZM24.6309 11.0103C24.6309 12.4414 24.1615 13.6281 23.2226 14.5706C22.2835 15.5128 21.0937 15.9839 19.6533 15.9839C19.4273 15.9839 19.1623 15.9653 18.8583 15.9279C18.5543 15.8908 18.2859 15.8331 18.0533 15.7549C18.6055 15.168 19.025 14.4724 19.3119 13.6679C19.5986 12.8635 19.7419 11.9807 19.7419 11.0196C19.7419 10.0583 19.5985 9.18637 19.3116 8.40392C19.0245 7.62125 18.605 6.90903 18.0533 6.26725C18.2939 6.19237 18.5587 6.13659 18.8476 6.09992C19.1365 6.06325 19.405 6.04492 19.6533 6.04492C21.0937 6.04492 22.2835 6.51581 23.2226 7.45759C24.1615 8.39959 24.6309 9.58381 24.6309 11.0103ZM4.22526 24.2673H20.9419V23.1813C20.9419 22.8566 20.8494 22.5499 20.6643 22.2613C20.4791 21.9726 20.2514 21.7616 19.9809 21.6283C18.5105 20.958 17.2215 20.4941 16.1139 20.2366C15.0064 19.9793 13.8324 19.8506 12.5919 19.8506C11.3479 19.8506 10.1647 19.9793 9.04226 20.2366C7.91981 20.4941 6.62715 20.958 5.16426 21.6283C4.88648 21.7616 4.66059 21.9734 4.48659 22.2636C4.31237 22.5536 4.22526 22.8585 4.22526 23.1783V24.2673ZM12.5843 13.8896C13.4043 13.8896 14.0874 13.6171 14.6336 13.0723C15.18 12.5271 15.4533 11.8447 15.4533 11.0249C15.4533 10.2049 15.1808 9.52181 14.6359 8.97559C14.0908 8.42937 13.4084 8.15625 12.5886 8.15625C11.7686 8.15625 11.0855 8.4287 10.5393 8.97359C9.99304 9.51848 9.71992 10.2008 9.71992 11.0206C9.71992 11.8406 9.99237 12.5237 10.5373 13.0699C11.0821 13.6164 11.7645 13.8896 12.5843 13.8896Z" fill="#A1A1A1"/>
</g>
</svg>
