<?xml version="1.0" encoding="UTF-8"?>
<svg width="24px" height="24px" viewBox="0 0 24 24" version="1.1" xmlns="http://www.w3.org/2000/svg" xmlns:xlink="http://www.w3.org/1999/xlink">
    <title>Icons/24 Extensions/Image Moderation</title>
    <g id="Icons" stroke="none" stroke-width="1" fill="none" fill-rule="evenodd">
        <g id="Icons/24-Extensions/Image-Moderation" fill="#000000" fill-rule="nonzero">
            <path d="M17.75,18.5 L17.8657711,18.5062346 C18.3981147,18.5639201 18.8125,19.0148176 18.8125,19.5625 C18.8125,20.1493025 18.3368025,20.625 17.75,20.625 C17.1631975,20.625 16.6875,20.1493025 16.6875,19.5625 C16.6875,19.0148176 17.1018853,18.5639201 17.6342289,18.5062346 L17.75,18.5 Z" id="Path"></path>
            <path d="M17.75,14.125 C18.1296958,14.125 18.443491,14.4071539 18.4931534,14.7732294 L18.5,14.875 L18.5,17.375 C18.5,17.7892136 18.1642136,18.125 17.75,18.125 C17.3703042,18.125 17.056509,17.8428461 17.0068466,17.4767706 L17,17.375 L17,14.875 C17,14.4607864 17.3357864,14.125 17.75,14.125 Z" id="Path"></path>
            <path d="M17.75,10.9998203 C16.9056799,10.9998203 16.1338775,11.4770129 15.7565586,12.2323319 L12.2350288,19.2745581 C11.8893574,19.9652006 11.926104,20.7858969 12.3322564,21.4431115 C12.7384089,22.100326 13.4560033,22.5002647 14.2285902,22.5000002 L21.2716667,22.5000002 C22.0439967,22.5002647 22.7615911,22.100326 23.1677436,21.4431115 C23.573896,20.7858969 23.6106426,19.9652006 23.264851,19.2743179 L19.7433045,12.2320581 C19.3661225,11.4770129 18.5943201,10.9998203 17.75,10.9998203 Z M17.75,12.4998203 C18.025967,12.4998203 18.2782315,12.6557912 18.4015586,12.9026681 L21.9233621,19.9454419 C22.0365047,20.1714979 22.024494,20.4397435 21.8917426,20.6545548 C21.7589912,20.8693662 21.5244446,21.0000866 21.2719236,21.0000002 L14.2283333,21.0000002 C13.9755554,21.0000866 13.7410088,20.8693662 13.6082574,20.6545548 C13.475506,20.4397435 13.4634953,20.1714979 13.5765177,19.9456821 L17.0983045,12.9029419 C17.2217685,12.6557912 17.474033,12.4998203 17.75,12.4998203 Z" id="Path"></path>
            <path d="M14.1075,2.25 C14.5786982,2.25 15.0327607,2.41639102 15.3913294,2.71668132 L15.5211634,2.83550325 L17.9146666,5.22900653 C18.2477731,5.56232647 18.4511759,6.0010691 18.4922641,6.46675718 L18.5,6.6425 L18.5,9.25 C18.5,9.66421356 18.1642136,10 17.75,10 C17.3703042,10 17.056509,9.71784612 17.0068466,9.35177056 L17,9.25 L17,6.6425 C17,6.53661594 16.9663197,6.43412702 16.9049562,6.34944464 L16.8538366,6.28949675 L14.4606732,3.89633332 C14.3856588,3.82136701 14.2893439,3.77269347 14.1860526,3.75622271 L14.1075,3.75 L5.25,3.75 C5.00454011,3.75 4.80039163,3.92687516 4.75805567,4.16012437 L4.75,4.25 L4.75,18 C4.75,18.2454599 4.92687516,18.4496084 5.16012437,18.4919443 L5.25,18.5 L9.625,18.5 C10.0392136,18.5 10.375,18.8357864 10.375,19.25 C10.375,19.6296958 10.0928461,19.943491 9.72677056,19.9931534 L9.625,20 L5.25,20 C4.1956382,20 3.33183488,19.1841222 3.25548574,18.1492623 L3.25,18 L3.25,4.25 C3.25,3.1956382 4.06587779,2.33183488 5.10073766,2.25548574 L5.25,2.25 L14.1075,2.25 Z" id="Path"></path>
            <path d="M7.75,6.3125 L7.86577108,6.31873461 C8.39811466,6.37642013 8.8125,6.82731762 8.8125,7.375 C8.8125,7.96180255 8.33680255,8.4375 7.75,8.4375 C7.16319745,8.4375 6.6875,7.96180255 6.6875,7.375 C6.6875,6.82731762 7.10188534,6.37642013 7.63422892,6.31873461 L7.75,6.3125 Z" id="Path"></path>
            <path d="M12.2458776,8.22140427 C12.6499029,8.22605155 13.0286682,8.40799925 13.2926069,8.72670098 L13.3860265,8.85254529 L14.7243599,10.994212 C14.943868,11.3454797 14.8370558,11.808185 14.485788,12.0276932 C14.1664537,12.2272461 13.7550222,12.1571127 13.5179359,11.8787993 L13.4523068,11.7891214 L12.224,9.823 L10.6656552,12.0448847 C10.4377122,12.3698175 10.0016659,12.456438 9.67028618,12.2600919 L9.58273992,12.1994937 L8.682,11.478 L7.699,13.499 L11.5,13.5 C11.8796958,13.5 12.193491,13.7821539 12.2431534,14.1482294 L12.25,14.25 C12.25,14.6296958 11.9678461,14.943491 11.6017706,14.9931534 L11.5,15 L6.5,15 C5.9806253,15 5.62930354,14.4902531 5.787137,14.0160625 L5.8255935,13.92186 L7.43976016,10.60436 L7.49024776,10.5162967 C7.70419994,10.1955669 8.04297786,9.97939616 8.42399287,9.9204835 C8.75738101,9.86893492 9.09630493,9.94193118 9.37725443,10.122444 L9.49392675,10.2063397 L9.896,10.529 L11.1032812,8.80913533 C11.33451,8.47777835 11.6980932,8.26712608 12.0954698,8.22795575 L12.2458776,8.22140427 Z" id="Path"></path>
        </g>
    </g>
</svg>