<svg width="24" height="24" viewBox="0 0 24 24" fill="none" xmlns="http://www.w3.org/2000/svg">
<g id="Base_Icon">
<path id="Vector" d="M12.0625 16.9141C12.2828 16.9141 12.4693 16.837 12.622 16.6828C12.7748 16.5286 12.8512 16.3404 12.8512 16.1181V11.8016C12.8512 11.5857 12.7736 11.4005 12.6185 11.2458C12.4633 11.0913 12.2774 11.0141 12.0607 11.0141C11.8377 11.0141 11.6498 11.0913 11.497 11.2458C11.3443 11.4005 11.268 11.5857 11.268 11.8016V16.1181C11.268 16.3404 11.3453 16.5286 11.5 16.6828C11.6546 16.837 11.8421 16.9141 12.0625 16.9141ZM11.9992 9.16406C12.2394 9.16406 12.4415 9.0844 12.6055 8.92506C12.7693 8.7659 12.8512 8.56865 12.8512 8.33331C12.8512 8.08215 12.7701 7.87448 12.6077 7.71031C12.4454 7.54615 12.2442 7.46406 12.0042 7.46406C11.7577 7.46406 11.554 7.54523 11.393 7.70756C11.2318 7.87006 11.1512 8.07548 11.1512 8.32381C11.1512 8.56281 11.2325 8.76256 11.395 8.92306C11.5575 9.08373 11.7589 9.16406 11.9992 9.16406ZM12.0067 21.8306C10.6494 21.8306 9.37347 21.5715 8.17897 21.0533C6.98447 20.535 5.94305 19.8308 5.05472 18.9408C4.16622 18.0506 3.46297 17.0089 2.94497 15.8156C2.42697 14.6221 2.16797 13.3469 2.16797 11.9901C2.16797 10.6317 2.42705 9.35498 2.94522 8.15981C3.46355 6.96448 4.16772 5.92398 5.05772 5.03831C5.94789 4.15265 6.98964 3.45215 8.18297 2.93681C9.37647 2.42165 10.6516 2.16406 12.0085 2.16406C13.3668 2.16406 14.6436 2.42248 15.839 2.93931C17.0343 3.45598 18.0748 4.15731 18.9605 5.04331C19.846 5.92931 20.5464 6.9699 21.0617 8.16506C21.5769 9.36023 21.8345 10.6358 21.8345 11.9918C21.8345 13.3491 21.5767 14.6251 21.0612 15.8196C20.5457 17.0141 19.8444 18.0545 18.9572 18.9408C18.0699 19.8271 17.0286 20.5304 15.8335 21.0506C14.6383 21.5706 13.3627 21.8306 12.0067 21.8306ZM12.009 20.2473C14.2955 20.2473 16.2408 19.4426 17.845 17.8333C19.4491 16.224 20.2512 14.2761 20.2512 11.9896C20.2512 9.70306 19.4504 7.75773 17.8487 6.15356C16.2469 4.5494 14.2979 3.74731 12.0017 3.74731C9.72089 3.74731 7.77555 4.54815 6.16572 6.14981C4.55605 7.75165 3.75122 9.70065 3.75122 11.9968C3.75122 14.2776 4.55589 16.223 6.16522 17.8328C7.77455 19.4425 9.72247 20.2473 12.009 20.2473Z" fill="#141414"/>
</g>
</svg>
