<svg width="20" height="20" viewBox="0 0 20 20" fill="none" xmlns="http://www.w3.org/2000/svg">
<g id="Frame" clip-path="url(#clip0_8904_72377)">
<path id="Vector" d="M6.66675 9.99984C6.66675 10.8839 7.01794 11.7317 7.64306 12.3569C8.26818 12.982 9.11603 13.3332 10.0001 13.3332C10.8841 13.3332 11.732 12.982 12.3571 12.3569C12.9822 11.7317 13.3334 10.8839 13.3334 9.99984C13.3334 9.11578 12.9822 8.26794 12.3571 7.64281C11.732 7.01769 10.8841 6.6665 10.0001 6.6665C9.11603 6.6665 8.26818 7.01769 7.64306 7.64281C7.01794 8.26794 6.66675 9.11578 6.66675 9.99984Z" stroke="#3399FF" stroke-width="1.5" stroke-linecap="round" stroke-linejoin="round"/>
<path id="Vector_2" d="M13.3333 9.99987V11.2499C13.3333 11.8024 13.5528 12.3323 13.9435 12.723C14.3342 13.1137 14.8641 13.3332 15.4167 13.3332C15.9692 13.3332 16.4991 13.1137 16.8898 12.723C17.2805 12.3323 17.5 11.8024 17.5 11.2499V9.99987C17.5021 8.38829 16.985 6.81891 16.0253 5.5242C15.0657 4.22949 13.7145 3.27833 12.172 2.81162C10.6295 2.34491 8.97764 2.38747 7.4612 2.93301C5.94476 3.47854 4.64437 4.49802 3.75267 5.84044C2.86097 7.18285 2.42539 8.77678 2.51046 10.3861C2.59553 11.9955 3.19671 13.5346 4.22496 14.7755C5.25321 16.0164 6.65383 16.8932 8.21933 17.2758C9.78483 17.6584 11.4319 17.5266 12.9167 16.8999" stroke="#3399FF" stroke-width="1.5" stroke-linecap="round" stroke-linejoin="round"/>
</g>
<defs>
<clipPath id="clip0_8904_72377">
<rect width="20" height="20" fill="white"/>
</clipPath>
</defs>
</svg>
