<svg width="32" height="32" viewBox="0 0 32 32" fill="none" xmlns="http://www.w3.org/2000/svg">
<g clip-path="url(#clip0_4786_71113)" filter="url(#filter0_d_4786_71113)">
<path d="M16.7031 1.45314C14.9489 1.45061 13.2259 1.91759 11.713 2.80562C10.2001 3.69364 8.95248 4.97036 8.0995 6.50327C7.24652 8.03619 6.81931 9.76944 6.8622 11.5232C6.9051 13.2769 7.41653 14.9872 8.34344 16.4766L5.45312 22.5469L11.5225 19.6566C12.8169 20.4614 14.2805 20.9546 15.798 21.0973C17.3155 21.2401 18.8454 21.0285 20.2672 20.4793C21.689 19.9301 22.9639 19.0582 23.9913 17.9323C25.0187 16.8064 25.7707 15.4574 26.1879 13.9914C26.6051 12.5254 26.6762 10.9825 26.3955 9.4844C26.1149 7.98627 25.4902 6.57376 24.5706 5.35819C23.6511 4.14261 22.4618 3.15718 21.0966 2.47952C19.7313 1.80187 18.2273 1.45051 16.7031 1.45314Z" stroke="#3399FF" stroke-width="1.5" stroke-linecap="round" stroke-linejoin="round"/>
</g>
<defs>
<filter id="filter0_d_4786_71113" x="0" y="0" width="32" height="32" filterUnits="userSpaceOnUse" color-interpolation-filters="sRGB">
<feFlood flood-opacity="0" result="BackgroundImageFix"/>
<feColorMatrix in="SourceAlpha" type="matrix" values="0 0 0 0 0 0 0 0 0 0 0 0 0 0 0 0 0 0 127 0" result="hardAlpha"/>
<feOffset dy="4"/>
<feGaussianBlur stdDeviation="2"/>
<feComposite in2="hardAlpha" operator="out"/>
<feColorMatrix type="matrix" values="0 0 0 0 0 0 0 0 0 0 0 0 0 0 0 0 0 0 0.25 0"/>
<feBlend mode="normal" in2="BackgroundImageFix" result="effect1_dropShadow_4786_71113"/>
<feBlend mode="normal" in="SourceGraphic" in2="effect1_dropShadow_4786_71113" result="shape"/>
</filter>
<clipPath id="clip0_4786_71113">
<rect width="24" height="24" fill="white" transform="translate(4)"/>
</clipPath>
</defs>
</svg>
