<svg width="20" height="20" viewBox="0 0 20 20" fill="none" xmlns="http://www.w3.org/2000/svg">
<path d="M14.1573 11.9539C13.907 11.8167 13.7515 11.5541 13.7515 11.2687V8.73221C13.7515 8.44682 13.907 8.18413 14.1573 8.04701L16.9757 6.50318C17.4963 6.21798 18.1322 6.59473 18.1322 7.18836V12.8125C18.1322 13.4061 17.4963 13.7829 16.9757 13.4977L14.1573 11.9539Z" stroke="black" stroke-linecap="round" stroke-linejoin="round"/>
<path d="M11.3834 9.1351L8.17601 12.3425L4.16675 8.33325" stroke="black" stroke-linecap="round" stroke-linejoin="round"/>
<path d="M4.16675 10.7388V8.33325H6.5723" stroke="black" stroke-linecap="round" stroke-linejoin="round"/>
<path d="M3.22925 15.883C2.3663 15.883 1.66675 15.1834 1.66675 14.3205V5.729C1.66675 4.86606 2.3663 4.1665 3.22925 4.1665H11.9874C12.8503 4.1665 13.5499 4.86606 13.5499 5.729V14.3205C13.5499 15.1834 12.8503 15.883 11.9874 15.883H3.22925Z" stroke="black" stroke-linecap="round" stroke-linejoin="round"/>
</svg>
