<?xml version="1.0" encoding="UTF-8"?>
<svg width="24px" height="24px" viewBox="0 0 24 24" version="1.1" xmlns="http://www.w3.org/2000/svg" xmlns:xlink="http://www.w3.org/1999/xlink">
    <title>Icons/24/moreicon</title>
    <g id="Icons" stroke="none" stroke-width="1" fill="none" fill-rule="evenodd">
        <g id="Icons/24/More" fill="#000000">
            <path d="M4.5,10 C5.88071187,10 7,11.1192881 7,12.5 C7,13.8807119 5.88071187,15 4.5,15 C3.11928813,15 2,13.8807119 2,12.5 C2,11.1192881 3.11928813,10 4.5,10 Z M12,10 C13.3807119,10 14.5,11.1192881 14.5,12.5 C14.5,13.8807119 13.3807119,15 12,15 C10.6192881,15 9.5,13.8807119 9.5,12.5 C9.5,11.1192881 10.6192881,10 12,10 Z M19.5,10 C20.8807119,10 22,11.1192881 22,12.5 C22,13.8807119 20.8807119,15 19.5,15 C18.1192881,15 17,13.8807119 17,12.5 C17,11.1192881 18.1192881,10 19.5,10 Z" id="Rectangle-2"></path>
        </g>
    </g>
</svg>