<?xml version="1.0" encoding="UTF-8"?>
<svg width="24px" height="24px" viewBox="0 0 24 24" version="1.1" xmlns="http://www.w3.org/2000/svg" xmlns:xlink="http://www.w3.org/1999/xlink">
    <title>Icons/24 Extensions/Photo Library</title>
    <g id="Icons" stroke="none" stroke-width="1" fill="none" fill-rule="evenodd">
        <g id="Icons/24-Extensions/Photo-Library" fill="#000000" fill-rule="nonzero">
            <path d="M8,2.25 C9.0543618,2.25 9.91816512,3.06587779 9.99451426,4.10073766 L10,4.25 L10,4.749 L19.25,4.75 C20.3043618,4.75 21.1681651,5.56587779 21.2445143,6.60073766 L21.25,6.75 L21.25,8.647 L21.3090595,8.67075883 C21.560776,8.78204037 21.7890445,8.94502905 21.9776884,9.15176047 L22.0859904,9.28098473 C22.4268417,9.7243264 22.5648157,10.2875838 22.4792305,10.8049438 L20.599742,19.7646666 C20.3801645,20.5892111 19.6644249,21.1776759 18.8253479,21.243794 L18.6666667,21.25 L4.41416667,21.25 C4.34513107,21.25 4.27827401,21.2406726 4.21478696,21.2232093 L4.198,21.217 L4.13447967,21.2119882 C3.12077897,21.0788944 2.34585208,20.2581085 2.25808253,19.244849 L2.25,19.0833333 L2.25,4.25 C2.25,3.1956382 3.06587779,2.33183488 4.10073766,2.25548574 L4.25,2.25 L8,2.25 Z M20.5,9.9999998 L8.94041369,9.9999998 C8.7494078,9.99989301 8.57810253,10.1081415 8.50251018,10.2403227 L8.47304199,10.3080169 L6.50183631,19.6519318 L6.47,19.749 L18.6669246,19.7500001 C18.8652457,19.7500001 19.0419017,19.6334019 19.1157978,19.483767 L19.1409396,19.4178635 L20.9835913,10.6286666 C21.0235655,10.4785581 20.991501,10.3183966 20.8968201,10.1952461 C20.8210754,10.0967258 20.71214,10.0308462 20.5919295,10.0084626 L20.5,9.9999998 Z M8,3.75 L4.25,3.75 C4.00454011,3.75 3.80039163,3.92687516 3.75805567,4.16012437 L3.7499284,4.25 L3.7499284,19.0729701 C3.75450399,19.4040804 4.00142215,19.6816449 4.32974627,19.7247522 C4.62158992,19.7630698 4.89911328,19.6058121 5.0118617,19.3809093 L5.04612468,19.2936497 L7.01858631,9.94533345 C7.25034003,9.14246197 7.95397669,8.57422367 8.77513888,8.50674095 L8.94083333,8.5 L19.75,8.5 L19.75,6.75 C19.75,6.50454011 19.5731248,6.30039163 19.3398756,6.25805567 L19.25,6.25 L9.25,6.25 C8.87030423,6.25 8.55650904,5.96784612 8.50684662,5.60177056 L8.5,5.5 L8.5,4.25 C8.5,4.00454011 8.32312484,3.80039163 8.08987563,3.75805567 L8,3.75 Z" id="Path"></path>
            <path d="M10.5,11.3125 L10.6157711,11.3187346 C11.1481147,11.3764201 11.5625,11.8273176 11.5625,12.375 C11.5625,12.9618025 11.0868025,13.4375 10.5,13.4375 C9.91319745,13.4375 9.4375,12.9618025 9.4375,12.375 C9.4375,11.8273176 9.85188534,11.3764201 10.3842289,11.3187346 L10.5,11.3125 Z" id="Path"></path>
            <path d="M14.7615505,13.3341733 C15.1650281,13.339062 15.5432492,13.5206846 15.7989971,13.8261321 L15.8889717,13.9463759 L18.3148051,17.5838759 C18.5446241,17.928486 18.4515675,18.3941527 18.1069574,18.6239717 C17.7936756,18.8328981 17.3803468,18.7749852 17.1351188,18.5038182 L17.0668616,18.4161241 L14.742,14.93 L13.1806552,17.1565514 C12.9524338,17.481881 12.5156848,17.5682521 12.1842442,17.371143 L12.096698,17.3103241 L11.179,16.572 L9.94871059,18.4165154 C9.73958776,18.7296662 9.33567986,18.8347993 9.00516806,18.6784976 L8.90848458,18.6237106 C8.59533381,18.4145878 8.49020073,18.0106799 8.64650244,17.6801681 L8.70128941,17.5834846 L10.0076608,15.6272604 C10.2213273,15.3068138 10.5595979,15.0906712 10.9401624,15.0314258 C11.2731564,14.9795861 11.6118179,15.0520295 11.8942272,15.2330124 L12.0116353,15.3171759 L12.412,15.639 L13.6194632,13.9191131 C13.8512845,13.5888451 14.2147222,13.3792001 14.6114213,13.3405523 L14.7615505,13.3341733 Z" id="Path"></path>
        </g>
    </g>
</svg>