<?xml version="1.0" encoding="UTF-8"?>
<svg width="24px" height="24px" viewBox="0 0 24 24" version="1.1" xmlns="http://www.w3.org/2000/svg" xmlns:xlink="http://www.w3.org/1999/xlink">
    <title>Icons/24 Extensions/Polls</title>
    <g id="Icons" stroke="none" stroke-width="1" fill="none" fill-rule="evenodd">
        <g id="Icons/24-Extensions/Polls" fill="#000000" fill-rule="nonzero">
            <path d="M13.779983,1.25 C14.2709124,1.25043259 14.7438187,1.42418565 15.1167078,1.73706699 L15.2516928,1.86085235 L20.4715927,7.08218001 C20.8991636,7.51561025 21.1196388,8.11205589 21.0768145,8.71941733 C21.0476811,9.13260508 20.689109,9.44394267 20.2759212,9.41480928 C19.8971658,9.38810367 19.6039928,9.08457801 19.580201,8.71591608 L19.5805293,8.613916 C19.5905393,8.47194719 19.5513165,8.33202895 19.4730888,8.21873863 L19.4072645,8.13914765 L14.1905599,2.92103945 C14.1031809,2.83352807 13.9908865,2.77665655 13.8706878,2.75733888 L13.7793226,2.75 L4.33297476,2.75 C4.04324415,2.75 3.80281908,2.96150888 3.75763137,3.23870267 L3.75,3.33333333 L3.75,20.6666667 C3.75,20.9566568 3.961452,21.1971647 4.2384242,21.2423664 L4.33297476,21.25 L9.6648738,21.25 C10.0790874,21.25 10.4148738,21.5857864 10.4148738,22 C10.4148738,22.3796958 10.1327199,22.693491 9.76664435,22.7431534 L9.6648738,22.75 L4.33297476,22.75 C3.23255355,22.75 2.33150187,21.8965632 2.25522974,20.8154444 L2.25,20.6666667 L2.25,3.33333333 C2.25,2.23280908 3.10320728,1.33152341 4.18421182,1.25523113 L4.33297476,1.25 L13.779983,1.25 Z" id="Path"></path>
            <path d="M13.6637981,1.25 C14.0434938,1.25 14.357289,1.53215388 14.4069515,1.89822944 L14.4137981,2 L14.4137981,7.33333333 C14.4137981,7.62332346 14.6252501,7.86383136 14.9022223,7.90903304 L14.9967728,7.91666667 L20.3286719,7.91666667 C20.7428854,7.91666667 21.0786719,8.2524531 21.0786719,8.66666667 C21.0786719,9.04636243 20.796518,9.36015763 20.4304424,9.40982005 L20.3286719,9.41666667 L14.9967728,9.41666667 C13.8963516,9.41666667 12.9952999,8.56322987 12.9190278,7.4821111 L12.9137981,7.33333333 L12.9137981,2 C12.9137981,1.58578644 13.2495845,1.25 13.6637981,1.25 Z" id="Path"></path>
            <path d="M8.99777572,9.420279 C9.24921801,9.09111393 9.71989329,9.02810717 10.0490584,9.27954946 C10.3482993,9.50813337 10.4275748,9.91790155 10.2506031,10.2378223 L10.1897879,10.3308321 L8.25879925,12.8586842 C8.01208284,13.1778547 7.64305532,13.3791966 7.21567496,13.4156509 C6.86419538,13.4339623 6.52012946,13.3223779 6.23838713,13.0959918 L6.12161623,12.9919845 L5.12632841,11.9608734 C4.838658,11.6628489 4.84705165,11.1880493 5.14507615,10.9003789 C5.41600752,10.6388603 5.83303397,10.6220228 6.1227489,10.845033 L6.20557062,10.9191266 L7.125,11.871 L8.99777572,9.420279 Z" id="Path"></path>
            <path d="M8.99777572,15.420279 C9.24921801,15.0911139 9.71989329,15.0281072 10.0490584,15.2795495 C10.3482993,15.5081334 10.4275748,15.9179016 10.2506031,16.2378223 L10.1897879,16.3308321 L8.25879925,18.8586842 C8.01208284,19.1778547 7.64305532,19.3791966 7.21567496,19.4156509 C6.86419538,19.4339623 6.52012946,19.3223779 6.23838713,19.0959918 L6.12161623,18.9919845 L5.12632841,17.9608734 C4.838658,17.6628489 4.84705165,17.1880493 5.14507615,16.9003789 C5.41600752,16.6388603 5.83303397,16.6220228 6.1227489,16.845033 L6.20557062,16.9191266 L7.125,17.871 L8.99777572,15.420279 Z" id="Path"></path>
            <path d="M15.6632602,11.9166667 C16.0774738,11.9166667 16.4132602,12.2524531 16.4132602,12.6666667 C16.4132602,13.0463624 16.1311063,13.3601576 15.7650308,13.4098201 L15.6632602,13.4166667 L12.3308233,13.4166667 C11.9166098,13.4166667 11.5808233,13.0808802 11.5808233,12.6666667 C11.5808233,12.2869709 11.8629772,11.9731757 12.2290528,11.9235133 L12.3308233,11.9166667 L15.6632602,11.9166667 Z" id="Path"></path>
            <path d="M21.1106837,10.5779533 C20.4095395,10.5779533 19.7375424,10.8584991 19.2444627,11.3570467 L12.4669093,18.1364079 C12.3622379,18.2411074 12.2908946,18.3744435 12.2618676,18.5196176 L11.5953802,21.8529509 C11.4904492,22.3777472 11.953163,22.8404132 12.4779485,22.7354279 L15.8103854,22.0687612 C15.9555979,22.0397109 16.0889603,21.9683215 16.1936616,21.8635921 L22.9740599,15.0813699 C23.4695748,14.5910412 23.75,13.9189715 23.75,13.2177778 C23.75,12.516584 23.4695748,11.8445143 22.9711997,11.35134 L22.8310414,11.2210775 C22.3327458,10.7984458 21.7321255,10.5779533 21.1106837,10.5779533 Z M21.1106837,12.0779533 C21.3769595,12.0779533 21.6343527,12.1724444 21.8371937,12.3440921 L21.9342889,12.4349375 C22.129767,12.628969 22.25,12.9171205 22.25,13.2177778 L22.242717,13.345678 C22.2137413,13.5991981 22.0992456,13.8367894 21.9161173,14.0180067 L15.293,20.642 L13.287,21.043 L13.688,19.035 L20.3081104,12.4147032 C20.5222805,12.1981735 20.8102464,12.0779533 21.1106837,12.0779533 Z" id="Path"></path>
        </g>
    </g>
</svg>