<svg width="14" height="14" viewBox="0 0 24 24" fill="#fff" xmlns="http://www.w3.org/2000/svg">
<path d="M7.40002 10.4V7.73333C7.40002 6.74319 7.84252 5.7936 8.63018 5.09347C9.41783 4.39333 10.4861 4 11.6 4C12.7139 4 13.7822 4.39333 14.5699 5.09347C15.3575 5.7936 15.8 6.74319 15.8 7.73333V10.4" stroke="#808080" stroke-width="1.5" stroke-linecap="round" stroke-linejoin="round"/>
<path fill-rule="evenodd" clip-rule="evenodd" d="M18.2 12.4C18.2 11.2955 17.3046 10.4 16.2 10.4H7C5.89543 10.4 5 11.2955 5 12.4V18C5 19.1046 5.89543 20 7 20H16.2C17.3046 20 18.2 19.1046 18.2 18V12.4ZM11.9732 13.9826C11.8524 13.9383 11.7255 13.9165 11.5991 13.9167V13.9167C11.5996 13.9167 11.6 13.9171 11.6 13.9176V14.45L11.5995 14.45L11.5982 13.9176C11.5982 13.9171 11.5986 13.9167 11.5991 13.9167V13.9167C11.4101 13.9168 11.2194 13.9664 11.0503 14.0668C10.8805 14.1676 10.7338 14.3197 10.643 14.5145C10.5515 14.711 10.5256 14.9334 10.5739 15.1491C10.6219 15.3637 10.7374 15.5472 10.8896 15.6825C11.0409 15.8169 11.2236 15.9003 11.4109 15.9334C11.5982 15.9665 11.793 15.9501 11.9739 15.8835C12.155 15.8168 12.3235 15.699 12.4489 15.5321C12.575 15.3644 12.6496 15.1567 12.65 14.9352V14.9352C12.65 14.9354 12.6498 14.9356 12.6496 14.9356L12.05 14.9338V14.9333H12.6481C12.6492 14.9333 12.65 14.9342 12.65 14.9352V14.9352C12.6504 14.7883 12.618 14.6453 12.5576 14.5154C12.4974 14.3857 12.4118 14.274 12.3106 14.184C12.2096 14.0942 12.0943 14.0271 11.9732 13.9826ZM11.6 15.4167L11.6018 15.4167C11.6618 15.4164 11.725 15.4029 11.7859 15.3729C11.7961 15.3679 11.8063 15.3624 11.8163 15.3564C11.8786 15.3195 11.9399 15.2621 11.9846 15.1831C11.991 15.1719 11.997 15.1602 12.0026 15.1481C12.0334 15.082 12.0499 15.0086 12.05 14.9338L11.9 14.9333H12.05C12.05 14.8962 12.046 14.8587 12.0377 14.8216C12.0332 14.8018 12.0277 14.7827 12.0213 14.7644C12.0002 14.7042 11.9691 14.6521 11.9327 14.6091C11.918 14.5917 11.9023 14.5757 11.8861 14.5613C11.8541 14.5329 11.8202 14.5106 11.7858 14.4937C11.7478 14.475 11.7092 14.4629 11.672 14.4563C11.6483 14.4521 11.6242 14.45 11.6 14.45V14.6667L11.5995 14.45C11.5514 14.4501 11.5029 14.4585 11.4557 14.4759C11.4151 14.4908 11.3734 14.5133 11.334 14.5444C11.3041 14.568 11.2756 14.5967 11.2499 14.6308C11.2205 14.6699 11.1961 14.7149 11.1788 14.7642C11.1606 14.8157 11.1502 14.8719 11.15 14.9311L11.15 14.9333C11.15 14.9623 11.1525 14.9908 11.1572 15.0186C11.1649 15.0638 11.1785 15.1069 11.1971 15.147C11.2165 15.1888 11.2406 15.2256 11.2675 15.2573C11.2823 15.2748 11.2979 15.2908 11.3141 15.3051C11.3593 15.3454 11.4084 15.3732 11.4566 15.3909C11.4724 15.3967 11.4883 15.4015 11.5043 15.4053C11.5363 15.4129 11.5684 15.4166 11.6 15.4167ZM11.6 15.4167L11.15 14.9333L11.6 14.6667V14.8639V14.8679V14.8832V14.894V14.9195V14.9324V14.9333V14.9599V14.9604V14.9835V14.9922V15.0001V15.4167Z" fill="#808080"/>
</svg>