<svg width="16" height="15" viewBox="0 0 16 15" fill="none" xmlns="http://www.w3.org/2000/svg">
<path d="M6.42713 9.69531L11.974 4.14844C12.0802 4.04427 12.2039 3.99219 12.3453 3.99219C12.4867 3.99219 12.6095 4.04443 12.7137 4.14891C12.8179 4.25349 12.8699 4.3776 12.8699 4.52125C12.8699 4.665 12.8179 4.78896 12.7137 4.89313L6.79182 10.8203C6.68765 10.9245 6.56609 10.9766 6.42713 10.9766C6.28828 10.9766 6.16677 10.9245 6.0626 10.8203L3.27088 8.02859C3.16671 7.92401 3.11723 7.79974 3.12244 7.65578C3.12765 7.51193 3.18255 7.38792 3.28713 7.28375C3.39161 7.17958 3.51572 7.1275 3.65947 7.1275C3.80322 7.1275 3.92718 7.17958 4.03135 7.28375L6.42713 9.69531Z" fill="#F9F8FD" stroke="#F9F8FD" stroke-width="0.5"/>
</svg>
