<?xml version="1.0" encoding="UTF-8"?>
<svg width="24px" height="24px" viewBox="0 0 24 24" version="1.1" xmlns="http://www.w3.org/2000/svg" xmlns:xlink="http://www.w3.org/1999/xlink">
    <title>Icons/24 Emoji/Symbols</title>
    <g id="Icons" stroke="none" stroke-width="1" fill="none" fill-rule="evenodd">
        <g id="Icons/24-Emoji/Symbols" fill="#000000" fill-rule="nonzero">
            <g id="Group" transform="translate(2.000000, 2.000000)">
                <path d="M15.9627806,13.203068 L15.806,13.351 L15.6530023,13.2053212 C14.9231585,12.5182605 13.9205546,12.2069478 12.9330536,12.3593011 C11.9455526,12.5116544 11.0833949,13.1106657 10.5961033,13.982971 L10.4979137,14.1858502 C10.0194632,15.3031918 10.2486285,16.5666509 11.05907,17.4237671 L14.5223891,20.8579947 C15.2427573,21.5564202 16.3779752,21.5564202 17.0923232,20.8638969 L20.4336884,17.5446536 C21.3991287,16.6491652 21.6500901,15.1905772 21.0280493,14.0011646 L20.9132747,13.80896 C20.3958102,13.018914 19.5898662,12.4995125 18.680745,12.3592848 C17.6931574,12.2069541 16.6904731,12.5182342 15.9627806,13.203068 Z M18.4520812,13.8417533 C18.9408486,13.9171434 19.3741932,14.1964182 19.6447299,14.6090166 L19.7221018,14.7375477 C20.0074236,15.2863391 19.88293,16.0098958 19.3949011,16.4628619 L16.0417108,19.7933224 C15.9156902,19.9154151 15.7050423,19.9154151 15.5724899,19.7869124 L12.2372601,16.4799813 C11.7614079,16.0385652 11.6209189,15.3731734 11.8649318,14.8026067 L11.9283001,14.6705817 C12.1675547,14.2456296 12.6309756,13.9236533 13.16177,13.8417615 C13.6925645,13.7598696 14.231477,13.9272042 14.6225373,14.2953358 L15.2903135,14.9293214 C15.5797407,15.2040991 16.0336585,15.2040991 16.3230857,14.9293214 L16.993169,14.2931547 C17.3431389,13.9638057 17.8147961,13.7953111 18.2927051,13.8246105 L18.4520812,13.8417533 Z" id="Path"></path>
                <path d="M3.52840931,11.4654124 L0.183522691,14.7863449 C-0.782062799,15.6819775 -1.03302426,17.1405654 -0.410983412,18.329978 L-0.296208774,18.5221826 C0.2212557,19.3122286 1.02719967,19.8316301 1.93632087,19.9718578 L2.14807213,19.9974368 C3.06574604,20.0778141 3.97857077,19.7639917 4.65428528,19.1280746 L4.811,18.978 L4.96921399,19.1272262 C5.69757401,19.8128821 6.70017799,20.1241948 7.68767899,19.9718415 C8.67517999,19.8194882 9.53733767,19.220477 10.0246292,18.3481716 L10.1228189,18.1452925 C10.6012693,17.0279508 10.372104,15.7644917 9.5616626,14.9073756 L6.09232325,11.4654124 C5.37797523,10.7728891 4.24275732,10.7728891 3.52840931,11.4654124 Z M5.04824264,12.5423969 L8.38332518,15.8510153 C8.85932468,16.2925775 8.9998137,16.9579692 8.7558008,17.5285359 L8.69243243,17.6605609 C8.45317783,18.085513 7.989757,18.4074893 7.45896253,18.4893812 C6.92816806,18.571273 6.38925553,18.4039384 5.99819522,18.0358068 L5.32526856,17.4004164 C5.03566777,17.1269702 4.58283493,17.1275871 4.2939802,17.4018212 L3.62389687,18.0379879 C3.23504142,18.4039312 2.69595471,18.5712889 2.16498464,18.4893893 C1.67621732,18.4139992 1.24287273,18.1347245 0.972335968,17.722126 L0.894964079,17.5935949 C0.609642328,17.0448035 0.734135905,16.3212468 1.22216478,15.8682808 L4.57887653,12.5361311 C4.70504234,12.4138942 4.91569021,12.4138942 5.04824264,12.5423969 Z" id="Path"></path>
                <path d="M4.81036628,17.195738 C5.19006204,17.195738 5.50385724,17.4778919 5.55351966,17.8439674 L5.56036628,17.945738 L5.56036628,20.6334046 C5.56036628,21.0476182 5.22457984,21.3834046 4.81036628,21.3834046 C4.43067051,21.3834046 4.11687532,21.1012508 4.06721289,20.7351752 L4.06036628,20.6334046 L4.06036628,17.945738 C4.06036628,17.5315244 4.39615271,17.195738 4.81036628,17.195738 Z" id="Path"></path>
                <path d="M15.8103663,-0.75 C14.4435612,-0.75 13.2320663,0.129752794 12.8090686,1.4294562 L12.7546321,1.61589522 C12.6092202,2.17727243 12.6241806,2.75502086 12.7805212,3.29054337 L12.828,3.44 L12.7747444,3.44994276 C12.2020094,3.5660001 11.6604099,3.84111525 11.2194993,4.26341214 C10.2886879,5.15492777 9.99388072,6.52305157 10.474923,7.71879744 C10.9559614,8.91453366 12.1160681,9.69735007 13.4049426,9.69596388 L18.2166163,9.69596388 C19.5054613,9.70185461 20.6708238,8.91942972 21.1545348,7.72107661 C21.6382496,6.52271387 21.3425699,5.15054143 20.4082455,4.25774181 L20.2570782,4.12227242 C19.8445084,3.77572777 19.3583324,3.54718455 18.8477349,3.44492331 L18.793,3.435 L18.8402113,3.29054337 C19.0139232,2.69551836 19.0130915,2.04836258 18.811664,1.4294562 C18.3886662,0.129752794 17.1771713,-0.75 15.8103663,-0.75 Z M15.8103663,0.75 C16.5276006,0.75 17.1633356,1.21165246 17.3853047,1.89367504 C17.5914189,2.52698172 17.3972699,3.21665642 16.9042266,3.64994205 L16.7851877,3.7452374 C16.0819991,4.257179 16.667185,5.32372121 17.444518,5.07042948 L17.5386501,5.0335793 C18.155313,4.7514423 18.8816694,4.87372861 19.3719584,5.34222742 C19.8622475,5.81072623 20.0174061,6.53077711 19.7635755,7.15962093 C19.5097452,7.78846433 18.898207,8.1990513 18.220059,8.19595595 L13.4041163,8.19595595 C12.727289,8.19667573 12.1188293,7.78609949 11.8665342,7.15895957 C11.6142389,6.53181925 11.7688583,5.81427079 12.2570467,5.346692 C12.7076822,4.91508081 13.3588596,4.77661138 13.9406246,4.97737794 L14.0844635,5.03466367 C14.8752842,5.39315078 15.5146714,4.36148183 14.9136865,3.80910266 L14.8355448,3.7452374 C14.2557002,3.32309376 14.0134587,2.57569761 14.2354279,1.89367504 C14.457397,1.21165246 15.0931319,0.75 15.8103663,0.75 Z" id="Path"></path>
                <path d="M15.8103663,8.19590464 C16.190062,8.19590464 16.5038572,8.47805853 16.5535197,8.84413409 L16.5603663,8.94590464 L16.5603663,10.3209046 C16.5603663,10.7351182 16.2245798,11.0709046 15.8103663,11.0709046 C15.4306705,11.0709046 15.1168753,10.7887508 15.0672129,10.4226752 L15.0603663,10.3209046 L15.0603663,8.94590464 C15.0603663,8.53169108 15.3961527,8.19590464 15.8103663,8.19590464 Z" id="Path"></path>
                <path d="M4.24092382,-0.479688887 L0.115923824,4.33281111 C-0.124819573,4.61367841 -0.124819573,5.02813088 0.115923824,5.30899817 L4.24092382,10.1214982 C4.5402455,10.4707068 5.08048705,10.4707068 5.37980873,10.1214982 L9.50480873,5.30899817 C9.74555213,5.02813088 9.74555213,4.61367841 9.50480873,4.33281111 L5.37980873,-0.479688887 C5.08048705,-0.828897513 4.5402455,-0.828897513 4.24092382,-0.479688887 Z M4.81,1.16 L7.947,4.82 L4.809,8.481 L1.672,4.82 L4.81,1.16 Z" id="Path"></path>
            </g>
        </g>
    </g>
</svg>