<?xml version="1.0" encoding="UTF-8"?>
<svg width="24px" height="24px" viewBox="0 0 24 24" version="1.1" xmlns="http://www.w3.org/2000/svg" xmlns:xlink="http://www.w3.org/1999/xlink">
    <title>Icons/24 Extensions/Message Translation@2x</title>
    <g id="Icons" stroke="none" stroke-width="1" fill="none" fill-rule="evenodd">
        <g id="Icons/24-Extensions/Message-Translation" fill="#000000" fill-rule="nonzero">
            <path d="M6.66666667,4.91666667 C7.7672341,4.91666667 8.66848034,5.77006215 8.74476911,6.85121684 L8.75,7 L8.75,9.66666667 C8.75,10.0808802 8.41421356,10.4166667 8,10.4166667 C7.62030423,10.4166667 7.30650904,10.1345128 7.25684662,9.76843722 L7.25,9.66666667 L7.25,7 C7.25,6.6778339 6.98883277,6.41666667 6.66666667,6.41666667 C6.37671717,6.41666667 6.13617677,6.62821212 6.09096818,6.9053803 L6.08333333,7 L6.08333333,9.66666667 C6.08333333,10.0808802 5.7475469,10.4166667 5.33333333,10.4166667 C4.95363757,10.4166667 4.63984237,10.1345128 4.59017995,9.76843722 L4.58333333,9.66666667 L4.58333333,7 C4.58333333,5.84940677 5.51607344,4.91666667 6.66666667,4.91666667 Z" id="Path"></path>
            <path d="M8,7.58333333 C8.41421356,7.58333333 8.75,7.91911977 8.75,8.33333333 C8.75,8.7130291 8.46784612,9.02682429 8.10177056,9.07648672 L8,9.08333333 L5.33333333,9.08333333 C4.91911977,9.08333333 4.58333333,8.7475469 4.58333333,8.33333333 C4.58333333,7.95363757 4.86548721,7.63984237 5.23156278,7.59017995 L5.33333333,7.58333333 L8,7.58333333 Z" id="Path"></path>
            <path d="M16,10.9166667 C16.3796958,10.9166667 16.693491,11.1988205 16.7431534,11.5648961 L16.75,11.6666667 L16.75,13 C16.75,13.4142136 16.4142136,13.75 16,13.75 C15.6203042,13.75 15.306509,13.4678461 15.2568466,13.1017706 L15.25,13 L15.25,11.6666667 C15.25,11.2524531 15.5857864,10.9166667 16,10.9166667 Z" id="Path"></path>
            <path d="M18.6666667,12.25 C19.0808802,12.25 19.4166667,12.5857864 19.4166667,13 C19.4166667,13.3796958 19.1345128,13.693491 18.7684372,13.7431534 L18.6666667,13.75 L13.3333333,13.75 C12.9191198,13.75 12.5833333,13.4142136 12.5833333,13 C12.5833333,12.6203042 12.8654872,12.306509 13.2315628,12.2568466 L13.3333333,12.25 L18.6666667,12.25 Z" id="Path"></path>
            <path d="M16.6218209,12.7628292 C16.7528067,12.3698717 17.1775467,12.1575017 17.5705042,12.2884875 C17.9634616,12.4194734 18.1758316,12.8442133 18.0448458,13.2371708 L17.9816285,13.4141354 L17.8896351,13.6471999 L17.768692,13.9296038 C17.5442054,14.4346986 17.2746722,14.9400735 16.9573711,15.4160251 C15.999232,16.8532338 14.8035437,17.75 13.3333333,17.75 C12.9191198,17.75 12.5833333,17.4142136 12.5833333,17 C12.5833333,16.6203042 12.8654872,16.306509 13.2315628,16.2568466 L13.3333333,16.25 C14.1964563,16.25 15.000768,15.6467662 15.7092956,14.5839749 C15.9753278,14.1849265 16.2057946,13.7528014 16.3979747,13.3203962 L16.4992538,13.0842816 L16.6012322,12.8221175 C16.6092157,12.7998646 16.6160798,12.7800523 16.6218209,12.7628292 Z" id="Path"></path>
            <path d="M15.5822706,14.8366574 C15.9262877,14.6059518 16.3921926,14.697809 16.6228982,15.0418261 C17.0961654,15.7475396 17.8695647,16.1943066 18.717337,16.2517136 C19.1306041,16.279698 19.4429375,16.6374031 19.4149531,17.0506703 C19.3869686,17.4639375 19.0292635,17.7762708 18.6159964,17.7482864 C17.3049794,17.6595107 16.1089745,16.9686186 15.3771018,15.877285 C15.1463962,15.5332678 15.2382534,15.067363 15.5822706,14.8366574 Z" id="Path"></path>
            <path d="M20.6666667,8.91666667 L11.3333333,8.91666667 C10.1827401,8.91666667 9.25,9.84940677 9.25,11 L9.25,17.6666667 L9.25523089,17.8154498 C9.33151966,18.8966045 10.2327659,19.75 11.3333333,19.75 L15.022,19.749 L18.8030032,23.5303301 L18.8802248,23.598293 C19.3582766,23.9666561 20.0833333,23.6330113 20.0833333,23 L20.083,19.749 L20.6666667,19.75 C21.8172599,19.75 22.75,18.8172599 22.75,17.6666667 L22.75,11 C22.75,9.84940677 21.8172599,8.91666667 20.6666667,8.91666667 Z M11.3333333,10.4166667 L20.6666667,10.4166667 C20.9888328,10.4166667 21.25,10.6778339 21.25,11 L21.25,17.6666667 C21.25,17.9888328 20.9888328,18.25 20.6666667,18.25 L19.3333333,18.25 L19.2315628,18.2568466 C18.8654872,18.306509 18.5833333,18.6203042 18.5833333,19 L18.583,21.189 L15.8636634,18.4696699 C15.7230111,18.3290176 15.5322457,18.25 15.3333333,18.25 L11.3333333,18.25 C11.0111672,18.25 10.75,17.9888328 10.75,17.6666667 L10.75,11 C10.75,10.6778339 11.0111672,10.4166667 11.3333333,10.4166667 Z" id="Path"></path>
            <path d="M12.6666667,2.25 C13.7672341,2.25 14.6684803,3.10339548 14.7447691,4.18455017 L14.75,4.33333333 L14.75,7 C14.75,7.41421356 14.4142136,7.75 14,7.75 C13.6203042,7.75 13.306509,7.46784612 13.2568466,7.10177056 L13.25,7 L13.25,4.33333333 C13.25,4.04338384 13.0384545,3.80284343 12.7612864,3.75763485 L12.6666667,3.75 L3.33333333,3.75 C3.04338384,3.75 2.80284343,3.96154546 2.75763485,4.23871364 L2.75,4.33333333 L2.75,11 C2.75,11.2899495 2.96154546,11.5304899 3.23871364,11.5756985 L3.33333333,11.5833333 L4.66666667,11.5833333 C5.04636243,11.5833333 5.36015763,11.8654872 5.40982005,12.2315628 L5.41666667,12.3333333 L5.416,14.523 L6.80300325,13.1363366 C7.06926981,12.87007 7.48593349,12.845864 7.77954499,13.0637184 L7.86366342,13.1363366 C8.12992998,13.4026031 8.15413603,13.8192668 7.93628157,14.1128783 L7.86366342,14.1969968 L5.19699675,16.8636634 C4.74939014,17.31127 4.00077515,17.0344999 3.92321348,16.4359943 L3.91666667,16.3333333 L3.916,13.083 L3.33333333,13.0833333 C2.2327659,13.0833333 1.33151966,12.2299379 1.25523089,11.1487832 L1.25,11 L1.25,4.33333333 C1.25,3.2327659 2.10339548,2.33151966 3.18455017,2.25523089 L3.33333333,2.25 L12.6666667,2.25 Z" id="Path"></path>
        </g>
    </g>
</svg>