<?xml version="1.0" encoding="UTF-8"?>
<svg width="24px" height="24px" viewBox="0 0 24 24" version="1.1" xmlns="http://www.w3.org/2000/svg" xmlns:xlink="http://www.w3.org/1999/xlink">
    <title>Icons/24 Emoji/Travel</title>
    <g id="Icons" stroke="none" stroke-width="1" fill="none" fill-rule="evenodd">
        <g id="Icons/24-Emoji/Travel" fill="#000000" fill-rule="nonzero">
            <g id="Group" transform="translate(2.000000, 1.000000)">
                <path d="M9.63555583,12.6153443 C10.0152516,12.6153443 10.3290468,12.8974981 10.3787092,13.2635737 L10.3855558,13.3653443 L10.3855558,20.5795109 C10.3855558,20.9937245 10.0497694,21.3295109 9.63555583,21.3295109 C9.25586006,21.3295109 8.94206486,21.0473571 8.89240244,20.6812815 L8.88555583,20.5795109 L8.88555583,13.3653443 C8.88555583,12.9511307 9.22134226,12.6153443 9.63555583,12.6153443 Z" id="Path"></path>
                <path d="M1.38555583,12.6153443 C1.76525159,12.6153443 2.07904679,12.8974981 2.12870921,13.2635737 L2.13555583,13.3653443 L2.13555583,20.5795109 C2.13555583,20.9937245 1.79976939,21.3295109 1.38555583,21.3295109 C1.00586006,21.3295109 0.692064865,21.0473571 0.642402441,20.6812815 L0.635555825,20.5795109 L0.635555825,13.3653443 C0.635555825,12.9511307 0.971342263,12.6153443 1.38555583,12.6153443 Z" id="Path"></path>
                <path d="M5.06055583,9.66701093 C5.29759286,9.48923315 5.61364225,9.46948007 5.86823758,9.60775167 L5.96055583,9.66701093 L11.4605558,13.7920109 C11.7919267,14.0405391 11.859084,14.5106401 11.6105558,14.8420109 C11.3846212,15.1432572 10.9755684,15.2261451 10.6540986,15.0520031 L10.5605558,14.9920109 L5.51,11.205 L0.460555825,14.9920109 C0.159309598,15.2179456 -0.256589656,15.1829832 -0.516440932,14.9257954 L-0.589444175,14.8420109 C-0.815378845,14.5407647 -0.78041647,14.1248655 -0.523228622,13.8650142 L-0.439444175,13.7920109 L5.06055583,9.66701093 Z" id="Path"></path>
                <path d="M15.8397354,5.11910074 L15.7148224,5.37733736 L15.6147465,5.59065688 L15.3955097,6.07373521 C15.0665468,6.81390157 14.7378063,7.6193158 14.4307108,8.46382864 C13.9443046,9.80144551 13.5585622,11.1102145 13.3111203,12.3474238 C13.1150443,13.3278039 13.0105558,14.2420781 13.0105558,15.0795109 C13.0105558,17.0125076 14.5775592,18.5795109 16.5105558,18.5795109 C18.4435524,18.5795109 20.0105558,17.0125076 20.0105558,15.0795109 C20.0105558,12.6028287 19.1411293,9.61713244 17.8776404,6.653014 L17.5491525,5.90297573 L17.2161608,5.18944437 C17.2034972,5.16358905 17.1918886,5.14012548 17.1813762,5.11910074 C16.904983,4.56631433 16.1161286,4.56631433 15.8397354,5.11910074 Z M16.511,7.273 L16.6792961,7.67469517 C17.7695325,10.3228139 18.5105558,12.9726969 18.5105558,15.0795109 C18.5105558,16.1840804 17.6151253,17.0795109 16.5105558,17.0795109 C15.4059863,17.0795109 14.5105558,16.1840804 14.5105558,15.0795109 C14.5105558,14.3494438 14.6040673,13.531218 14.7819913,12.641598 C15.0130495,11.4863074 15.378057,10.2478889 15.8404009,8.97644323 C16.017081,8.4905728 16.2014378,8.0176972 16.3888171,7.56376972 L16.511,7.273 Z" id="Path"></path>
                <path d="M16.5105558,17.0795109 C16.8902516,17.0795109 17.2040468,17.3616648 17.2537092,17.7277404 L17.2605558,17.8295109 L17.2605558,20.5795109 C17.2605558,20.9937245 16.9247694,21.3295109 16.5105558,21.3295109 C16.1308601,21.3295109 15.8170649,21.0473571 15.7674024,20.6812815 L15.7605558,20.5795109 L15.7605558,17.8295109 C15.7605558,17.4152974 16.0963423,17.0795109 16.5105558,17.0795109 Z" id="Path"></path>
                <path d="M20.6355558,19.8295109 C21.0497694,19.8295109 21.3855558,20.1652974 21.3855558,20.5795109 C21.3855558,20.9592067 21.1034019,21.2730019 20.7373264,21.3226643 L20.6355558,21.3295109 L0.0105558255,21.3295109 C-0.403657737,21.3295109 -0.739444175,20.9937245 -0.739444175,20.5795109 C-0.739444175,20.1998152 -0.457290293,19.88602 -0.0912147319,19.8363575 L0.0105558255,19.8295109 L20.6355558,19.8295109 Z" id="Path"></path>
                <path d="M5.51055583,15.7045109 C6.63313461,15.7045109 7.55240578,16.5749743 7.63022032,17.6777521 L7.63555583,17.8295109 L7.63555583,20.5795109 C7.63555583,20.9937245 7.29976939,21.3295109 6.88555583,21.3295109 C6.50586006,21.3295109 6.19206486,21.0473571 6.14240244,20.6812815 L6.13555583,20.5795109 L6.13555583,17.8295109 C6.13555583,17.484333 5.85573379,17.2045109 5.51055583,17.2045109 C5.19675767,17.2045109 4.93697269,17.4357688 4.89233243,17.737153 L4.88555583,17.8295109 L4.88555583,20.5795109 C4.88555583,20.9937245 4.54976939,21.3295109 4.13555583,21.3295109 C3.75586006,21.3295109 3.44206486,21.0473571 3.39240244,20.6812815 L3.38555583,20.5795109 L3.38555583,17.8295109 C3.38555583,16.6559058 4.33695073,15.7045109 5.51055583,15.7045109 Z" id="Path"></path>
                <path d="M2.11932958,-0.692320384 C0.336197697,-0.365592266 -0.902348765,1.26860098 -0.734893708,3.07366868 C-0.567439205,4.8787304 0.950582069,6.2571983 2.76338539,6.25038432 L6.89389229,6.2044646 C8.43885668,6.20451093 9.69805583,4.94531179 9.69805583,3.39201093 C9.69805583,1.83871007 8.43885668,0.579510932 6.88555583,0.579510932 L6.68830064,0.590482133 C6.36188794,0.619840843 6.04798019,0.70417188 5.75820729,0.837557048 L5.699,0.867 L5.65175457,0.791958708 C4.89322527,-0.33182676 3.52036177,-0.949035335 2.11932958,-0.692320384 Z M4.6777157,2.21701631 C4.82641094,2.75441631 5.4780205,2.936863 5.88402376,2.5908839 L5.96172788,2.514591 C6.2008359,2.24492437 6.54156391,2.08717992 6.90188483,2.07933315 C7.61042956,2.07951093 8.19805583,2.6671372 8.19805583,3.39201093 C8.19805583,4.11688467 7.61042956,4.70451093 6.88555583,4.70451093 L2.75221936,4.75042483 C1.72182871,4.75427788 0.854381578,3.96657612 0.758693036,2.93510952 C0.663004432,1.90364227 1.37074527,0.969817555 2.38967777,0.783115773 C3.40861028,0.596413991 4.40146928,1.21863316 4.6777157,2.21701631 Z" id="Path"></path>
            </g>
        </g>
    </g>
</svg>