<?xml version="1.0" encoding="UTF-8"?>
<svg width="38px" height="48px" viewBox="0 0 38 48" version="1.1" xmlns="http://www.w3.org/2000/svg" xmlns:xlink="http://www.w3.org/1999/xlink">
    <title>Group</title>
    <defs>
        <filter id="filter-1">
            <feColorMatrix in="SourceGraphic" type="matrix" values="0 0 0 0 1.000000 0 0 0 0 1.000000 0 0 0 0 1.000000 0 0 0 0.710000 0"></feColorMatrix>
        </filter>
    </defs>
    <g id="Symbols-v2" stroke="none" stroke-width="1" fill="none" fill-rule="evenodd" stroke-linecap="round" stroke-linejoin="round">
        <g id="Chat-View/Message-Received-&amp;-Sent/Image-Unsafe" transform="translate(-94.000000, -67.000000)">
            <g id="Container" transform="translate(0.000000, 22.000000)">
                <g transform="translate(65.500000, 47.000000)" id="Group" filter="url(#filter-1)">
                    <g transform="translate(30.000000, 0.000000)">
                        <path d="M28.8088262,9.42577596 C28.8506963,7.71756102 30.2287536,6.35502688 31.9140264,6.35555433 L31.9140264,6.35555433 C32.7358141,6.35553806 33.5236653,6.6878709 34.102944,7.27888759 C34.6822226,7.86990427 35.0050758,8.67078232 35,9.50399817 L35,33.2639936 C35.0072404,36.1086013 33.896766,38.8390036 31.9140264,40.8515477 L31.9140264,40.8515477 C29.9286819,42.8636021 27.2377305,43.9957583 24.4306868,44 L18.393869,44 C14.2477742,44.0048704 10.374426,41.9054223 8.07534666,38.4071037 L0.534146186,26.9279948 C-0.178048729,25.8443886 -0.178048729,24.432935 0.534146186,23.3493288 L0.534146186,23.3493288 C1.0299224,22.6000068 1.81249566,22.0953997 2.69202609,21.9579171 C3.57155651,21.8204345 4.46768176,22.0626382 5.16301604,22.6257734 L10.216199,26.7128837 L10.216199,6.35555433 C10.216199,4.62751705 11.5978094,3.22666604 13.3021122,3.22666604 L13.3021122,3.22666604 C15.009563,3.22663265 16.3967071,4.62435858 16.4073124,6.35555433 L16.4073124,3.14844384 C16.4067922,1.43970153 17.750612,0.0424531456 19.4353648,0 L19.4353648,0 C21.1503195,0 22.540565,1.40960632 22.540565,3.14844384 L22.540565,6.35555433 C22.540565,4.62751705 23.9221754,3.22666604 25.6264782,3.22666604 L25.6264782,3.22666604 C26.4599777,3.20564838 27.2667977,3.525368 27.8653523,4.11386759 C28.4639069,4.70236719 28.8039053,5.51020079 28.8088262,6.35555433 L28.8088262,9.42577596 Z" id="Path" stroke="#000000" stroke-width="3"></path>
                        <line x1="16.4073124" y1="6.27733212" x2="16.4073124" y2="18.8515519" id="Path" stroke="#000000" stroke-width="3"></line>
                        <line x1="22.6177128" y1="6.27733212" x2="22.6177128" y2="18.8515519" id="Path" stroke="#000000" stroke-width="3"></line>
                        <line x1="28.8088262" y1="18.8515519" x2="28.8088262" y2="9.42577596" id="Path" stroke="#000000" stroke-width="3"></line>
                    </g>
                </g>
            </g>
        </g>
    </g>
</svg>