<svg width="33" height="32" viewBox="0 0 33 32" fill="none" xmlns="http://www.w3.org/2000/svg">
<g id="Base_Icon">
<path id="Vector" d="M16.4983 16C15.0498 16 13.8544 15.5289 12.9119 14.5867C11.9693 13.6444 11.4979 12.449 11.4979 11.0003C11.4979 9.55189 11.969 8.35644 12.9113 7.414C13.8535 6.47133 15.0489 6 16.4976 6C17.946 6 19.1415 6.47111 20.0839 7.41333C21.0266 8.35556 21.4979 9.551 21.4979 10.9997C21.4979 12.4481 21.0268 13.6436 20.0846 14.586C19.1424 15.5287 17.9469 16 16.4983 16ZM6.03125 24.2667V23.177C6.03125 22.3774 6.23214 21.6804 6.63392 21.086C7.03592 20.4916 7.56236 20.0393 8.21325 19.7293C9.64747 19.0727 11.0432 18.5768 12.4006 18.2417C13.7581 17.9066 15.1239 17.739 16.4979 17.739C17.8719 17.739 19.2339 17.9084 20.5839 18.2473C21.9339 18.5862 23.3267 19.0829 24.7623 19.7373C25.43 20.0469 25.964 20.4968 26.3643 21.087C26.7645 21.6772 26.9646 22.3738 26.9646 23.1767V24.272C26.9646 24.8484 26.7579 25.3436 26.3446 25.7573C25.931 26.1709 25.434 26.3777 24.8536 26.3777H8.14225C7.56181 26.3777 7.06481 26.171 6.65125 25.7577C6.23792 25.3443 6.03125 24.8473 6.03125 24.2667ZM8.14225 24.2667H24.8536V23.1807C24.8536 22.856 24.7609 22.5512 24.5756 22.2663C24.3905 21.9814 24.1627 21.7686 23.8923 21.6277C22.5478 20.9797 21.2895 20.5213 20.1173 20.2527C18.9448 19.9842 17.7394 19.85 16.5009 19.85C15.2545 19.85 14.0405 19.9842 12.8589 20.2527C11.6776 20.5213 10.422 20.9797 9.09225 21.6277C8.81447 21.7686 8.58669 21.982 8.40892 22.268C8.23114 22.554 8.14225 22.859 8.14225 23.183V24.2667ZM16.4979 13.889C17.3201 13.889 18.0071 13.613 18.5589 13.061C19.1109 12.5092 19.3869 11.8222 19.3869 11C19.3869 10.1778 19.1109 9.49078 18.5589 8.939C18.0071 8.387 17.3201 8.111 16.4979 8.111C15.6757 8.111 14.9887 8.387 14.4369 8.939C13.8849 9.49078 13.6089 10.1778 13.6089 11C13.6089 11.8222 13.8849 12.5092 14.4369 13.061C14.9887 13.613 15.6757 13.889 16.4979 13.889Z" fill="#A1A1A1"/>
</g>
</svg>
