<svg width="24" height="24" viewBox="0 0 24 24" fill="none" xmlns="http://www.w3.org/2000/svg">
<path d="M5.74327 17.4348C6.73343 16.7376 7.73335 16.2016 8.74302 15.8266C9.75268 15.4516 10.8381 15.2641 11.9993 15.2641C13.1604 15.2641 14.2473 15.4516 15.2598 15.8266C16.2723 16.2016 17.2785 16.7376 18.2785 17.4348C18.9757 16.5931 19.4784 15.726 19.7868 14.8333C20.0951 13.9406 20.2493 12.9956 20.2493 11.9983C20.2493 9.66715 19.4569 7.70915 17.8723 6.12431C16.2874 4.53965 14.3298 3.74731 11.9993 3.74731C9.66877 3.74731 7.7111 4.53965 6.12627 6.12431C4.5416 7.70915 3.74927 9.66715 3.74927 11.9983C3.74927 12.9956 3.90618 13.9406 4.22002 14.8333C4.53402 15.726 5.04177 16.5931 5.74327 17.4348ZM11.998 12.7973C11.0377 12.7973 10.2283 12.4677 9.57002 11.8086C8.91168 11.1494 8.58252 10.3396 8.58252 9.37931C8.58252 8.41915 8.9121 7.6099 9.57127 6.95156C10.2304 6.29323 11.0402 5.96406 12.0005 5.96406C12.9608 5.96406 13.7702 6.29365 14.4285 6.95281C15.0869 7.61198 15.416 8.42165 15.416 9.38181C15.416 10.3421 15.0864 11.1515 14.4273 11.8098C13.7681 12.4681 12.9584 12.7973 11.998 12.7973ZM12.003 21.8306C10.652 21.8306 9.37802 21.5715 8.18102 21.0533C6.98385 20.535 5.9411 19.8308 5.05277 18.9408C4.16427 18.0506 3.46102 17.0091 2.94302 15.8163C2.42502 14.6236 2.16602 13.3491 2.16602 11.9928C2.16602 10.6418 2.4251 9.36915 2.94327 8.17481C3.4616 6.98048 4.16577 5.93915 5.05577 5.05081C5.94593 4.16231 6.98743 3.45906 8.18027 2.94106C9.37293 2.42306 10.6474 2.16406 12.0038 2.16406C13.3548 2.16406 14.6274 2.42315 15.8218 2.94131C17.0161 3.45965 18.0574 4.16381 18.9458 5.05381C19.8343 5.94398 20.5375 6.98581 21.0555 8.17931C21.5735 9.37265 21.8325 10.6441 21.8325 11.9936C21.8325 13.3446 21.5734 14.6186 21.0553 15.8156C20.5369 17.0127 19.8328 18.0555 18.9428 18.9438C18.0526 19.8323 17.0108 20.5356 15.8173 21.0536C14.6239 21.5716 13.3525 21.8306 12.003 21.8306ZM11.9988 20.2473C12.8936 20.2473 13.7556 20.1181 14.5848 19.8598C15.4139 19.6015 16.2299 19.1696 17.0325 18.5641C16.2299 18.0057 15.4113 17.58 14.5768 17.2868C13.7423 16.9938 12.8836 16.8473 12.0008 16.8473C11.1179 16.8473 10.2567 16.9917 9.41702 17.2806C8.57735 17.5696 7.76035 17.9974 6.96602 18.5641C7.76868 19.1696 8.58443 19.6015 9.41327 19.8598C10.2421 20.1181 11.1039 20.2473 11.9988 20.2473ZM11.9993 11.2141C12.5298 11.2141 12.9679 11.0411 13.3138 10.6953C13.6596 10.3495 13.8325 9.91123 13.8325 9.38056C13.8325 8.85006 13.6596 8.4119 13.3138 8.06606C12.9679 7.72023 12.5298 7.54731 11.9993 7.54731C11.4688 7.54731 11.0306 7.72023 10.6848 8.06606C10.3389 8.4119 10.166 8.85006 10.166 9.38056C10.166 9.91123 10.3389 10.3495 10.6848 10.6953C11.0306 11.0411 11.4688 11.2141 11.9993 11.2141Z" fill="#A1A1A1"/>
</svg>
