<svg width="25" height="24" viewBox="0 0 25 24" fill="none" xmlns="http://www.w3.org/2000/svg">
<path d="M14.6205 20.5862L14.6305 20.5932C15.4946 21.1433 16.5205 21.3822 17.5387 21.2704C18.5569 21.1586 19.5065 20.7027 20.2305 19.9782L20.8595 19.3492C20.9989 19.2099 21.1095 19.0445 21.1849 18.8624C21.2604 18.6804 21.2992 18.4852 21.2992 18.2882C21.2992 18.0911 21.2604 17.896 21.1849 17.7139C21.1095 17.5319 20.9989 17.3665 20.8595 17.2272L18.2065 14.5762C18.0672 14.4368 17.9018 14.3262 17.7198 14.2508C17.5377 14.1753 17.3426 14.1365 17.1455 14.1365C16.9485 14.1365 16.7533 14.1753 16.5713 14.2508C16.3892 14.3262 16.2238 14.4368 16.0845 14.5762C15.8032 14.8574 15.4218 15.0154 15.024 15.0154C14.6263 15.0154 14.2448 14.8574 13.9635 14.5762L9.72153 10.3332C9.44033 10.0519 9.28235 9.67043 9.28235 9.27268C9.28235 8.87493 9.44033 8.49347 9.72153 8.21218V8.21218C9.86092 8.07288 9.9715 7.90748 10.0469 7.72543C10.1224 7.54338 10.1612 7.34824 10.1612 7.15118C10.1612 6.95412 10.1224 6.75898 10.0469 6.57693C9.9715 6.39488 9.86092 6.22948 9.72153 6.09018L7.06953 3.43918C6.78824 3.15797 6.40678 3 6.00903 3C5.61129 3 5.22982 3.15797 4.94853 3.43918L4.31853 4.06818C3.59412 4.79236 3.13845 5.74201 3.02681 6.76021C2.91518 7.77842 3.15425 8.80424 3.70453 9.66818L3.71053 9.67818C6.61671 13.978 10.3202 17.6808 14.6205 20.5862V20.5862Z" stroke="#808080" stroke-width="1.5" stroke-linecap="round" stroke-linejoin="round"/>
</svg>
