<svg xmlns="http://www.w3.org/2000/svg" width="20" height="15" viewBox="0 0 20 15"><g><g><path fill="#39f" d="M16.357 10h-4.714c-.352 0-.643.34-.643.75s.291.75.643.75h4.714c.352 0 .643-.34.643-.75s-.291-.75-.643-.75zm0-3h-4.714c-.352 0-.643.34-.643.75s.291.75.643.75h4.714c.352 0 .643-.34.643-.75S16.709 7 16.357 7zm0-3h-4.714c-.352 0-.643.34-.643.75s.291.75.643.75h4.714c.352 0 .643-.34.643-.75S16.709 4 16.357 4zM18 12a1 1 0 0 1-1 1h-7V2h7a1 1 0 0 1 1 1zM3 0a3 3 0 0 0-3 3v9a3 3 0 0 0 3 3h14a3 3 0 0 0 3-3V3a3 3 0 0 0-3-3z"/></g></g></svg>