<?xml version="1.0" encoding="UTF-8"?>
<svg width="24px" height="24px" viewBox="0 0 24 24" version="1.1" xmlns="http://www.w3.org/2000/svg" xmlns:xlink="http://www.w3.org/1999/xlink">
    <title>Icons/24 Emoji/Activity</title>
    <g id="Icons" stroke="none" stroke-width="1" fill="none" fill-rule="evenodd">
        <g id="Icons/24-Emoji/Activity" fill="#000000" fill-rule="nonzero">
            <g id="Group" transform="translate(2.000000, 2.000000)">
                <path d="M10.3125,-0.75 C4.20284995,-0.75 -0.75,4.20284995 -0.75,10.3125 C-0.75,16.42215 4.20284995,21.375 10.3125,21.375 C16.42215,21.375 21.375,16.42215 21.375,10.3125 C21.375,7.37854258 20.20949,4.56475242 18.1348688,2.49013123 C16.0602476,0.415510047 13.2464574,-0.75 10.3125,-0.75 Z M10.3125,0.75 C12.8486327,0.75 15.280892,1.75747479 17.0742086,3.5507914 C18.8675252,5.34410802 19.875,7.77636732 19.875,10.3125 C19.875,15.5937229 15.5937229,19.875 10.3125,19.875 C5.03127708,19.875 0.75,15.5937229 0.75,10.3125 C0.75,5.03127708 5.03127708,0.75 10.3125,0.75 Z" id="Path"></path>
                <path d="M9.87147193,5.31320805 L5.27438859,8.65537471 C5.01189314,8.84621388 4.90192054,9.18423429 5.00187496,9.49299401 L6.75270829,14.9013273 C6.8528727,15.2107357 7.14103245,15.4203333 7.46625,15.4203333 L13.15875,15.4203333 C13.4839675,15.4203333 13.7721273,15.2107357 13.8722917,14.9013273 L15.623125,9.49299401 C15.7230795,9.18423429 15.6131069,8.84621388 15.3506114,8.65537471 L10.7535281,5.31320805 C10.4905827,5.12204176 10.1344173,5.12204176 9.87147193,5.31320805 Z M10.312,6.847 L14.028,9.548 L12.613,13.92 L8.011,13.92 L6.596,9.548 L10.312,6.847 Z" id="Path"></path>
                <path d="M13.8358935,0.158167021 C14.1793684,-0.0733451208 14.6454875,0.0174186242 14.8769996,0.360893519 C15.0874652,0.673143424 15.0315871,1.08675217 14.7616303,1.33331168 L14.6742731,1.40199965 L10.7316898,4.05941631 C10.5099918,4.20884728 10.2283667,4.22752615 9.99168688,4.11545293 L9.89331019,4.05941631 L5.95072685,1.40199965 C5.60725196,1.1704875 5.51648821,0.704368414 5.74800035,0.360893519 C5.95846594,0.0486436147 6.36282156,-0.0547540998 6.69265915,0.102965392 L6.78910648,0.158167021 L10.312,2.533 L13.8358935,0.158167021 Z" id="Path"></path>
                <path d="M19.0188291,14.9171897 C19.4282435,14.8543189 19.8111062,15.135248 19.873977,15.5446624 C19.9316085,15.9199589 19.7003527,16.2729447 19.3460565,16.377596 L19.2465042,16.3998103 L15.156,17.027 L13.3684301,20.6781358 C13.2013796,21.0191094 12.8099434,21.176767 12.4593515,21.0603066 L12.3649475,21.0216801 C12.0239739,20.8546296 11.8663163,20.4631934 11.9827767,20.1126015 L12.0214032,20.0181975 L13.9821532,16.0160309 C14.0747247,15.8270795 14.2415313,15.6872092 14.4400966,15.6276387 L14.5418291,15.6046897 L19.0188291,14.9171897 Z" id="Path"></path>
                <path d="M18.2369597,2.83992135 C18.6123499,2.8969397 18.8802161,3.22301623 18.8743424,3.59239838 L18.8658286,3.69404305 L18.249,7.754 L21.1212435,10.6143356 C21.3880545,10.8800566 21.4131133,11.2966698 21.1958603,11.5907266 L21.1234144,11.6749935 C20.8576934,11.9418045 20.4410802,11.9668633 20.1470234,11.7496103 L20.0627565,11.6771644 L16.9213398,8.54858111 C16.776222,8.40405612 16.6975753,8.20767517 16.7006626,8.0057503 L16.709088,7.90454029 L17.382838,3.46879029 C17.4398564,3.09340011 17.7659329,2.82553385 18.135315,2.8314076 L18.2369597,2.83992135 Z" id="Path"></path>
                <path d="M10.3125,2.6875 C10.6921958,2.6875 11.005991,2.96965388 11.0556534,3.33572944 L11.0625,3.4375 L11.0625,5.91983333 C11.0625,6.3340469 10.7267136,6.66983333 10.3125,6.66983333 C9.93280423,6.66983333 9.61900904,6.38767945 9.56934662,6.02160389 L9.5625,5.91983333 L9.5625,3.4375 C9.5625,3.02328644 9.89828644,2.6875 10.3125,2.6875 Z" id="Path"></path>
                <path d="M17.1206268,7.34364706 C17.4926014,7.16141708 17.941873,7.31523549 18.1241029,7.68721009 C18.2911471,8.02818682 18.1758172,8.43411447 17.8689204,8.63976468 L17.7805399,8.69068627 L15.2395399,9.93551961 C14.8675653,10.1177496 14.4182937,9.96393118 14.2360637,9.59195657 C14.0690196,9.25097985 14.1843494,8.84505219 14.4912463,8.63940199 L14.5796268,8.58848039 L17.1206268,7.34364706 Z" id="Path"></path>
                <path d="M2.38804029,2.83992135 C2.76343046,2.78290301 3.11603798,3.01473523 3.22011027,3.36920191 L3.24216198,3.46879029 L3.91591198,7.90454029 C3.94666782,8.10702667 3.89314597,8.31168782 3.77060916,8.47221169 L3.70366017,8.54858111 L0.562243506,11.6771644 C0.268751413,11.9694576 -0.206121326,11.9684856 -0.498414444,11.6749935 C-0.76413546,11.4081825 -0.787488641,10.9914702 -0.56903368,10.6983052 L-0.496243506,10.6143356 L2.375,7.754 L1.75917135,3.69404305 C1.70215301,3.31865287 1.93398523,2.96604536 2.28845191,2.86197307 L2.38804029,2.83992135 Z" id="Path"></path>
                <path d="M2.50089706,7.68721009 C2.66794121,7.34623337 3.05937449,7.18856845 3.40996851,7.30502235 L3.50437324,7.34364706 L6.04537324,8.58848039 C6.41734785,8.77071038 6.57116626,9.21998197 6.38893627,9.59195657 C6.22189212,9.9329333 5.83045884,10.0905982 5.47986483,9.97414432 L5.38546009,9.93551961 L2.84446009,8.69068627 C2.47248549,8.50845629 2.31866708,8.0591847 2.50089706,7.68721009 Z" id="Path"></path>
                <path d="M12.6590923,14.1110104 C12.9399155,13.8601437 13.357281,13.8594145 13.6381727,14.0934405 L13.7180729,14.1706756 L15.2149896,15.8463423 C15.4909429,16.1552478 15.4642299,16.6293696 15.1553244,16.9053229 C14.8745012,17.1561896 14.4571356,17.1569188 14.176244,16.9228928 L14.0963437,16.8456577 L12.5994271,15.1699911 C12.3234737,14.8610855 12.3501867,14.3869638 12.6590923,14.1110104 Z" id="Path"></path>
                <path d="M1.60617091,14.9171897 L6.08317091,15.6046897 C6.29114243,15.6366263 6.47443481,15.754066 6.59057144,15.9257898 L6.64284678,16.0160309 L8.60359678,20.0181975 C8.78583371,20.3901687 8.63202368,20.8394432 8.26005247,21.0216801 C7.91907887,21.1887306 7.51314906,21.0734084 7.30749313,20.7665154 L7.25656988,20.6781358 L5.468,17.027 L1.37849575,16.3998103 C1.00319923,16.3421788 0.735866022,16.0156651 0.742343208,15.646293 L0.751023004,15.5446624 C0.808654534,15.1693659 1.13516823,14.9020327 1.50454029,14.9085099 L1.60617091,14.9171897 Z" id="Path"></path>
                <path d="M6.90692707,14.1706756 C7.18288042,13.8617701 7.65700221,13.8350571 7.96590774,14.1110104 C8.24673095,14.3618771 8.2943372,14.7765193 8.09334419,15.0819209 L8.02557293,15.1699911 L6.52865627,16.8456577 C6.25270292,17.1545633 5.77858112,17.1812763 5.46967559,16.9053229 C5.18885239,16.6544563 5.14124613,16.239814 5.34223914,15.9344125 L5.4100104,15.8463423 L6.90692707,14.1706756 Z" id="Path"></path>
            </g>
        </g>
    </g>
</svg>