<?xml version="1.0" encoding="UTF-8"?>
<svg width="24px" height="24px" viewBox="0 0 24 24" version="1.1" xmlns="http://www.w3.org/2000/svg" xmlns:xlink="http://www.w3.org/1999/xlink">
    <title>Icons/24 Emoji/Food</title>
    <g id="Icons" stroke="none" stroke-width="1" fill="none" fill-rule="evenodd">
        <g id="Icons/24-Emoji/Food" fill="#000001" fill-rule="nonzero">
            <g id="Group" transform="translate(2.000000, 2.000000)">
                <path d="M6.26081031,5.06079387 L6.05008078,5.25485649 C5.13804905,6.07779806 4.40413987,7.07873841 3.89355108,8.19603576 C3.38296391,9.31332958 3.10651161,10.5233273 3.08121157,11.751529 C3.05592076,12.9796687 3.2823325,14.2000667 3.74647688,15.3373529 C4.2106271,16.474729 4.90269562,17.5050318 5.78008032,18.3648364 L7.55202905,20.0263157 C7.84933547,20.3050449 8.31480833,20.2953601 8.60026381,20.0045058 L19.7469305,8.64702417 C19.9313149,8.46392641 20.0829001,8.23819112 20.1863603,7.98951005 C20.2897828,7.74091939 20.3429892,7.47431068 20.3429892,7.20501851 C20.3429892,6.93572633 20.2897828,6.66911762 20.1863603,6.42052696 C20.0829001,6.17184589 19.9313149,5.9461106 19.7402485,5.75629004 L18.9858943,5.03893651 C15.377551,1.58662448 10.0922057,1.62500619 6.26081031,5.06079387 Z M17.9506723,6.12443628 L18.6949174,6.83193383 C18.7337331,6.87075319 18.7739513,6.93064468 18.8014347,6.99670505 C18.8288622,7.06263098 18.8429892,7.13341877 18.8429892,7.20501851 C18.8429892,7.27661824 18.8288622,7.34740603 18.8014347,7.41333196 L18.7697909,7.47721074 C18.7459778,7.51825866 18.7168431,7.55606367 18.6830631,7.58962338 L8.042,18.43 L6.81797678,17.2820179 C6.09879876,16.5769932 5.52207649,15.7184098 5.13527803,14.7705802 C4.74849451,13.8228502 4.55981814,12.8058522 4.58089353,11.7824165 C4.60197698,10.7589106 4.83235459,9.75057613 5.25784392,8.81949792 C5.63605835,7.99186914 6.16131472,7.24085477 6.80715974,6.60253201 L7.06789863,6.35655344 C10.3450384,3.25676065 14.8586226,3.16609676 17.9506723,6.12443628 Z" id="Path"></path>
                <path d="M12.7071405,-0.74864612 C13.6540803,-0.774157955 14.5751175,-0.43838074 15.3045603,0.210841894 C15.7932732,0.681756455 16.1257121,1.29076512 16.2571458,1.95611121 C16.3884544,2.62143575 16.3122655,3.31093823 16.0388887,3.93176543 C15.87196,4.3108534 15.4293261,4.48284251 15.0502381,4.31591385 C14.7027408,4.1628959 14.529264,3.77820894 14.631342,3.4231628 L14.6660897,3.32726325 C14.8156789,2.98755239 14.8573495,2.61043727 14.7855579,2.24667777 C14.7136304,1.88256529 14.5315841,1.54906715 14.285875,1.31146513 C13.8636614,0.936153442 13.3134431,0.735563549 12.7475412,0.750809709 C12.181721,0.766056201 11.6431393,0.995988759 11.2344918,1.4007153 C10.9636151,1.66166077 10.7675316,1.98977795 10.6664185,2.35116915 C10.5264543,2.85141982 9.93261908,3.06134266 9.50935743,2.76019435 C9.08328236,2.4570443 8.56392587,2.31222288 8.04163252,2.35102378 C7.51945078,2.38981945 7.02751483,2.60971661 6.64832646,2.97524633 C6.33886141,3.2702505 6.128481,3.65128158 6.04304609,4.06628628 L6.01415624,4.24607369 C5.9632171,4.68462304 5.5463653,4.98451309 5.11437295,4.89339263 C4.74599339,4.81569005 4.36411585,4.82914683 4.0021882,4.93258044 C3.64038765,5.03597772 3.30959883,5.2261181 3.01856952,5.50499337 C2.65223243,5.83195382 2.42619012,6.28654108 2.38701828,6.77466025 C2.35275005,7.2016813 2.46377786,7.6259474 2.69933408,7.98036209 L2.80785039,8.12778186 C3.1531199,8.55260639 2.94166194,9.19222539 2.41121149,9.32753701 C2.02938942,9.4249353 1.6787772,9.61753531 1.37795962,9.90036638 C1.180235,10.07698 1.02217344,10.2930235 0.913973909,10.5345228 C0.805880732,10.7757192 0.75,11.0370318 0.75,11.3012168 C0.75,11.565456 0.805865388,11.8266803 0.914004971,12.0679802 C1.00053975,12.2611242 1.1190061,12.4380208 1.26416625,12.5914799 L1.37795962,12.7020673 C1.63110649,12.9281858 1.69769397,13.2918375 1.55304191,13.5890889 L1.49696702,13.6854337 C1.25291048,14.0415092 1.14321016,14.4720029 1.18717045,14.9008299 C1.23113999,15.3296823 1.42603179,15.7293374 1.72711894,16.0192228 C2.034424,16.3038315 2.42265288,16.4839813 2.83599751,16.5365054 L3.01452021,16.5511343 C3.47385511,16.5682059 3.80174073,16.9871323 3.72630549,17.4258119 L3.70386844,17.5199778 C3.60699921,17.836693 3.59978632,18.1740089 3.6830285,18.494544 C3.76632442,18.8153257 3.93695887,19.107056 4.14851866,19.312169 C4.53457925,19.6485371 5.02311956,19.845798 5.5353423,19.8720354 C5.98373952,19.8949433 6.4274306,19.7857484 6.81179399,19.5602963 L6.94,19.477 L7.5867141,18.8663242 C7.86048885,18.6077837 8.27767447,18.5955072 8.56493357,18.8216719 L8.64694017,18.8966668 C8.9054806,19.1704415 8.91775713,19.5876271 8.6915924,19.8748862 L8.61659757,19.9568928 L7.91994007,20.6147845 L7.83726706,20.682398 C7.14417328,21.1712279 6.30647498,21.4133876 5.45870918,21.3700765 C4.61105051,21.3266572 3.80252078,21.0001924 3.13548641,20.4177722 C2.69703547,19.9953818 2.38405209,19.4602804 2.23118218,18.8715616 C2.15472374,18.5771482 2.11980723,18.2750205 2.1262485,17.9737718 L2.129,17.916 L2.06690648,17.8999431 C1.63516194,17.7679754 1.22959672,17.5524838 0.872119657,17.2616158 L0.697489902,17.1099382 C0.130378203,16.5642812 -0.224823091,15.835887 -0.305008291,15.053809 C-0.361141513,14.5062365 -0.27993925,13.9572206 -0.0735965036,13.4544957 L-0.036,13.372 L-0.098298633,13.2948906 C-0.191431892,13.1675865 -0.275643023,13.0337892 -0.350244117,12.8944359 L-0.454852242,12.6813561 C-0.649426899,12.2471871 -0.75,11.7769114 -0.75,11.3012168 C-0.75,10.8255831 -0.649414278,10.3552184 -0.454883304,9.92114691 C-0.260395,9.48705279 0.0236481552,9.09881368 0.364249624,8.79492193 C0.541034304,8.62850062 0.732642896,8.47992708 0.936210939,8.35077153 L1.141,8.229 L1.10456507,8.13977342 C0.951148225,7.73775767 0.874412571,7.30790416 0.881350806,6.87264636 L0.891825122,6.65467096 C0.961865372,5.78190148 1.36579715,4.96956577 1.99958625,4.40457659 C2.44695873,3.97481307 2.99301687,3.66093396 3.5900118,3.49032158 C3.93107463,3.39285083 4.28284299,3.34383267 4.63505605,3.34362711 L4.688,3.345 L4.74078742,3.19535709 C4.90298768,2.77499351 5.14350946,2.3872438 5.45101905,2.05425722 L5.61030368,1.89243007 C6.23851512,1.2868202 7.05944491,0.91986159 7.93050018,0.855146243 C8.4847843,0.813968767 9.03714981,0.896817085 9.54884202,1.09290782 L9.578,1.105 L9.59813374,1.06992467 C9.72000724,0.865479339 9.8617507,0.673682895 10.0211365,0.49797733 L10.1863205,0.327762873 C10.8585514,-0.338187737 11.7602209,-0.72313059 12.7071405,-0.74864612 Z" id="Path"></path>
                <path d="M8.6300225,14.5045835 C8.02596727,14.5045835 7.5362725,14.0148887 7.5362725,13.4108335 C7.5362725,12.8470486 7.96285106,12.3828844 8.51084747,12.3235016 L8.6300225,12.3170835 L8.6300225,13.0045835 C8.8543944,13.0045835 9.0362725,13.1864616 9.0362725,13.4108335 C9.0362725,13.6352054 8.8543944,13.8170835 8.6300225,13.8170835 L8.6300225,14.5045835 Z" id="Path"></path>
                <path d="M8.2237725,13.4108335 C8.2237725,13.1864616 8.4056506,13.0045835 8.6300225,13.0045835 L8.6300225,12.3170835 C9.23407773,12.3170835 9.7237725,12.8067783 9.7237725,13.4108335 C9.7237725,13.9746184 9.29719394,14.4387826 8.74919753,14.4981655 L8.6300225,14.5045835 L8.6300225,13.8170835 C8.4056506,13.8170835 8.2237725,13.6352054 8.2237725,13.4108335 Z" id="Path"></path>
                <path d="M7.94255917,11.0854168 C7.33849484,11.0854168 6.84880917,10.5957221 6.84880917,9.99166684 C6.84880917,9.42788189 7.2753798,8.96371774 7.82338255,8.90433489 L7.94255917,8.89791684 L7.94255917,9.58541684 C8.16692815,9.58541684 8.34880917,9.7673012 8.34880917,9.99166684 C8.34880917,10.2160325 8.16692815,10.3979168 7.94255917,10.3979168 L7.94255917,11.0854168 Z" id="Path"></path>
                <path d="M7.5362725,9.99166684 C7.5362725,9.76730164 7.7181439,9.58541684 7.94255917,9.58541684 L7.94255917,8.89791684 C8.54659577,8.89791684 9.0362725,9.38762965 9.0362725,9.99166684 C9.0362725,10.5554349 8.60970966,11.0196137 8.06173048,11.0789986 L7.94255917,11.0854168 L7.94255917,10.3979168 C7.7181439,10.3979168 7.5362725,10.216032 7.5362725,9.99166684 Z" id="Path"></path>
                <path d="M11.3800225,11.7454168 C10.7759673,11.7454168 10.2862725,11.2557221 10.2862725,10.6516668 C10.2862725,10.087882 10.7128511,9.62371774 11.2608475,9.56433489 L11.3800225,9.55791684 L11.3800225,10.2454168 C11.6043944,10.2454168 11.7862725,10.4272949 11.7862725,10.6516668 C11.7862725,10.8760387 11.6043944,11.0579168 11.3800225,11.0579168 L11.3800225,11.7454168 Z" id="Path"></path>
                <path d="M10.9737725,10.6516668 C10.9737725,10.4272949 11.1556506,10.2454168 11.3800225,10.2454168 L11.3800225,9.55791684 C11.9840777,9.55791684 12.4737725,10.0476116 12.4737725,10.6516668 C12.4737725,11.2154517 12.0471939,11.6796159 11.4991975,11.7389988 L11.3800225,11.7454168 L11.3800225,11.0579168 C11.1556506,11.0579168 10.9737725,10.8760387 10.9737725,10.6516668 Z" id="Path"></path>
                <g transform="translate(10.062314, 6.783324)" id="Path">
                    <path d="M0.630208333,1.55208333 C0.0261530309,1.55208333 -0.463541667,1.06239766 -0.463541667,0.458333333 C-0.463541667,-0.105451547 -0.0369631106,-0.569615762 0.511033304,-0.628998613 L0.630208333,-0.635416667 L0.630208333,0.0520833333 C0.854573971,0.0520833333 1.03645833,0.233964346 1.03645833,0.458333333 C1.03645833,0.682705229 0.854580229,0.864583333 0.630208333,0.864583333 L0.630208333,1.55208333 Z"></path>
                    <path d="M0.223958333,0.458333333 C0.223958333,0.233964346 0.405842696,0.0520833333 0.630208333,0.0520833333 L0.630208333,-0.635416667 C1.23426356,-0.635416667 1.72395833,-0.145721896 1.72395833,0.458333333 C1.72395833,1.0221267 1.29737984,1.48628356 0.749383376,1.54566539 L0.630208333,1.55208333 L0.630208333,0.864583333 C0.405836438,0.864583333 0.223958333,0.682705229 0.223958333,0.458333333 Z"></path>
                </g>
                <g transform="translate(13.495231, 7.447917)" id="Path">
                    <path d="M0.630208333,1.55208333 C0.0261530309,1.55208333 -0.463541667,1.06239766 -0.463541667,0.458333333 C-0.463541667,-0.105460034 -0.0369631746,-0.569616893 0.511033291,-0.628998726 L0.630208333,-0.635416667 L0.630208333,0.0520833333 C0.854573971,0.0520833333 1.03645833,0.233964346 1.03645833,0.458333333 C1.03645833,0.682702321 0.854573971,0.864583333 0.630208333,0.864583333 L0.630208333,1.55208333 Z"></path>
                    <path d="M0.223958333,0.458333333 C0.223958333,0.233964346 0.405842696,0.0520833333 0.630208333,0.0520833333 L0.630208333,-0.635416667 C1.23426364,-0.635416667 1.72395833,-0.145730989 1.72395833,0.458333333 C1.72395833,1.0221267 1.29737984,1.48628356 0.749383376,1.54566539 L0.630208333,1.55208333 L0.630208333,0.864583333 C0.405842696,0.864583333 0.223958333,0.682702321 0.223958333,0.458333333 Z"></path>
                </g>
            </g>
        </g>
    </g>
</svg>