<svg width="24" height="24" viewBox="0 0 24 24" fill="none" xmlns="http://www.w3.org/2000/svg">
<path d="M7.20001 12.9792L9.16001 15.7608C9.23436 15.8719 9.33415 15.9636 9.45109 16.0283C9.56803 16.093 9.69872 16.1288 9.83231 16.1328C9.96589 16.1368 10.0985 16.1088 10.2191 16.0512C10.3397 15.9936 10.4448 15.908 10.5256 15.8016L16.8 7.86322" stroke="#808080" stroke-width="1.5" stroke-linecap="round" stroke-linejoin="round"/>
<path d="M3 7C3 4.79086 4.79086 3 7 3H17C19.2091 3 21 4.79086 21 7V17C21 19.2091 19.2091 21 17 21H7C4.79086 21 3 19.2091 3 17V7Z" stroke="#808080" stroke-width="1.5" stroke-linecap="round" stroke-linejoin="round"/>
</svg>
