<svg width="24" height="24" viewBox="0 0 24 24" fill="none" xmlns="http://www.w3.org/2000/svg">
<path d="M12.6162 13.899L9.20288 14.371L9.69024 11.0707L18.4682 2.58576C18.8562 2.21071 19.3824 2 19.9311 2C20.4799 2 21.0061 2.21071 21.3941 2.58576C21.7821 2.96082 22.0001 3.46951 22.0001 3.99992C22.0001 4.53033 21.7821 5.03902 21.3941 5.41408L12.6162 13.899Z" stroke="#808080" stroke-width="1.5" stroke-linecap="round" stroke-linejoin="round"/>
<path d="M18.5517 14.0004V20.6667C18.5517 21.0203 18.4064 21.3595 18.1477 21.6095C17.8891 21.8595 17.5382 22 17.1724 22H3.37931C3.01349 22 2.66266 21.8595 2.40399 21.6095C2.14532 21.3595 2 21.0203 2 20.6667V7.33399C2 6.98038 2.14532 6.64126 2.40399 6.39122C2.66266 6.14119 3.01349 6.00072 3.37931 6.00072H10.2759" stroke="#808080" stroke-width="1.5" stroke-linecap="round" stroke-linejoin="round"/>
</svg>
