<svg width="24" height="24" viewBox="0 0 24 24" fill="none" xmlns="http://www.w3.org/2000/svg">
<path fill-rule="evenodd" clip-rule="evenodd" d="M3 12C3 14.3869 3.94821 16.6761 5.63604 18.364C7.32387 20.0518 9.61305 21 12 21C14.3869 21 16.6761 20.0518 18.364 18.364C20.0518 16.6761 21 14.3869 21 12C21 9.61305 20.0518 7.32387 18.364 5.63604C16.6761 3.94821 14.3869 3 12 3C9.61305 3 7.32387 3.94821 5.63604 5.63604C3.94821 7.32387 3 9.61305 3 12ZM11.4167 15.027C11.5894 14.9116 11.7924 14.85 12.0001 14.85C12.2785 14.85 12.5456 14.9606 12.7425 15.1575C12.9394 15.3545 13.0501 15.6215 13.0501 15.9C13.0501 16.1077 12.9885 16.3107 12.8731 16.4834C12.7577 16.656 12.5937 16.7906 12.4019 16.8701C12.21 16.9496 11.9989 16.9703 11.7952 16.9298C11.5916 16.8893 11.4045 16.7893 11.2576 16.6425C11.1108 16.4956 11.0108 16.3085 10.9702 16.1048C10.9297 15.9012 10.9505 15.6901 11.03 15.4982C11.1095 15.3063 11.2441 15.1423 11.4167 15.027ZM12.1723 16.3158C12.1994 16.3045 12.2255 16.2906 12.2501 16.2742C12.2995 16.2412 12.3416 16.1989 12.3742 16.15C12.3905 16.1256 12.4045 16.0996 12.4158 16.0722C12.4385 16.0174 12.4501 15.9588 12.4501 15.9C12.4501 15.8707 12.4472 15.8413 12.4414 15.8122C12.4241 15.7249 12.3812 15.6447 12.3183 15.5818C12.2553 15.5189 12.1751 15.476 12.0879 15.4587C12.0588 15.4529 12.0294 15.45 12.0001 15.45C11.9413 15.45 11.8827 15.4615 11.8279 15.4843C11.8005 15.4956 11.7745 15.5095 11.7501 15.5258C11.7012 15.5585 11.6589 15.6006 11.6259 15.65C11.6095 15.6746 11.5956 15.7007 11.5843 15.7278C11.5618 15.7821 11.5501 15.8406 11.5501 15.9C11.5501 15.9297 11.553 15.9591 11.5587 15.9878C11.576 16.0744 11.6185 16.1548 11.6819 16.2182C11.7453 16.2816 11.8256 16.3241 11.9123 16.3414C11.941 16.3471 11.9704 16.35 12.0001 16.35C12.0595 16.35 12.1179 16.3383 12.1723 16.3158ZM12.75 6.60001C12.75 6.18579 12.4142 5.85001 12 5.85001C11.5858 5.85001 11.25 6.18579 11.25 6.60001V13.2C11.25 13.6142 11.5858 13.95 12 13.95C12.4142 13.95 12.75 13.6142 12.75 13.2V6.60001Z" fill="white"/>
</svg>
