<svg width="24" height="24" viewBox="0 0 24 24" fill="none" xmlns="http://www.w3.org/2000/svg">
<g clip-path="url(#clip0)">
<path d="M0.75 7.261C0.75 6.15643 1.64543 5.261 2.75 5.261H13.75C14.8546 5.261 15.75 6.15643 15.75 7.261V16.761C15.75 17.8656 14.8546 18.761 13.75 18.761H2.75C1.64543 18.761 0.75 17.8656 0.75 16.761V7.261Z" stroke="#808080" stroke-width="1.5" stroke-linecap="round" stroke-linejoin="round"/>
<path d="M23.4545 15.382C23.4545 16.1254 22.6722 16.6089 22.0073 16.2764L18.5528 14.5491C18.214 14.3797 18 14.0335 18 13.6547V10.3453C18 9.96655 18.214 9.62029 18.5528 9.45089L22.0073 7.72362C22.6722 7.39117 23.4545 7.87467 23.4545 8.61805V15.382Z" stroke="#808080" stroke-width="1.5" stroke-linecap="round" stroke-linejoin="round"/>
</g>
<defs>
<clipPath id="clip0">
<rect width="24" height="24" fill="white"/>
</clipPath>
</defs>
</svg>
