<svg xmlns="http://www.w3.org/2000/svg" width="14" height="14" viewBox="0 0 14 14"><g><g><path fill="#141414" fill-opacity=".4" d="M5.338 9.028a3.69 3.69 0 0 1-3.695-3.693 3.69 3.69 0 0 1 3.695-3.693 3.69 3.69 0 0 1 3.696 3.693 3.69 3.69 0 0 1-3.696 3.693zm4.928 0h-.65l-.23-.221a5.333 5.333 0 0 0 1.216-4.383C10.216 2.143 8.312.321 6.012.042a5.34 5.34 0 0 0-5.97 5.966c.279 2.298 2.102 4.202 4.385 4.588a5.34 5.34 0 0 0 4.385-1.215l.222.23v.649l3.49 3.488a.868.868 0 0 0 1.223 0 .867.867 0 0 0 0-1.223z"/></g></g></svg>