<svg
   xmlns="http://www.w3.org/2000/svg"
   width="64"
   height="64"
   viewBox="0 0 64 64">
  
  <path
   fill="currentcolor"
     d="m 16.179357,36.987036 c -0.425155,-0.425154 -0.424253,-1.784899 0.0021,-3.220705 0.590666,-1.988987 3.098889,-3.879087 6.84162,-5.155579 5.693674,-1.941879 15.439679,-1.648325 20.012877,0.602797 1.588641,0.781995 3.516633,2.573137 4.189558,3.892178 0.503465,0.986873 0.778899,2.793434 0.559298,3.668397 l -0.135966,0.541737 -3.545938,0 c -4.262773,0 -4.086672,0.128121 -3.930399,-2.85954 0.06774,-1.295114 0.02396,-2.012137 -0.13031,-2.133869 -0.127784,-0.100836 -1.22105,-0.453976 -2.429481,-0.784756 -2.017549,-0.552258 -2.487927,-0.601525 -5.754433,-0.602722 -3.248554,-0.0012 -3.761594,0.05142 -5.911372,0.60621 l -2.354086,0.607513 0,2.254757 c 0,1.770777 -0.07059,2.325339 -0.328825,2.583582 -0.485518,0.485518 -6.59916,0.485518 -7.084678,0 z"
     id="path3508"
     inkscape:connector-curvature="0" />
  
</svg>
