<?xml version="1.0" encoding="UTF-8" standalone="no"?>
<svg
   
   xmlns="http://www.w3.org/2000/svg"
   width="48"
   height="48"
   viewBox="0 0 48 48"
   version="0.0"
   >
  <g
     id="g4603"
     transform="matrix(0.57407408,0,0,0.57407408,7.430555,7.902778)"
     fill="currentcolor"
     >
    <g
       id="g4627"
       transform="matrix(0.83902184,0,0,0.83902184,4.939757,3.192439)">
      <path
         id="path4561"
         d="M 58,37.104 58,37 58,26 58,15 58,4 C 58,3.447 57.552,3 57,3 L 47,3 11,3 1,3 C 0.448,3 0,3.447 0,4 l 0,11 0,11 0,11 0,11 c 0,0.553 0.448,1 1,1 l 10,0 24.003,0 c 1.963,4.693 6.6,8 11.997,8 7.168,0 13,-5.832 13,-13 0,-2.535 -0.74,-4.895 -2,-6.896 z M 48,31.039 48,27 l 8,0 0,7.622 C 55.83,34.458 55.646,34.311 55.468,34.157 55.38,34.082 55.297,34.002 55.207,33.929 54.972,33.737 54.727,33.559 54.479,33.384 54.387,33.319 54.298,33.249 54.204,33.186 53.959,33.023 53.706,32.874 53.45,32.728 53.341,32.665 53.236,32.598 53.125,32.539 52.889,32.413 52.646,32.302 52.403,32.19 52.364,32.172 52.326,32.152 52.287,32.134 52.185,32.088 52.085,32.038 51.982,31.995 51.795,31.917 51.604,31.853 51.414,31.784 51.333,31.755 51.253,31.725 51.171,31.697 51.043,31.654 50.918,31.604 50.789,31.565 50.65,31.523 50.508,31.491 50.367,31.453 50.24,31.419 50.112,31.388 49.984,31.358 49.841,31.324 49.702,31.283 49.557,31.254 49.462,31.235 49.366,31.224 49.271,31.207 49.086,31.174 48.898,31.15 48.711,31.125 48.571,31.107 48.435,31.079 48.294,31.065 48.238,31.06 48.182,31.059 48.126,31.054 48.084,31.051 48.042,31.042 48,31.039 Z M 56,25 l -8,0 0,-9 8,0 0,9 z m 0,-20 0,9 -8,0 0,-9 8,0 z m -46,20 -8,0 0,-9 8,0 0,9 z m -8,2 8,0 0,9 -8,0 0,-9 z m 0,-22 8,0 0,9 -8,0 0,-9 z m 0,42 0,-9 8,0 0,9 -8,0 z M 34.359,47 12,47 12,37 12,26 12,15 12,5 l 34,0 0,10 0,11 0,5.051 C 39.299,31.564 34,37.17 34,44 c 0,0.493 0.033,0.977 0.087,1.456 0.009,0.075 0.024,0.149 0.034,0.224 0.056,0.428 0.131,0.849 0.227,1.262 0.005,0.019 0.006,0.039 0.011,0.058 z M 47,55 c -4.787,0 -8.859,-3.08 -10.367,-7.358 -0.094,-0.267 -0.176,-0.536 -0.249,-0.806 -0.015,-0.058 -0.03,-0.115 -0.045,-0.173 -0.06,-0.238 -0.112,-0.476 -0.156,-0.716 -0.024,-0.133 -0.042,-0.267 -0.061,-0.401 -0.026,-0.18 -0.054,-0.36 -0.071,-0.54 C 36.021,44.674 36,44.339 36,44 c 0,-6.065 4.935,-11 11,-11 0.426,0 0.848,0.031 1.265,0.079 0.084,0.01 0.166,0.027 0.25,0.038 0.26,0.037 0.517,0.086 0.773,0.141 0.071,0.015 0.144,0.024 0.215,0.041 0.078,0.018 0.155,0.04 0.233,0.06 0.334,0.087 0.665,0.187 0.989,0.305 0.058,0.021 0.117,0.042 0.175,0.064 0.369,0.141 0.731,0.299 1.083,0.479 0.01,0.005 0.02,0.009 0.03,0.014 0.36,0.185 0.709,0.394 1.047,0.618 0.023,0.015 0.047,0.028 0.07,0.043 0.313,0.21 0.611,0.443 0.901,0.685 0.049,0.041 0.102,0.079 0.15,0.121 0.26,0.224 0.504,0.468 0.743,0.717 0.066,0.069 0.135,0.135 0.2,0.206 0.009,0.01 0.018,0.02 0.027,0.03 0.208,0.23 0.402,0.476 0.591,0.725 0.134,0.176 0.277,0.344 0.401,0.53 C 57.315,39.643 58,41.743 58,44 58,50.065 53.065,55 47,55 Z"
         inkscape:connector-curvature="0" />
      <path
         id="path4563"
         d="m 53.999543,43.983818 c -0.0013,-0.552956 -0.449297,-0.99877 -1.002253,-0.997439 l -4.999939,0.01133 -0.01275,-4.999936 c -0.0013,-0.552955 -0.449298,-0.99877 -1.002254,-0.997438 -0.552956,0.0013 -0.99877,0.449297 -0.997439,1.002253 l 0.01275,4.999936 -4.999939,0.01133 c -0.552956,0.0013 -0.99877,0.449297 -0.997439,1.002253 6.64e-4,0.275771 0.11299,0.525817 0.294444,0.7064 0.181455,0.180583 0.432039,0.291703 0.70781,0.291039 l 4.999939,-0.01133 0.01274,4.999936 c 6.64e-4,0.275771 0.112989,0.525817 0.294444,0.7064 0.181454,0.180583 0.432038,0.291703 0.707809,0.291039 0.552956,-0.0013 0.99877,-0.449298 0.997439,-1.002254 l -0.01275,-4.999936 4.999939,-0.01133 c 0.552248,-0.002 0.998767,-0.450712 0.997439,-1.002254 z"
         inkscape:connector-curvature="0" />
      <path
         id="path4565"
         d="m 37,26 c 0,-0.342 -0.175,-0.66 -0.463,-0.844 l -11,-7 C 25.229,17.961 24.839,17.948 24.518,18.123 24.199,18.299 24,18.635 24,19 l 0,14 c 0,0.365 0.199,0.701 0.519,0.877 C 24.669,33.959 24.834,34 25,34 c 0.187,0 0.374,-0.053 0.537,-0.156 l 11,-7 C 36.825,26.66 37,26.342 37,26 Z M 26,31.179 26,20.821 34.137,26 26,31.179 Z"
         inkscape:connector-curvature="0" />
      <g
         id="g4567" />
      <g
         id="g4569" />
      <g
         id="g4571" />
      <g
         id="g4573" />
      <g
         id="g4575" />
      <g
         id="g4577" />
      <g
         id="g4579" />
      <g
         id="g4581" />
      <g
         id="g4583" />
      <g
         id="g4585" />
      <g
         id="g4587" />
      <g
         id="g4589" />
      <g
         id="g4591" />
      <g
         id="g4593" />
      <g
         id="g4595" />
    </g>
  </g>
</svg>
