<?xml version="1.0" encoding="UTF-8"?>
<svg style="     height: inherit;     width: inherit; " viewBox="0 0 512 512" version="1.1" xmlns="http://www.w3.org/2000/svg" xmlns:xlink="http://www.w3.org/1999/xlink" stroke="currentcolor" stroke-width="1" fill="none" fill-rule="evenodd">

      <path d="M163.23571,118.207504 L212.553763,188.939077 C216.545203,194.66357 217.166175,202.086956 214.181267,208.395026 L206.673501,222.88945 L199.165734,235.773381 L195.411851,249.730974 L199.165734,264.225397 L206.673501,281.403973 L219.007688,296.972057 L261.90921,340.992157 L275.852205,353.339258 L286.577586,360.318055 L296.766697,364.612699 L306.955808,364.612699 L317.681189,360.318055 L331.087915,353.339258 L343.422102,347.970953 L356.292559,347.970953 L429.511153,403.695426 C432.585809,406.035455 433.953392,409.993722 432.979029,413.732688 L432.979029,413.732688 C431.914417,417.817976 430.155406,421.689834 427.778851,425.179098 L427.348205,425.811374 C424.679817,429.729108 421.479718,433.256845 417.839804,436.293282 L413.673345,439.768967 L408.335222,443.628314 C405.460778,445.706475 402.477801,447.63023 399.398939,449.391421 L396.52803,451.033659 C394.016428,452.470362 391.443654,453.797379 388.81697,455.010964 L381.173866,458.542244 C379.602126,459.268422 378.011791,459.953659 376.40447,460.59726 L371.383229,462.60786 C367.436826,464.188074 363.224924,465 358.973904,465 L358.973904,465 C354.715519,465 350.488894,464.267169 346.479069,462.833589 L341.068044,460.899057 C338.705614,460.054448 336.375805,459.121233 334.083563,458.101393 L330.283511,456.410712 C325.471179,454.269659 320.904296,451.614859 316.662387,448.492543 L306.609053,441.092646 C305.410322,440.210303 304.23144,439.301307 303.073289,438.366336 L271.599184,412.957418 C271.57443,412.937434 271.549666,412.917463 271.524893,412.897502 L251.973315,397.144391 C250.374833,395.85646 248.816386,394.519614 247.300192,393.135755 L231.800815,378.989174 C231.494859,378.709922 231.19064,378.428771 230.888177,378.145738 L208.448906,357.147935 C207.265477,356.040529 206.109146,354.904515 204.980938,353.740902 L191.61357,339.954042 C189.856235,338.14156 188.168167,336.26318 186.552992,334.322941 L174.137377,319.408605 C173.304906,318.408594 172.492033,317.392431 171.69922,316.360696 L159.890826,300.993712 C157.83192,298.314331 155.910144,295.532313 154.132895,292.658367 L142.857487,274.425176 L132.627609,257.202369 C131.582495,255.442837 130.59164,253.651636 129.656445,251.831298 L123.759265,240.352552 C122.191943,237.301792 120.782612,234.172417 119.536861,230.976836 L115.662453,221.03827 C113.774638,216.195681 112.26724,211.213281 111.153959,206.13636 L110.320872,202.33721 C108.778139,195.301847 108,188.120401 108,180.917876 L108,161.959189 C108,157.221944 109.322663,152.578789 111.819023,148.552664 L112.948088,146.731712 C116.045634,141.735996 120.217598,137.493395 125.160609,134.312419 L131.635678,130.145516 C132.324117,129.702485 133.01797,129.267925 133.717081,128.841933 L144.954129,121.99483 C144.986418,121.975155 145.018718,121.955499 145.05103,121.93586 L154.669717,116.089829 C157.605401,114.305583 161.43166,115.239008 163.215905,118.174692 C163.22254,118.185609 163.229142,118.196546 163.23571,118.207504 Z" id="Path-8" stroke="currentcolor" stroke-width="28"></path>
</svg>