<svg width="inherit" height="inherit" viewBox="-60 -60 512 512" version="1.1" xmlns="http://www.w3.org/2000/svg" xmlns:xlink="http://www.w3.org/1999/xlink">
    <g id="Page-1" stroke="currentcolor" stroke-width="1" fill="currentcolor" fill-rule="evenodd">
        <g id="Artboard" transform="translate(-76.000000, -94.000000)">
            <g id="Group" transform="translate(79.000000, 94.000000)">
                <path d="M217.67112,8.76859209 L183.5,45.2936056 L98.9810129,45.2936056 L92.5767613,45.2936056 C88.9805239,45.2936056 85.3938118,45.6632809 81.8731771,46.3968028 L81.8731771,46.3968028 C78.3613287,47.1284941 74.9724088,48.3595041 71.8096852,50.0523214 L70.0391186,51 C65.7001479,53.3223921 61.699671,56.2280702 58.149194,59.6360439 L50.9381574,66.5576554 L46.6668439,72.6027545 C43.9109903,76.5030554 41.8719937,80.8631102 40.6454132,85.4785816 L39.8212779,88.5797013 C39.1345865,91.1636364 38.5517983,93.7740715 38.0743183,96.4047138 L37.3249123,100.533514 C36.349608,105.906884 35.8589981,111.357008 35.8589981,116.818173 L35.8589981,262.049166 C35.8589981,269.009843 36.9801915,275.925081 39.1794991,282.529177 L40.051539,285.147744 C41.6772329,290.029389 43.9177555,294.684223 46.7190787,299 L47.5085203,300.21623 C49.7926814,303.735256 52.2960316,307.107052 55.0037296,310.311628 L56.2190787,311.75 C59.7053923,315.876072 63.971875,319.27339 68.7738889,321.747155 L71.1788435,322.986071 C75.7082145,325.319383 80.5136581,327.072415 85.4815273,328.203709 L85.4815273,328.203709 C90.4535516,329.335948 95.5368034,329.907417 100.636116,329.907417 L237.249269,329.907417 C242.984644,329.907417 248.688639,329.061223 254.177001,327.396168 L255.548962,326.979943 C260.117481,325.593949 264.408282,323.419341 268.227296,320.554472 L268.227296,320.554472 C272.065127,317.675489 275.589585,314.400926 278.742534,310.784796 L284.920814,303.698904 L291.06842,294.853545 C291.478377,294.263687 291.881966,293.669429 292.279117,293.070874 L295.093429,288.829367 C297.350047,285.428373 299.006032,281.665206 299.989227,277.70384 L300.452218,275.838419 C301.746555,270.623441 302.40095,265.270236 302.40095,259.897033 L302.40095,198.089672 L337.47633,160.908187 L337.47633,282.488787 C337.47633,287.334172 336.704363,292.148615 335.189454,296.751094 L334.953436,297.468147 C333.587666,301.617526 331.951473,305.672954 330.055373,309.608367 L328.950748,311.901048 C327.562993,314.781377 326.037901,317.593494 324.380727,320.327709 L321.356087,325.318144 C319.503086,328.37546 317.487469,331.331209 315.317917,334.172659 L313.554322,336.482429 C310.674176,340.25454 307.428112,343.73263 303.863502,346.865938 L301.566102,348.885363 C299.525206,350.67932 297.412037,352.389347 295.231859,354.011186 L291.71215,356.629503 C287.212977,359.976446 282.212188,362.589819 276.895563,364.372534 L275.682803,364.779184 C269.562463,366.831392 263.156646,367.90506 256.701645,367.960582 L95.578069,369.346467 C89.9813137,369.394607 84.3903961,368.972791 78.8642188,368.085463 L73.2425951,367.182809 C68.634373,366.442876 64.0923739,365.337236 59.6596455,363.876369 L59.1780761,363.717661 C55.0847224,362.36864 51.2284465,360.385557 47.75,357.840795 L47.4135583,357.594661 C44.1408825,355.200437 41.0168636,352.609371 38.058806,349.835815 L35.47407,347.412295 C31.7423102,343.913295 28.3120519,340.106038 25.2197067,336.030939 L21.6747038,331.359326 C20.9402549,330.391467 20.2235059,329.410304 19.5248137,328.416325 L15.6909219,322.962123 C12.9033819,318.99649 10.5020795,314.772982 8.51990815,310.349452 L6.72225141,306.337695 C5.93412604,304.578868 5.19701307,302.797624 4.51183621,300.996196 L2.89720379,296.751094 C1.15008785,292.157673 0.254591295,287.284342 0.254591295,282.369881 L0.254591295,89.7658999 C0.254591295,84.4476061 1.14788932,79.1670861 2.89720379,74.1447213 L3.88811197,71.2997769 C4.98855491,68.140353 6.24685629,65.0381439 7.6582687,62.0048538 L9.90017533,57.1867347 C11.8525348,52.9908863 14.1269539,48.9525618 16.7030262,45.1079939 L16.7030262,45.1079939 C19.2717646,41.2743712 22.3345451,37.7960092 25.8122539,34.7627565 L30.0048763,31.1059569 C33.9017545,27.7071052 38.0563874,24.6156259 42.431396,21.8593328 L43.3985778,21.25 C48.4110585,18.092094 53.7418298,15.4702361 59.3028918,13.4277075 L64.901337,11.3714485 L66.369092,11.0442764 C73.1546862,9.53172369 80.0858106,8.76859209 87.03794,8.76859209 L217.67112,8.76859209 Z" id="Path" stroke="#000000" stroke-width="5"></path>
                <polygon id="Path-2" points="126.5 198 126.5 254.5 181 249.5 317 98 266 44.5"></polygon>
                <path d="M284.47648,26.5229792 L336,80.5 L359,57.5 L362,52 L363,47 L363.210046,44.0593628 C363.40255,41.3642932 363.247936,38.6556578 362.75,36 L362.75,36 C362.261423,33.3942553 360.996932,30.9969323 359.122284,29.1222839 L334.25,4.25 L329.5,1.5 L323.5,0.5 L323.036102,0.5 C320.013588,0.5 316.992628,0.63703381 313.982527,0.910679353 L313,1 L313,1 C309.446206,1.32307215 306.118149,2.88185065 303.594875,5.40512484 L284.5,24.5 L284.5,24.5 C283.943994,25.0560062 283.933551,25.9541965 284.47648,26.5229792 Z" id="Path-3"></path>
            </g>
        </g>
    </g>
</svg>