<?xml version="1.0" encoding="UTF-8"?>
<svg style="     height: inherit;     width: inherit; " viewBox="0 28 500 256" version="1.1" xmlns="http://www.w3.org/2000/svg" xmlns:xlink="http://www.w3.org/1999/xlink">

   <g id="Video" transform="translate(-11.000000, -138.000000)" stroke="currentcolor" stroke-width="1" fill="none" fill-rule="evenodd">
            <g id="Group" transform="translate(30.000000, 157.000000)">
                <rect id="Rectangle" stroke-width="38" x="0" y="0" width="325" height="254" rx="25"></rect>
                <path d="M374,92.6003049 L374,160.493061 C374,163.431812 374.869874,166.304811 376.5,168.75 L376.5,168.75 C378.161054,171.241581 380.105671,173.53196 382.294822,175.575167 L382.75,176 C385.241993,178.32586 387.989234,180.362188 390.939266,182.070101 L395.552378,184.74085 C395.850791,184.913616 396.150095,185.084836 396.450279,185.254506 L405.288133,190.249815 C406.762473,191.083137 408.257744,191.878872 409.7725,192.63625 L420.656276,198.078138 C421.218746,198.359373 421.778551,198.645908 422.335616,198.937703 L432,204 L436.595308,206.62589 C440.519767,208.868438 444.679879,210.670732 449,212 L449,212 C453.309112,213.325881 457.792254,214 462.300735,214 L464.5,214 L464.5,40.5 L460.960082,40.5 C457.337705,40.5 453.733003,41.0048563 450.25,42 L450.25,42 C446.757526,42.9978498 443.365117,44.3174413 440.116354,45.9418231 L435.931594,48.034203 C435.310548,48.3447259 434.692753,48.6617087 434.07831,48.9850999 L425.5,53.5 L418.563787,57.3534514 C417.188121,58.1177107 415.830687,58.9143369 414.492619,59.7426643 L406,65 L401.169859,67.6565773 C397.727053,69.5501208 394.413206,71.6692166 391.25,74 L390.020681,74.9058137 C387.674874,76.6343034 385.248601,78.2508394 382.75,79.75 L382.515982,79.8904106 C380.192681,81.2843911 378.151957,83.1024557 376.5,85.25 L376.5,85.25 C374.878933,87.357387 374,89.9415574 374,92.6003049 Z" id="Path-7" stroke-width="35"></path>
            </g>
        </g>
</svg>