<svg
   xmlns="http://www.w3.org/2000/svg"
   width="42"
   height="42"
   viewBox="0 0 42 42">
  
  <path
   fill="currentcolor"
     d="m 11.42957,24.261287 c -0.195902,-0.279393 0.02086,-1.18054 0.513411,-2.134465 0.682343,-1.321449 2.53743,-2.588046 5.060076,-3.454866 3.837602,-1.318661 9.831317,-1.178413 12.307759,0.287989 0.860269,0.5094 1.770401,1.685699 1.977731,2.556116 0.15512,0.651223 0.03858,1.846949 -0.236652,2.428035 l -0.170409,0.359781 -2.197706,0.01976 c -2.641987,0.02375 -2.553216,0.107678 -1.981305,-1.8732 0.247914,-0.858686 0.334791,-1.333633 0.258534,-1.413449 -0.06316,-0.06612 -0.6846,-0.29406 -1.380967,-0.506545 -1.162628,-0.354756 -1.446326,-0.384787 -3.470654,-0.36738 -2.013203,0.0173 -2.339543,0.05504 -3.76015,0.434687 l -1.555616,0.415732 -0.358519,1.494291 c -0.281563,1.173544 -0.413492,1.541462 -0.614604,1.714045 -0.378116,0.32447 -4.167237,0.358534 -4.390952,0.03948 z"
     id="path3508"
     inkscape:connector-curvature="0" />
  
</svg>
