<svg
   xmlns="http://www.w3.org/2000/svg"
   width="42"
   height="42"
   viewBox="0 0 42 42" >
  
  <path
      fill="currentcolor"
     d="m 30.904771,29.501926 c -0.103462,0.419183 -1.143018,0.962029 -2.462279,1.285813 -1.827567,0.4485 -4.578271,-0.266851 -7.503028,-1.951249 -4.449321,-2.562407 -9.300913,-8.394161 -9.962476,-11.97518 -0.229815,-1.243977 0.134795,-3.090198 0.792303,-4.011867 0.491929,-0.689569 1.729009,-1.572998 2.512007,-1.793886 l 0.484797,-0.136763 1.846797,2.079115 c 2.22014,2.499422 2.22633,2.344968 -0.13816,3.447254 -1.024975,0.477829 -1.550105,0.790032 -1.562783,0.929132 -0.01051,0.11522 0.28903,0.897363 0.665632,1.738096 0.628759,1.403655 0.836092,1.699144 2.536442,3.614895 1.690996,1.905228 1.998409,2.185014 3.542015,3.223807 l 1.690303,1.137516 1.723031,-0.901035 c 1.353186,-0.70763 1.813734,-0.887852 2.145571,-0.839637 0.623889,0.09066 3.808,3.675313 3.689847,4.15401 z"
     id="path3508"
     inkscape:connector-curvature="0" />
  
</svg>
