<?xml version="1.0" encoding="UTF-8" standalone="no"?>
<!-- Created with Inkscape (http://www.inkscape.org/) -->

<svg
   
   xmlns="http://www.w3.org/2000/svg"
   width="48"
   height="48"
   viewBox="1 1 48 48"
   >

   <g
      id="g3417"
      transform="matrix(0.07425579,0,0,0.07425579,10.071752,10.322013)" fill="currentcolor">
      <g
         id="g3337">
      <g
         id="g3339"
         transform="translate(5.8765197,1.8364127)">
         <path
            id="path3341"
            d="m 239.68,0 -196.985,0 0,368.553 283.164,0 0,-281.742 L 239.68,0 Z m 4.377,25.7 56.288,56.701 -56.288,0 0,-56.701 z M 57.695,353.553 57.695,15 l 171.362,0 0,82.401 81.802,0 0,256.151 -253.164,0 0,10e-4 z"
            inkscape:connector-curvature="0" />
         <rect
            id="rect3343"
            height="15"
            width="121.875"
            y="82.401001"
            x="86.434998" />
         <rect
            id="rect3345"
            height="15"
            width="195.685"
            y="151.12199"
            x="86.434998" />
         <rect
            id="rect3347"
            height="15"
            width="195.685"
            y="219.843"
            x="86.434998" />
         <rect
            id="rect3349"
            height="15"
            width="195.685"
            y="288.56299"
            x="86.434998" />
      </g>
      
      </g>
      
   </g>
      
  

</svg>
