<svg
   xmlns="http://www.w3.org/2000/svg"
   width="64"
   height="64"
   viewBox="0 0 64 64"
>

  <path
      fill="currentcolor"
     d="m 47.875217,45.359004 c -0.16554,0.670692 -1.828829,1.539246 -3.939647,2.0573 -2.924108,0.7176 -7.325234,-0.426962 -12.004845,-3.121998 -7.118913,-4.099852 -14.881461,-13.430659 -15.939961,-19.160289 -0.367703,-1.990363 0.215673,-4.944317 1.267684,-6.418988 0.787087,-1.103312 2.766414,-2.516795 4.019212,-2.870217 l 0.775674,-0.218823 2.954875,3.326586 c 3.552225,3.999075 3.562128,3.751949 -0.221055,5.515607 -1.63996,0.764526 -2.480169,1.264051 -2.500453,1.486612 -0.01681,0.184352 0.462448,1.43578 1.065011,2.780953 1.006014,2.245848 1.337748,2.718629 4.058307,5.783832 2.705594,3.048364 3.197455,3.496023 5.667224,5.158091 l 2.704485,1.820026 2.756851,-1.441656 c 2.165097,-1.132208 2.901974,-1.420563 3.432913,-1.343419 0.998222,0.145052 6.0928,5.880501 5.903755,6.646416 z"
     id="path3508"
     inkscape:connector-curvature="0" />
</svg>
