<?xml version="1.0" encoding="UTF-8"?>
<svg width="390px" height="371px" viewBox="0 0 390 371" version="1.1" xmlns="http://www.w3.org/2000/svg" xmlns:xlink="http://www.w3.org/1999/xlink">
    <!-- Generator: Sketch 52.1 (67048) - http://www.bohemiancoding.com/sketch -->
    <title>Path 4</title>
    <desc>Created with Sketch.</desc>
    <g id="Page-1" stroke="none" stroke-width="1" fill="none" fill-rule="evenodd">
        <g id="Chat" transform="translate(-66.000000, -99.000000)" stroke="#000000" stroke-width="40">
            <path d="M114.354122,119 L406.308794,119 C408.731689,119 411.116711,119.601306 413.25,120.75 L413.25,120.75 C415.414505,121.915503 417.503217,123.216584 419.503658,124.64547 L420.894782,125.63913 C422.62331,126.873793 424.173026,128.341282 425.5,130 L425.5,130 C426.832706,131.665883 428.092526,133.388789 429.275907,135.163861 L431.037782,137.806673 C431.345922,138.268883 431.650205,138.733653 431.9506,139.200933 L433.75,142 C435.218976,144.285074 436,146.944314 436,149.660829 L436,362.295837 C436,363.985248 435.155675,365.562883 433.75,366.5 L433.75,366.5 C432.256168,367.495888 430.896225,368.679246 429.703452,370.021117 L426.178136,373.987097 C424.404551,375.98238 422.317861,377.675508 420,379 L420,379 C417.669785,380.331552 415.245336,381.490956 412.74604,382.468941 L405,385.5 L129.973163,385.5 C125.343135,385.5 120.731853,386.088038 116.25,387.25 L114.807457,387.623993 C111.324902,388.526877 108.124651,390.28939 105.5,392.75 L105.259949,392.975048 C102.756188,395.322324 100.414185,397.836388 98.25,400.5 L95.554189,403.817921 C95.1847368,404.272632 94.8112956,404.724086 94.4339088,405.172233 L87,414 L91.4859585,146.337812 C91.4953193,145.779281 91.5,145.22068 91.5,144.66207 L91.5,141.973111 C91.5,139.698532 92.1039057,137.464733 93.25,135.5 L93.25,135.5 C94.4149302,133.502977 95.7322126,131.598815 97.1901182,129.80447 L98.4390265,128.267352 C100.469193,125.768685 102.847031,123.573916 105.5,121.75 L105.5,121.75 C108.105283,119.958868 111.192532,119 114.354122,119 Z" id="Path-4"></path>
        </g>
    </g>
</svg>