<?xml version="1.0" encoding="UTF-8" standalone="no"?>
<svg
   xmlns="http://www.w3.org/2000/svg"
   width="48"
   height="48"
   viewBox="0 0 48 48"
   version="0.0">
  <g
     id="g4296"
     transform="matrix(0.05938816,0,0,0.05938816,9.9743898,8.363266)" fill="currentcolor">
    <g
       id="g4252"
       transform="matrix(1.0117289,0,0,1.0117289,-17.941262,13.805637)">
      <g
         id="g4254">
        <path
           id="path4256"
           d="m 391.3,203.4 c 0,-0.8 0,-1.6 0,-2.4 -0.1,-7.5 -6.3,-13.4 -13.7,-13.3 -7.5,0.1 -13.4,6.3 -13.3,13.7 0,0.7 0,1.3 0,2 0,69.3 -56.4,125.8 -125.8,125.8 -69.4,0 -125.8,-56.4 -125.8,-125.8 0,-1 0,-1.9 0,-2.9 0.2,-7.5 -5.7,-13.6 -13.2,-13.8 -7.4,-0.1 -13.6,5.7 -13.8,13.2 0,1.2 0,2.3 0,3.5 0,79.7 61.3,145.3 139.3,152.2 l 0,94.4 -55.5,0 c -7.5,0 -13.5,6 -13.5,13.5 0,7.5 6,13.5 13.5,13.5 l 138,0 C 315,477 321,471 321,463.5 321,456 315,450 307.5,450 l -55.5,0 0,-94.5 c 77.9,-6.8 139.3,-72.4 139.3,-152.1 z"
           inkscape:connector-curvature="0" />
        <path
           id="path4258"
           d="m 237,295 c 49.9,0 90.5,-40.6 90.5,-90.5 l 0,-114 C 327.5,40.6 286.9,0 237,0 187.1,0 146.5,40.6 146.5,90.5 l 0,114 c 0,49.9 40.6,90.5 90.5,90.5 z M 173.5,90.5 C 173.5,55.5 202,27 237,27 c 35,0 63.5,28.5 63.5,63.5 l 0,114 c 0,35 -28.5,63.5 -63.5,63.5 -35,0 -63.5,-28.5 -63.5,-63.5 l 0,-114 z"
           inkscape:connector-curvature="0" />
      </g>
    </g>
  </g>
</svg>
