<?xml version="1.0" encoding="UTF-8" standalone="no"?>
<svg
   xmlns="http://www.w3.org/2000/svg"
   width="48"
   height="48"
   viewBox="0 0 48 48">
  
  
  <g
     id="g4426"
     transform="matrix(0.05648007,0,0,0.05648007,9.63763,9.3522655)"
     fill="currentcolor"
     >

    <g
       id="g4378">
      <g
         id="g4380">
        <path
           id="path4382"
           d="m 494.933,38.4 -409.6,0 c -9.412,0 -17.067,7.654 -17.067,17.067 l 0,17.067 -17.066,0 c -9.412,0 -17.067,7.654 -17.067,17.067 l 0,17.067 -17.066,0 C 7.654,106.667 0,114.321 0,123.733 l 0,332.8 c 0,9.412 7.654,17.067 17.067,17.067 l 409.6,0 c 9.412,0 17.067,-7.654 17.067,-17.067 l 0,-17.067 17.066,0 c 9.412,0 17.067,-7.654 17.067,-17.067 l 0,-17.067 17.067,0 c 9.412,0 17.067,-7.654 17.067,-17.067 l 0,-332.8 C 512,46.054 504.346,38.4 494.933,38.4 Z m -477.866,85.333 409.6,0 0.009,190.635 -44.783,-51.183 c -3.251,-3.721 -9.6,-3.721 -12.851,0 l -54.067,61.79 -147.176,-130.816 c -3.234,-2.884 -8.098,-2.884 -11.332,0 l -139.4,123.912 0,-194.338 z m 409.617,307.277 0,25.523 -409.617,0 0,-115.643 145.067,-128.947 147.934,131.49 c 1.69,1.51 3.942,2.193 6.204,2.142 2.278,-0.145 4.395,-1.186 5.888,-2.901 l 53.308,-60.911 51.209,58.53 0.008,90.573 c 0,0.017 -0.017,0.043 -0.017,0.068 0,0.025 0.016,0.051 0.016,0.076 z m 34.116,-8.61 -17.067,0 0,-298.667 c 0,-9.412 -7.654,-17.067 -17.067,-17.067 l -375.466,0 0,-17.066 409.6,0 0,332.8 z m 34.133,-34.133 -17.067,0 0,-298.667 c 0,-9.412 -7.654,-17.067 -17.067,-17.067 l -375.466,0 0,-17.066 409.6,0 0,332.8 z"
           inkscape:connector-curvature="0" />
      </g>
    </g>
    <g
       id="g4384">
      <g
         id="g4386">
        <path
           id="path4388"
           d="m 307.2,174.933 c -18.825,0 -34.133,15.309 -34.133,34.133 0,18.824 15.308,34.134 34.133,34.134 18.825,0 34.133,-15.309 34.133,-34.133 0,-18.824 -15.308,-34.134 -34.133,-34.134 z m 0,51.2 c -9.412,0 -17.067,-7.654 -17.067,-17.067 0,-9.412 7.654,-17.067 17.067,-17.067 9.413,0 17.067,7.654 17.067,17.067 0,9.413 -7.655,17.067 -17.067,17.067 z"
           inkscape:connector-curvature="0" />
      </g>
    </g>
  </g>
</svg>
