<?xml version="1.0" encoding="UTF-8" standalone="no"?>
<!-- Created with Inkscape (http://www.inkscape.org/) -->

<svg
   xmlns="http://www.w3.org/2000/svg"
   width="48"
   height="48"
   viewBox="1 1 48 48"
   version="0.0"> 
  
  <g
     id="g4517"
     transform="matrix(0.06313523,0,0,0.06313523,8.5505063,8.5952113)" fill="currentcolor">
    <g
       id="g4471">
      <g
         id="g4473">
        <path
           id="path4475"
           d="m 0,167.85 0,216.2 c 0,33 26.8,59.8 59.8,59.8 l 370.4,0 c 33,0 59.8,-26.8 59.8,-59.8 l 0,-216.2 c 0,-31.4 -25.5,-56.9 -56.9,-56.9 l -79.6,0 -1.9,-8.3 c -7.7,-33.3 -37,-56.5 -71.2,-56.5 l -70.9,0 c -34.1,0 -63.4,23.2 -71.2,56.5 l -1.9,8.3 -79.5,0 c -31.4,0 -56.9,25.6 -56.9,56.9 z m 146.2,-32.4 c 5.7,0 10.6,-3.9 11.9,-9.5 l 4.1,-17.8 c 5.2,-22.1 24.6,-37.5 47.3,-37.5 l 70.9,0 c 22.7,0 42.1,15.4 47.3,37.5 l 4.1,17.8 c 1.3,5.5 6.2,9.5 11.9,9.5 l 89.3,0 c 17.9,0 32.4,14.5 32.4,32.4 l 0,216.2 c 0,19.5 -15.8,35.3 -35.3,35.3 l -370.3,0 c -19.5,0 -35.3,-15.8 -35.3,-35.3 l 0,-216.2 c 0,-17.9 14.5,-32.4 32.4,-32.4 l 89.3,0 z"
           inkscape:connector-curvature="0" />
        <circle
           id="circle4477"
           r="16.4"
           cy="187.75"
           cx="82.900002" />
        <path
           id="path4479"
           d="m 245,380.95 c 56.7,0 102.9,-46.2 102.9,-102.9 0,-56.7 -46.2,-102.9 -102.9,-102.9 -56.7,0 -102.9,46.1 -102.9,102.9 0,56.8 46.2,102.9 102.9,102.9 z m 0,-181.3 c 43.2,0 78.4,35.2 78.4,78.4 0,43.2 -35.2,78.4 -78.4,78.4 -43.2,0 -78.4,-35.2 -78.4,-78.4 0,-43.2 35.2,-78.4 78.4,-78.4 z"
           inkscape:connector-curvature="0" />
      </g>
    </g>
    
</svg>
