<svg
   xmlns="http://www.w3.org/2000/svg"
   width="48"
   height="48"
   viewBox="0 0 48 48"
   version="1.1">
  
  <g
     inkscape:label="Layer 1"
     inkscape:groupmode="layer"
     id="layer1">
    <g
       id="g3398"
       fill="currentcolor"
       transform="matrix(0.06235539,2.1733637e-4,2.1733637e-4,-0.06235539,7.4382108,39.907396)"
       style="image-rendering:optimizeSpeed">
      <g
         id="g3354"
         transform="translate(13.969134,8.0470788)">
        <g
           id="g3495"
           transform="matrix(0.9909467,0.00345389,0.00345389,-0.9909467,-3.3319407,500.43299)">
          <g
             id="g3441">
            <g
               id="g3443">
              <path
                 id="path3445"
                 d="M 394.149,121.325 275.452,2.629 c -5.615,-5.615 -15.206,-1.638 -15.206,6.297 l 0,118.287 c 0,5.146 4.173,9.318 9.318,9.318 l 118.287,0 c 7.936,0 11.913,-9.599 6.298,-15.206 z"
                 inkscape:connector-curvature="0" />
            </g>
          </g>
          <g
             id="g3447">
            <g
               id="g3449">
              <path
                 id="path3451"
                 d="m 396.777,230.397 0,-68.266 c 0,-4.71 -3.823,-8.533 -8.533,-8.533 l -136.531,0 c -4.71,0 -8.533,-3.823 -8.533,-8.533 l 0,-136.531 c 0,-4.71 -3.823,-8.533 -8.533,-8.533 l -187.731,0 c -4.71,0 -8.533,3.823 -8.533,8.533 l 0,469.326 c 0,4.71 3.823,8.533 8.533,8.533 l 177.081,0.008 c 3.251,0 6.221,-1.852 7.654,-4.779 1.434,-2.918 1.084,-6.4 -0.904,-8.977 -19.464,-25.164 -29.892,-55.252 -30.225,-87.09 -0.666,-64.34 41.557,-122.878 103.388,-140.695 27.374,-7.885 55.73,-7.825 81.978,-0.256 4.54,1.271 9.258,-1.306 10.564,-5.837 0.522,-1.8 0.325,-7.244 0.325,-8.37 z"
                 inkscape:connector-curvature="0" />
            </g>
          </g>
          <g
             id="g3453">
            <g
               id="g3455">
              <path
                 id="path3457"
                 d="M 472.552,367.32 C 465.307,310.327 419.288,264.307 362.295,257.063 278.687,246.439 208.049,317.068 218.681,400.677 c 7.245,56.993 53.264,103.013 110.257,110.257 83.6,10.632 154.238,-60.006 143.614,-143.614 z m -86.774,48.315 -34.133,34.133 c -1.664,1.664 -3.848,2.5 -6.033,2.5 -2.185,0 -4.369,-0.836 -6.033,-2.5 l -34.133,-34.133 c -3.336,-3.336 -3.336,-8.729 0,-12.066 3.336,-3.337 8.729,-3.336 12.066,0 l 12.279,12.279 c 2.688,2.688 7.287,0.785 7.287,-3.021 l 0,-88.557 c 0,-4.71 3.823,-8.533 8.533,-8.533 4.71,0 8.533,3.823 8.533,8.533 l 0,88.566 c 0,3.797 4.599,5.709 7.287,3.021 l 12.279,-12.279 c 3.336,-3.336 8.729,-3.336 12.066,0 3.339,3.336 3.339,8.721 0.002,12.057 z"
                 inkscape:connector-curvature="0" />
            </g>
          </g>
        </g>
      </g>
    </g>
  </g>
</svg>
