<svg
   xmlns:svg="http://www.w3.org/2000/svg"
   xmlns="http://www.w3.org/2000/svg"
   width="20"
   height="20"
   viewBox="0 0 20 20">
  <g
     id="Groups"
     style="fill:none;fill-rule:evenodd;stroke:none;stroke-width:1"
     transform="matrix(0.03703324,0,0,0.03703324,0.62085298,0.66243368)">
    <path
       id="Path-5"
       d="m 9,442 h 30.93949 v -85.37279 c 0,-2.51909 0.55167,-5.00763 1.616242,-7.29072 l 0.09133,-0.19588 c 1.012364,-2.17113 2.30097,-4.20238 3.833826,-6.04331 l 0.930673,-1.11773 c 0.918723,-1.10337 1.861102,-2.18682 2.826482,-3.24961 l 3.169596,-3.48942 3.556619,-3.28573 c 1.628514,-1.50447 3.372998,-2.87834 5.217267,-4.10886 l 2.176378,-1.45211 c 0.39621,-0.26436 0.790526,-0.53154 1.182918,-0.80153 l 14.188474,-9.76258 8.312102,-5.08378 6.559675,-2.8136 c 2.091242,-0.89698 4.212492,-1.72232 6.360043,-2.47458 l 1.395575,-0.48885 c 3.07658,-1.07769 6.20574,-1.99898 9.37546,-2.76033 l 1.01466,-0.24373 c 3.83481,-0.9211 7.7649,-1.38648 11.70877,-1.38648 h 11.14952 39.25159 8.77388 1.1817 c 3.19717,0 6.37719,0.46709 9.43932,1.38648 l 2.45063,0.73579 c 1.44462,0.43375 2.87924,0.90012 4.30277,1.39876 l 4.60249,1.61219 c 1.66478,0.58316 3.34471,1.12216 5.03801,1.61644 l 3.48238,1.01653 c 3.3632,0.98174 6.60857,2.32945 9.67786,4.01894 l 3.2652,1.79734 c 0.9017,0.49634 1.79569,1.00657 2.68164,1.53052 l 8.83023,5.22214 5.49438,4.65291 c 0.3392,0.28725 0.68031,0.57223 1.02331,0.85493 l 3.41066,2.81108 c 2.61067,2.15173 5.0075,4.55049 7.15713,7.1629 l 3.04831,3.70456 c 0.12312,0.14962 0.24668,0.29889 0.37066,0.44779 l 4.29357,5.1565 c 1.62466,1.9512 2.99045,4.10411 4.06345,6.40528 v 0 c 1.06457,2.2831 1.61624,4.77163 1.61624,7.29073 V 442 H 299 v -91.15265 c 0,-3.28789 -0.62691,-6.54563 -1.84713,-9.5987 v 0 c -1.22652,-3.06881 -2.83551,-5.97051 -4.78883,-8.63631 l -2.13793,-2.91775 -1.97388,-2.58334 c -2.68325,-3.51175 -5.59635,-6.84175 -8.72014,-9.9681 l -1.31235,-1.31342 -3.01654,-3.2706 c -1.68265,-1.82437 -3.43264,-3.58547 -5.24633,-5.27964 l -0.7419,-0.693 c -2.30587,-2.15391 -4.76534,-4.13724 -7.35897,-5.9343 l -2.10759,-1.4603 -3.28937,-2.58662 c -2.11498,-1.66313 -4.33234,-3.19177 -6.63898,-4.57689 v 0 c -2.306,-1.38474 -4.70743,-2.60398 -7.18617,-3.64851 l -3.75531,-1.58248 c -0.86381,-0.36401 -1.72246,-0.74014 -2.57569,-1.12829 l -1.2599,-0.57315 c -1.69272,-0.77006 -3.35904,-1.5969 -4.9961,-2.47912 l -0.5453,-0.29386 c -1.99734,-1.07637 -4.08375,-1.97858 -6.23605,-2.6966 l -1.2805,-0.42719 c -1.6076,-0.5363 -3.22858,-1.03166 -4.86135,-1.48558 l -1.70649,-0.47441 c -2.76901,-0.7698 -5.57438,-1.40227 -8.40583,-1.8951 l -5.12866,-0.89268 c -0.82835,-0.14418 -1.65486,-0.2988 -2.47932,-0.46382 l -5.9971,-1.20041 c -1.33442,-0.2671 -2.67414,-0.50694 -4.01835,-0.71935 l -2.37042,-0.37459 C 184.09738,271.23179 181.14556,271 178.18919,271 H 154 117.28822 c -2.91362,0 -5.81622,0.35761 -8.6427,1.06481 l -4.09744,1.0252 c -0.5883,0.1472 -1.17794,0.28904 -1.76882,0.42551 l -8.608676,1.98825 c -1.673954,0.38661 -3.337667,0.8163 -4.989483,1.28863 l -5.893467,1.68523 c -3.037184,0.86848 -6.031511,1.88038 -8.972907,3.03231 l -4.720094,1.84851 c -0.990839,0.38803 -1.975421,0.79186 -2.95337,1.21133 l -3.381709,1.45049 c -3.230055,1.38544 -6.381731,2.94692 -9.440841,4.6774 l -6.028904,3.41044 -3.630542,2.3511 c -2.811409,1.82064 -5.529571,3.78138 -8.144208,5.8748 l -2.848261,2.28048 c -1.641576,1.31434 -3.241284,2.68013 -4.796738,4.09534 l -3.599263,3.27474 c -2.815178,2.56135 -5.481833,5.28133 -7.986947,8.14667 l -2.704232,3.09308 v 0 C 10.747216,329.28821 9,336.09539 9,343.01461 Z"
       inkscape:connector-curvature="0"
       style="fill:currentcolor;stroke:currentcolor;stroke-width:8" />
    <circle
       r="61"
       cy="161"
       cx="154"
       id="Oval"
       style="stroke:currentcolor;stroke-width:38" />
    <circle
       r="61"
       cy="161"
       cx="356"
       id="circle4472"
       style="stroke:currentcolor;stroke-width:38" />
    <path
       id="Path-6"
       d="m 255.5,291 7.94692,-5.01911 c 1.0353,-0.65387 2.0585,-1.32671 3.06909,-2.01816 L 269.75,281.75 c 3.15129,-2.15614 6.58771,-3.86257 10.21008,-5.07003 l 2.13694,-0.71231 c 2.93374,-0.97791 5.82054,-2.09139 8.65109,-3.33683 l 4.00378,-1.76166 c 2.83055,-1.24544 5.71735,-2.35892 8.65109,-3.33683 l 3.16775,-1.05592 C 310.49789,265.16737 314.61041,264.5 318.75,264.5 h 22.75 16.5 22 1.01924 c 8.6134,0 17.18637,1.17757 25.48076,3.5 l 15,6.5 9.85009,4.28265 c 1.09985,0.4782 2.19101,0.97614 3.27294,1.49358 L 444.5,285 l 7.87137,4.97139 c 1.08565,0.68568 2.18441,1.35038 3.29567,1.99374 L 463.5,296.5 l 2.52907,1.62583 c 2.97656,1.91351 5.80789,4.04401 8.47093,6.37417 l 0.12131,0.10615 c 2.58114,2.25849 4.96593,4.73199 7.12869,7.39385 l 2.62127,3.22617 c 0.41914,0.51588 0.84342,1.02755 1.27277,1.53497 l 2.61014,3.08471 c 1.49676,1.7689 2.93159,3.58928 4.30188,5.45786 L 496,330 v 0 c 2.94457,4.90761 4.5,10.52322 4.5,16.24643 V 346.5 443 H 467 v -89.33772 c 0,-2.09449 -0.33767,-4.17528 -1,-6.16228 v 0 c -0.66504,-1.99512 -1.52553,-3.91967 -2.56893,-5.74563 L 461,337.5 457.90668,333.28183 C 456.30342,331.09557 454.58197,328.99851 452.75,327 l -0.34904,-0.38077 c -1.59859,-1.74392 -3.31998,-3.37115 -5.15096,-4.86923 v 0 c -1.82989,-1.49718 -3.78617,-2.83284 -5.84685,-3.99198 l -1.74026,-0.97889 c -2.1079,-1.1857 -4.25812,-2.29453 -6.44642,-3.32432 L 428,311 l -6.97632,-3.87574 c -1.12135,-0.62296 -2.25458,-1.2243 -3.39906,-1.80367 C 415.20373,304.09507 412.66219,302.65488 410,301 c -3.1712,-1.97129 -6.33787,-3.47129 -9.5,-4.5 L 396,295 c -2.98051,-0.9935 -6.10169,-1.5 -9.24342,-1.5 H 380 343.5 328.82427 c -2.5433,0 -5.08037,0.25122 -7.57427,0.75 v 0 c -2.49685,0.49937 -4.95511,1.17533 -7.35625,2.02279 L 313.25,296.5 c -2.83154,0.99937 -5.61104,2.14049 -8.32796,3.41904 L 300.5,302 l -4.50715,2.25357 c -2.32078,1.16039 -4.49954,2.58534 -6.49285,4.24643 v 0 c -1.99493,1.66244 -3.8173,3.52162 -5.43951,5.54939 L 282.5,316 l -6,-8 -6.5,-6 -7.5,-5.5 z"
       inkscape:connector-curvature="0"
       style="fill:currentcolor;stroke:currentcolor;stroke-width:2" />
  </g>
</svg>
