<?xml version="1.0" encoding="UTF-8" standalone="no"?>
<svg
   xmlns:svg="http://www.w3.org/2000/svg"
   xmlns="http://www.w3.org/2000/svg"
   width="20"
   height="20"
   viewBox="0 0 20 20">
 
  <g
     id="Page-1"
     style="fill:none;fill-rule:evenodd;stroke:none;stroke-width:1"
     transform="matrix(0.04241649,0,0,0.04241649,3.2764034,1.6350362)">
    <g
       transform="translate(-93,-76)"
       id="Contacts"
       style="stroke:currentcolor">
      <g
         transform="translate(97,114)"
         id="Group">
        <path
           id="Path-5"
           d="M 0.5,335.5 H 34 v -92.36176 c 0,-2.72569 0.597346,-5.41827 1.75,-7.88824 l 0.09858,-0.21124 C 36.94493,232.68944 38.340292,230.49165 40,228.5 l 1.120933,-1.34512 c 0.919271,-1.10312 1.862197,-2.18632 2.82812,-3.24884 L 47.5,220 51.350628,216.44557 C 53.114138,214.81772 55.003101,213.33127 57,212 l 2.405709,-1.60381 c 0.396189,-0.26412 0.790487,-0.53107 1.182862,-0.80083 L 76,199 l 9,-5.5 7.363719,-3.15588 c 2.090246,-0.89582 4.210441,-1.72008 6.356888,-2.47133 l 2.002713,-0.70095 c 3.18242,-1.11385 6.41913,-2.06603 9.69774,-2.85289 L 111.75,184 c 4.15219,-0.99652 8.40739,-1.5 12.67748,-1.5 H 136.5 179 h 9.5 1.27985 c 3.46156,0 6.90458,0.50533 10.22015,1.5 l 2.83408,0.85022 c 1.44376,0.43313 2.87755,0.89885 4.30025,1.3968 l 5.36949,1.87932 c 1.66383,0.58234 3.34276,1.12058 5.03505,1.61416 l 3.98303,1.16172 c 3.64109,1.06199 7.15478,2.51996 10.4781,4.34778 l 3.64767,2.00622 c 0.9015,0.49582 1.79529,1.00553 2.68106,1.52894 L 248,204.5 l 5.9911,5.06939 c 0.33926,0.28707 0.68044,0.57187 1.0235,0.8544 L 258.75,213.5 c 2.82673,2.3279 5.4221,4.92327 7.75,7.75 l 3.3152,4.0256 c 0.1232,0.1496 0.24683,0.29884 0.3709,0.44772 l 4.66467,5.5976 c 1.75878,2.11054 3.23744,4.43952 4.39923,6.92908 v 0 c 1.15265,2.46997 1.75,5.16255 1.75,7.88824 V 335.5 h 33.5 v -98.61484 c 0,-3.55742 -0.67881,-7.08217 -2,-10.38516 v 0 c -1.32802,-3.32004 -3.07,-6.45909 -5.18459,-9.34262 L 305,214 l -2.46817,-3.22761 c -2.68493,-3.51106 -5.59969,-6.84025 -8.72511,-9.96567 L 292,199 l -3.47401,-3.76351 c -1.68341,-1.8237 -3.43413,-3.58409 -5.24852,-5.27752 L 282.25,189 c -2.49669,-2.33025 -5.15955,-4.47584 -7.96749,-6.4198 L 272,181 l -3.56126,-2.79813 c -2.29023,-1.79947 -4.6912,-3.45335 -7.18874,-4.95187 v 0 c -2.49685,-1.49811 -5.09689,-2.81711 -7.78051,-3.94706 l -4.17427,-1.75759 c -0.86344,-0.36355 -1.72172,-0.73921 -2.5746,-1.12689 L 245.25,165.75 c -1.83281,-0.8331 -3.63707,-1.72765 -5.40969,-2.68214 L 239.25,162.75 c -2.16265,-1.1645 -4.42159,-2.14053 -6.75179,-2.91726 l -1.58786,-0.52929 c -1.60664,-0.53555 -3.22663,-1.03019 -4.85839,-1.48346 L 224,157.25 c -2.99817,-0.83283 -6.03564,-1.51707 -9.10132,-2.05023 l -5.65701,-0.98383 c -0.82775,-0.14395 -1.65365,-0.29834 -2.4775,-0.46311 l -6.76382,-1.35276 c -1.33343,-0.26669 -2.67216,-0.50615 -4.01535,-0.71823 L 193.25,151.25 c -3.16181,-0.49923 -6.35787,-0.75 -9.55885,-0.75 H 157.5 117.75 c -3.15476,0 -6.29761,0.3869 -9.35818,1.15204 l -4.50995,1.12749 c -0.5879,0.14698 -1.17713,0.28861 -1.76761,0.42487 l -9.604608,2.21645 c -1.672824,0.38604 -3.335429,0.81509 -4.986163,1.28672 l -6.967843,1.99082 c -3.035395,0.86725 -6.02802,1.87776 -8.967822,3.02811 l -5.602177,2.19216 c -0.990368,0.38753 -1.974492,0.79084 -2.951994,1.20977 l -3.993556,1.71153 c -3.357543,1.43894 -6.633719,3.06078 -9.813796,4.85822 L 42.5,175.5 l -4.280294,2.7696 c -2.811363,1.81912 -5.52958,3.7783 -8.144377,5.87014 l -3.611882,2.8895 c -1.64189,1.31351 -3.241943,2.67848 -4.797774,4.09288 l -4.437826,4.03438 c -2.816268,2.56025 -5.484072,5.27919 -7.9903903,8.14355 L 6,207 v 0 c -3.6081056,6.56019 -5.5,13.92575 -5.5,21.41271 z"
           inkscape:connector-curvature="0"
           style="fill:currentcolor;stroke-width:8" />
        <circle
           r="66"
           cy="47"
           cx="152"
           id="Oval"
           style="stroke-width:38" />
      </g>
    </g>
  </g>
</svg>
