<svg width="18" height="18" viewBox="0 0 18 18" fill="none" xmlns="http://www.w3.org/2000/svg">
<g id="Icon / Activity" clip-path="url(#clip0_3328_49527)">
<path id="fill" fill-rule="evenodd" clip-rule="evenodd" d="M9.00013 17.5333C7.3124 17.5333 5.66257 17.0329 4.25927 16.0952C2.85597 15.1576 1.76223 13.8248 1.11636 12.2656C0.470494 10.7063 0.301506 8.99055 0.630766 7.33524C0.960027 5.67994 1.77275 4.15944 2.96616 2.96603C4.15956 1.77263 5.68006 0.959905 7.33536 0.630644C8.99067 0.301384 10.7064 0.470372 12.2657 1.11624C13.825 1.76211 15.1577 2.85585 16.0953 4.25915C17.033 5.66244 17.5335 7.31228 17.5335 9.00001C17.5309 11.2624 16.6311 13.4314 15.0313 15.0312C13.4315 16.6309 11.2625 17.5308 9.00013 17.5333ZM5.96558 15.9091V15.7175H7.64122L9.74058 16.5168C9.49369 16.5388 9.24584 16.5481 8.99799 16.5447C7.95385 16.5473 6.92078 16.3308 5.96558 15.9091ZM11.0182 16.2055L7.90658 15.0712V13.524L10.4232 12.1705L12.4948 12.9483L12.4509 15.1044L11.0182 16.2055ZM10.0584 8.89087L10.0637 11.6076L7.5599 12.9558L4.94907 11.5038L4.93623 8.60411L7.07625 7.21523L10.0584 8.89087ZM10.465 8.34837L7.485 6.68023L7.31487 4.40432L10.3098 2.84745L12.5033 4.23526V7.30084L10.465 8.34837ZM14.5428 9.31673L13.1742 7.14782V4.48992L14.5171 3.84791C15.5612 4.9578 16.2523 6.30892 16.4806 7.81551L16.2816 8.85449L14.5428 9.31673ZM14.9248 9.92343L16.3586 9.5928L16.503 9.87528C16.3786 10.9282 16.0349 11.9433 15.494 12.8553C15.0323 13.6249 14.4399 14.3082 13.7435 14.8744L13.1668 14.7278V12.5995L14.9248 9.92343ZM9.00013 1.44788C9.34909 1.44761 9.69766 1.4712 10.0434 1.5185V2.2215L7.18433 3.71202L4.97261 3.70881L4.69655 2.79716C5.95804 1.91523 7.46093 1.44403 9.00013 1.44788ZM4.1134 3.24871L4.34773 3.95598L2.98025 6.14629L1.81715 6.66525C2.25214 5.33609 3.04697 4.15348 4.1134 3.24871ZM1.58389 7.56299L3.08191 6.8953L4.26748 8.55489L4.28139 11.6162L4.28567 11.6151L3.17179 12.8381L2.55546 12.9387C1.57206 11.3309 1.2255 9.41335 1.58389 7.56299ZM2.9642 13.539L3.68111 13.4234L5.31609 15.296L5.3086 15.5902C4.39348 15.0763 3.59514 14.3778 2.9642 13.539Z" fill="#A1A1A1"/>
</g>
<defs>
<clipPath id="clip0_3328_49527">
<rect width="17.0667" height="17.0667" fill="white" transform="translate(0.466797 0.466675)"/>
</clipPath>
</defs>
</svg>
