<svg width="24" height="24" viewBox="0 0 24 24" fill="none" xmlns="http://www.w3.org/2000/svg">
<mask id="mask0_740_8399" style="mask-type:alpha" maskUnits="userSpaceOnUse" x="0" y="0" width="24" height="24">
<rect width="24" height="24" fill="#D9D9D9"/>
</mask>
<g mask="url(#mask0_740_8399)">
<path d="M11.25 12.75H6.25C6.0375 12.75 5.85942 12.6781 5.71575 12.5342C5.57192 12.3904 5.5 12.2122 5.5 11.9997C5.5 11.7871 5.57192 11.609 5.71575 11.4655C5.85942 11.3218 6.0375 11.25 6.25 11.25H11.25V6.25C11.25 6.0375 11.3219 5.85942 11.4658 5.71575C11.6096 5.57192 11.7878 5.5 12.0003 5.5C12.2129 5.5 12.391 5.57192 12.5345 5.71575C12.6782 5.85942 12.75 6.0375 12.75 6.25V11.25H17.75C17.9625 11.25 18.1406 11.3219 18.2843 11.4658C18.4281 11.6096 18.5 11.7878 18.5 12.0003C18.5 12.2129 18.4281 12.391 18.2843 12.5345C18.1406 12.6782 17.9625 12.75 17.75 12.75H12.75V17.75C12.75 17.9625 12.6781 18.1406 12.5342 18.2843C12.3904 18.4281 12.2122 18.5 11.9997 18.5C11.7871 18.5 11.609 18.4281 11.4655 18.2843C11.3218 18.1406 11.25 17.9625 11.25 17.75V12.75Z" fill="#141414"/>
</g>
</svg>
