<svg width="16" height="17" viewBox="0 0 16 17" fill="none" xmlns="http://www.w3.org/2000/svg">
<g id="Base_Icon">
<path id="Vector" d="M8.00317 15.0591C7.09828 15.0591 6.24767 14.8864 5.45133 14.541C4.655 14.1954 3.96072 13.726 3.3685 13.1326C2.77617 12.5392 2.30733 11.845 1.962 11.05C1.61667 10.2549 1.444 9.40537 1.444 8.50148C1.444 7.59659 1.61711 6.74509 1.96333 5.94698C2.30956 5.14898 2.77817 4.45476 3.36917 3.86431C3.96006 3.27387 4.65483 2.80687 5.4535 2.46331C6.25217 2.11987 7.10083 1.94815 7.9995 1.94815C8.42072 1.94815 8.83039 1.98703 9.2285 2.06481C9.62661 2.14259 10.0114 2.25553 10.3828 2.40365C10.5809 2.48509 10.7041 2.59426 10.7523 2.73115C10.8004 2.86804 10.8013 2.99953 10.755 3.12565C10.7088 3.25176 10.6278 3.34953 10.512 3.41898C10.3962 3.48842 10.2689 3.48981 10.13 3.42315C9.793 3.28426 9.44883 3.17959 9.0975 3.10915C8.74617 3.03881 8.38017 3.00365 7.9995 3.00365C6.47683 3.00365 5.1795 3.53837 4.1075 4.60781C3.0355 5.67726 2.4995 6.97409 2.4995 8.49831C2.4995 10.0224 3.036 11.321 4.109 12.3941C5.18211 13.4671 6.48072 14.0036 8.00483 14.0036C9.52906 14.0036 10.8259 13.4676 11.8953 12.3956C12.9648 11.3236 13.4995 10.0263 13.4995 8.50365C13.4995 8.24876 13.4828 7.99659 13.4495 7.74715C13.4162 7.49781 13.3652 7.25181 13.2967 7.00915C13.2486 6.85592 13.2669 6.72492 13.3517 6.61615C13.4366 6.50748 13.5423 6.43609 13.669 6.40198C13.7958 6.36787 13.9247 6.38276 14.0557 6.44665C14.1868 6.51053 14.2801 6.63692 14.3357 6.82581C14.4079 7.09437 14.4625 7.36726 14.4995 7.64448C14.5365 7.92181 14.555 8.2082 14.555 8.50365C14.555 9.4032 14.3832 10.2527 14.0395 11.0521C13.6958 11.8516 13.2283 12.5463 12.6368 13.1361C12.0453 13.7259 11.3511 14.1939 10.5543 14.54C9.75756 14.8861 8.90717 15.0591 8.00317 15.0591ZM13.4745 3.69531H12.555C12.4069 3.69531 12.2824 3.64465 12.1815 3.54331C12.0805 3.44209 12.03 3.31709 12.03 3.16831C12.03 3.01965 12.0805 2.89437 12.1815 2.79248C12.2824 2.6907 12.4069 2.63981 12.555 2.63981H13.4745V1.72581C13.4745 1.5777 13.5252 1.45226 13.6265 1.34948C13.7277 1.2467 13.8527 1.19531 14.0015 1.19531C14.1502 1.19531 14.2754 1.2467 14.3773 1.34948C14.4791 1.45226 14.53 1.5777 14.53 1.72581V2.63981H15.444C15.5921 2.63981 15.7176 2.69137 15.8203 2.79448C15.9231 2.89759 15.9745 3.02353 15.9745 3.17231C15.9745 3.32098 15.9231 3.44531 15.8203 3.54531C15.7176 3.64531 15.5921 3.69531 15.444 3.69531H14.53V4.61481C14.53 4.76292 14.4784 4.88742 14.3753 4.98831C14.2722 5.08931 14.1463 5.13981 13.9975 5.13981C13.8488 5.13981 13.7245 5.08931 13.6245 4.98831C13.5245 4.88742 13.4745 4.76292 13.4745 4.61481V3.69531ZM10.3648 7.68148C10.6176 7.68148 10.8329 7.59298 11.0107 7.41598C11.1884 7.23909 11.2773 7.02431 11.2773 6.77165C11.2773 6.51887 11.1889 6.30359 11.012 6.12581C10.835 5.94803 10.6202 5.85915 10.3675 5.85915C10.1147 5.85915 9.89945 5.94759 9.72167 6.12448C9.54389 6.30148 9.455 6.51631 9.455 6.76898C9.455 7.02176 9.5435 7.23703 9.7205 7.41481C9.89739 7.59259 10.1122 7.68148 10.3648 7.68148ZM5.6315 7.68148C5.88428 7.68148 6.09956 7.59298 6.27733 7.41598C6.45511 7.23909 6.544 7.02431 6.544 6.77165C6.544 6.51887 6.4555 6.30359 6.2785 6.12581C6.10161 5.94803 5.88683 5.85915 5.63417 5.85915C5.38139 5.85915 5.16611 5.94759 4.98833 6.12448C4.81056 6.30148 4.72167 6.51631 4.72167 6.76898C4.72167 7.02176 4.81011 7.23703 4.987 7.41481C5.164 7.59259 5.37883 7.68148 5.6315 7.68148ZM7.99267 12.0925C8.61933 12.0925 9.19745 11.9481 9.727 11.6593C10.2566 11.3706 10.6873 10.9714 11.0193 10.4615C11.0858 10.334 11.0817 10.2092 11.007 10.087C10.9323 9.96476 10.8203 9.90365 10.671 9.90365H5.33083C5.17661 9.90365 5.06295 9.96476 4.98983 10.087C4.91661 10.2092 4.91522 10.3327 4.98567 10.4575C5.31345 10.9697 5.74261 11.3703 6.27317 11.6591C6.80372 11.948 7.37689 12.0925 7.99267 12.0925Z" fill="#A1A1A1"/>
</g>
</svg>
