<svg width="24" height="24" viewBox="0 0 24 24" fill="none" xmlns="http://www.w3.org/2000/svg">
<mask id="mask0_740_8342" style="mask-type:alpha" maskUnits="userSpaceOnUse" x="0" y="0" width="24" height="24">
<rect width="24" height="24" fill="#D9D9D9"/>
</mask>
<g mask="url(#mask0_740_8342)">
<path d="M12.0017 21.5C10.6877 21.5 9.45267 21.2507 8.2965 20.752C7.14033 20.2533 6.13467 19.5766 5.2795 18.7218C4.42433 17.8669 3.74725 16.8617 3.24825 15.706C2.74942 14.5503 2.5 13.3156 2.5 12.0017C2.5 10.6877 2.74942 9.45267 3.24825 8.2965C3.74692 7.14033 4.42375 6.13467 5.27875 5.2795C6.13375 4.42433 7.13917 3.74725 8.295 3.24825C9.45083 2.74942 10.6858 2.5 12 2.5C12.5538 2.5 13.0958 2.54325 13.626 2.62975C14.1562 2.71642 14.6732 2.85142 15.177 3.03475C15.391 3.11158 15.5592 3.24417 15.6818 3.4325C15.8041 3.62083 15.8652 3.828 15.8652 4.054V4.998C15.8652 5.4835 16.0359 5.89683 16.3773 6.238C16.7186 6.57933 17.1319 6.75 17.6173 6.75H18.2405V7.902C18.2405 8.2335 18.363 8.52183 18.608 8.767C18.8532 9.01217 19.1415 9.13475 19.473 9.13475H20.296C20.5205 9.13475 20.7245 9.20275 20.908 9.33875C21.0915 9.47475 21.2138 9.65608 21.275 9.88275C21.3583 10.2234 21.4167 10.5682 21.45 10.917C21.4833 11.2658 21.5 11.6268 21.5 12C21.5 13.3142 21.2507 14.5492 20.752 15.705C20.2533 16.8608 19.5766 17.8663 18.7218 18.7213C17.8669 19.5763 16.8617 20.2531 15.706 20.7518C14.5503 21.2506 13.3156 21.5 12.0017 21.5ZM12 17.1923C12.8975 17.1923 13.7254 16.9798 14.4837 16.5548C15.2421 16.1298 15.8578 15.5532 16.331 14.825C16.4257 14.643 16.4227 14.46 16.322 14.276C16.2215 14.092 16.0642 14 15.85 14H8.15C7.93583 14 7.7785 14.092 7.678 14.276C7.57733 14.46 7.57433 14.643 7.669 14.825C8.14217 15.5532 8.76183 16.1298 9.528 16.5548C10.294 16.9798 11.118 17.1923 12 17.1923ZM8.5985 10.8077C8.96233 10.8077 9.27083 10.6803 9.524 10.4255C9.77717 10.1708 9.90375 9.86158 9.90375 9.49775C9.90375 9.13392 9.77642 8.82542 9.52175 8.57225C9.26708 8.31892 8.95783 8.19225 8.594 8.19225C8.23 8.19225 7.92142 8.31967 7.66825 8.5745C7.41508 8.82917 7.2885 9.13842 7.2885 9.50225C7.2885 9.86608 7.41583 10.1746 7.6705 10.4277C7.92517 10.6811 8.2345 10.8077 8.5985 10.8077ZM15.406 10.8077C15.77 10.8077 16.0786 10.6803 16.3318 10.4255C16.5849 10.1708 16.7115 9.86158 16.7115 9.49775C16.7115 9.13392 16.5842 8.82542 16.3295 8.57225C16.0748 8.31892 15.7655 8.19225 15.4015 8.19225C15.0377 8.19225 14.7292 8.31967 14.476 8.5745C14.2228 8.82917 14.0962 9.13842 14.0962 9.50225C14.0962 9.86608 14.2236 10.1746 14.4783 10.4277C14.7329 10.6811 15.0422 10.8077 15.406 10.8077ZM20.25 4.75H19C18.7875 4.75 18.6094 4.67808 18.4658 4.53425C18.3219 4.39042 18.25 4.21225 18.25 3.99975C18.25 3.78708 18.3219 3.609 18.4658 3.4655C18.6094 3.32183 18.7875 3.25 19 3.25H20.25V2C20.25 1.7875 20.3219 1.60942 20.4657 1.46575C20.6096 1.32192 20.7878 1.25 21.0002 1.25C21.2129 1.25 21.391 1.32192 21.5345 1.46575C21.6782 1.60942 21.75 1.7875 21.75 2V3.25H23C23.2125 3.25 23.3906 3.32192 23.5343 3.46575C23.6781 3.60958 23.75 3.78775 23.75 4.00025C23.75 4.21292 23.6781 4.391 23.5343 4.5345C23.3906 4.67817 23.2125 4.75 23 4.75H21.75V6C21.75 6.2125 21.6781 6.39058 21.5343 6.53425C21.3904 6.67808 21.2122 6.75 20.9998 6.75C20.7871 6.75 20.609 6.67808 20.4655 6.53425C20.3218 6.39058 20.25 6.2125 20.25 6V4.75Z" fill="#141414"/>
</g>
</svg>
