<svg width="24" height="24" viewBox="0 0 24 24" fill="none" xmlns="http://www.w3.org/2000/svg">
<mask id="mask0_740_8437" style="mask-type:alpha" maskUnits="userSpaceOnUse" x="0" y="0" width="24" height="24">
<rect width="24" height="24" fill="#D9D9D9"/>
</mask>
<g mask="url(#mask0_740_8437)">
<path d="M19.7498 7C19.5371 7 19.359 6.92817 19.2155 6.7845C19.0718 6.64067 19 6.4625 19 6.25V5H17.75C17.5375 5 17.3593 4.92808 17.2155 4.78425C17.0718 4.64042 17 4.46225 17 4.24975C17 4.03708 17.0718 3.859 17.2155 3.7155C17.3593 3.57183 17.5375 3.5 17.75 3.5H19V2.25C19 2.0375 19.0719 1.85942 19.2157 1.71575C19.3596 1.57192 19.5378 1.5 19.7502 1.5C19.9629 1.5 20.141 1.57192 20.2845 1.71575C20.4282 1.85942 20.5 2.0375 20.5 2.25V3.5H21.75C21.9625 3.5 22.1406 3.57192 22.2843 3.71575C22.4281 3.85958 22.5 4.03775 22.5 4.25025C22.5 4.46292 22.4281 4.641 22.2843 4.7845C22.1406 4.92817 21.9625 5 21.75 5H20.5V6.25C20.5 6.4625 20.4281 6.64067 20.2843 6.7845C20.1404 6.92817 19.9622 7 19.7498 7ZM11 17.1152C12.1475 17.1152 13.1202 16.7163 13.9183 15.9183C14.7163 15.1202 15.1152 14.1475 15.1152 13C15.1152 11.8525 14.7163 10.8798 13.9183 10.0818C13.1202 9.28375 12.1475 8.88475 11 8.88475C9.8525 8.88475 8.87975 9.28375 8.08175 10.0818C7.28375 10.8798 6.88475 11.8525 6.88475 13C6.88475 14.1475 7.28375 15.1202 8.08175 15.9183C8.87975 16.7163 9.8525 17.1152 11 17.1152ZM11 15.6155C10.2615 15.6155 9.641 15.3642 9.1385 14.8615C8.63583 14.359 8.3845 13.7385 8.3845 13C8.3845 12.2615 8.63583 11.641 9.1385 11.1385C9.641 10.6358 10.2615 10.3845 11 10.3845C11.7385 10.3845 12.359 10.6358 12.8615 11.1385C13.3642 11.641 13.6155 12.2615 13.6155 13C13.6155 13.7385 13.3642 14.359 12.8615 14.8615C12.359 15.3642 11.7385 15.6155 11 15.6155ZM3.30775 20.5C2.80258 20.5 2.375 20.325 2.025 19.975C1.675 19.625 1.5 19.1974 1.5 18.6923V7.30775C1.5 6.80258 1.675 6.375 2.025 6.025C2.375 5.675 2.80258 5.5 3.30775 5.5H6.3615L7.66925 4.08275C7.83458 3.90342 8.03383 3.7615 8.267 3.657C8.5 3.55233 8.74433 3.5 9 3.5H14.0577C14.2702 3.5 14.4483 3.57192 14.592 3.71575C14.7358 3.85942 14.8077 4.0375 14.8077 4.25V5.8365C14.8077 6.21317 14.9395 6.53333 15.203 6.797C15.4667 7.0605 15.7868 7.19225 16.1635 7.19225H16.8077V7.8365C16.8077 8.21317 16.9395 8.53333 17.203 8.797C17.4667 9.0605 17.7868 9.19225 18.1635 9.19225H19.75C19.9625 9.19225 20.1406 9.26417 20.2843 9.408C20.4281 9.55167 20.5 9.72975 20.5 9.94225V18.6923C20.5 19.1974 20.325 19.625 19.975 19.975C19.625 20.325 19.1974 20.5 18.6923 20.5H3.30775Z" fill="#141414"/>
</g>
</svg>
