<svg width="24" height="24" viewBox="0 0 24 24" fill="none" xmlns="http://www.w3.org/2000/svg">
<mask id="mask0_740_8346" style="mask-type:alpha" maskUnits="userSpaceOnUse" x="0" y="0" width="24" height="24">
<rect width="24" height="24" fill="#D9D9D9"/>
</mask>
<g mask="url(#mask0_740_8346)">
<path d="M19.4402 20.5C17.5557 20.5 15.6625 20.0618 13.7605 19.1855C11.8587 18.3092 10.1113 17.073 8.51825 15.477C6.92542 13.8808 5.69083 12.1333 4.8145 10.2345C3.93817 8.33583 3.5 6.44425 3.5 4.55975C3.5 4.25692 3.6 4.00458 3.8 3.80275C4 3.60092 4.25 3.5 4.55 3.5H7.8115C8.064 3.5 8.28675 3.58242 8.47975 3.74725C8.67275 3.91192 8.7955 4.11542 8.848 4.35775L9.42125 7.3C9.46092 7.573 9.45258 7.80758 9.39625 8.00375C9.33975 8.19992 9.23842 8.36467 9.09225 8.498L6.78275 10.7462C7.15442 11.4269 7.57908 12.0708 8.05675 12.678C8.53425 13.285 9.05125 13.8648 9.60775 14.4173C10.1564 14.9661 10.7397 15.4757 11.3577 15.9462C11.9757 16.4167 12.6431 16.8546 13.3598 17.2598L15.6038 14.9963C15.7603 14.8334 15.9498 14.7193 16.1723 14.6538C16.3946 14.5884 16.6257 14.5724 16.8655 14.6058L19.6423 15.1713C19.8948 15.2379 20.1008 15.3667 20.2605 15.5577C20.4202 15.7487 20.5 15.9654 20.5 16.2078V19.45C20.5 19.75 20.3991 20 20.1973 20.2C19.9954 20.4 19.7431 20.5 19.4402 20.5ZM16 8H13.75C13.5375 8 13.3593 7.92808 13.2155 7.78425C13.0718 7.64042 13 7.46225 13 7.24975C13 7.03708 13.0718 6.859 13.2155 6.7155C13.3593 6.57183 13.5375 6.5 13.75 6.5H16V4.25C16 4.0375 16.0719 3.85942 16.2158 3.71575C16.3596 3.57192 16.5378 3.5 16.7503 3.5C16.9629 3.5 17.141 3.57192 17.2845 3.71575C17.4282 3.85942 17.5 4.0375 17.5 4.25V6.5H19.75C19.9625 6.5 20.1406 6.57192 20.2843 6.71575C20.4281 6.85958 20.5 7.03775 20.5 7.25025C20.5 7.46292 20.4281 7.641 20.2843 7.7845C20.1406 7.92817 19.9625 8 19.75 8H17.5V10.25C17.5 10.4625 17.4281 10.6407 17.2843 10.7845C17.1404 10.9282 16.9622 11 16.7498 11C16.5371 11 16.359 10.9282 16.2155 10.7845C16.0718 10.6407 16 10.4625 16 10.25V8Z" fill="#141414"/>
</g>
</svg>
