<svg width="24" height="24" viewBox="0 0 24 24" fill="none" xmlns="http://www.w3.org/2000/svg">
<mask id="mask0_740_8345" style="mask-type:alpha" maskUnits="userSpaceOnUse" x="0" y="0" width="24" height="24">
<rect width="24" height="24" fill="#D9D9D9"/>
</mask>
<g mask="url(#mask0_740_8345)">
<path d="M6.0385 17.5L4.0365 19.5018C3.752 19.7864 3.42475 19.8504 3.05475 19.6938C2.68492 19.5369 2.5 19.2569 2.5 18.8538V4.30775C2.5 3.80258 2.675 3.375 3.025 3.025C3.375 2.675 3.80258 2.5 4.30775 2.5H19.6923C20.1974 2.5 20.625 2.675 20.975 3.025C21.325 3.375 21.5 3.80258 21.5 4.30775V15.6923C21.5 16.1974 21.325 16.625 20.975 16.975C20.625 17.325 20.1974 17.5 19.6923 17.5H6.0385ZM11.25 10.75V13C11.25 13.2125 11.3219 13.3906 11.4658 13.5343C11.6096 13.6781 11.7878 13.75 12.0003 13.75C12.2129 13.75 12.391 13.6781 12.5345 13.5343C12.6782 13.3906 12.75 13.2125 12.75 13V10.75H15C15.2125 10.75 15.3906 10.6781 15.5343 10.5343C15.6781 10.3904 15.75 10.2122 15.75 9.99975C15.75 9.78708 15.6781 9.609 15.5343 9.4655C15.3906 9.32183 15.2125 9.25 15 9.25H12.75V7C12.75 6.7875 12.6781 6.60942 12.5343 6.46575C12.3904 6.32192 12.2122 6.25 11.9998 6.25C11.7871 6.25 11.609 6.32192 11.4655 6.46575C11.3218 6.60942 11.25 6.7875 11.25 7V9.25H9C8.7875 9.25 8.60942 9.32192 8.46575 9.46575C8.32192 9.60958 8.25 9.78775 8.25 10.0003C8.25 10.2129 8.32192 10.391 8.46575 10.5345C8.60942 10.6782 8.7875 10.75 9 10.75H11.25Z" fill="#141414"/>
</g>
</svg>
