<svg width="24" height="24" viewBox="0 0 24 24" fill="none" xmlns="http://www.w3.org/2000/svg">
<mask id="mask0_740_8363" style="mask-type:alpha" maskUnits="userSpaceOnUse" x="0" y="0" width="24" height="24">
<rect width="24" height="24" fill="#D9D9D9"/>
</mask>
<g mask="url(#mask0_740_8363)">
<path d="M11.25 12.75V16C11.25 16.2125 11.3219 16.3906 11.4658 16.5343C11.6096 16.6781 11.7878 16.75 12.0003 16.75C12.2129 16.75 12.391 16.6781 12.5345 16.5343C12.6782 16.3906 12.75 16.2125 12.75 16V12.75H16C16.2125 12.75 16.3906 12.6781 16.5343 12.5343C16.6781 12.3904 16.75 12.2122 16.75 11.9998C16.75 11.7871 16.6781 11.609 16.5343 11.4655C16.3906 11.3218 16.2125 11.25 16 11.25H12.75V8C12.75 7.7875 12.6781 7.60942 12.5343 7.46575C12.3904 7.32192 12.2122 7.25 11.9998 7.25C11.7871 7.25 11.609 7.32192 11.4655 7.46575C11.3218 7.60942 11.25 7.7875 11.25 8V11.25H8C7.7875 11.25 7.60942 11.3219 7.46575 11.4658C7.32192 11.6096 7.25 11.7878 7.25 12.0003C7.25 12.2129 7.32192 12.391 7.46575 12.5345C7.60942 12.6782 7.7875 12.75 8 12.75H11.25ZM5.30775 20.5C4.80258 20.5 4.375 20.325 4.025 19.975C3.675 19.625 3.5 19.1974 3.5 18.6923V5.30775C3.5 4.80258 3.675 4.375 4.025 4.025C4.375 3.675 4.80258 3.5 5.30775 3.5H18.6923C19.1974 3.5 19.625 3.675 19.975 4.025C20.325 4.375 20.5 4.80258 20.5 5.30775V18.6923C20.5 19.1974 20.325 19.625 19.975 19.975C19.625 20.325 19.1974 20.5 18.6923 20.5H5.30775Z" fill="#141414"/>
</g>
</svg>
