<svg width="24" height="24" viewBox="0 0 24 24" fill="none" xmlns="http://www.w3.org/2000/svg">
<path d="M9.00253 7.40607C9.1132 6.86464 9.8868 6.86464 9.99747 7.40607C10.6764 10.7277 13.2723 13.3236 16.5939 14.0025C17.1354 14.1132 17.1354 14.8868 16.5939 14.9975C13.2723 15.6764 10.6764 18.2723 9.99747 21.5939C9.8868 22.1354 9.1132 22.1354 9.00253 21.5939C8.32361 18.2723 5.72775 15.6764 2.40607 14.9975C1.86464 14.8868 1.86464 14.1132 2.40607 14.0025C5.72775 13.3236 8.32361 10.7277 9.00253 7.40607Z" fill="#141414"/>
<path d="M18.2171 2.02685C18.2244 1.99105 18.2756 1.99105 18.2829 2.02685C18.6627 3.88509 20.1149 5.33729 21.9731 5.7171C22.009 5.72442 22.009 5.77558 21.9731 5.7829C20.1149 6.16271 18.6627 7.61491 18.2829 9.47315C18.2756 9.50895 18.2244 9.50895 18.2171 9.47315C17.8373 7.61491 16.3851 6.16271 14.5269 5.7829C14.491 5.77558 14.491 5.72442 14.5269 5.7171C16.3851 5.33729 17.8373 3.88509 18.2171 2.02685Z" fill="#141414"/>
</svg>
