<svg width="24" height="24" viewBox="0 0 24 24" fill="none" xmlns="http://www.w3.org/2000/svg">
<path fill-rule="evenodd" clip-rule="evenodd" d="M3.025 17.975C3.375 18.325 3.80258 18.5 4.30775 18.5H17.9615L19.9635 20.5018C20.248 20.7864 20.5752 20.8509 20.9452 20.6952C21.3151 20.5394 21.5 20.2589 21.5 19.8538V5.30775C21.5 4.80258 21.325 4.375 20.975 4.025C20.625 3.675 20.1974 3.5 19.6923 3.5H4.30775C3.80258 3.5 3.375 3.675 3.025 4.025C2.675 4.375 2.5 4.80258 2.5 5.30775V16.6923C2.5 17.1974 2.675 17.625 3.025 17.975ZM10.9844 15.7248C11.1762 15.9083 11.4045 16 11.6693 16C11.9341 16 12.1625 15.9083 12.3543 15.7248C12.5462 15.5413 12.6505 15.3172 12.6673 15.0524H10.6714C10.6882 15.3172 10.7925 15.5413 10.9844 15.7248ZM9.81659 14.2137C9.89181 14.2889 9.9852 14.3265 10.0968 14.3265H13.2419C13.3535 14.3265 13.4469 14.2889 13.5221 14.2137C13.5974 14.1384 13.6351 14.0449 13.6351 13.9334C13.6351 13.8218 13.5974 13.7284 13.5221 13.6532C13.4469 13.5779 13.3535 13.5402 13.2419 13.5402H10.0968C9.9852 13.5402 9.89181 13.5779 9.81659 13.6532C9.74128 13.7284 9.70362 13.8218 9.70362 13.9334C9.70362 14.0449 9.74128 14.1384 9.81659 14.2137ZM8.48042 11.4762C8.80061 12.027 9.23521 12.4731 9.78422 12.8145H13.5545C14.1035 12.4731 14.5381 12.027 14.8583 11.4762C15.1785 10.9256 15.3387 10.3233 15.3387 9.66934C15.3387 8.64787 14.9825 7.78094 14.2701 7.06856C13.5577 6.35619 12.6908 6 11.6693 6C10.6479 6 9.78094 6.35619 9.06856 7.06856C8.35619 7.78094 8 8.64787 8 9.66934C8 10.3233 8.16014 10.9256 8.48042 11.4762Z" fill="#141414"/>
</svg>
