<svg width="18" height="18" viewBox="0 0 18 18" fill="none" xmlns="http://www.w3.org/2000/svg">
<g id="Icon / Animals &#38; Nature" clip-path="url(#clip0_3328_49521)">
<path id="fill" d="M5.35563 15.784H4.81091C3.82269 15.7256 2.88004 15.3497 2.12418 14.7125C1.36833 14.0753 0.839965 13.2111 0.618257 12.2494C0.435588 11.3631 0.497586 10.444 0.797644 9.59005C1.0977 8.7361 1.62458 7.97928 2.32213 7.40025C1.67695 6.64328 1.21799 5.74663 0.981763 4.78168C0.831913 4.21736 0.831175 3.62397 0.979621 3.05928C1.12807 2.49458 1.42064 1.97781 1.82887 1.55924C2.13208 1.22507 2.50035 0.955897 2.91125 0.76811C3.32216 0.580322 3.7671 0.477846 4.21901 0.466919L4.27369 0.466919C5.52289 0.554195 6.69927 1.08511 7.58921 1.96324L7.675 2.0402C8.19809 1.90903 8.73547 1.84297 9.27485 1.84354C9.69419 1.84261 10.1126 1.8827 10.5241 1.96324C11.4128 1.08462 12.5887 0.553572 13.8374 0.466919L13.8943 0.466919C14.3463 0.477411 14.7913 0.579692 15.2023 0.767508C15.6133 0.955323 15.9815 1.22473 16.2844 1.55924C16.6935 1.97877 16.9865 2.49688 17.1348 3.06297C17.2831 3.62907 17.2816 4.22382 17.1304 4.78916C16.8941 5.75512 16.4331 6.65213 15.7847 7.40773C16.4792 7.98705 17.0034 8.74287 17.3019 9.59508C17.6004 10.4473 17.6619 11.3641 17.48 12.2483C17.2565 13.211 16.7262 14.0757 15.9684 14.7129C15.2107 15.35 14.2663 15.7254 13.2766 15.7829H12.733C12.2868 16.326 11.726 16.7645 11.0905 17.0671C10.455 17.3697 9.76038 17.529 9.05611 17.5336C8.34899 17.5264 7.65186 17.3662 7.01295 17.0642C6.37403 16.7621 5.80856 16.3253 5.35563 15.784ZM3.63997 7.46224L3.53274 7.78288L3.26467 7.99023C3.1821 8.06184 1.03431 9.78262 1.65087 11.9576C1.80299 12.7018 2.19706 13.3752 2.77203 13.8735C3.34701 14.3719 4.0708 14.6673 4.83128 14.7141H5.79634C5.93854 14.7141 6.07491 14.7704 6.17546 14.8706C6.276 14.9708 6.33249 15.1067 6.33249 15.2485C6.33296 15.2517 6.33296 15.2549 6.33249 15.2581C6.3329 15.2599 6.3329 15.2617 6.33249 15.2634V15.2688C6.68508 15.6382 7.10781 15.934 7.57611 16.1392C8.04441 16.3443 8.54895 16.4546 9.0604 16.4637C9.58014 16.4548 10.0925 16.3395 10.5657 16.125C11.0388 15.9104 11.4626 15.6011 11.8108 15.2164C11.8198 15.0809 11.8802 14.9539 11.9798 14.8611C12.0794 14.7684 12.2107 14.717 12.347 14.7173H13.2799C14.0381 14.6678 14.7589 14.3706 15.3307 13.8718C15.9024 13.3729 16.2934 12.7002 16.4431 11.9576C17.0586 9.78155 14.9087 8.05864 14.8164 7.98703L14.5151 7.75189L14.4261 7.37781C14.3832 7.19504 13.341 2.90807 9.26842 2.90807C5.13474 2.90807 3.70323 7.27627 3.64426 7.46224H3.63997ZM2.61057 2.29564C1.23161 3.7396 2.3618 5.65703 2.91081 6.41481C3.63233 4.72639 4.90752 3.33213 6.52765 2.46024C5.89539 1.92091 5.10682 1.597 4.27691 1.53572H4.23724C3.92829 1.54434 3.62443 1.61626 3.34458 1.74699C3.06473 1.87773 2.81487 2.06449 2.61057 2.29564ZM11.7379 2.34374C13.3866 3.17993 14.6427 4.62449 15.2389 6.36992C15.7751 5.62176 16.871 3.72357 15.5102 2.29564C15.3049 2.06345 15.0537 1.87608 14.7723 1.7453C14.4909 1.61453 14.1854 1.54317 13.875 1.53572H13.8374C13.0692 1.58171 12.3342 1.86401 11.7336 2.34374H11.7379ZM9.05718 15.0753C8.86061 15.2504 8.60557 15.3461 8.34196 15.3436C8.05954 15.35 7.78602 15.245 7.58082 15.0514C7.37562 14.8579 7.25533 14.5915 7.24608 14.3101L7.96023 14.278C7.96189 14.3263 7.97308 14.3738 7.99317 14.4178C8.01326 14.4617 8.04185 14.5013 8.0773 14.5343C8.11275 14.5673 8.15438 14.5929 8.19979 14.6098C8.2452 14.6267 8.29351 14.6346 8.34196 14.6329C8.38773 14.6357 8.43358 14.6289 8.47659 14.6131C8.5196 14.5973 8.55884 14.5727 8.5918 14.5409C8.65487 14.4694 8.68989 14.3775 8.69046 14.2823V13.5021C8.3921 13.3649 8.12838 13.1629 7.91869 12.9108C7.709 12.6587 7.55868 12.3629 7.47877 12.0453C7.47774 11.9681 7.49233 11.8915 7.52169 11.8201C7.55104 11.7486 7.59455 11.6838 7.64961 11.6296C7.70467 11.5753 7.77015 11.5326 7.84213 11.5042C7.91411 11.4757 7.99111 11.462 8.06853 11.4638H10.0297C10.1072 11.462 10.1842 11.4757 10.2561 11.5042C10.3281 11.5326 10.3936 11.5753 10.4487 11.6296C10.5037 11.6838 10.5472 11.7486 10.5766 11.8201C10.6059 11.8915 10.6205 11.9681 10.6195 12.0453C10.5398 12.3608 10.3905 12.6547 10.1826 12.9056C9.97468 13.1565 9.71331 13.358 9.41747 13.4956V14.2801C9.41803 14.3754 9.45306 14.4672 9.51612 14.5388C9.54908 14.5706 9.58832 14.5951 9.63133 14.611C9.67435 14.6268 9.7202 14.6335 9.76596 14.6307C9.81444 14.6326 9.86282 14.6248 9.90829 14.608C9.95377 14.5911 9.99545 14.5655 10.0309 14.5325C10.0664 14.4995 10.095 14.4599 10.115 14.4158C10.1351 14.3718 10.1462 14.3242 10.1477 14.2759L10.8618 14.3079C10.8526 14.5894 10.7323 14.8558 10.5271 15.0493C10.3219 15.2428 10.0484 15.3478 9.76596 15.3415C9.5029 15.3449 9.2481 15.2499 9.05182 15.0753H9.05718ZM11.5427 9.32303C11.5427 8.73198 11.8644 8.25423 12.258 8.25423C12.6515 8.25423 12.9732 8.73305 12.9732 9.32303C12.9732 9.91301 12.6515 10.3918 12.258 10.3918C11.8644 10.3918 11.5427 9.91301 11.5427 9.32303ZM5.10901 9.32303C5.10901 8.73198 5.43069 8.25423 5.82422 8.25423C6.21775 8.25423 6.53944 8.73305 6.53944 9.32303C6.53944 9.91301 6.21775 10.3918 5.82422 10.3918C5.43069 10.3918 5.10793 9.91301 5.10793 9.32303H5.10901Z" fill="#A1A1A1"/>
</g>
<defs>
<clipPath id="clip0_3328_49521">
<rect width="17.0667" height="17.0667" fill="white" transform="translate(0.466797 0.466675)"/>
</clipPath>
</defs>
</svg>
