<svg width="24" height="24" viewBox="0 0 24 24" fill="none" xmlns="http://www.w3.org/2000/svg">
<mask id="mask0_740_8405" style="mask-type:alpha" maskUnits="userSpaceOnUse" x="0" y="0" width="24" height="24">
<rect width="24" height="24" fill="#D9D9D9"/>
</mask>
<g mask="url(#mask0_740_8405)">
<path d="M5.38475 20.5C4.88592 20.5 4.44708 20.3106 4.06825 19.9318C3.68942 19.5529 3.5 19.1141 3.5 18.6152V7.00575C3.5 6.79175 3.53433 6.58758 3.603 6.39325C3.6715 6.19908 3.77433 6.01992 3.9115 5.85575L5.3155 4.15775C5.4795 3.94358 5.68458 3.78042 5.93075 3.66825C6.17692 3.55608 6.43717 3.5 6.7115 3.5H17.2693C17.5436 3.5 17.8054 3.55608 18.0548 3.66825C18.3041 3.78042 18.5108 3.94358 18.675 4.15775L20.0885 5.875C20.2257 6.03917 20.3285 6.21992 20.397 6.41725C20.4657 6.61475 20.5 6.82058 20.5 7.03475V18.6152C20.5 19.1141 20.3106 19.5529 19.9318 19.9318C19.5529 20.3106 19.1141 20.5 18.6152 20.5H5.38475ZM5.3905 6.404H18.6L17.5095 5.10575C17.4775 5.07375 17.4407 5.04808 17.399 5.02875C17.3573 5.00958 17.3141 5 17.2693 5H6.72125C6.67642 5 6.63308 5.00958 6.59125 5.02875C6.54958 5.04808 6.51275 5.07375 6.48075 5.10575L5.3905 6.404ZM12 10.2885C11.7872 10.2885 11.609 10.3603 11.4655 10.5038C11.3218 10.6474 11.25 10.8257 11.25 11.0385V14.7385L9.927 13.4155C9.7885 13.277 9.61442 13.2062 9.40475 13.203C9.19525 13.1997 9.018 13.2705 8.873 13.4155C8.72817 13.5603 8.65575 13.7359 8.65575 13.9423C8.65575 14.1488 8.72817 14.3244 8.873 14.4692L11.3672 16.9635C11.5481 17.1442 11.759 17.2345 12 17.2345C12.241 17.2345 12.4519 17.1442 12.6328 16.9635L15.127 14.4692C15.2653 14.3307 15.3362 14.1567 15.3395 13.947C15.3427 13.7375 15.2718 13.5603 15.127 13.4155C14.982 13.2705 14.8063 13.198 14.6 13.198C14.3937 13.198 14.218 13.2705 14.073 13.4155L12.75 14.7385V11.0385C12.75 10.8257 12.6782 10.6474 12.5345 10.5038C12.391 10.3603 12.2128 10.2885 12 10.2885Z" fill="#141414"/>
</g>
</svg>
