<svg width="24" height="24" viewBox="0 0 24 24" fill="none" xmlns="http://www.w3.org/2000/svg">
<g id="Base_Icon">
<path id="Vector" d="M19.7512 20.8335C17.8234 20.8335 15.8692 20.3772 13.8887 19.4647C11.9082 18.5522 10.086 17.2572 8.42197 15.5795C6.7443 13.9155 5.44922 12.0947 4.53672 10.117C3.62422 8.13916 3.16797 6.18199 3.16797 4.24549C3.16797 3.94033 3.27114 3.68424 3.47747 3.47724C3.6838 3.27041 3.94172 3.16699 4.25122 3.16699H7.81797C8.0513 3.16699 8.25055 3.24541 8.41572 3.40224C8.58105 3.55924 8.69288 3.75858 8.75122 4.00024L9.41672 7.19424C9.44522 7.41774 9.43655 7.62324 9.39072 7.81074C9.34488 7.99824 9.25822 8.15708 9.13072 8.28724L6.70547 10.7502C7.10814 11.4447 7.54305 12.0956 8.01022 12.7027C8.47755 13.3101 8.99264 13.8884 9.55547 14.4377C10.1276 15.0266 10.7339 15.5687 11.3742 16.064C12.0144 16.5592 12.6901 17.0046 13.4012 17.4002L15.7852 14.9835C15.9376 14.8197 16.1118 14.7072 16.308 14.646C16.5041 14.585 16.7019 14.5697 16.9012 14.6002L19.9822 15.2492C20.2282 15.3082 20.4318 15.4351 20.593 15.6297C20.754 15.8246 20.8345 16.0425 20.8345 16.2835V19.7502C20.8345 20.0597 20.7313 20.3177 20.525 20.524C20.3186 20.7303 20.0607 20.8335 19.7512 20.8335ZM5.92197 9.28349L7.82197 7.36699L7.28447 4.75024H4.77197C4.81097 5.43358 4.92072 6.14749 5.10122 6.89199C5.28172 7.63633 5.5553 8.43349 5.92197 9.28349ZM14.8887 18.1502C15.5471 18.4557 16.2563 18.703 17.0165 18.892C17.7766 19.0808 18.5216 19.1947 19.2512 19.2335V16.717L16.7845 16.196L14.8887 18.1502Z" fill="#141414"/>
</g>
</svg>
