<svg width="24" height="24" viewBox="0 0 24 24" fill="none" xmlns="http://www.w3.org/2000/svg">
<mask id="mask0_740_8451" style="mask-type:alpha" maskUnits="userSpaceOnUse" x="0" y="0" width="24" height="24">
<rect width="24" height="24" fill="#D9D9D9"/>
</mask>
<g mask="url(#mask0_740_8451)">
<path d="M12.1 21.5C10.7705 21.5 9.52375 21.2477 8.35975 20.7432C7.19558 20.2387 6.18017 19.5532 5.3135 18.6865C4.44683 17.8198 3.76125 16.8044 3.25675 15.6402C2.75225 14.4762 2.5 13.2295 2.5 11.9C2.5 9.97815 3.01992 8.22274 4.05975 6.63374C5.09942 5.04457 6.50575 3.88399 8.27875 3.15199C8.59425 3.01865 8.89267 3.04207 9.174 3.22224C9.45533 3.40224 9.59733 3.65832 9.6 3.99049C9.6205 5.38149 9.892 6.7074 10.4145 7.96824C10.9368 9.22924 11.6884 10.3501 12.6692 11.3307C13.6499 12.3116 14.7675 13.0616 16.022 13.5807C17.2765 14.1001 18.5992 14.37 19.9902 14.3905C20.3596 14.393 20.6308 14.534 20.8038 14.8135C20.9769 15.093 20.9968 15.3956 20.8635 15.7212C20.1108 17.4841 18.9425 18.8879 17.3585 19.9327C15.7747 20.9776 14.0218 21.5 12.1 21.5Z" fill="#141414"/>
</g>
</svg>
