<svg width="24" height="24" viewBox="0 0 24 24" fill="none" xmlns="http://www.w3.org/2000/svg">
<mask id="mask0_740_8491" style="mask-type:alpha" maskUnits="userSpaceOnUse" x="0" y="0" width="24" height="24">
<rect width="24" height="24" fill="#D9D9D9"/>
</mask>
<g mask="url(#mask0_740_8491)">
<path d="M12 17.4615L8.03075 19.1652C7.42825 19.4229 6.85583 19.3736 6.3135 19.0173C5.77117 18.6609 5.5 18.1597 5.5 17.5135V5.30775C5.5 4.80258 5.675 4.375 6.025 4.025C6.375 3.675 6.80258 3.5 7.30775 3.5H16.6923C17.1974 3.5 17.625 3.675 17.975 4.025C18.325 4.375 18.5 4.80258 18.5 5.30775V17.5135C18.5 18.1597 18.2288 18.6609 17.6865 19.0173C17.1442 19.3736 16.5718 19.4229 15.9693 19.1652L12 17.4615Z" fill="#141414"/>
</g>
</svg>
