<svg width="24" height="24" viewBox="0 0 24 24" fill="none" xmlns="http://www.w3.org/2000/svg">
<mask id="mask0_740_8337" style="mask-type:alpha" maskUnits="userSpaceOnUse" x="0" y="0" width="24" height="24">
<rect width="24" height="24" fill="#D9D9D9"/>
</mask>
<g mask="url(#mask0_740_8337)">
<path d="M17 7H15.75C15.5375 7 15.3593 6.92808 15.2155 6.78425C15.0718 6.64042 15 6.46225 15 6.24975C15 6.03708 15.0718 5.859 15.2155 5.7155C15.3593 5.57183 15.5375 5.5 15.75 5.5H17V4.25C17 4.0375 17.0719 3.85942 17.2158 3.71575C17.3596 3.57192 17.5378 3.5 17.7503 3.5C17.9629 3.5 18.141 3.57192 18.2845 3.71575C18.4282 3.85942 18.5 4.0375 18.5 4.25V5.5H19.75C19.9625 5.5 20.1406 5.57192 20.2843 5.71575C20.4281 5.85958 20.5 6.03775 20.5 6.25025C20.5 6.46292 20.4281 6.641 20.2843 6.7845C20.1406 6.92817 19.9625 7 19.75 7H18.5V8.25C18.5 8.4625 18.4281 8.64067 18.2843 8.7845C18.1404 8.92817 17.9622 9 17.7498 9C17.5371 9 17.359 8.92817 17.2155 8.7845C17.0718 8.64067 17 8.4625 17 8.25V7ZM12 17.4615L8.03075 19.1652C7.42825 19.4229 6.85583 19.3743 6.3135 19.0195C5.77117 18.6647 5.5 18.1627 5.5 17.5135V5.30775C5.5 4.81058 5.677 4.385 6.031 4.031C6.385 3.677 6.81058 3.5 7.30775 3.5H12.6537C12.9249 3.5 13.1283 3.61892 13.264 3.85675C13.3995 4.09458 13.4102 4.34233 13.2962 4.6C13.1899 4.86333 13.1139 5.12675 13.0682 5.39025C13.0227 5.65358 13 5.94017 13 6.25C13 7.43083 13.3823 8.46192 14.147 9.34325C14.9118 10.2247 15.8628 10.7533 17 10.9288C17.123 10.9493 17.2332 10.9621 17.3307 10.9673C17.4282 10.9724 17.5231 10.975 17.6152 10.975C17.8602 10.9813 18.0689 11.064 18.2413 11.223C18.4138 11.382 18.5 11.5788 18.5 11.8135V17.5135C18.5 18.1627 18.2288 18.6647 17.6865 19.0195C17.1442 19.3743 16.5718 19.4229 15.9693 19.1652L12 17.4615Z" fill="#141414"/>
</g>
</svg>
