<svg width="24" height="24" viewBox="0 0 24 24" fill="none" xmlns="http://www.w3.org/2000/svg">
<mask id="mask0_740_8480" style="mask-type:alpha" maskUnits="userSpaceOnUse" x="0" y="0" width="24" height="24">
<rect width="24" height="24" fill="#D9D9D9"/>
</mask>
<g mask="url(#mask0_740_8480)">
<path d="M17.25 18.75H15C14.7875 18.75 14.6094 18.6781 14.4658 18.5343C14.3219 18.3904 14.25 18.2123 14.25 17.9998C14.25 17.7871 14.3219 17.609 14.4658 17.4655C14.6094 17.3218 14.7875 17.25 15 17.25H17.25V15C17.25 14.7875 17.3219 14.6094 17.4658 14.4658C17.6096 14.3219 17.7878 14.25 18.0003 14.25C18.2129 14.25 18.391 14.3219 18.5345 14.4658C18.6782 14.6094 18.75 14.7875 18.75 15V17.25H21C21.2125 17.25 21.3906 17.3219 21.5343 17.4658C21.6781 17.6096 21.75 17.7878 21.75 18.0003C21.75 18.2129 21.6781 18.391 21.5343 18.5345C21.3906 18.6782 21.2125 18.75 21 18.75H18.75V21C18.75 21.2125 18.6781 21.3906 18.5343 21.5343C18.3904 21.6781 18.2122 21.75 17.9998 21.75C17.7871 21.75 17.609 21.6781 17.4655 21.5343C17.3218 21.3906 17.25 21.2125 17.25 21V18.75ZM5.30775 19.5C4.80258 19.5 4.375 19.325 4.025 18.975C3.675 18.625 3.5 18.1974 3.5 17.6923V6.30777C3.5 5.8026 3.675 5.37502 4.025 5.02502C4.375 4.67502 4.80258 4.50002 5.30775 4.50002H6.69225V3.15377C6.69225 2.93593 6.76617 2.75326 6.914 2.60576C7.06167 2.45843 7.24467 2.38477 7.463 2.38477C7.68133 2.38477 7.86383 2.45843 8.0105 2.60576C8.15733 2.75326 8.23075 2.93593 8.23075 3.15377V4.50002H13.8077V3.13477C13.8077 2.92227 13.8797 2.7441 14.0235 2.60027C14.1672 2.4566 14.3453 2.38477 14.558 2.38477C14.7707 2.38477 14.9487 2.4566 15.0922 2.60027C15.2359 2.7441 15.3077 2.92227 15.3077 3.13477V4.50002H16.6923C17.1974 4.50002 17.625 4.67502 17.975 5.02502C18.325 5.37502 18.5 5.8026 18.5 6.30777V11.404C18.5 11.6163 18.4281 11.7944 18.2843 11.9383C18.1404 12.0819 17.9622 12.1538 17.7498 12.1538C17.5371 12.1538 17.359 12.0819 17.2155 11.9383C17.0718 11.7944 17 11.6163 17 11.404V10.3078H5V17.6923C5 17.7693 5.03208 17.8398 5.09625 17.9038C5.16025 17.9679 5.23075 18 5.30775 18H11.3942C11.6067 18 11.7848 18.0719 11.9285 18.2158C12.0723 18.3596 12.1442 18.5378 12.1442 18.7503C12.1442 18.9629 12.0723 19.141 11.9285 19.2845C11.7848 19.4282 11.6067 19.5 11.3942 19.5H5.30775Z" fill="#141414"/>
</g>
</svg>
