<svg width="24" height="24" viewBox="0 0 24 24" fill="none" xmlns="http://www.w3.org/2000/svg">
<path d="M1.51672 11.1564L2.5311 12.168C3.05852 12.6952 3.77376 12.9914 4.51954 12.9914C5.26531 12.9914 5.98055 12.6952 6.50797 12.168L7.99954 10.6764C8.13022 10.5458 8.23388 10.3908 8.30461 10.2201C8.37533 10.0494 8.41174 9.86648 8.41174 9.68173C8.41174 9.49699 8.37533 9.31405 8.30461 9.14338C8.23388 8.9727 8.13022 8.81764 7.99954 8.68705L5.09985 5.78642C4.95817 5.64292 4.78729 5.53157 4.59879 5.45992C4.4103 5.38827 4.2086 5.358 4.00737 5.37116C3.80615 5.38432 3.61011 5.44061 3.43255 5.53619C3.25499 5.63178 3.10007 5.76444 2.97829 5.92517C-0.0601505 10.052 1.7811 14.3992 5.51516 18.1342C9.24922 21.8692 13.5964 23.7086 17.7242 20.6702C17.8849 20.5483 18.0175 20.3933 18.113 20.2157C18.2085 20.0381 18.2647 19.8421 18.2777 19.6409C18.2908 19.4396 18.2605 19.238 18.1887 19.0495C18.117 18.861 18.0056 18.6902 17.862 18.5486L14.9614 15.648C14.8308 15.5173 14.6758 15.4136 14.5051 15.3429C14.3344 15.2722 14.1515 15.2358 13.9667 15.2358C13.782 15.2358 13.599 15.2722 13.4284 15.3429C13.2577 15.4136 13.1026 15.5173 12.972 15.648L11.4805 17.1395C11.2193 17.4007 11.012 17.7108 10.8707 18.052C10.7293 18.3933 10.6565 18.7591 10.6565 19.1285C10.6565 19.4978 10.7293 19.8636 10.8707 20.2049C11.012 20.5461 11.2193 20.8562 11.4805 21.1174L12.5117 22.143" stroke="black" stroke-width="1.5" stroke-linecap="round" stroke-linejoin="round"/>
<path d="M16.9219 1.80469C15.9401 1.80483 14.9755 2.06192 14.1239 2.5504C13.2723 3.03888 12.5634 3.74173 12.0676 4.5891C11.5719 5.43647 11.3065 6.39883 11.2979 7.38054C11.2894 8.36224 11.5379 9.3291 12.0188 10.185L10.5938 14.4609L14.7431 12.6169C15.511 12.9389 16.3408 13.0865 17.1726 13.049C18.0044 13.0114 18.8175 12.7896 19.5532 12.3997C20.2889 12.0097 20.9288 11.4613 21.4269 10.794C21.9249 10.1267 22.2685 9.35709 22.433 8.54084C22.5975 7.72458 22.5787 6.88199 22.378 6.07388C22.1773 5.26577 21.7997 4.51229 21.2724 3.86783C20.7452 3.22337 20.0814 2.70401 19.3291 2.34723C18.5767 1.99044 17.7545 1.80514 16.9219 1.80469Z" stroke="black" stroke-width="1.5" stroke-linecap="round" stroke-linejoin="round"/>
<path d="M19.7344 7.42969C19.7344 8.17561 19.4381 8.89098 18.9106 9.41843C18.3832 9.94587 17.6678 10.2422 16.9219 10.2422C16.176 10.2422 15.4606 9.94587 14.9331 9.41843C14.4057 8.89098 14.1094 8.17561 14.1094 7.42969H19.7344Z" stroke="black" stroke-width="1.5" stroke-linecap="round" stroke-linejoin="round"/>
</svg>
