<svg xmlns="http://www.w3.org/2000/svg" width="16" height="16" viewBox="0 0 16 16" fill="none">
<mask id="mask0_7579_415926" style="mask-type:alpha" maskUnits="userSpaceOnUse" x="0" y="0" width="16" height="16">
<rect width="16" height="16" fill="#D9D9D9"/>
</mask>
<g mask="url(#mask0_7579_415926)">
<path d="M4.26941 12.3337C4.09864 12.3337 3.95553 12.2759 3.84008 12.1604C3.72453 12.0449 3.66675 11.9018 3.66675 11.731V6.50036C3.66675 6.3587 3.71469 6.23992 3.81058 6.14403C3.90647 6.04825 4.02525 6.00036 4.16691 6.00036C4.30869 6.00036 4.42741 6.04825 4.52308 6.14403C4.61886 6.23992 4.66675 6.3587 4.66675 6.50036V10.6312L11.9462 3.3517C12.0386 3.25936 12.1546 3.21214 12.2942 3.21003C12.434 3.20792 12.5522 3.25514 12.6487 3.3517C12.7453 3.44825 12.7936 3.56531 12.7936 3.70286C12.7936 3.84053 12.7453 3.95764 12.6487 4.05419L5.36925 11.3337H9.50008C9.64175 11.3337 9.76053 11.3816 9.85641 11.4775C9.95219 11.5734 10.0001 11.6922 10.0001 11.8339C10.0001 11.9756 9.95219 12.0944 9.85641 12.19C9.76053 12.2858 9.64175 12.3337 9.50008 12.3337H4.26941Z" fill="#F44649"/>
</g>
</svg>