<svg width="24" height="24" viewBox="0 0 24 24" fill="none" xmlns="http://www.w3.org/2000/svg">
<mask id="mask0_740_8327" style="mask-type:alpha" maskUnits="userSpaceOnUse" x="0" y="0" width="24" height="24">
<rect width="24" height="24" fill="#D9D9D9"/>
</mask>
<g mask="url(#mask0_740_8327)">
<path d="M19 10.021L13.2328 15.7885C13.052 15.9692 12.8494 16.1031 12.625 16.1903C12.4007 16.2776 12.1764 16.3213 11.952 16.3213C11.7277 16.3213 11.5033 16.2776 11.2788 16.1903C11.0545 16.1031 10.852 15.9692 10.6713 15.7885L4.01729 9.13453C3.87896 8.99619 3.80812 8.82478 3.80479 8.62028C3.80162 8.41578 3.87246 8.23594 4.01729 8.08078C4.17246 7.92561 4.35071 7.84803 4.55204 7.84803C4.75321 7.84803 4.93137 7.92561 5.08654 8.08078L11.7308 14.725C11.7885 14.7827 11.8622 14.8115 11.952 14.8115C12.0417 14.8115 12.1154 14.7827 12.173 14.725L17.9463 8.95203H13.75C13.5372 8.95203 13.359 8.88019 13.2155 8.73653C13.0719 8.59303 13 8.41486 13 8.20203C13 7.98919 13.0719 7.81094 13.2155 7.66728C13.359 7.52378 13.5372 7.45203 13.75 7.45203H19.596C19.8539 7.45203 20.069 7.53819 20.2413 7.71053C20.4138 7.88303 20.5 8.09811 20.5 8.35578V14.202C20.5 14.4149 20.4282 14.593 20.2845 14.7365C20.141 14.8802 19.9629 14.952 19.75 14.952C19.5372 14.952 19.359 14.8802 19.2155 14.7365C19.0719 14.593 19 14.4149 19 14.202V10.021Z" fill="#141414"/>
</g>
</svg>
