<svg width="24" height="24" viewBox="0 0 24 24" fill="none" xmlns="http://www.w3.org/2000/svg">
<path d="M3.51687 16.3L1.20112 14.001C1.04212 13.842 0.964038 13.6584 0.966871 13.45C0.969538 13.2417 1.04729 13.0528 1.20012 12.8833C2.58629 11.3111 4.2252 10.1153 6.11687 9.29577C8.00854 8.47644 9.96962 8.06677 12.0001 8.06677C14.0306 8.06677 15.9904 8.47644 17.8794 9.29577C19.7682 10.1153 21.4085 11.3111 22.8001 12.8833C22.953 13.0528 23.0307 13.2417 23.0334 13.45C23.0362 13.6584 22.9578 13.842 22.7981 14.001L20.5001 16.3C20.3556 16.4445 20.1646 16.5244 19.9271 16.5395C19.6896 16.5549 19.4912 16.5023 19.3319 16.3818L16.5001 14.2543C16.3946 14.1754 16.3155 14.0835 16.2626 13.9785C16.2098 13.8734 16.1834 13.7541 16.1834 13.6208V10.3508C15.5047 10.1061 14.8121 9.92811 14.1056 9.81677C13.3991 9.70561 12.7028 9.65002 12.0166 9.65002C11.316 9.65002 10.6125 9.70561 9.90637 9.81677C9.2002 9.92777 8.5092 10.1055 7.83337 10.35V13.6168C7.83337 13.7433 7.8077 13.8607 7.75637 13.969C7.70504 14.0775 7.62521 14.1712 7.51687 14.25L4.66437 16.3873C4.47437 16.5263 4.27479 16.5872 4.06562 16.57C3.85662 16.5529 3.6737 16.4629 3.51687 16.3ZM6.16687 11C5.5752 11.2945 5.00362 11.6487 4.45212 12.0625C3.90079 12.4764 3.36679 12.9166 2.85012 13.3833L4.16687 14.7333L6.16687 13.2333V11ZM17.7669 10.95V13.1333L19.8334 14.7168L21.1669 13.4C20.6502 12.8805 20.1106 12.4249 19.5481 12.0333C18.9856 11.6416 18.3919 11.2805 17.7669 10.95Z" fill="#141414"/>
</svg>
