<svg width="24" height="24" viewBox="0 0 24 24" fill="none" xmlns="http://www.w3.org/2000/svg">
<mask id="mask0_740_8420" style="mask-type:alpha" maskUnits="userSpaceOnUse" x="0" y="0" width="24" height="24">
<rect width="24" height="24" fill="#D9D9D9"/>
</mask>
<g mask="url(#mask0_740_8420)">
<path d="M18.4402 21.5C16.5557 21.5 14.6625 21.0618 12.7605 20.1855C10.8587 19.3092 9.11125 18.073 7.51825 16.477C5.92542 14.8808 4.69083 13.1333 3.8145 11.2345C2.93817 9.33583 2.5 7.44425 2.5 5.55975C2.5 5.25692 2.6 5.00458 2.8 4.80275C3 4.60092 3.25 4.5 3.55 4.5H6.8115C7.064 4.5 7.28675 4.58242 7.47975 4.74725C7.67275 4.91192 7.7955 5.11542 7.848 5.35775L8.42125 8.3C8.46092 8.573 8.45258 8.80758 8.39625 9.00375C8.33975 9.19992 8.23842 9.36467 8.09225 9.498L5.78275 11.7463C6.15442 12.4269 6.57908 13.0708 7.05675 13.678C7.53425 14.285 8.05125 14.8648 8.60775 15.4173C9.15642 15.9661 9.73975 16.4757 10.3577 16.9462C10.9757 17.4167 11.6431 17.8546 12.3598 18.2598L14.6038 15.9962C14.7603 15.8334 14.9498 15.7193 15.1723 15.6538C15.3946 15.5884 15.6257 15.5724 15.8655 15.6058L18.6423 16.1712C18.8948 16.2379 19.1008 16.3667 19.2605 16.5577C19.4202 16.7487 19.5 16.9654 19.5 17.2078V20.45C19.5 20.75 19.3991 21 19.1973 21.2C18.9954 21.4 18.7431 21.5 18.4402 21.5ZM12.75 4C12.5375 4 12.3593 3.92808 12.2155 3.78425C12.0718 3.64042 12 3.46225 12 3.24975C12 3.03708 12.0718 2.859 12.2155 2.7155C12.3593 2.57183 12.5375 2.5 12.75 2.5H20.75C20.9625 2.5 21.1406 2.57192 21.2843 2.71575C21.4281 2.85958 21.5 3.03775 21.5 3.25025C21.5 3.46292 21.4281 3.641 21.2843 3.7845C21.1406 3.92817 20.9625 4 20.75 4H12.75ZM12.75 7.69225C12.5375 7.69225 12.3593 7.62033 12.2155 7.4765C12.0718 7.33267 12 7.1545 12 6.942C12 6.72933 12.0718 6.55125 12.2155 6.40775C12.3593 6.26408 12.5375 6.19225 12.75 6.19225H20.75C20.9625 6.19225 21.1406 6.26417 21.2843 6.408C21.4281 6.55183 21.5 6.73008 21.5 6.94275C21.5 7.15525 21.4281 7.33333 21.2843 7.477C21.1406 7.6205 20.9625 7.69225 20.75 7.69225H12.75ZM12.75 11.3845C12.5375 11.3845 12.3593 11.3126 12.2155 11.1687C12.0718 11.0251 12 10.8469 12 10.6342C12 10.4216 12.0718 10.2435 12.2155 10.1C12.3593 9.95633 12.5375 9.8845 12.75 9.8845H20.75C20.9625 9.8845 21.1406 9.95642 21.2843 10.1003C21.4281 10.2441 21.5 10.4223 21.5 10.635C21.5 10.8475 21.4281 11.0256 21.2843 11.1693C21.1406 11.3128 20.9625 11.3845 20.75 11.3845H12.75Z" fill="#141414"/>
</g>
</svg>
