<svg xmlns="http://www.w3.org/2000/svg" width="16" height="16" viewBox="0 0 16 16" fill="none">
<mask id="mask0_7579_585760" style="mask-type:alpha" maskUnits="userSpaceOnUse" x="0" y="0" width="16" height="16">
<rect width="16" height="16" fill="#D9D9D9"/>
</mask>
<g mask="url(#mask0_7579_585760)">
<path d="M11.3339 5.36949L4.05436 12.649C3.96203 12.7413 3.84603 12.7885 3.70636 12.7907C3.56659 12.7928 3.44842 12.7455 3.35186 12.649C3.25531 12.5524 3.20703 12.4354 3.20703 12.2978C3.20703 12.1602 3.25531 12.043 3.35186 11.9465L10.6314 4.66699H6.50053C6.35886 4.66699 6.24009 4.61905 6.1442 4.52316C6.04842 4.42727 6.00053 4.30849 6.00053 4.16683C6.00053 4.02505 6.04842 3.90633 6.1442 3.81066C6.24009 3.71488 6.35886 3.66699 6.50053 3.66699H11.7312C11.902 3.66699 12.0451 3.72477 12.1605 3.84033C12.2761 3.95577 12.3339 4.09888 12.3339 4.26966V9.50033C12.3339 9.64199 12.2859 9.76077 12.19 9.85666C12.0941 9.95244 11.9754 10.0003 11.8337 10.0003C11.6919 10.0003 11.5732 9.95244 11.4775 9.85666C11.3818 9.76077 11.3339 9.64199 11.3339 9.50033V5.36949Z" fill="#09C26F"/>
</g>
</svg>