<svg width="24" height="24" viewBox="0 0 24 24" fill="none" xmlns="http://www.w3.org/2000/svg">
<mask id="mask0_740_8328" style="mask-type:alpha" maskUnits="userSpaceOnUse" x="0" y="0" width="24" height="24">
<rect width="24" height="24" fill="#D9D9D9"/>
</mask>
<g mask="url(#mask0_740_8328)">
<path d="M5 10.021V14.202C5 14.4149 4.92817 14.593 4.7845 14.7365C4.641 14.8802 4.46283 14.952 4.25 14.952C4.03717 14.952 3.859 14.8802 3.7155 14.7365C3.57183 14.593 3.5 14.4149 3.5 14.202V8.35578C3.5 8.09811 3.58625 7.88303 3.75875 7.71053C3.93108 7.53819 4.14617 7.45203 4.404 7.45203H10.25C10.4628 7.45203 10.641 7.52378 10.7845 7.66728C10.9282 7.81094 11 7.98919 11 8.20203C11 8.41486 10.9282 8.59303 10.7845 8.73653C10.641 8.88019 10.4628 8.95203 10.25 8.95203H6.05375L11.827 14.725C11.8847 14.7827 11.9583 14.8115 12.048 14.8115C12.1378 14.8115 12.2116 14.7827 12.2692 14.725L18.9288 8.06553C19.0776 7.91669 19.2517 7.84328 19.451 7.84528C19.6503 7.84711 19.8276 7.92561 19.9827 8.08078C20.1276 8.23594 20.2026 8.41161 20.2078 8.60778C20.2127 8.80394 20.1378 8.97953 19.9827 9.13453L13.3288 15.7885C13.1481 15.9692 12.9456 16.1031 12.7213 16.1903C12.4968 16.2776 12.2723 16.3213 12.048 16.3213C11.8237 16.3213 11.5993 16.2776 11.375 16.1903C11.1507 16.1031 10.9481 15.9692 10.7673 15.7885L5 10.021Z" fill="#141414"/>
</g>
</svg>
