<svg width="24" height="24" viewBox="0 0 24 24" fill="none" xmlns="http://www.w3.org/2000/svg">
<path fill-rule="evenodd" clip-rule="evenodd" d="M5.89625 18.7L3.35 21.25C3.1 21.5 2.8125 21.5583 2.4875 21.425C2.1625 21.2915 2 21.0484 2 20.6958V4.58325C2 4.15625 2.15708 3.78558 2.47125 3.47125C2.78542 3.15708 3.15608 3 3.58325 3H20.0833C20.5104 3 20.8811 3.15708 21.1953 3.47125C21.5094 3.78558 21.6665 4.15625 21.6665 4.58325V17.1168C21.6665 17.5438 21.5094 17.9144 21.1953 18.2288C20.8811 18.5429 20.5104 18.7 20.0833 18.7H5.89625ZM11.0847 9.11895C11.0847 9.81972 10.5166 10.3878 9.81583 10.3878C9.11506 10.3878 8.54697 9.81972 8.54697 9.11895C8.54697 8.41818 9.11506 7.8501 9.81583 7.8501C10.5166 7.8501 11.0847 8.41818 11.0847 9.11895ZM15.3142 9.11895C15.3142 9.81972 14.7461 10.3878 14.0453 10.3878C13.3446 10.3878 12.7765 9.81972 12.7765 9.11895C12.7765 8.41818 13.3446 7.8501 14.0453 7.8501C14.7461 7.8501 15.3142 8.41818 15.3142 9.11895ZM16.034 12.5063C15.6227 13.2158 15.033 13.8055 14.3234 14.2166C13.6138 14.6278 12.809 14.8461 11.9889 14.85C11.1688 14.8539 10.3619 14.6432 9.64841 14.2388C8.93492 13.8344 8.33964 13.2504 7.92168 12.5448C7.74311 12.2433 7.84274 11.8542 8.14421 11.6756C8.44567 11.4971 8.83482 11.5967 9.01339 11.8981C9.31854 12.4133 9.75316 12.8397 10.2741 13.135C10.795 13.4302 11.3841 13.5841 11.9828 13.5812C12.5816 13.5784 13.1692 13.4189 13.6873 13.1187C14.2054 12.8186 14.6359 12.3881 14.9362 11.87C15.1119 11.5669 15.5 11.4635 15.8032 11.6392C16.1063 11.8149 16.2097 12.2031 16.034 12.5063Z" fill="#141414"/>
</svg>
