<svg width="24" height="24" viewBox="0 0 24 24" fill="none" xmlns="http://www.w3.org/2000/svg">
<mask id="mask0_740_8325" style="mask-type:alpha" maskUnits="userSpaceOnUse" x="0" y="0" width="24" height="24">
<rect width="24" height="24" fill="#D9D9D9"/>
</mask>
<g mask="url(#mask0_740_8325)">
<path d="M6.0385 17.5L4.0365 19.5018C3.752 19.7864 3.42475 19.8504 3.05475 19.6938C2.68492 19.5369 2.5 19.2569 2.5 18.8538V4.30775C2.5 3.80258 2.675 3.375 3.025 3.025C3.375 2.675 3.80258 2.5 4.30775 2.5H19.6923C20.1974 2.5 20.625 2.675 20.975 3.025C21.325 3.375 21.5 3.80258 21.5 4.30775V15.6923C21.5 16.1974 21.325 16.625 20.975 16.975C20.625 17.325 20.1974 17.5 19.6923 17.5H6.0385ZM7 13.75H13C13.2125 13.75 13.3906 13.6781 13.5343 13.5343C13.6781 13.3904 13.75 13.2122 13.75 12.9998C13.75 12.7871 13.6781 12.609 13.5343 12.4655C13.3906 12.3218 13.2125 12.25 13 12.25H7C6.7875 12.25 6.60942 12.3219 6.46575 12.4658C6.32192 12.6096 6.25 12.7878 6.25 13.0003C6.25 13.2129 6.32192 13.391 6.46575 13.5345C6.60942 13.6782 6.7875 13.75 7 13.75ZM7 10.75H17C17.2125 10.75 17.3906 10.6781 17.5343 10.5343C17.6781 10.3904 17.75 10.2122 17.75 9.99975C17.75 9.78708 17.6781 9.609 17.5343 9.4655C17.3906 9.32183 17.2125 9.25 17 9.25H7C6.7875 9.25 6.60942 9.32192 6.46575 9.46575C6.32192 9.60958 6.25 9.78775 6.25 10.0003C6.25 10.2129 6.32192 10.391 6.46575 10.5345C6.60942 10.6782 6.7875 10.75 7 10.75ZM7 7.75H17C17.2125 7.75 17.3906 7.67808 17.5343 7.53425C17.6781 7.39042 17.75 7.21225 17.75 6.99975C17.75 6.78708 17.6781 6.609 17.5343 6.4655C17.3906 6.32183 17.2125 6.25 17 6.25H7C6.7875 6.25 6.60942 6.32192 6.46575 6.46575C6.32192 6.60958 6.25 6.78775 6.25 7.00025C6.25 7.21292 6.32192 7.391 6.46575 7.5345C6.60942 7.67817 6.7875 7.75 7 7.75Z" fill="#141414"/>
</g>
</svg>
