<svg width="24" height="24" viewBox="0 0 24 24" fill="none" xmlns="http://www.w3.org/2000/svg">
<mask id="mask0_740_8411" style="mask-type:alpha" maskUnits="userSpaceOnUse" x="0" y="0" width="24" height="24">
<rect width="24" height="24" fill="#D9D9D9"/>
</mask>
<g mask="url(#mask0_740_8411)">
<path d="M9.55025 15.5155L18.1888 6.87702C18.3374 6.72819 18.5114 6.65219 18.7107 6.64902C18.9101 6.64585 19.0873 6.72185 19.2425 6.87702C19.3977 7.03219 19.4753 7.21035 19.4753 7.41152C19.4753 7.61285 19.3977 7.7911 19.2425 7.94627L10.183 17.0213C10.0022 17.2019 9.79125 17.2923 9.55025 17.2923C9.30925 17.2923 9.09833 17.2019 8.9175 17.0213L4.7425 12.8463C4.59383 12.6974 4.5205 12.5208 4.5225 12.3163C4.52433 12.1119 4.60283 11.9322 4.758 11.777C4.91317 11.6219 5.09133 11.5443 5.2925 11.5443C5.49383 11.5443 5.67208 11.6219 5.82725 11.777L9.55025 15.5155Z" fill="#141414"/>
</g>
</svg>
