<svg width="24" height="24" viewBox="0 0 24 24" fill="none" xmlns="http://www.w3.org/2000/svg">
<mask id="mask0_740_8323" style="mask-type:alpha" maskUnits="userSpaceOnUse" x="0" y="0" width="24" height="24">
<rect width="24" height="24" fill="#D9D9D9"/>
</mask>
<g mask="url(#mask0_740_8323)">
<path d="M12.9458 12L8.87252 7.92701C8.73419 7.78851 8.66336 7.61443 8.66002 7.40476C8.65686 7.19526 8.72769 7.01801 8.87252 6.87301C9.01752 6.72818 9.19319 6.65576 9.39952 6.65576C9.60586 6.65576 9.78152 6.72818 9.92652 6.87301L14.4208 11.3673C14.5143 11.4609 14.5803 11.5597 14.6188 11.6635C14.6573 11.7673 14.6765 11.8795 14.6765 12C14.6765 12.1205 14.6573 12.2327 14.6188 12.3365C14.5803 12.4403 14.5143 12.5391 14.4208 12.6328L9.92652 17.127C9.78802 17.2653 9.61394 17.3362 9.40427 17.3395C9.19477 17.3427 9.01752 17.2718 8.87252 17.127C8.72769 16.982 8.65527 16.8063 8.65527 16.6C8.65527 16.3937 8.72769 16.218 8.87252 16.073L12.9458 12Z" fill="#141414"/>
</g>
</svg>
