<svg width="24" height="24" viewBox="0 0 24 24" fill="none" xmlns="http://www.w3.org/2000/svg">
<mask id="mask0_740_8324" style="mask-type:alpha" maskUnits="userSpaceOnUse" x="0" y="0" width="24" height="24">
<rect width="24" height="24" fill="#D9D9D9"/>
</mask>
<g mask="url(#mask0_740_8324)">
<path d="M10.4534 12L14.5267 16.073C14.665 16.2115 14.7358 16.3856 14.7392 16.5953C14.7423 16.8048 14.6715 16.982 14.5267 17.127C14.3817 17.2718 14.206 17.3443 13.9997 17.3443C13.7933 17.3443 13.6177 17.2718 13.4727 17.127L8.97841 12.6328C8.88491 12.5391 8.81891 12.4403 8.78041 12.3365C8.74191 12.2327 8.72266 12.1205 8.72266 12C8.72266 11.8795 8.74191 11.7673 8.78041 11.6635C8.81891 11.5597 8.88491 11.4609 8.97841 11.3673L13.4727 6.873C13.6112 6.73467 13.7852 6.66384 13.9949 6.6605C14.2044 6.65734 14.3817 6.72817 14.5267 6.873C14.6715 7.018 14.7439 7.19367 14.7439 7.4C14.7439 7.60634 14.6715 7.782 14.5267 7.927L10.4534 12Z" fill="#141414"/>
</g>
</svg>
