<svg width="24" height="24" viewBox="0 0 24 24" fill="none" xmlns="http://www.w3.org/2000/svg">
<path d="M11.9993 13.1L15.116 16.2167C15.2687 16.3694 15.452 16.4458 15.666 16.4458C15.8799 16.4458 16.0632 16.3694 16.216 16.2167C16.3687 16.0639 16.445 15.8806 16.445 15.6667C16.445 15.4527 16.3687 15.2694 16.216 15.1167L13.0993 12L16.216 8.88325C16.3687 8.73058 16.445 8.54725 16.445 8.33325C16.445 8.11942 16.3687 7.93608 16.216 7.78325C16.0632 7.63058 15.8799 7.55425 15.666 7.55425C15.452 7.55425 15.2687 7.63058 15.116 7.78325L11.9993 10.9L8.88252 7.78325C8.72985 7.63058 8.54652 7.55425 8.33252 7.55425C8.11868 7.55425 7.93535 7.63058 7.78252 7.78325C7.62985 7.93608 7.55352 8.11942 7.55352 8.33325C7.55352 8.54725 7.62985 8.73058 7.78252 8.88325L10.8993 12L7.78252 15.1167C7.62985 15.2694 7.55352 15.4527 7.55352 15.6667C7.55352 15.8806 7.62985 16.0639 7.78252 16.2167C7.93535 16.3694 8.11868 16.4458 8.33252 16.4458C8.54652 16.4458 8.72985 16.3694 8.88252 16.2167L11.9993 13.1ZM12.0003 21.8333C10.6511 21.8333 9.37802 21.5742 8.18102 21.056C6.98385 20.5377 5.9411 19.8335 5.05277 18.9435C4.16427 18.0533 3.46102 17.0107 2.94302 15.8155C2.42502 14.6203 2.16602 13.3488 2.16602 12.001C2.16602 10.6408 2.4251 9.36216 2.94327 8.165C3.4616 6.968 4.16577 5.92667 5.05577 5.041C5.94593 4.15533 6.9886 3.45483 8.18377 2.9395C9.37893 2.42433 10.6504 2.16675 11.9983 2.16675C13.3584 2.16675 14.6371 2.42516 15.8343 2.942C17.0314 3.45867 18.0729 4.16 18.9585 5.046C19.844 5.932 20.5444 6.97258 21.0598 8.16775C21.5749 9.36292 21.8325 10.64 21.8325 11.999C21.8325 13.3482 21.5748 14.6213 21.0593 15.8183C20.5438 17.0154 19.8424 18.0582 18.9553 18.9465C18.0679 19.835 17.0267 20.5382 15.8315 21.0562C14.6363 21.5742 13.3593 21.8333 12.0003 21.8333ZM11.9988 20.25C14.2908 20.25 16.2389 19.4453 17.843 17.836C19.4472 16.2267 20.2493 14.2815 20.2493 12.0005C20.2493 9.7085 19.4474 7.76042 17.8435 6.15625C16.2397 4.55208 14.2918 3.75 11.9998 3.75C9.71893 3.75 7.7736 4.55191 6.16377 6.15575C4.5541 7.75958 3.74927 9.7075 3.74927 11.9995C3.74927 14.2803 4.55393 16.2257 6.16327 17.8355C7.7726 19.4452 9.71777 20.25 11.9988 20.25Z" fill="#141414"/>
</svg>
