<svg width="24" height="24" viewBox="0 0 24 24" fill="none" xmlns="http://www.w3.org/2000/svg">
<mask id="mask0_740_8321" style="mask-type:alpha" maskUnits="userSpaceOnUse" x="0" y="0" width="24" height="24">
<rect width="24" height="24" fill="#D9D9D9"/>
</mask>
<g mask="url(#mask0_740_8321)">
<path d="M11.9995 13.0538L6.92652 18.127C6.78802 18.2653 6.61394 18.3362 6.40427 18.3395C6.19477 18.3427 6.01752 18.2718 5.87252 18.127C5.72769 17.982 5.65527 17.8063 5.65527 17.6C5.65527 17.3937 5.72769 17.218 5.87252 17.073L10.9458 12L5.87252 6.92701C5.73419 6.78851 5.66336 6.61443 5.66002 6.40476C5.65686 6.19526 5.72769 6.01801 5.87252 5.87301C6.01752 5.72818 6.19319 5.65576 6.39952 5.65576C6.60586 5.65576 6.78152 5.72818 6.92652 5.87301L11.9995 10.9463L17.0725 5.87301C17.211 5.73468 17.3851 5.66385 17.5948 5.66051C17.8043 5.65735 17.9815 5.72818 18.1265 5.87301C18.2714 6.01801 18.3438 6.19368 18.3438 6.40001C18.3438 6.60635 18.2714 6.78201 18.1265 6.92701L13.0533 12L18.1265 17.073C18.2649 17.2115 18.3357 17.3856 18.339 17.5953C18.3422 17.8048 18.2714 17.982 18.1265 18.127C17.9815 18.2718 17.8059 18.3443 17.5995 18.3443C17.3932 18.3443 17.2175 18.2718 17.0725 18.127L11.9995 13.0538Z" fill="#141414"/>
</g>
</svg>
