<svg width="32" height="32" viewBox="0 0 32 32" fill="none" xmlns="http://www.w3.org/2000/svg">
<path fill-rule="evenodd" clip-rule="evenodd" d="M6 8.14748C6 6.40917 7.40918 5 9.14749 5H19.8489C21.5873 5 22.9964 6.40918 22.9964 8.14749V13.5388C22.9964 13.7033 22.932 13.8612 22.8171 13.9789L18.75 18.1389L12.9326 23.7101C12.8154 23.8223 12.6594 23.8849 12.4972 23.8849H9.14749C7.40918 23.8849 6 22.4757 6 20.7374V8.14748ZM13.2393 7.95166C12.783 7.95166 12.4131 8.32157 12.4131 8.77788C12.4131 9.23418 12.783 9.60409 13.2393 9.60409H19.2195C19.6758 9.60409 20.0457 9.23418 20.0457 8.77788C20.0457 8.32157 19.6758 7.95166 19.2195 7.95166H13.2393ZM9.77641 11.4146C9.3201 11.4146 8.9502 11.7845 8.9502 12.2408C8.9502 12.6971 9.3201 13.067 9.77641 13.067H19.2189C19.6752 13.067 20.0451 12.6971 20.0451 12.2408C20.0451 11.7845 19.6752 11.4146 19.2189 11.4146H9.77641ZM9.77641 14.876C9.3201 14.876 8.9502 15.2459 8.9502 15.7022C8.9502 16.1585 9.3201 16.5284 9.77641 16.5284H17.3304C17.7867 16.5284 18.1566 16.1585 18.1566 15.7022C18.1566 15.2459 17.7867 14.876 17.3304 14.876H9.77641Z" fill="white"/>
<path d="M25.1275 15.3341C24.6359 14.8424 23.8387 14.8424 23.3471 15.3341L15.4128 23.2684C15.3622 23.319 15.3294 23.3846 15.3193 23.4553L14.9521 26.0259C14.9209 26.244 15.1079 26.431 15.326 26.3998L17.8965 26.0326C17.9673 26.0225 18.0329 25.9897 18.0835 25.9391L26.0178 18.0048C26.5095 17.5132 26.5095 16.716 26.0178 16.2243L25.1275 15.3341Z" fill="white"/>
</svg>
