<svg width="24" height="24" viewBox="0 0 24 24" fill="none" xmlns="http://www.w3.org/2000/svg">
<path d="M19.4679 4H20.24C21.135 4 21.887 4.61242 22.0998 5.44108L16.6916 10.8492C16.6549 10.886 16.6073 10.9098 16.5559 10.9171L14.576 11.2C14.4176 11.2226 14.2818 11.0868 14.3044 10.9284L14.5873 8.94854C14.5946 8.89713 14.6184 8.84949 14.6552 8.81277L19.4679 4Z" fill="#141414"/>
<path d="M17.3466 4L13.5945 7.75211C13.3283 8.01833 13.1556 8.3637 13.1024 8.7364L12.8195 10.7163C12.6555 11.8646 13.6397 12.8489 14.7881 12.6849L16.768 12.402C17.1407 12.3488 17.4861 12.1761 17.7523 11.9099L22.16 7.50218V17.92C22.16 18.9804 21.3004 19.84 20.24 19.84H3.92C2.85962 19.84 2 18.9804 2 17.92V14.03C2.13801 14.0301 2.27769 13.9922 2.40275 13.9126L2.58606 13.7959C3.58623 13.1593 5.7211 11.8003 6.3322 11.4511C6.43421 11.3928 6.63006 11.3244 6.87351 11.298C7.11445 11.2719 7.33773 11.2938 7.5019 11.354C7.65327 11.4095 7.73091 11.4857 7.77426 11.5815C7.82369 11.6908 7.8772 11.9357 7.75398 12.4121C7.51412 13.3396 7.26658 14.4095 7.33946 15.3038C7.37704 15.765 7.50392 16.2502 7.82249 16.6542C8.15314 17.0735 8.62627 17.3246 9.19678 17.4197C10.3338 17.6092 11.3768 16.938 12.107 16.3036C12.8753 15.6361 13.5146 14.8173 13.8801 14.3299C14.1286 13.9985 14.0615 13.5284 13.7301 13.2799C13.3987 13.0314 12.9286 13.0985 12.6801 13.4299C12.3256 13.9025 11.7649 14.6137 11.1232 15.1712C10.4434 15.7619 9.86635 16.0106 9.4434 15.9401C9.17392 15.8952 9.06101 15.8023 9.00036 15.7254C8.92763 15.6332 8.85796 15.4699 8.8345 15.182C8.78531 14.5784 8.95777 13.7483 9.2062 12.7877C9.38299 12.1041 9.37649 11.484 9.14093 10.9633C8.89928 10.4291 8.46692 10.1102 8.01829 9.94573C7.58246 9.78593 7.11574 9.76292 6.71167 9.80677C6.31013 9.85035 5.90598 9.967 5.58799 10.1487C4.98422 10.4937 3.05774 11.7176 2 12.3909V5.92C2 4.85961 2.85961 4 3.92 4H17.3466Z" fill="#141414"/>
</svg>
