<svg width="24" height="24" viewBox="0 0 24 24" fill="none" xmlns="http://www.w3.org/2000/svg">
<mask id="mask0_740_8477" style="mask-type:alpha" maskUnits="userSpaceOnUse" x="0" y="0" width="24" height="24">
<rect width="24" height="24" fill="#D9D9D9"/>
</mask>
<g mask="url(#mask0_740_8477)">
<path d="M17.25 22V18.75H7.05775C6.55258 18.75 6.125 18.575 5.775 18.225C5.425 17.875 5.25 17.4474 5.25 16.9423V6.75H2C1.7875 6.75 1.60942 6.67808 1.46575 6.53425C1.32192 6.39042 1.25 6.21225 1.25 5.99975C1.25 5.78708 1.32192 5.609 1.46575 5.4655C1.60942 5.32183 1.7875 5.25 2 5.25H5.25V2C5.25 1.7875 5.32192 1.60942 5.46575 1.46575C5.60958 1.32192 5.78775 1.25 6.00025 1.25C6.21292 1.25 6.391 1.32192 6.5345 1.46575C6.67817 1.60942 6.75 1.7875 6.75 2V16.9423C6.75 17.0192 6.78208 17.0898 6.84625 17.1538C6.91025 17.2179 6.98075 17.25 7.05775 17.25H22C22.2125 17.25 22.3906 17.3219 22.5343 17.4657C22.6781 17.6096 22.75 17.7878 22.75 18.0002C22.75 18.2129 22.6781 18.391 22.5343 18.5345C22.3906 18.6782 22.2125 18.75 22 18.75H18.75V22C18.75 22.2125 18.6781 22.3906 18.5343 22.5343C18.3904 22.6781 18.2122 22.75 17.9998 22.75C17.7871 22.75 17.609 22.6781 17.4655 22.5343C17.3218 22.3906 17.25 22.2125 17.25 22ZM17.25 15.75V7.05775C17.25 6.98075 17.2179 6.91025 17.1538 6.84625C17.0898 6.78208 17.0192 6.75 16.9423 6.75H8.25V5.25H16.9423C17.4474 5.25 17.875 5.425 18.225 5.775C18.575 6.125 18.75 6.55258 18.75 7.05775V15.75H17.25Z" fill="#141414"/>
</g>
</svg>
