
<svg width="24" height="24" viewBox="0 0 24 24" fill="none" xmlns="http://www.w3.org/2000/svg">
<path d="M6.73364 20.8332C6.29731 20.8332 5.92431 20.6785 5.61464 20.369C5.30514 20.0595 5.15039 19.6865 5.15039 19.25V5.55H4.94614C4.72397 5.55 4.53581 5.47266 4.38164 5.318C4.22747 5.16316 4.15039 4.97566 4.15039 4.7555C4.15039 4.53516 4.22747 4.34858 4.38164 4.19575C4.53581 4.04308 4.72397 3.96675 4.94614 3.96675H8.83689V3.95425C8.83689 3.73558 8.91339 3.54966 9.06639 3.3965C9.21956 3.24333 9.40731 3.16675 9.62964 3.16675H14.3961C14.612 3.16675 14.7972 3.244 14.9519 3.3985C15.1064 3.55317 15.1836 3.73841 15.1836 3.95425V3.96675H19.0831C19.2975 3.96675 19.4817 4.04425 19.6359 4.19925C19.7901 4.35441 19.8671 4.54033 19.8671 4.757C19.8671 4.98017 19.7898 5.16808 19.6351 5.32075C19.4806 5.47358 19.2955 5.55 19.0796 5.55H18.8671V19.25C18.8671 19.6865 18.7123 20.0595 18.4026 20.369C18.0931 20.6785 17.7201 20.8332 17.2836 20.8332H6.73364ZM17.2836 5.55H6.73364V19.25H17.2836V5.55ZM9.99489 17.1707C10.2127 17.1707 10.3986 17.0951 10.5526 16.9437C10.7066 16.7924 10.7836 16.6056 10.7836 16.3832V8.4C10.7836 8.17783 10.7061 7.98966 10.5509 7.8355C10.3959 7.68133 10.2101 7.60425 9.99339 7.60425C9.77022 7.60425 9.58231 7.68133 9.42964 7.8355C9.27681 7.98966 9.20039 8.17783 9.20039 8.4V16.3832C9.20039 16.6056 9.27839 16.7924 9.43439 16.9437C9.59022 17.0951 9.77706 17.1707 9.99489 17.1707ZM14.0284 17.1707C14.2462 17.1707 14.4321 17.0951 14.5861 16.9437C14.7401 16.7924 14.8171 16.6056 14.8171 16.3832V8.4C14.8171 8.17783 14.7396 7.98966 14.5844 7.8355C14.4292 7.68133 14.2433 7.60425 14.0266 7.60425C13.8036 7.60425 13.6157 7.68133 13.4629 7.8355C13.3101 7.98966 13.2336 8.17783 13.2336 8.4V16.3832C13.2336 16.6056 13.3116 16.7924 13.4676 16.9437C13.6236 17.0951 13.8106 17.1707 14.0284 17.1707Z" fill="#141414"/>
</svg>
