<?xml version="1.0" encoding="iso-8859-1"?>
<!-- Generator: Adobe Illustrator 22.1.0, SVG Export Plug-In . SVG Version: 6.00 Build 0)  -->
<svg version="1.1" xmlns="http://www.w3.org/2000/svg" xmlns:xlink="http://www.w3.org/1999/xlink" x="0px" y="0px"
	 viewBox="0 0 50 50" style="enable-background:new 0 0 50 50;" xml:space="preserve">
<g id="Layer_1">
	<path d="M18.899,25.091C19.578,24.237,20,23.172,20,22c0-2.757-2.243-5-5-5s-5,2.243-5,5c0,1.172,0.422,2.237,1.101,3.091
		C8.773,25.517,7,27.551,7,30v7h16v-7C23,27.551,21.227,25.517,18.899,25.091z M15,19c1.654,0,3,1.346,3,3s-1.346,3-3,3
		s-3-1.346-3-3S13.346,19,15,19z M21,35H9v-5c0-1.654,1.346-3,3-3h6c1.654,0,3,1.346,3,3V35z"/>
	<rect x="26" y="20" width="7" height="2"/>
	<rect x="36" y="20" width="7" height="2"/>
	<rect x="26" y="25" width="3" height="2"/>
	<rect x="32" y="25" width="11" height="2"/>
	<rect x="26" y="30" width="8" height="2"/>
	<rect x="39" y="30" width="4" height="2"/>
	<rect x="26" y="35" width="2" height="2"/>
	<rect x="30" y="35" width="2" height="2"/>
	<rect x="34" y="35" width="2" height="2"/>
	<rect x="41" y="35" width="2" height="2"/>
	<path d="M29,4h-8v6H1v36h48V10H29V4z M23,6h4v4v4h-4v-4V6z M47,12v32H3V12h18v4h8v-4H47z"/>
</g>
<g>
</g>
</svg>
