<svg width="24" height="24" viewBox="0 0 24 24" fill="none" xmlns="http://www.w3.org/2000/svg">
<mask id="mask0_740_8469" style="mask-type:alpha" maskUnits="userSpaceOnUse" x="0" y="0" width="24" height="24">
<rect width="24" height="24" fill="#D9D9D9"/>
</mask>
<g mask="url(#mask0_740_8469)">
<path d="M1.92316 12.877C1.7745 12.7282 1.70116 12.5541 1.70316 12.3548C1.705 12.1554 1.7835 11.9782 1.93866 11.823C2.09383 11.6782 2.2695 11.6032 2.46566 11.598C2.66166 11.593 2.83725 11.668 2.99241 11.823L6.71566 15.5463L6.96566 15.2963C7.063 15.3424 7.16525 15.3998 7.27242 15.4683C7.37942 15.5369 7.48483 15.6232 7.58867 15.727C7.74383 15.882 7.81883 16.0576 7.81366 16.2538C7.8085 16.4499 7.72833 16.6256 7.57317 16.7808L7.33291 17.0213C7.15208 17.1918 6.94116 17.2795 6.70016 17.2845C6.45916 17.2897 6.24825 17.2019 6.06741 17.0213L1.92316 12.877ZM12.3502 15.5308L21.0232 6.85775C21.172 6.70908 21.3461 6.63567 21.5454 6.6375C21.7447 6.6395 21.922 6.718 22.0772 6.873C22.222 7.02817 22.297 7.20383 22.3022 7.4C22.3072 7.59617 22.2322 7.77183 22.0772 7.927L12.9829 17.0213C12.8021 17.2019 12.5912 17.2923 12.3502 17.2923C12.1092 17.2923 11.8982 17.2019 11.7174 17.0213L7.57317 12.877C7.43483 12.7385 7.364 12.567 7.36067 12.3625C7.3575 12.158 7.42833 11.9782 7.57317 11.823C7.72833 11.668 7.90658 11.5905 8.10791 11.5905C8.30908 11.5905 8.48725 11.668 8.64242 11.823L12.3502 15.5308ZM16.4117 7.94225L12.5309 11.823C12.3924 11.9615 12.2209 12.0323 12.0164 12.0355C11.8119 12.0388 11.6322 11.968 11.4772 11.823C11.322 11.668 11.2444 11.4898 11.2444 11.2885C11.2444 11.0872 11.322 10.909 11.4772 10.754L15.3579 6.873C15.4964 6.73467 15.6678 6.66383 15.8722 6.6605C16.0767 6.65733 16.2565 6.72817 16.4117 6.873C16.5668 7.02817 16.6444 7.20642 16.6444 7.40775C16.6444 7.60892 16.5668 7.78708 16.4117 7.94225Z" fill="#141414"/>
</g>
</svg>
