<svg width="24" height="24" viewBox="0 0 24 24" fill="none" xmlns="http://www.w3.org/2000/svg">
<mask id="mask0_740_8309" style="mask-type:alpha" maskUnits="userSpaceOnUse" x="0" y="0" width="24" height="24">
<rect width="24" height="24" fill="#D9D9D9"/>
</mask>
<g mask="url(#mask0_740_8309)">
<path d="M5.30775 21.5C4.80258 21.5 4.375 21.325 4.025 20.975C3.675 20.625 3.5 20.1974 3.5 19.6923V6.30775C3.5 5.80258 3.675 5.375 4.025 5.025C4.375 4.675 4.80258 4.5 5.30775 4.5H6.69225V3.15375C6.69225 2.93592 6.76617 2.75325 6.914 2.60575C7.06167 2.45842 7.24467 2.38475 7.463 2.38475C7.68133 2.38475 7.86383 2.45842 8.0105 2.60575C8.15733 2.75325 8.23075 2.93592 8.23075 3.15375V4.5H15.8077V3.13475C15.8077 2.92225 15.8797 2.74408 16.0235 2.60025C16.1672 2.45658 16.3453 2.38475 16.558 2.38475C16.7707 2.38475 16.9487 2.45658 17.0922 2.60025C17.2359 2.74408 17.3077 2.92225 17.3077 3.13475V4.5H18.6923C19.1974 4.5 19.625 4.675 19.975 5.025C20.325 5.375 20.5 5.80258 20.5 6.30775V10.6212C20.5 10.8337 20.4281 11.0118 20.2843 11.1555C20.1404 11.2993 19.9622 11.3713 19.7498 11.3713C19.5371 11.3713 19.359 11.2993 19.2155 11.1555C19.0718 11.0118 19 10.8337 19 10.6212V10.3078H5V19.6923C5 19.7693 5.03208 19.8398 5.09625 19.9038C5.16025 19.9679 5.23075 20 5.30775 20H11.173C11.3855 20 11.5637 20.0719 11.7075 20.2157C11.8512 20.3596 11.923 20.5378 11.923 20.7502C11.923 20.9629 11.8512 21.141 11.7075 21.2845C11.5637 21.4282 11.3855 21.5 11.173 21.5H5.30775ZM14.1155 20.596V19.2345C14.1155 19.1168 14.1372 19.0028 14.1807 18.8925C14.2244 18.7822 14.293 18.6802 14.3865 18.5865L19.5443 13.4537C19.6686 13.3359 19.8028 13.2501 19.947 13.1962C20.0912 13.1424 20.2353 13.1155 20.3795 13.1155C20.5367 13.1155 20.6888 13.1449 20.8358 13.2037C20.9827 13.2627 21.1163 13.3512 21.2365 13.4692L22.1615 14.4038C22.2692 14.5283 22.3525 14.6629 22.4115 14.8077C22.4705 14.9526 22.5 15.0974 22.5 15.2423C22.5 15.3871 22.4747 15.5345 22.424 15.6845C22.3733 15.8345 22.2858 15.9717 22.1615 16.096L17.0288 21.2288C16.9353 21.3224 16.8333 21.391 16.723 21.4345C16.6125 21.4782 16.4984 21.5 16.3807 21.5H15.0193C14.7631 21.5 14.5484 21.4133 14.3753 21.24C14.2021 21.0668 14.1155 20.8522 14.1155 20.596ZM20.3827 16.2078L21.3078 15.2423L20.3827 14.3077L19.4327 15.2578L20.3827 16.2078Z" fill="#141414"/>
</g>
</svg>
