<svg width="24" height="24" viewBox="0 0 24 24" fill="none" xmlns="http://www.w3.org/2000/svg">
<path d="M10.404 14.5C10.1462 14.5 9.93108 14.4137 9.75875 14.2412C9.58625 14.0689 9.5 13.8538 9.5 13.596V11.8155C9.5 11.5743 9.54683 11.3426 9.6405 11.1202C9.734 10.8977 9.86283 10.7045 10.027 10.5405L18.5598 2.00774C18.7148 1.85258 18.8853 1.73941 19.0712 1.66824C19.2571 1.59708 19.4462 1.56149 19.6385 1.56149C19.8347 1.56149 20.0231 1.59708 20.2038 1.66824C20.3846 1.73941 20.5493 1.84933 20.698 1.99799L21.9538 3.24999C22.0986 3.40516 22.2098 3.57633 22.2875 3.76349C22.365 3.95066 22.4038 4.14041 22.4038 4.33274C22.4038 4.52508 22.3708 4.71158 22.3048 4.89224C22.2388 5.07308 22.1282 5.24099 21.973 5.39599L13.4115 13.9577C13.2473 14.1217 13.0541 14.2532 12.8318 14.352C12.6093 14.4507 12.3775 14.5 12.1365 14.5H10.404ZM19.5328 5.72299L20.9193 4.34224L19.6635 3.05774L18.2578 4.44799L19.5328 5.72299ZM5.30775 20.5C4.80258 20.5 4.375 20.325 4.025 19.975C3.675 19.625 3.5 19.1974 3.5 18.6922V5.30774C3.5 4.80258 3.675 4.37499 4.025 4.02499C4.375 3.67499 4.80258 3.49999 5.30775 3.49999H11.7788C11.9866 3.49999 12.1591 3.55349 12.2963 3.66049C12.4334 3.76766 12.5373 3.90324 12.6077 4.06724C12.6783 4.23141 12.7026 4.39716 12.6808 4.56449C12.6589 4.73183 12.5743 4.88916 12.427 5.03649L7.83475 9.62874C7.67058 9.79291 7.54167 9.98624 7.448 10.2087C7.3545 10.4311 7.30775 10.6627 7.30775 10.9037V14.8845C7.30775 15.3833 7.48433 15.8093 7.8375 16.1625C8.19067 16.5157 8.61667 16.6922 9.1155 16.6922H13.0328C13.2738 16.6922 13.5054 16.6455 13.7277 16.552C13.9502 16.4583 14.1436 16.3294 14.3077 16.1652L18.9635 11.5095C19.1108 11.3622 19.2682 11.2776 19.4355 11.2557C19.6028 11.2339 19.7686 11.2582 19.9328 11.3287C20.0968 11.3992 20.2323 11.5031 20.3395 11.6402C20.4465 11.7776 20.5 11.9501 20.5 12.1577V18.6922C20.5 19.1974 20.325 19.625 19.975 19.975C19.625 20.325 19.1974 20.5 18.6923 20.5H5.30775Z" fill="#141414"/>
</svg>
