<svg width="24" height="24" viewBox="0 0 24 24" fill="none" xmlns="http://www.w3.org/2000/svg">
<mask id="mask0_740_8319" style="mask-type:alpha" maskUnits="userSpaceOnUse" x="0" y="0" width="24" height="24">
<rect width="24" height="24" fill="#D9D9D9"/>
</mask>
<g mask="url(#mask0_740_8319)">
<path d="M4.404 20.5C4.14783 20.5 3.93317 20.4133 3.76 20.24C3.58667 20.0668 3.5 19.8522 3.5 19.596V17.8635C3.5 17.6197 3.54683 17.3873 3.6405 17.1663C3.734 16.9453 3.86283 16.7527 4.027 16.5885L16.6905 3.93075C16.8417 3.79342 17.0086 3.68733 17.1913 3.6125C17.3741 3.5375 17.5658 3.5 17.7663 3.5C17.9668 3.5 18.1609 3.53558 18.3488 3.60675C18.5367 3.67792 18.7032 3.79108 18.848 3.94625L20.0693 5.18275C20.2244 5.32758 20.335 5.49425 20.401 5.68275C20.467 5.87125 20.5 6.05975 20.5 6.24825C20.5 6.44942 20.4657 6.64133 20.397 6.824C20.3283 7.00683 20.2191 7.17383 20.0693 7.325L7.4115 19.973C7.24733 20.1372 7.05475 20.266 6.83375 20.3595C6.61275 20.4532 6.38033 20.5 6.1365 20.5H4.404ZM17.552 7.69425L19 6.25575L17.7443 5L16.3057 6.448L17.552 7.69425Z" fill="#141414"/>
</g>
</svg>
