<svg width="24" height="24" viewBox="0 0 24 24" fill="none" xmlns="http://www.w3.org/2000/svg">
<path d="M11.9974 16.9168C12.2439 16.9168 12.4476 16.8372 12.6086 16.678C12.7698 16.5189 12.8504 16.316 12.8504 16.0695C12.8504 15.8232 12.7708 15.6195 12.6116 15.4583C12.4525 15.2973 12.2497 15.2168 12.0034 15.2168C11.7569 15.2168 11.5531 15.2964 11.3921 15.4555C11.231 15.6147 11.1504 15.8175 11.1504 16.0638C11.1504 16.3101 11.23 16.5139 11.3891 16.675C11.5483 16.8362 11.7511 16.9168 11.9974 16.9168ZM12.0616 13.1168C12.282 13.1168 12.4685 13.0397 12.6211 12.8855C12.774 12.7314 12.8504 12.5431 12.8504 12.3208V7.7543C12.8504 7.53846 12.7728 7.35321 12.6176 7.19855C12.4625 7.04405 12.2766 6.9668 12.0599 6.9668C11.8369 6.9668 11.649 7.04405 11.4961 7.19855C11.3435 7.35321 11.2671 7.53846 11.2671 7.7543V12.3208C11.2671 12.5431 11.3445 12.7314 11.4991 12.8855C11.6538 13.0397 11.8413 13.1168 12.0616 13.1168Z" fill="#141414"/>
</svg>
