<svg width="24" height="24" viewBox="0 0 24 24" fill="none" xmlns="http://www.w3.org/2000/svg">
<mask id="mask0_740_8313" style="mask-type:alpha" maskUnits="userSpaceOnUse" x="0" y="0" width="24" height="24">
<rect width="24" height="24" fill="#D9D9D9"/>
</mask>
<g mask="url(#mask0_740_8313)">
<path d="M11.9905 19.7095C11.7763 19.7095 11.5612 19.6711 11.3453 19.5942C11.1293 19.5172 10.9392 19.3967 10.775 19.2327L9.3385 17.927C7.5655 16.3103 5.9825 14.7222 4.5895 13.1625C3.1965 11.6028 2.5 9.93199 2.5 8.14999C2.5 6.73083 2.9785 5.54266 3.9355 4.58549C4.89267 3.62849 6.08083 3.14999 7.5 3.14999C8.30633 3.14999 9.10283 3.33591 9.8895 3.70774C10.676 4.07958 11.3795 4.68341 12 5.51924C12.6205 4.68341 13.324 4.07958 14.1105 3.70774C14.8972 3.33591 15.6937 3.14999 16.5 3.14999C17.9192 3.14999 19.1073 3.62849 20.0645 4.58549C21.0215 5.54266 21.5 6.73083 21.5 8.14999C21.5 9.95133 20.7917 11.6407 19.375 13.2182C17.9583 14.7957 16.3788 16.3704 14.6365 17.9422L13.2153 19.2327C13.0513 19.3967 12.8597 19.5172 12.6405 19.5942C12.4212 19.6711 12.2045 19.7095 11.9905 19.7095Z" fill="#141414"/>
</g>
</svg>
