<svg width="24" height="24" viewBox="0 0 24 24" fill="none" xmlns="http://www.w3.org/2000/svg">
<mask id="mask0_740_8376" style="mask-type:alpha" maskUnits="userSpaceOnUse" x="0" y="0" width="24" height="24">
<rect width="24" height="24" fill="#D9D9D9"/>
</mask>
<g mask="url(#mask0_740_8376)">
<path d="M19.2766 21.4L2.58431 4.72301C2.42915 4.56785 2.35156 4.38968 2.35156 4.18851C2.35156 3.98718 2.42915 3.80893 2.58431 3.65377C2.73931 3.49877 2.91748 3.42126 3.11881 3.42126C3.32015 3.42126 3.49831 3.49877 3.65331 3.65377L20.3458 20.3463C20.5008 20.5013 20.5783 20.6768 20.5783 20.873C20.5783 21.0692 20.5008 21.2448 20.3458 21.4C20.1906 21.5552 20.0124 21.6328 19.8111 21.6328C19.6099 21.6328 19.4317 21.5552 19.2766 21.4ZM15.8938 12.75C15.6821 12.75 15.5016 12.6785 15.3523 12.5355C15.203 12.3925 15.1283 12.2153 15.1283 12.004C15.1283 11.8052 15.1999 11.6298 15.3431 11.478C15.4862 11.326 15.6698 11.25 15.8938 11.25H16.8361C17.0486 11.25 17.2267 11.3219 17.3706 11.4658C17.5142 11.6096 17.5861 11.7878 17.5861 12.0003C17.5861 12.2129 17.5142 12.391 17.3706 12.5345C17.2267 12.6782 17.0486 12.75 16.8361 12.75H15.8938ZM11.1438 8.00002C10.9323 8.00002 10.7518 7.92851 10.6023 7.78551C10.453 7.64268 10.3783 7.4656 10.3783 7.25426C10.3783 7.05526 10.4499 6.87985 10.5931 6.72802C10.7362 6.57602 10.9198 6.50002 11.1438 6.50002H19.7496C19.9621 6.50002 20.1401 6.57193 20.2838 6.71577C20.4276 6.8596 20.4996 7.03777 20.4996 7.25027C20.4996 7.46293 20.4276 7.64102 20.2838 7.78452C20.1401 7.92818 19.9621 8.00002 19.7496 8.00002H11.1438ZM11.0283 17.5C10.8158 17.5 10.6377 17.4281 10.4941 17.2843C10.3502 17.1404 10.2783 16.9623 10.2783 16.7498C10.2783 16.5371 10.3502 16.359 10.4941 16.2155C10.6377 16.0718 10.8158 16 11.0283 16H12.9611C13.1736 16 13.3517 16.0719 13.4956 16.2158C13.6392 16.3596 13.7111 16.5378 13.7111 16.7503C13.7111 16.9629 13.6392 17.141 13.4956 17.2845C13.3517 17.4282 13.1736 17.5 12.9611 17.5H11.0283ZM7.15331 12.75C6.94081 12.75 6.76273 12.6781 6.61906 12.5343C6.4754 12.3904 6.40356 12.2123 6.40356 11.9998C6.40356 11.7871 6.4754 11.609 6.61906 11.4655C6.76273 11.3218 6.94081 11.25 7.15331 11.25H10.6111V12.75H7.15331ZM4.24956 8.00002C4.03706 8.00002 3.85898 7.9281 3.71531 7.78427C3.57148 7.64043 3.49956 7.46227 3.49956 7.24977C3.49956 7.0371 3.57148 6.85902 3.71531 6.71552C3.85898 6.57185 4.03706 6.50002 4.24956 6.50002H5.86106V8.00002H4.24956Z" fill="#141414"/>
</g>
</svg>
