<svg width="24" height="24" viewBox="0 0 24 24" fill="none" xmlns="http://www.w3.org/2000/svg">
<mask id="mask0_740_8353" style="mask-type:alpha" maskUnits="userSpaceOnUse" x="0" y="0" width="24" height="24">
<rect width="24" height="24" fill="#D9D9D9"/>
</mask>
<g mask="url(#mask0_740_8353)">
<path d="M4.30775 20.5C3.80258 20.5 3.375 20.325 3.025 19.975C2.675 19.625 2.5 19.1974 2.5 18.6923V7.30775C2.5 6.80258 2.675 6.375 3.025 6.025C3.375 5.675 3.80258 5.5 4.30775 5.5H7.3615L8.66925 4.08275C8.83342 3.90192 9.03183 3.75958 9.2645 3.65575C9.49717 3.55192 9.74233 3.5 10 3.5H14C14.2577 3.5 14.5028 3.55192 14.7355 3.65575C14.9682 3.75958 15.1666 3.90192 15.3307 4.08275L16.6385 5.5H19.6923C20.1974 5.5 20.625 5.675 20.975 6.025C21.325 6.375 21.5 6.80258 21.5 7.30775V18.6923C21.5 19.1974 21.325 19.625 20.975 19.975C20.625 20.325 20.1974 20.5 19.6923 20.5H4.30775ZM15.6038 13.0345C15.5166 14.0333 15.1384 14.8863 14.4693 15.5933C13.8001 16.3003 12.977 16.6538 12 16.6538C11.8603 16.6538 11.7206 16.6438 11.5808 16.624C11.4411 16.6042 11.3013 16.5776 11.1615 16.5443C11.041 16.5173 10.9153 16.5204 10.7845 16.5538C10.6538 16.5871 10.5513 16.6506 10.477 16.7443C10.3513 16.8891 10.3119 17.057 10.3588 17.248C10.4054 17.439 10.5166 17.5666 10.6923 17.6307C10.9064 17.7141 11.1228 17.7708 11.3413 17.801C11.5599 17.8312 11.7795 17.8462 12 17.8462C13.3167 17.8462 14.4292 17.3748 15.3375 16.4318C16.2458 15.4888 16.7321 14.3461 16.7962 13.0037L17.2807 13.4443C17.4051 13.5519 17.5464 13.6042 17.7048 13.601C17.8631 13.5978 17.9961 13.5423 18.1038 13.4345C18.2281 13.3102 18.2928 13.1679 18.298 13.0078C18.3032 12.8474 18.2436 12.7051 18.1193 12.5808L16.8828 11.3442C16.7123 11.1737 16.5013 11.0885 16.25 11.0885C15.9987 11.0885 15.7878 11.1737 15.6173 11.3442L14.3807 12.5808C14.2564 12.7051 14.1943 12.8448 14.1943 13C14.1943 13.1552 14.2564 13.2949 14.3807 13.4192C14.5051 13.5436 14.6448 13.6058 14.8 13.6058C14.9552 13.6058 15.0949 13.5436 15.2193 13.4192L15.6038 13.0345ZM7.20375 12.9963L6.71925 12.5558C6.59492 12.4481 6.45358 12.3958 6.29525 12.399C6.13692 12.4022 6.00392 12.4577 5.89625 12.5655C5.77192 12.6898 5.70717 12.8321 5.702 12.9923C5.69683 13.1526 5.75642 13.2949 5.88075 13.4192L7.11725 14.6558C7.28775 14.8263 7.49867 14.9115 7.75 14.9115C8.00133 14.9115 8.21225 14.8263 8.38275 14.6558L9.61925 13.4192C9.74358 13.2949 9.80575 13.1552 9.80575 13C9.80575 12.8448 9.74358 12.7051 9.61925 12.5808C9.49492 12.4564 9.35517 12.3942 9.2 12.3942C9.04483 12.3942 8.90508 12.4564 8.78075 12.5808L8.39625 12.9655C8.48342 11.9667 8.86158 11.1138 9.53075 10.4068C10.1999 9.69975 11.023 9.34625 12 9.34625C12.1397 9.34625 12.2794 9.35617 12.4192 9.376C12.5589 9.39583 12.6954 9.42242 12.8288 9.45575C12.9493 9.48908 13.0765 9.48908 13.2105 9.45575C13.3445 9.42242 13.4487 9.35575 13.523 9.25575C13.6487 9.11092 13.6897 8.943 13.6462 8.752C13.6026 8.561 13.4929 8.43342 13.3173 8.36925C13.0968 8.29875 12.8788 8.24525 12.6635 8.20875C12.4482 8.17208 12.227 8.15375 12 8.15375C10.6833 8.15375 9.57083 8.62525 8.6625 9.56825C7.75417 10.5112 7.26792 11.6539 7.20375 12.9963Z" fill="#141414"/>
</g>
</svg>
