<svg width="18" height="18" viewBox="0 0 18 18" fill="none" xmlns="http://www.w3.org/2000/svg">
<g id="Icon / Food &#38; Drink" clip-path="url(#clip0_3328_49524)">
<path id="fill" d="M8.59612 17.5333C8.32892 17.5333 8.06813 17.5333 7.81376 17.5333L1.82845 17.5173L0.466797 4.35774H6.72892L7.60107 0.850015C7.62915 0.740852 7.69261 0.644046 7.78155 0.5747C7.87049 0.505355 7.9799 0.467371 8.09272 0.466675C8.13716 0.467681 8.18131 0.474136 8.22418 0.485895L8.28831 0.506183L11.748 1.68824L11.421 2.64926L8.45076 1.63485L7.77314 4.35774H9.37635L9.05571 7.59852C9.48323 7.5761 9.91823 7.56542 10.3308 7.56542C11.9913 7.51468 13.6491 7.731 15.2409 8.2061C16.5929 8.67913 17.278 9.38068 17.278 10.2798C17.2821 10.3619 17.2672 10.4438 17.2343 10.5192C17.2015 10.5946 17.1517 10.6614 17.0888 10.7144L17.0792 10.725C17.0086 10.7996 16.9452 10.8808 16.89 10.9674L16.9146 10.9792C16.9403 10.9899 16.9627 11.0005 16.9649 11.0219C16.9809 11.2088 16.377 11.4287 16.3717 11.4309L17.5335 12.1025V12.1089C17.3905 12.2581 17.225 12.3838 17.0429 12.4816C17.2079 12.6066 17.3385 12.7715 17.4224 12.9606C17.5063 13.1498 17.5408 13.3571 17.5228 13.5633C17.5213 13.8283 17.4458 14.0877 17.305 14.3123C17.1642 14.537 16.9635 14.718 16.7254 14.835C17.0658 15.3128 17.2751 15.8712 17.3325 16.4549C17.3325 17.0005 15.7721 17.5227 15.4333 17.5227H13.9423H10.2645H8.59612V17.5333ZM5.47628 15.0219C5.33022 15.0282 5.18935 15.0778 5.07155 15.1643C4.95375 15.2508 4.86435 15.3703 4.81469 15.5077C4.7599 15.6163 4.73886 15.7388 4.75429 15.8595C4.76971 15.9801 4.8209 16.0934 4.90127 16.1847C5.19296 16.3951 5.54919 16.4967 5.90808 16.4719C5.9829 16.4719 6.04168 16.4719 6.09085 16.4655H15.0603C15.3396 16.4499 15.6044 16.3365 15.8084 16.1452C15.8888 16.0736 15.9445 15.9785 15.9675 15.8734C15.9905 15.7683 15.9797 15.6586 15.9367 15.56C15.8639 15.4055 15.7492 15.2744 15.6056 15.1818C15.462 15.0891 15.2953 15.0385 15.1244 15.0358H10.6707H10.5916H7.95484H5.47628V15.0219ZM1.5869 5.42554L2.68563 16.4645H3.33333C3.41527 15.8859 3.64741 15.3388 4.00668 14.8777C3.36539 14.4762 3.10567 14.1303 3.10567 13.6722C3.09359 13.426 3.13852 13.1805 3.23695 12.9545C3.33539 12.7286 3.48468 12.5283 3.67321 12.3695C3.28416 12.236 3.1495 12.0278 3.1527 11.89C3.1527 11.7832 3.235 11.6999 3.37181 11.6594C3.44096 11.6375 3.51304 11.6264 3.58557 11.6263C3.63445 11.6265 3.68317 11.6318 3.73093 11.6423H3.74589C3.77812 11.6502 3.81106 11.6548 3.84422 11.6562C3.92224 11.6562 3.98851 11.6124 4.07401 11.5035L3.98103 11.4127L3.93827 11.3711C3.54923 10.992 3.3344 10.7838 3.3344 10.2808C3.3344 8.90764 5.01135 7.98186 8.05638 7.67433L8.30541 5.42341H1.5869V5.42554ZM4.30808 12.1933L10.365 14.284L16.6816 12.1933H4.30808ZM10.3329 8.60012C8.55123 8.60012 5.41643 8.929 4.58169 9.811C4.51566 9.87404 4.46364 9.95026 4.42902 10.0347C4.3944 10.1191 4.37796 10.2099 4.38076 10.3011C4.40213 10.646 5.55644 11.0486 5.79158 11.1244H14.8764C14.932 11.1041 16.252 10.6311 16.2659 10.3001C16.2657 10.2079 16.2467 10.1168 16.2099 10.0323C16.1732 9.94785 16.1194 9.87179 16.0521 9.80887C15.2377 8.97491 12.2183 8.60012 10.3329 8.60012Z" fill="#A1A1A1"/>
</g>
<defs>
<clipPath id="clip0_3328_49524">
<rect width="17.0667" height="17.0667" fill="white" transform="translate(0.466797 0.466675)"/>
</clipPath>
</defs>
</svg>
