<svg xmlns="http://www.w3.org/2000/svg" viewBox="-0.75 -0.75 24 24" height="24" width="24"><defs></defs><path d="M21.796875 9.375H9.140625a0.9375 0.9375 0 0 1 -0.9375 -0.9375V4.21875a0.9375 0.9375 0 0 1 0.9375 -0.9375h12.65625" fill="none" stroke="#000000" stroke-linecap="round" stroke-linejoin="round" stroke-width="1.5"></path><path d="M21.796875 19.21875H9.140625a0.9375 0.9375 0 0 1 -0.9375 -0.9375V14.0625a0.9375 0.9375 0 0 1 0.9375 -0.9375h12.65625" fill="none" stroke="#000000" stroke-linecap="round" stroke-linejoin="round" stroke-width="1.5"></path><path d="m3.0524999999999998 3.6159375000000002 0 5.4243749999999995" fill="none" stroke="#000000" stroke-linecap="round" stroke-linejoin="round" stroke-width="1.5"></path><path d="m0.703125 4.9715625 4.6978125 2.7131250000000002" fill="none" stroke="#000000" stroke-linecap="round" stroke-linejoin="round" stroke-width="1.5"></path><path d="m0.703125 7.684687499999999 4.6978125 -2.7131250000000002" fill="none" stroke="#000000" stroke-linecap="round" stroke-linejoin="round" stroke-width="1.5"></path><path d="m3.0524999999999998 13.4596875 0 5.4243749999999995" fill="none" stroke="#000000" stroke-linecap="round" stroke-linejoin="round" stroke-width="1.5"></path><path d="m0.703125 14.815312500000001 4.6978125 2.7131250000000002" fill="none" stroke="#000000" stroke-linecap="round" stroke-linejoin="round" stroke-width="1.5"></path><path d="m0.703125 17.5284375 4.6978125 -2.7131250000000002" fill="none" stroke="#000000" stroke-linecap="round" stroke-linejoin="round" stroke-width="1.5"></path></svg>