<svg width="24" height="24" viewBox="0 0 24 24" fill="none" xmlns="http://www.w3.org/2000/svg">
<path fill-rule="evenodd" clip-rule="evenodd" d="M4.20078 4.80005C2.8753 4.80005 1.80078 5.87457 1.80078 7.20005V16.8C1.80078 18.1255 2.87529 19.2 4.20078 19.2H19.8008C21.1263 19.2 22.2008 18.1255 22.2008 16.8V7.20005C22.2008 5.87457 21.1263 4.80005 19.8008 4.80005H4.20078ZM11.8436 14.5849C11.9489 14.6902 12.0819 14.7428 12.2428 14.7428C12.4038 14.7428 12.5369 14.6902 12.6422 14.5849C12.7474 14.4798 12.7999 14.3467 12.7999 14.1857V10.1571C12.7999 9.99612 12.7474 9.86305 12.6422 9.7579C12.5369 9.65262 12.4038 9.59998 12.2428 9.59998C12.0819 9.59998 11.9489 9.65262 11.8436 9.7579C11.7383 9.86305 11.6856 9.99612 11.6856 10.1571V14.1857C11.6856 14.3467 11.7383 14.4798 11.8436 14.5849ZM6.21214 14.5178C6.35357 14.6678 6.54 14.7428 6.77143 14.7428H9.40007C9.6315 14.7428 9.81793 14.6678 9.95936 14.5178C10.1008 14.3678 10.1715 14.1857 10.1715 13.9714V12.7285C10.1715 12.5675 10.1189 12.4345 10.0136 12.3293C9.90829 12.224 9.77521 12.1714 9.61436 12.1714C9.45336 12.1714 9.32021 12.224 9.21493 12.3293C9.10979 12.4345 9.05721 12.5675 9.05721 12.7285V13.6285H7.11429V10.7143H9.61436C9.77521 10.7143 9.90829 10.6616 10.0136 10.5563C10.1189 10.4512 10.1715 10.3181 10.1715 10.1571C10.1715 9.99612 10.1189 9.86305 10.0136 9.7579C9.90829 9.65262 9.77521 9.59998 9.61436 9.59998H6.77143C6.54 9.59998 6.35357 9.67498 6.21214 9.82498C6.07071 9.97498 6 10.1571 6 10.3714V13.9714C6 14.1857 6.07071 14.3678 6.21214 14.5178ZM14.415 14.5849C14.5203 14.6902 14.6534 14.7428 14.8142 14.7428C14.9752 14.7428 15.1084 14.6902 15.2136 14.5849C15.3188 14.4798 15.3714 14.3467 15.3714 14.1857V12.9713H16.5429C16.7039 12.9713 16.8369 12.9188 16.9421 12.8136C17.0474 12.7083 17.1 12.5752 17.1 12.4142C17.1 12.2533 17.0474 12.1203 16.9421 12.015C16.8369 11.9097 16.7039 11.857 16.5429 11.857H15.3714V10.7143H17.4429C17.6039 10.7143 17.7369 10.6616 17.8421 10.5563C17.9474 10.4512 18 10.3181 18 10.1571C18 9.99612 17.9474 9.86305 17.8421 9.7579C17.7369 9.65262 17.6039 9.59998 17.4429 9.59998H14.8142C14.6534 9.59998 14.5203 9.65262 14.415 9.7579C14.3097 9.86305 14.2571 9.99612 14.2571 10.1571V14.1857C14.2571 14.3467 14.3097 14.4798 14.415 14.5849Z" fill="#141414"/>
</svg>
