<svg width="24" height="24" viewBox="0 0 24 24" fill="none" xmlns="http://www.w3.org/2000/svg">
<path d="M7.375 16.8077V7.19225C7.375 6.97975 7.44692 6.80167 7.59075 6.658C7.73458 6.51417 7.91275 6.44225 8.12525 6.44225C8.33792 6.44225 8.516 6.51417 8.6595 6.658C8.80317 6.80167 8.875 6.97975 8.875 7.19225V16.8077C8.875 17.0203 8.80308 17.1983 8.65925 17.342C8.51542 17.4858 8.33725 17.5577 8.12475 17.5577C7.91208 17.5577 7.734 17.4858 7.5905 17.342C7.44683 17.1983 7.375 17.0203 7.375 16.8077ZM11.25 20.75V3.25C11.25 3.0375 11.3219 2.85942 11.4658 2.71575C11.6096 2.57192 11.7878 2.5 12.0003 2.5C12.2129 2.5 12.391 2.57192 12.5345 2.71575C12.6782 2.85942 12.75 3.0375 12.75 3.25V20.75C12.75 20.9625 12.6781 21.1406 12.5343 21.2843C12.3904 21.4281 12.2122 21.5 11.9998 21.5C11.7871 21.5 11.609 21.4281 11.4655 21.2843C11.3218 21.1406 11.25 20.9625 11.25 20.75ZM3.5 12.9038V11.0962C3.5 10.8837 3.57192 10.7056 3.71575 10.5617C3.85958 10.4181 4.03775 10.3462 4.25025 10.3462C4.46292 10.3462 4.641 10.4181 4.7845 10.5617C4.92817 10.7056 5 10.8837 5 11.0962V12.9038C5 13.1163 4.92808 13.2944 4.78425 13.4383C4.64042 13.5819 4.46225 13.6538 4.24975 13.6538C4.03708 13.6538 3.859 13.5819 3.7155 13.4383C3.57183 13.2944 3.5 13.1163 3.5 12.9038ZM15.125 16.8077V7.19225C15.125 6.97975 15.1969 6.80167 15.3408 6.658C15.4846 6.51417 15.6628 6.44225 15.8753 6.44225C16.0879 6.44225 16.266 6.51417 16.4095 6.658C16.5532 6.80167 16.625 6.97975 16.625 7.19225V16.8077C16.625 17.0203 16.5531 17.1983 16.4093 17.342C16.2654 17.4858 16.0872 17.5577 15.8748 17.5577C15.6621 17.5577 15.484 17.4858 15.3405 17.342C15.1968 17.1983 15.125 17.0203 15.125 16.8077ZM19 12.9038V11.0962C19 10.8837 19.0719 10.7056 19.2158 10.5617C19.3596 10.4181 19.5378 10.3462 19.7502 10.3462C19.9629 10.3462 20.141 10.4181 20.2845 10.5617C20.4282 10.7056 20.5 10.8837 20.5 11.0962V12.9038C20.5 13.1163 20.4281 13.2944 20.2843 13.4383C20.1404 13.5819 19.9622 13.6538 19.7498 13.6538C19.5371 13.6538 19.359 13.5819 19.2155 13.4383C19.0718 13.2944 19 13.1163 19 12.9038Z" fill="#141414"/>
</svg>
