<svg width="24" height="24" viewBox="0 0 24 24" fill="none" xmlns="http://www.w3.org/2000/svg">
<mask id="mask0_740_8314" style="mask-type:alpha" maskUnits="userSpaceOnUse" x="0" y="0" width="24" height="24">
<rect width="24" height="24" fill="#D9D9D9"/>
</mask>
<g mask="url(#mask0_740_8314)">
<path d="M11.9811 20.5C9.97092 20.5 8.19917 19.8865 6.66583 18.6595C5.1325 17.4327 4.14975 15.8628 3.71758 13.95C3.66375 13.7513 3.69617 13.5687 3.81483 13.402C3.93333 13.2353 4.10125 13.1385 4.31858 13.1115C4.52308 13.0847 4.70642 13.1251 4.86858 13.2327C5.03075 13.3404 5.14392 13.4988 5.20808 13.7078C5.58875 15.2526 6.40892 16.5208 7.66858 17.5125C8.92825 18.5042 10.3657 19 11.9811 19C13.9311 19 15.5852 18.3208 16.9436 16.9625C18.3019 15.6042 18.9811 13.95 18.9811 12C18.9811 10.05 18.3019 8.39583 16.9436 7.0375C15.5852 5.67917 13.9311 5 11.9811 5C10.8887 5 9.86508 5.24267 8.91008 5.728C7.95492 6.21317 7.13242 6.88075 6.44258 7.73075H8.30808C8.52058 7.73075 8.69867 7.80267 8.84233 7.9465C8.98617 8.09033 9.05808 8.2685 9.05808 8.481C9.05808 8.69367 8.98617 8.87175 8.84233 9.01525C8.69867 9.15892 8.52058 9.23075 8.30808 9.23075H4.88508C4.62892 9.23075 4.41425 9.14408 4.24108 8.97075C4.06775 8.79758 3.98108 8.58292 3.98108 8.32675V4.90375C3.98108 4.69125 4.053 4.51317 4.19683 4.3695C4.34067 4.22567 4.51892 4.15375 4.73158 4.15375C4.94408 4.15375 5.12217 4.22567 5.26583 4.3695C5.40933 4.51317 5.48108 4.69125 5.48108 4.90375V6.523C6.29258 5.56533 7.26442 4.82208 8.39658 4.29325C9.52858 3.76442 10.7234 3.5 11.9811 3.5C13.1611 3.5 14.2663 3.72308 15.2968 4.16925C16.3273 4.61542 17.2259 5.22183 17.9926 5.9885C18.7592 6.75517 19.3657 7.65367 19.8118 8.684C20.258 9.7145 20.4811 10.8197 20.4811 11.9995C20.4811 13.1793 20.258 14.2846 19.8118 15.3152C19.3657 16.3461 18.7592 17.2448 17.9926 18.0115C17.2259 18.7782 16.3273 19.3846 15.2968 19.8307C14.2663 20.2769 13.1611 20.5 11.9811 20.5ZM12.7598 11.6962L15.5098 14.4462C15.6483 14.5846 15.7192 14.7586 15.7223 14.9683C15.7257 15.1779 15.6548 15.3552 15.5098 15.5C15.365 15.6448 15.1894 15.7172 14.9831 15.7172C14.7766 15.7172 14.6009 15.6448 14.4561 15.5L11.5311 12.575C11.4376 12.4813 11.369 12.3793 11.3253 12.269C11.2818 12.1587 11.2601 12.0447 11.2601 11.927V7.75C11.2601 7.5375 11.3319 7.35933 11.4756 7.2155C11.6194 7.07183 11.7977 7 12.0103 7C12.2228 7 12.4009 7.07183 12.5446 7.2155C12.6881 7.35933 12.7598 7.5375 12.7598 7.75V11.6962Z" fill="#141414"/>
</g>
</svg>
