<svg width="24" height="24" viewBox="0 0 24 24" fill="none" xmlns="http://www.w3.org/2000/svg">
<path d="M3.78077 19.8499C3.3536 19.8499 2.98293 19.6928 2.66877 19.3787C2.35443 19.0643 2.19727 18.6937 2.19727 18.2667V5.73315C2.19727 5.30615 2.35443 4.93549 2.66877 4.62115C2.98293 4.30699 3.3536 4.1499 3.78077 4.1499H16.3175C16.7364 4.1499 17.1044 4.30699 17.4215 4.62115C17.7387 4.93549 17.8973 5.30615 17.8973 5.73315V10.8332L21.1308 7.5999C21.2529 7.47774 21.3974 7.4479 21.564 7.5104C21.7307 7.5729 21.814 7.69165 21.814 7.86665V16.1367C21.814 16.3085 21.7307 16.4259 21.564 16.4889C21.3974 16.5517 21.2529 16.5221 21.1308 16.3999L17.8973 13.1667V18.2667C17.8973 18.6937 17.7387 19.0643 17.4215 19.3787C17.1044 19.6928 16.7364 19.8499 16.3175 19.8499H3.78077ZM3.78077 18.2667H16.314V5.73315H3.78077V18.2667Z" fill="#141414"/>
<path d="M8.55454 13.9704H10.7508C10.9633 13.9704 11.1415 14.0423 11.2853 14.1861C11.429 14.3299 11.5008 14.5081 11.5008 14.7206C11.5008 14.9333 11.429 15.1114 11.2853 15.2549C11.1415 15.3985 10.9633 15.4704 10.7508 15.4704H6.90454C6.64854 15.4704 6.43396 15.3837 6.26079 15.2104C6.08746 15.0372 6.00079 14.8226 6.00079 14.5666V10.7204C6.00079 10.5079 6.07271 10.3297 6.21654 10.1859C6.36038 10.0422 6.53854 9.97035 6.75104 9.97035C6.96371 9.97035 7.14179 10.0422 7.28529 10.1859C7.42896 10.3297 7.50079 10.5079 7.50079 10.7204V12.9166L12.2045 8.2126C12.343 8.0741 12.5171 8.00327 12.7268 8.0001C12.9365 7.99693 13.1137 8.06777 13.2585 8.2126C13.4034 8.35744 13.4758 8.5331 13.4758 8.7396C13.4758 8.94594 13.4034 9.1216 13.2585 9.2666L8.55454 13.9704Z" fill="#141414"/>
</svg>
