<svg width="24" height="24" viewBox="0 0 24 24" fill="none" xmlns="http://www.w3.org/2000/svg">
<g id="Base_Icon">
<path id="Vector" d="M12.0664 16.9141C12.2867 16.9141 12.4732 16.837 12.6259 16.6828C12.7787 16.5286 12.8551 16.3404 12.8551 16.1181V11.8016C12.8551 11.5857 12.7775 11.4005 12.6224 11.2458C12.4672 11.0913 12.2813 11.0141 12.0646 11.0141C11.8416 11.0141 11.6537 11.0913 11.5009 11.2458C11.3482 11.4005 11.2719 11.5857 11.2719 11.8016V16.1181C11.2719 16.3404 11.3492 16.5286 11.5039 16.6828C11.6585 16.837 11.846 16.9141 12.0664 16.9141ZM12.0031 9.16406C12.2433 9.16406 12.4454 9.0844 12.6094 8.92506C12.7732 8.7659 12.8551 8.56865 12.8551 8.33331C12.8551 8.08215 12.774 7.87448 12.6116 7.71031C12.4493 7.54615 12.2481 7.46406 12.0081 7.46406C11.7616 7.46406 11.5579 7.54523 11.3969 7.70756C11.2357 7.87006 11.1551 8.07548 11.1551 8.32381C11.1551 8.56281 11.2364 8.76256 11.3989 8.92306C11.5614 9.08373 11.7628 9.16406 12.0031 9.16406ZM12.0106 21.8306C10.6533 21.8306 9.37738 21.5715 8.18288 21.0533C6.98838 20.535 5.94696 19.8308 5.05863 18.9408C4.17013 18.0506 3.46688 17.0089 2.94888 15.8156C2.43088 14.6221 2.17188 13.3469 2.17188 11.9901C2.17188 10.6317 2.43096 9.35498 2.94913 8.15981C3.46746 6.96448 4.17163 5.92398 5.06163 5.03831C5.95179 4.15265 6.99354 3.45215 8.18688 2.93681C9.38038 2.42165 10.6555 2.16406 12.0124 2.16406C13.3707 2.16406 14.6475 2.42248 15.8429 2.93931C17.0382 3.45598 18.0787 4.15731 18.9644 5.04331C19.8499 5.92931 20.5503 6.9699 21.0656 8.16506C21.5808 9.36023 21.8384 10.6358 21.8384 11.9918C21.8384 13.3491 21.5806 14.6251 21.0651 15.8196C20.5496 17.0141 19.8483 18.0545 18.9611 18.9408C18.0738 19.8271 17.0325 20.5304 15.8374 21.0506C14.6422 21.5706 13.3666 21.8306 12.0106 21.8306ZM12.0129 20.2473C14.2994 20.2473 16.2447 19.4426 17.8489 17.8333C19.453 16.224 20.2551 14.2761 20.2551 11.9896C20.2551 9.70306 19.4543 7.75773 17.8526 6.15356C16.2508 4.5494 14.3018 3.74731 12.0056 3.74731C9.72479 3.74731 7.77946 4.54815 6.16963 6.14981C4.55996 7.75165 3.75513 9.70065 3.75513 11.9968C3.75513 14.2776 4.55979 16.223 6.16913 17.8328C7.77846 19.4425 9.72638 20.2473 12.0129 20.2473Z" fill="#A1A1A1"/>
</g>
</svg>
