<svg width="24" height="24" viewBox="0 0 24 24" fill="none" xmlns="http://www.w3.org/2000/svg">
<path d="M12.0625 16.9167C12.2828 16.9167 12.4693 16.8397 12.622 16.6855C12.7748 16.5313 12.8512 16.3431 12.8512 16.1208V11.8042C12.8512 11.5884 12.7736 11.4032 12.6185 11.2485C12.4633 11.094 12.2774 11.0167 12.0607 11.0167C11.8377 11.0167 11.6498 11.094 11.497 11.2485C11.3443 11.4032 11.268 11.5884 11.268 11.8042V16.1208C11.268 16.3431 11.3453 16.5313 11.5 16.6855C11.6546 16.8397 11.8421 16.9167 12.0625 16.9167ZM11.9992 9.16675C12.2394 9.16675 12.4415 9.08708 12.6055 8.92775C12.7693 8.76858 12.8512 8.57133 12.8512 8.336C12.8512 8.08483 12.7701 7.87717 12.6077 7.713C12.4454 7.54883 12.2442 7.46675 12.0042 7.46675C11.7577 7.46675 11.554 7.54791 11.393 7.71025C11.2318 7.87275 11.1512 8.07817 11.1512 8.3265C11.1512 8.5655 11.2325 8.76525 11.395 8.92575C11.5575 9.08642 11.7589 9.16675 11.9992 9.16675ZM12.0067 21.8333C10.6494 21.8333 9.37347 21.5742 8.17897 21.056C6.98447 20.5377 5.94305 19.8335 5.05472 18.9435C4.16622 18.0533 3.46297 17.0116 2.94497 15.8183C2.42697 14.6248 2.16797 13.3496 2.16797 11.9927C2.16797 10.6344 2.42705 9.35767 2.94522 8.1625C3.46355 6.96717 4.16772 5.92667 5.05772 5.041C5.94789 4.15533 6.98964 3.45483 8.18297 2.9395C9.37647 2.42433 10.6516 2.16675 12.0085 2.16675C13.3668 2.16675 14.6436 2.42516 15.839 2.942C17.0343 3.45867 18.0748 4.16 18.9605 5.046C19.846 5.932 20.5464 6.97258 21.0617 8.16775C21.5769 9.36292 21.8345 10.6385 21.8345 11.9945C21.8345 13.3518 21.5767 14.6278 21.0612 15.8223C20.5457 17.0168 19.8444 18.0572 18.9572 18.9435C18.0699 19.8298 17.0286 20.5331 15.8335 21.0532C14.6383 21.5732 13.3627 21.8333 12.0067 21.8333ZM12.009 20.25C14.2955 20.25 16.2408 19.4453 17.845 17.836C19.4491 16.2267 20.2512 14.2787 20.2512 11.9922C20.2512 9.70575 19.4504 7.76042 17.8487 6.15625C16.2469 4.55208 14.2979 3.75 12.0017 3.75C9.72089 3.75 7.77555 4.55083 6.16572 6.1525C4.55605 7.75433 3.75122 9.70333 3.75122 11.9995C3.75122 14.2803 4.55589 16.2257 6.16522 17.8355C7.77455 19.4452 9.72247 20.25 12.009 20.25Z" fill="#141414"/>
</svg>
