<svg width="24" height="24" viewBox="0 0 24 24" fill="none" xmlns="http://www.w3.org/2000/svg">
<mask id="mask0_740_8442" style="mask-type:alpha" maskUnits="userSpaceOnUse" x="0" y="0" width="24" height="24">
<rect width="24" height="24" fill="#D9D9D9"/>
</mask>
<g mask="url(#mask0_740_8442)">
<path d="M14.1842 11.3595L7.56891 4.74426C7.49074 4.6661 7.43557 4.5866 7.40341 4.50576C7.37141 4.4251 7.35541 4.33793 7.35541 4.24426C7.35541 4.0546 7.41924 3.8831 7.54691 3.72976C7.67441 3.5766 7.85032 3.50001 8.07466 3.50001H15.7497C15.9622 3.50001 16.1402 3.57218 16.2839 3.71651C16.4277 3.86068 16.4997 4.03943 16.4997 4.25276C16.4997 4.45343 16.4125 4.59993 16.2382 4.69226C16.0638 4.7846 15.901 4.88718 15.7497 5.00001H15.4997V10.8078C15.4997 11.1531 15.342 11.3929 15.0267 11.5273C14.7112 11.6616 14.4303 11.6057 14.1842 11.3595ZM11.2497 21V15.5H8.17866C7.81149 15.5 7.51774 15.3718 7.29741 15.1153C7.07724 14.8589 6.96716 14.5731 6.96716 14.2578C6.96716 14.1001 6.99857 13.9438 7.06141 13.789C7.12424 13.6343 7.22549 13.4868 7.36516 13.3463L8.49966 12.2115V10.6385L2.65741 4.76526C2.51891 4.62693 2.44549 4.45551 2.43716 4.25101C2.42882 4.04651 2.50291 3.86601 2.65941 3.70951C2.80291 3.56601 2.97791 3.49426 3.18441 3.49426C3.39074 3.49426 3.56632 3.56668 3.71116 3.71151L19.8882 19.8885C20.0368 20.0372 20.1102 20.2138 20.1082 20.4183C20.1063 20.6228 20.0278 20.8033 19.8727 20.9598C19.7175 21.1033 19.5418 21.1775 19.3457 21.1825C19.1497 21.1877 18.9741 21.1127 18.8189 20.9575L13.3612 15.5H12.7497V21C12.7497 21.2125 12.6777 21.3906 12.5339 21.5343C12.3901 21.6781 12.2119 21.75 11.9994 21.75C11.7867 21.75 11.6087 21.6781 11.4652 21.5343C11.3215 21.3906 11.2497 21.2125 11.2497 21Z" fill="#141414"/>
</g>
</svg>
