<svg width="24" height="24" viewBox="0 0 24 24" fill="none" xmlns="http://www.w3.org/2000/svg">
<mask id="mask0_740_8310" style="mask-type:alpha" maskUnits="userSpaceOnUse" x="0" y="0" width="24" height="24">
<rect width="24" height="24" fill="#D9D9D9"/>
</mask>
<g mask="url(#mask0_740_8310)">
<path d="M15.5004 5V12.2115L17.0657 13.777C17.14 13.8513 17.1958 13.935 17.2332 14.028C17.2703 14.1208 17.2889 14.2168 17.2889 14.316V14.7435C17.2889 14.9542 17.2161 15.1329 17.0704 15.2797C16.9249 15.4266 16.7445 15.5 16.5292 15.5H12.7504V20.8885C12.7504 21.101 12.6785 21.2791 12.5347 21.4228C12.3908 21.5664 12.2127 21.6383 12.0002 21.6383C11.7875 21.6383 11.6094 21.5664 11.4659 21.4228C11.3222 21.2791 11.2504 21.101 11.2504 20.8885V15.5H7.47166C7.25633 15.5 7.07591 15.4266 6.93041 15.2797C6.78475 15.1329 6.71191 14.9542 6.71191 14.7435V14.316C6.71191 14.2168 6.7305 14.1208 6.76766 14.028C6.805 13.935 6.86083 13.8513 6.93516 13.777L8.50041 12.2115V5H8.25041C8.03791 5 7.85983 4.92808 7.71616 4.78425C7.57233 4.64042 7.50041 4.46225 7.50041 4.24975C7.50041 4.03708 7.57233 3.859 7.71616 3.7155C7.85983 3.57183 8.03791 3.5 8.25041 3.5H15.7504C15.9629 3.5 16.141 3.57192 16.2847 3.71575C16.4285 3.85958 16.5004 4.03775 16.5004 4.25025C16.5004 4.46292 16.4285 4.641 16.2847 4.7845C16.141 4.92817 15.9629 5 15.7504 5H15.5004Z" fill="#141414"/>
</g>
</svg>
