<svg width="24" height="24" viewBox="0 0 24 24" fill="none" xmlns="http://www.w3.org/2000/svg">
<mask id="mask0_740_8308" style="mask-type:alpha" maskUnits="userSpaceOnUse" x="0" y="0" width="24" height="24">
<rect width="24" height="24" fill="#D9D9D9"/>
</mask>
<g mask="url(#mask0_740_8308)">
<path d="M4.30775 18.5C3.80258 18.5 3.375 18.325 3.025 17.975C2.675 17.625 2.5 17.1974 2.5 16.6923V7.30775C2.5 6.80258 2.675 6.375 3.025 6.025C3.375 5.675 3.80258 5.5 4.30775 5.5H19.6923C20.1974 5.5 20.625 5.675 20.975 6.025C21.325 6.375 21.5 6.80258 21.5 7.30775V16.6923C21.5 17.1974 21.325 17.625 20.975 17.975C20.625 18.325 20.1974 18.5 19.6923 18.5H4.30775ZM9 15.8845H15C15.2448 15.8845 15.4535 15.7999 15.626 15.6308C15.7983 15.4616 15.8845 15.2513 15.8845 15C15.8845 14.7552 15.7983 14.5465 15.626 14.374C15.4535 14.2017 15.2448 14.1155 15 14.1155H9C8.75517 14.1155 8.5465 14.2001 8.374 14.3693C8.20167 14.5384 8.1155 14.7487 8.1155 15C8.1155 15.2448 8.20167 15.4535 8.374 15.626C8.5465 15.7983 8.75517 15.8845 9 15.8845ZM6 9.8845C6.24483 9.8845 6.4535 9.79833 6.626 9.626C6.79833 9.4535 6.8845 9.24483 6.8845 9C6.8845 8.75517 6.79833 8.5465 6.626 8.374C6.4535 8.20167 6.24483 8.1155 6 8.1155C5.75517 8.1155 5.5465 8.20167 5.374 8.374C5.20167 8.5465 5.1155 8.75517 5.1155 9C5.1155 9.24483 5.20167 9.4535 5.374 9.626C5.5465 9.79833 5.75517 9.8845 6 9.8845ZM9 9.8845C9.24483 9.8845 9.4535 9.79833 9.626 9.626C9.79833 9.4535 9.8845 9.24483 9.8845 9C9.8845 8.75517 9.79833 8.5465 9.626 8.374C9.4535 8.20167 9.24483 8.1155 9 8.1155C8.75517 8.1155 8.5465 8.20167 8.374 8.374C8.20167 8.5465 8.1155 8.75517 8.1155 9C8.1155 9.24483 8.20167 9.4535 8.374 9.626C8.5465 9.79833 8.75517 9.8845 9 9.8845ZM12 9.8845C12.2448 9.8845 12.4535 9.79833 12.626 9.626C12.7983 9.4535 12.8845 9.24483 12.8845 9C12.8845 8.75517 12.7983 8.5465 12.626 8.374C12.4535 8.20167 12.2448 8.1155 12 8.1155C11.7552 8.1155 11.5465 8.20167 11.374 8.374C11.2017 8.5465 11.1155 8.75517 11.1155 9C11.1155 9.24483 11.2017 9.4535 11.374 9.626C11.5465 9.79833 11.7552 9.8845 12 9.8845ZM15 9.8845C15.2448 9.8845 15.4535 9.79833 15.626 9.626C15.7983 9.4535 15.8845 9.24483 15.8845 9C15.8845 8.75517 15.7983 8.5465 15.626 8.374C15.4535 8.20167 15.2448 8.1155 15 8.1155C14.7552 8.1155 14.5465 8.20167 14.374 8.374C14.2017 8.5465 14.1155 8.75517 14.1155 9C14.1155 9.24483 14.2017 9.4535 14.374 9.626C14.5465 9.79833 14.7552 9.8845 15 9.8845ZM18 9.8845C18.2448 9.8845 18.4535 9.79833 18.626 9.626C18.7983 9.4535 18.8845 9.24483 18.8845 9C18.8845 8.75517 18.7983 8.5465 18.626 8.374C18.4535 8.20167 18.2448 8.1155 18 8.1155C17.7552 8.1155 17.5465 8.20167 17.374 8.374C17.2017 8.5465 17.1155 8.75517 17.1155 9C17.1155 9.24483 17.2017 9.4535 17.374 9.626C17.5465 9.79833 17.7552 9.8845 18 9.8845ZM6 12.8845C6.24483 12.8845 6.4535 12.7983 6.626 12.626C6.79833 12.4535 6.8845 12.2448 6.8845 12C6.8845 11.7552 6.79833 11.5465 6.626 11.374C6.4535 11.2017 6.24483 11.1155 6 11.1155C5.75517 11.1155 5.5465 11.2017 5.374 11.374C5.20167 11.5465 5.1155 11.7552 5.1155 12C5.1155 12.2448 5.20167 12.4535 5.374 12.626C5.5465 12.7983 5.75517 12.8845 6 12.8845ZM9 12.8845C9.24483 12.8845 9.4535 12.7983 9.626 12.626C9.79833 12.4535 9.8845 12.2448 9.8845 12C9.8845 11.7552 9.79833 11.5465 9.626 11.374C9.4535 11.2017 9.24483 11.1155 9 11.1155C8.75517 11.1155 8.5465 11.2017 8.374 11.374C8.20167 11.5465 8.1155 11.7552 8.1155 12C8.1155 12.2448 8.20167 12.4535 8.374 12.626C8.5465 12.7983 8.75517 12.8845 9 12.8845ZM12 12.8845C12.2448 12.8845 12.4535 12.7983 12.626 12.626C12.7983 12.4535 12.8845 12.2448 12.8845 12C12.8845 11.7552 12.7983 11.5465 12.626 11.374C12.4535 11.2017 12.2448 11.1155 12 11.1155C11.7552 11.1155 11.5465 11.2017 11.374 11.374C11.2017 11.5465 11.1155 11.7552 11.1155 12C11.1155 12.2448 11.2017 12.4535 11.374 12.626C11.5465 12.7983 11.7552 12.8845 12 12.8845ZM15 12.8845C15.2448 12.8845 15.4535 12.7983 15.626 12.626C15.7983 12.4535 15.8845 12.2448 15.8845 12C15.8845 11.7552 15.7983 11.5465 15.626 11.374C15.4535 11.2017 15.2448 11.1155 15 11.1155C14.7552 11.1155 14.5465 11.2017 14.374 11.374C14.2017 11.5465 14.1155 11.7552 14.1155 12C14.1155 12.2448 14.2017 12.4535 14.374 12.626C14.5465 12.7983 14.7552 12.8845 15 12.8845ZM18 12.8845C18.2448 12.8845 18.4535 12.7983 18.626 12.626C18.7983 12.4535 18.8845 12.2448 18.8845 12C18.8845 11.7552 18.7983 11.5465 18.626 11.374C18.4535 11.2017 18.2448 11.1155 18 11.1155C17.7552 11.1155 17.5465 11.2017 17.374 11.374C17.2017 11.5465 17.1155 11.7552 17.1155 12C17.1155 12.2448 17.2017 12.4535 17.374 12.626C17.5465 12.7983 17.7552 12.8845 18 12.8845Z" fill="#141414"/>
</g>
</svg>
