<svg width="8" height="8" viewBox="0 0 8 8" fill="none" xmlns="http://www.w3.org/2000/svg">
<mask id="mask0_7292_139201" style="mask-type:alpha" maskUnits="userSpaceOnUse" x="0" y="0" width="8" height="8">
<rect width="8" height="8" fill="#D9D9D9"/>
</mask>
<g mask="url(#mask0_7292_139201)">
<path d="M2.10258 7.16797C1.93686 7.16797 1.795 7.10897 1.677 6.99097C1.559 6.87297 1.5 6.73111 1.5 6.56539V3.43722C1.5 3.2715 1.559 3.12964 1.677 3.01164C1.795 2.89364 1.93686 2.83464 2.10258 2.83464H2.5V2.16797C2.5 1.75175 2.64594 1.39769 2.93783 1.1058C3.22972 0.813913 3.58378 0.667969 4 0.667969C4.41622 0.667969 4.77028 0.813913 5.06217 1.1058C5.35406 1.39769 5.5 1.75175 5.5 2.16797V2.83464H5.89742C6.06314 2.83464 6.205 2.89364 6.323 3.01164C6.441 3.12964 6.5 3.2715 6.5 3.43722V6.56539C6.5 6.73111 6.441 6.87297 6.323 6.99097C6.205 7.10897 6.06314 7.16797 5.89742 7.16797H2.10258ZM4 5.58464C4.16194 5.58464 4.29967 5.52791 4.41317 5.41447C4.52661 5.30097 4.58333 5.16325 4.58333 5.0013C4.58333 4.83936 4.52661 4.70164 4.41317 4.58814C4.29967 4.47469 4.16194 4.41797 4 4.41797C3.83806 4.41797 3.70033 4.47469 3.58683 4.58814C3.47339 4.70164 3.41667 4.83936 3.41667 5.0013C3.41667 5.16325 3.47339 5.30097 3.58683 5.41447C3.70033 5.52791 3.83806 5.58464 4 5.58464ZM3 2.83464H5V2.16797C5 1.89019 4.90278 1.65408 4.70833 1.45964C4.51389 1.26519 4.27778 1.16797 4 1.16797C3.72222 1.16797 3.48611 1.26519 3.29167 1.45964C3.09722 1.65408 3 1.89019 3 2.16797V2.83464Z" fill="white"/>
</g>
</svg>
