<svg width="24" height="24" viewBox="0 0 24 24" fill="none" xmlns="http://www.w3.org/2000/svg">
<mask id="mask0_740_8392" style="mask-type:alpha" maskUnits="userSpaceOnUse" x="0" y="0" width="24" height="24">
<rect width="24" height="24" fill="#D9D9D9"/>
</mask>
<g mask="url(#mask0_740_8392)">
<path d="M6.30775 21.5C5.81058 21.5 5.385 21.323 5.031 20.969C4.677 20.615 4.5 20.1894 4.5 19.6923V10.3077C4.5 9.81058 4.677 9.385 5.031 9.031C5.385 8.677 5.81058 8.5 6.30775 8.5H15V6.5C15 5.66667 14.7083 4.95833 14.125 4.375C13.5417 3.79167 12.8333 3.5 12 3.5C11.277 3.5 10.6443 3.7285 10.102 4.1855C9.55967 4.64267 9.21608 5.21033 9.07125 5.8885C9.02225 6.07267 8.92117 6.22058 8.768 6.33225C8.615 6.44408 8.4435 6.5 8.2535 6.5C8.03833 6.5 7.859 6.42917 7.7155 6.2875C7.57183 6.14583 7.51858 5.97883 7.55575 5.7865C7.70058 4.72367 8.19225 3.82692 9.03075 3.09625C9.86925 2.36542 10.859 2 12 2C13.2487 2 14.3108 2.43783 15.1865 3.3135C16.0622 4.18917 16.5 5.25133 16.5 6.5V8.5H17.6923C18.1894 8.5 18.615 8.677 18.969 9.031C19.323 9.385 19.5 9.81058 19.5 10.3077V19.6923C19.5 20.1894 19.323 20.615 18.969 20.969C18.615 21.323 18.1894 21.5 17.6923 21.5H6.30775ZM12 16.75C12.4858 16.75 12.899 16.5798 13.2395 16.2395C13.5798 15.899 13.75 15.4858 13.75 15C13.75 14.5142 13.5798 14.101 13.2395 13.7605C12.899 13.4202 12.4858 13.25 12 13.25C11.5142 13.25 11.101 13.4202 10.7605 13.7605C10.4202 14.101 10.25 14.5142 10.25 15C10.25 15.4858 10.4202 15.899 10.7605 16.2395C11.101 16.5798 11.5142 16.75 12 16.75Z" fill="#141414"/>
</g>
</svg>
