<svg width="24" height="24" viewBox="0 0 24 24" fill="none" xmlns="http://www.w3.org/2000/svg">
<mask id="mask0_740_8457" style="mask-type:alpha" maskUnits="userSpaceOnUse" x="0" y="0" width="24" height="24">
<rect width="24" height="24" fill="#D9D9D9"/>
</mask>
<g mask="url(#mask0_740_8457)">
<path d="M4.30775 19.5C3.80258 19.5 3.375 19.325 3.025 18.975C2.675 18.625 2.5 18.1974 2.5 17.6923V6.30775C2.5 5.80258 2.675 5.375 3.025 5.025C3.375 4.675 3.80258 4.5 4.30775 4.5H19.6923C20.1974 4.5 20.625 4.675 20.975 5.025C21.325 5.375 21.5 5.80258 21.5 6.30775V17.6923C21.5 18.1974 21.325 18.625 20.975 18.975C20.625 19.325 20.1974 19.5 19.6923 19.5H4.30775ZM12 12.3923C12.0833 12.3923 12.166 12.3798 12.248 12.3548C12.3302 12.3298 12.4097 12.2955 12.4865 12.252L19.6385 7.673C19.7525 7.6025 19.8333 7.51117 19.8808 7.399C19.9283 7.28683 19.9423 7.16858 19.923 7.04425C19.9102 6.81342 19.7973 6.64192 19.5845 6.52975C19.3718 6.41758 19.1572 6.4275 18.9405 6.5595L12 11L5.0595 6.5595C4.84283 6.4275 4.62975 6.41692 4.42025 6.52775C4.21058 6.63875 4.09617 6.80767 4.077 7.0345C4.05767 7.16917 4.07175 7.29417 4.11925 7.4095C4.16675 7.525 4.2475 7.61283 4.3615 7.673L11.5135 12.252C11.5903 12.2955 11.6698 12.3298 11.752 12.3548C11.834 12.3798 11.9167 12.3923 12 12.3923Z" fill="#141414"/>
</g>
</svg>
