<svg width="16" height="17" viewBox="0 0 16 17" fill="none" xmlns="http://www.w3.org/2000/svg">
<mask id="mask0_5689_683456" style="mask-type:alpha" maskUnits="userSpaceOnUse" x="0" y="0" width="16" height="17">
<rect y="0.5" width="16" height="16" fill="#D9D9D9"/>
</mask>
<g mask="url(#mask0_5689_683456)">
<path d="M8.001 14.8334C7.125 14.8334 6.30161 14.6672 5.53084 14.3347C4.76006 14.0023 4.08961 13.5511 3.5195 12.9812C2.94939 12.4114 2.498 11.7412 2.16534 10.9707C1.83278 10.2003 1.6665 9.37714 1.6665 8.50125C1.6665 7.62525 1.83273 6.80186 2.16517 6.03108C2.49761 5.2603 2.94878 4.58986 3.51867 4.01975C4.08856 3.44964 4.75873 2.99825 5.52917 2.66558C6.29961 2.33303 7.12278 2.16675 7.99867 2.16675C8.87467 2.16675 9.69806 2.33297 10.4688 2.66541C11.2396 2.99786 11.9101 3.44903 12.4802 4.01891C13.0503 4.5888 13.5017 5.25897 13.8343 6.02941C14.1669 6.79986 14.3332 7.62303 14.3332 8.49891C14.3332 9.37491 14.1669 10.1983 13.8345 10.9691C13.5021 11.7399 13.0509 12.4103 12.481 12.9804C11.9111 13.5505 11.2409 14.0019 10.4705 14.3346C9.70006 14.6671 8.87689 14.8334 8.001 14.8334ZM7.99984 13.8334C8.62528 13.8334 9.22761 13.7276 9.80684 13.5161C10.3859 13.3045 10.9152 12.9984 11.3947 12.5976L3.90234 5.10525C3.50578 5.58469 3.20067 6.11397 2.987 6.69308C2.77334 7.2723 2.6665 7.87464 2.6665 8.50008C2.6665 9.98897 3.18317 11.2501 4.2165 12.2834C5.24984 13.3167 6.51095 13.8334 7.99984 13.8334ZM12.0973 11.8949C12.4981 11.4155 12.8043 10.8862 13.0158 10.3071C13.2274 9.72786 13.3332 9.12553 13.3332 8.50008C13.3332 7.01119 12.8165 5.75008 11.7832 4.71675C10.7498 3.68341 9.48873 3.16675 7.99984 3.16675C7.37284 3.16675 6.76906 3.27147 6.1885 3.48091C5.60806 3.69025 5.08023 3.99747 4.605 4.40258L12.0973 11.8949Z" fill="#A1A1A1"/>
</g>
</svg>
