<svg width="24" height="24" viewBox="0 0 24 24" fill="none" xmlns="http://www.w3.org/2000/svg">
<path d="M11.9995 13.5332C11.2716 13.5332 10.6591 13.2719 10.162 12.7492C9.6648 12.2266 9.41622 11.5935 9.41622 10.85V4.73325C9.41622 4.02042 9.66722 3.41441 10.1692 2.91525C10.6714 2.41625 11.2811 2.16675 11.9985 2.16675C12.7158 2.16675 13.3259 2.41625 13.8287 2.91525C14.3314 3.41441 14.5827 4.02042 14.5827 4.73325V10.85C14.5827 11.5935 14.3341 12.2266 13.837 12.7492C13.3398 13.2719 12.7273 13.5332 11.9995 13.5332ZM11.212 20.0707V17.577C9.64813 17.4007 8.30022 16.766 7.16822 15.673C6.03622 14.5798 5.3758 13.2416 5.18697 11.6582C5.15363 11.4349 5.21055 11.2444 5.35772 11.0867C5.50488 10.9289 5.6943 10.85 5.92597 10.85C6.14713 10.85 6.33413 10.9271 6.48697 11.0812C6.6398 11.2354 6.73705 11.4264 6.77872 11.6542C6.98139 12.9459 7.5818 14.0014 8.57997 14.8207C9.57813 15.6402 10.7174 16.05 11.9977 16.05C13.2961 16.05 14.4404 15.6382 15.4307 14.8145C16.4211 13.991 17.0204 12.9376 17.2287 11.6542C17.2656 11.4272 17.3611 11.2364 17.5155 11.0817C17.6698 10.9272 17.8592 10.85 18.0837 10.85C18.3081 10.85 18.4939 10.9289 18.6412 11.0867C18.7884 11.2444 18.8481 11.4349 18.8202 11.6582C18.6259 13.2222 17.9672 14.5552 16.8442 15.6572C15.7214 16.7592 14.3717 17.3999 12.7952 17.5792V20.0707C12.7952 20.2931 12.7179 20.4813 12.5632 20.6355C12.4086 20.7897 12.2196 20.8667 11.9965 20.8667C11.7735 20.8667 11.587 20.7897 11.437 20.6355C11.287 20.4813 11.212 20.2931 11.212 20.0707ZM11.9995 11.95C12.2925 11.95 12.5324 11.8431 12.7192 11.6292C12.9061 11.4152 12.9995 11.1555 12.9995 10.85V4.7405C12.9995 4.46066 12.9038 4.22566 12.7125 4.0355C12.521 3.84516 12.2837 3.75 12.0007 3.75C11.7177 3.75 11.4801 3.84425 11.288 4.03275C11.0956 4.22125 10.9995 4.45475 10.9995 4.73325V10.8477C10.9995 11.1547 11.0929 11.4152 11.2797 11.6292C11.4666 11.8431 11.7065 11.95 11.9995 11.95Z" fill="#141414"/>
</svg>
