<svg width="24" height="24" viewBox="0 0 24 24" fill="none" xmlns="http://www.w3.org/2000/svg">
<mask id="mask0_740_8402" style="mask-type:alpha" maskUnits="userSpaceOnUse" x="0" y="0" width="24" height="24">
<rect width="24" height="24" fill="#D9D9D9"/>
</mask>
<g mask="url(#mask0_740_8402)">
<path d="M16.5213 13.9018C16.3456 13.8069 16.2292 13.6557 16.172 13.448C16.115 13.2403 16.1339 13.0487 16.2288 12.873C16.3263 12.7025 16.4013 12.5211 16.4538 12.3287C16.5064 12.1364 16.5462 11.9416 16.573 11.7443C16.6205 11.5314 16.716 11.3542 16.8595 11.2125C17.0032 11.0708 17.1814 11 17.3943 11C17.6071 11 17.7827 11.0776 17.921 11.2327C18.0595 11.3877 18.1185 11.5717 18.098 11.7845C18.0608 12.0973 17.999 12.4067 17.9125 12.7125C17.826 13.0182 17.7052 13.3088 17.55 13.5845C17.4552 13.7667 17.3055 13.8888 17.101 13.951C16.8965 14.0132 16.7033 13.9968 16.5213 13.9018ZM12.8288 9.7385L9.67127 6.5615C9.5071 6.39733 9.37827 6.20408 9.28477 5.98175C9.1911 5.75925 9.14427 5.5275 9.14427 5.2865V5C9.14427 4.30133 9.38627 3.71 9.87027 3.226C10.3543 2.742 10.9456 2.5 11.6443 2.5C12.3429 2.5 12.9343 2.742 13.4183 3.226C13.9023 3.71 14.1443 4.30133 14.1443 5V9.1865C14.1443 9.534 13.9865 9.77442 13.671 9.90775C13.3557 10.0411 13.0749 9.98467 12.8288 9.7385ZM10.8943 20V17.4578C9.40577 17.2832 8.1301 16.6704 7.06727 15.6193C6.00443 14.5679 5.38202 13.2865 5.20002 11.775C5.17318 11.5622 5.22893 11.3798 5.36727 11.228C5.50577 11.076 5.68143 11 5.89427 11C6.1071 11 6.28527 11.0734 6.42877 11.2203C6.57243 11.3669 6.66793 11.5467 6.71527 11.7595C6.89743 12.984 7.45743 13.9968 8.39527 14.798C9.3331 15.5993 10.4161 16 11.6443 16C12.2878 16 12.8926 15.8852 13.4588 15.6557C14.0248 15.4262 14.5257 15.1083 14.9615 14.702L16.0308 15.771C15.5474 16.225 14.9974 16.5988 14.3808 16.8923C13.7641 17.1859 13.1019 17.3744 12.3943 17.4578V20C12.3943 20.2128 12.3224 20.391 12.1788 20.5345C12.0353 20.6782 11.8571 20.75 11.6443 20.75C11.4314 20.75 11.2532 20.6782 11.1095 20.5345C10.966 20.391 10.8943 20.2128 10.8943 20ZM19.3405 21.1885L2.20577 4.05375C2.06727 3.91525 1.99643 3.74125 1.99327 3.53175C1.9901 3.32208 2.06093 3.14483 2.20577 3C2.3506 2.85517 2.52627 2.78275 2.73277 2.78275C2.9391 2.78275 3.11468 2.85517 3.25952 3L20.3943 20.1345C20.5328 20.273 20.6036 20.4471 20.6068 20.6568C20.6099 20.8663 20.5391 21.0435 20.3943 21.1885C20.2494 21.3333 20.0738 21.4058 19.8673 21.4058C19.6609 21.4058 19.4853 21.3333 19.3405 21.1885Z" fill="#141414"/>
</g>
</svg>
