<svg width="24" height="24" viewBox="0 0 24 24" fill="none" xmlns="http://www.w3.org/2000/svg">
<mask id="mask0_740_8303" style="mask-type:alpha" maskUnits="userSpaceOnUse" x="0" y="0" width="24" height="24">
<rect width="24" height="24" fill="#D9D9D9"/>
</mask>
<g mask="url(#mask0_740_8303)">
<path d="M10.9595 15.2673C11.08 15.2673 11.1922 15.2455 11.296 15.202C11.3998 15.1583 11.4985 15.0898 11.592 14.9963L14.5862 11.977C14.7247 11.8385 14.7982 11.667 14.8065 11.4625C14.8148 11.258 14.7414 11.0782 14.5862 10.923C14.4414 10.7782 14.2658 10.7057 14.0595 10.7057C13.853 10.7057 13.6773 10.7782 13.5325 10.923L10.9595 13.5155L8.14398 10.7307H9.27848C9.49132 10.7307 9.66957 10.6589 9.81323 10.5152C9.95673 10.3717 10.0285 10.1936 10.0285 9.98075C10.0285 9.76792 9.95673 9.58975 9.81323 9.44625C9.66957 9.30258 9.49132 9.23075 9.27848 9.23075H6.43248C6.17482 9.23075 5.95973 9.317 5.78723 9.4895C5.6149 9.66183 5.52873 9.87692 5.52873 10.1348V12.9808C5.52873 13.1936 5.60048 13.3717 5.74398 13.5153C5.88765 13.6589 6.06582 13.7308 6.27848 13.7308C6.49132 13.7308 6.66957 13.6589 6.81323 13.5153C6.95673 13.3717 7.02848 13.1936 7.02848 12.9808V11.723L10.3267 15.0213C10.4202 15.1148 10.5189 15.1792 10.6227 15.2145C10.7266 15.2497 10.8388 15.2673 10.9595 15.2673ZM4.54773 19.5C4.04273 19.5 3.61523 19.325 3.26523 18.975C2.91523 18.625 2.74023 18.1974 2.74023 17.6923V6.30775C2.74023 5.80258 2.91523 5.375 3.26523 5.025C3.61523 4.675 4.04273 4.5 4.54773 4.5H15.9325C16.4375 4.5 16.865 4.675 17.215 5.025C17.565 5.375 17.74 5.80258 17.74 6.30775V10.8848L20.4862 8.1385C20.6337 7.991 20.7994 7.95417 20.9832 8.028C21.1672 8.10167 21.2592 8.24233 21.2592 8.45V15.55C21.2592 15.7577 21.1672 15.8983 20.9832 15.972C20.7994 16.0458 20.6337 16.009 20.4862 15.8615L17.74 13.1152V17.6923C17.74 18.1974 17.565 18.625 17.215 18.975C16.865 19.325 16.4375 19.5 15.9325 19.5H4.54773Z" fill="#141414"/>
</g>
</svg>
