<svg width="24" height="24" viewBox="0 0 24 24" fill="none" xmlns="http://www.w3.org/2000/svg">
<path d="M10.762 15.4082C10.8687 15.4082 10.9679 15.3894 11.0598 15.3519C11.1514 15.3144 11.2378 15.2552 11.319 15.1742L14.539 11.9344C14.6973 11.7809 14.7751 11.5958 14.7723 11.3792C14.7696 11.1625 14.6871 10.9752 14.5248 10.8172C14.3676 10.664 14.1813 10.5874 13.966 10.5874C13.7508 10.5874 13.5668 10.6638 13.414 10.8167L10.764 13.4667L7.93077 10.6499H9.16827C9.39043 10.6499 9.5786 10.5726 9.73277 10.4179C9.88693 10.2631 9.96402 10.0756 9.96402 9.8554C9.96402 9.63507 9.88693 9.44849 9.73277 9.29565C9.5786 9.14299 9.39043 9.06665 9.16827 9.06665H5.93477C5.7126 9.06665 5.52585 9.1439 5.37452 9.2984C5.22302 9.45307 5.14727 9.63832 5.14727 9.85415V12.9874C5.14727 13.2096 5.22327 13.3977 5.37527 13.5519C5.52727 13.7061 5.71477 13.7832 5.93777 13.7832C6.16077 13.7832 6.34868 13.7061 6.50152 13.5519C6.65435 13.3977 6.73077 13.2096 6.73077 12.9874V11.6832L10.2015 15.1707C10.282 15.2568 10.3689 15.318 10.4623 15.3542C10.5556 15.3902 10.6555 15.4082 10.762 15.4082ZM3.78077 19.8499C3.3536 19.8499 2.98293 19.6928 2.66877 19.3787C2.35443 19.0643 2.19727 18.6937 2.19727 18.2667V5.73315C2.19727 5.30615 2.35443 4.93549 2.66877 4.62115C2.98293 4.30699 3.3536 4.1499 3.78077 4.1499H16.3175C16.7364 4.1499 17.1043 4.30699 17.4215 4.62115C17.7387 4.93549 17.8973 5.30615 17.8973 5.73315V10.8332L21.1308 7.5999C21.2529 7.47774 21.3974 7.4479 21.564 7.5104C21.7307 7.5729 21.814 7.69165 21.814 7.86665V16.1367C21.814 16.3085 21.7307 16.4259 21.564 16.4889C21.3974 16.5517 21.2529 16.5221 21.1308 16.3999L17.8973 13.1667V18.2667C17.8973 18.6937 17.7387 19.0643 17.4215 19.3787C17.1043 19.6928 16.7364 19.8499 16.3175 19.8499H3.78077ZM3.78077 18.2667H16.314V5.73315H3.78077V18.2667Z" fill="#141414"/>
</svg>
