<svg width="24" height="24" viewBox="0 0 24 24" fill="none" xmlns="http://www.w3.org/2000/svg">
<path d="M15.5492 10.7667C15.9284 10.7667 16.2513 10.634 16.518 10.3685C16.7846 10.1032 16.918 9.781 16.918 9.402C16.918 9.02283 16.7853 8.69992 16.52 8.43325C16.2545 8.16658 15.9322 8.03325 15.5532 8.03325C15.1741 8.03325 14.8511 8.16592 14.5845 8.43125C14.3178 8.69675 14.1845 9.019 14.1845 9.398C14.1845 9.77717 14.3172 10.1001 14.5827 10.3667C14.8481 10.6334 15.1702 10.7667 15.5492 10.7667ZM8.44922 10.7667C8.82839 10.7667 9.1513 10.634 9.41797 10.3685C9.68464 10.1032 9.81797 9.781 9.81797 9.402C9.81797 9.02283 9.68522 8.69992 9.41972 8.43325C9.15439 8.16658 8.83222 8.03325 8.45322 8.03325C8.07405 8.03325 7.75114 8.16592 7.48447 8.43125C7.2178 8.69675 7.08447 9.019 7.08447 9.398C7.08447 9.77717 7.21714 10.1001 7.48247 10.3667C7.74797 10.6334 8.07022 10.7667 8.44922 10.7667ZM12.0022 21.8333C10.6421 21.8333 9.36339 21.5748 8.16622 21.058C6.96905 20.5413 5.92764 19.84 5.04197 18.954C4.15647 18.068 3.45605 17.0274 2.94072 15.8322C2.42555 14.6371 2.16797 13.36 2.16797 12.001C2.16797 10.6408 2.42639 9.36216 2.94322 8.165C3.45989 6.96783 4.16122 5.92642 5.04722 5.04075C5.93322 4.15525 6.9738 3.45483 8.16897 2.9395C9.36414 2.42433 10.6412 2.16675 12.0002 2.16675C13.3604 2.16675 14.6391 2.42516 15.8362 2.942C17.0334 3.45867 18.0748 4.16 18.9605 5.046C19.846 5.932 20.5464 6.97258 21.0617 8.16775C21.5769 9.36292 21.8345 10.64 21.8345 11.999C21.8345 13.3592 21.5761 14.6378 21.0592 15.835C20.5426 17.0322 19.8412 18.0736 18.9552 18.9592C18.0692 19.8447 17.0286 20.5452 15.8335 21.0605C14.6383 21.5757 13.3612 21.8333 12.0022 21.8333ZM12.0012 20.25C14.3026 20.25 16.2529 19.4503 17.8522 17.851C19.4516 16.2517 20.2512 14.3013 20.2512 12C20.2512 9.69867 19.4516 7.74833 17.8522 6.149C16.2529 4.54967 14.3026 3.75 12.0012 3.75C9.69989 3.75 7.74955 4.54967 6.15022 6.149C4.55089 7.74833 3.75122 9.69867 3.75122 12C3.75122 14.3013 4.55089 16.2517 6.15022 17.851C7.74955 19.4503 9.69989 20.25 12.0012 20.25ZM11.991 17.3833C12.931 17.3833 13.7981 17.1667 14.5925 16.7335C15.3868 16.3005 16.033 15.7016 16.531 14.9367C16.6306 14.7456 16.6245 14.5583 16.5125 14.375C16.4005 14.1917 16.2325 14.1 16.0085 14.1H7.99822C7.76689 14.1 7.59639 14.1917 7.48672 14.375C7.37689 14.5583 7.3748 14.7436 7.48047 14.9307C7.97214 15.6991 8.61589 16.2999 9.41172 16.7333C10.2076 17.1666 11.0673 17.3833 11.991 17.3833Z" fill="#141414"/>
</svg>
