<svg width="16" height="17" viewBox="0 0 16 17" fill="none" xmlns="http://www.w3.org/2000/svg">
<g id="Base_Icon">
<path id="Vector" d="M7.99953 13.9437C7.73575 13.9437 7.51081 13.8501 7.3247 13.6629C7.13859 13.4757 7.04553 13.2503 7.04553 12.9865C7.04553 12.7227 7.13909 12.4978 7.3262 12.3117C7.51342 12.1256 7.73887 12.0325 8.00253 12.0325C8.26631 12.0325 8.49126 12.1261 8.67737 12.3134C8.86348 12.5005 8.95653 12.7259 8.95653 12.9897C8.95653 13.2535 8.86298 13.4784 8.67587 13.6645C8.48864 13.8506 8.2632 13.9437 7.99953 13.9437ZM7.99953 9.45469C7.73575 9.45469 7.51081 9.36113 7.3247 9.17402C7.13859 8.9868 7.04553 8.76135 7.04553 8.49769C7.04553 8.23391 7.13909 8.00897 7.3262 7.82285C7.51342 7.63674 7.73887 7.54369 8.00253 7.54369C8.26631 7.54369 8.49126 7.63724 8.67737 7.82435C8.86348 8.01158 8.95653 8.23702 8.95653 8.50069C8.95653 8.76447 8.86298 8.98941 8.67587 9.17552C8.48864 9.36163 8.2632 9.45469 7.99953 9.45469ZM7.99953 4.96585C7.73575 4.96585 7.51081 4.87224 7.3247 4.68502C7.13859 4.49791 7.04553 4.27247 7.04553 4.00869C7.04553 3.74491 7.13909 3.51997 7.3262 3.33385C7.51342 3.14774 7.73887 3.05469 8.00253 3.05469C8.26631 3.05469 8.49126 3.1483 8.67737 3.33552C8.86348 3.52263 8.95653 3.74808 8.95653 4.01185C8.95653 4.27563 8.86298 4.50058 8.67587 4.68669C8.48864 4.8728 8.2632 4.96585 7.99953 4.96585Z" fill="#A1A1A1"/>
</g>
</svg>
