<svg width="24" height="24" viewBox="0 0 24 24" fill="none" xmlns="http://www.w3.org/2000/svg">
<mask id="mask0_740_8302" style="mask-type:alpha" maskUnits="userSpaceOnUse" x="0" y="0" width="24" height="24">
<rect width="24" height="24" fill="#D9D9D9"/>
</mask>
<g mask="url(#mask0_740_8302)">
<path d="M12 19.2693C11.5875 19.2693 11.2344 19.1223 10.9408 18.8285C10.6469 18.5348 10.5 18.1818 10.5 17.7693C10.5 17.3568 10.6469 17.0036 10.9408 16.7098C11.2344 16.4161 11.5875 16.2693 12 16.2693C12.4125 16.2693 12.7656 16.4161 13.0592 16.7098C13.3531 17.0036 13.5 17.3568 13.5 17.7693C13.5 18.1818 13.3531 18.5348 13.0592 18.8285C12.7656 19.1223 12.4125 19.2693 12 19.2693ZM12 13.5C11.5875 13.5 11.2344 13.3531 10.9408 13.0593C10.6469 12.7656 10.5 12.4125 10.5 12C10.5 11.5875 10.6469 11.2344 10.9408 10.9408C11.2344 10.6469 11.5875 10.5 12 10.5C12.4125 10.5 12.7656 10.6469 13.0592 10.9408C13.3531 11.2344 13.5 11.5875 13.5 12C13.5 12.4125 13.3531 12.7656 13.0592 13.0593C12.7656 13.3531 12.4125 13.5 12 13.5ZM12 7.73075C11.5875 7.73075 11.2344 7.58392 10.9408 7.29025C10.6469 6.99642 10.5 6.64325 10.5 6.23075C10.5 5.81825 10.6469 5.46517 10.9408 5.1715C11.2344 4.87767 11.5875 4.73075 12 4.73075C12.4125 4.73075 12.7656 4.87767 13.0592 5.1715C13.3531 5.46517 13.5 5.81825 13.5 6.23075C13.5 6.64325 13.3531 6.99642 13.0592 7.29025C12.7656 7.58392 12.4125 7.73075 12 7.73075Z" fill="#141414"/>
</g>
</svg>
