<svg width="24" height="24" viewBox="0 0 24 24" fill="none" xmlns="http://www.w3.org/2000/svg">
<mask id="mask0_740_8355" style="mask-type:alpha" maskUnits="userSpaceOnUse" x="0" y="0" width="24" height="24">
<rect width="24" height="24" fill="#D9D9D9"/>
</mask>
<g mask="url(#mask0_740_8355)">
<path d="M20.2659 22.373L18.3774 20.5H4.30817C3.81101 20.5 3.38542 20.323 3.03142 19.969C2.67742 19.615 2.50042 19.1894 2.50042 18.6923V7.30775C2.50042 6.81059 2.67742 6.385 3.03142 6.031C3.38542 5.677 3.81101 5.5 4.30817 5.5H5.51592V7.6385L1.80817 3.93075C1.65951 3.78209 1.58351 3.6055 1.58017 3.401C1.57701 3.1965 1.65301 3.01667 1.80817 2.8615C1.96334 2.70634 2.14151 2.62875 2.34267 2.62875C2.54401 2.62875 2.72226 2.70634 2.87742 2.8615L21.3352 21.3193C21.4838 21.4679 21.5598 21.6419 21.5629 21.8413C21.5661 22.0406 21.4902 22.2178 21.3352 22.373C21.18 22.5282 21.0018 22.6058 20.8004 22.6058C20.5991 22.6058 20.4209 22.5282 20.2659 22.373ZM20.9332 17.298C20.769 17.3685 20.6033 17.3903 20.4359 17.3635C20.2686 17.3365 20.1113 17.2493 19.9639 17.102L16.0907 13.2288C16.1292 12.6443 16.0456 12.0773 15.8399 11.528C15.6341 10.9785 15.3219 10.4945 14.9034 10.076C14.4989 9.6715 14.0219 9.36634 13.4724 9.1605C12.9231 8.95484 12.3562 8.87125 11.7717 8.90975L8.44467 5.598C8.35101 5.5045 8.28501 5.4055 8.24667 5.301C8.20817 5.19667 8.18892 5.08484 8.18892 4.9655C8.18892 4.85134 8.20817 4.7445 8.24667 4.645C8.28501 4.54534 8.34267 4.44959 8.41967 4.35775L8.66967 4.08275C8.83501 3.90342 9.03426 3.7615 9.26742 3.657C9.50042 3.55234 9.74476 3.5 10.0004 3.5H14.0004C14.2561 3.5 14.5004 3.55234 14.7334 3.657C14.9666 3.7615 15.1658 3.90342 15.3312 4.08275L16.6389 5.5H19.6927C20.1898 5.5 20.6154 5.677 20.9694 6.031C21.3234 6.385 21.5004 6.81059 21.5004 7.30775V16.4693C21.5004 16.6801 21.4469 16.8533 21.3399 16.989C21.2328 17.1245 21.0972 17.2275 20.9332 17.298ZM12.0004 17.1153C12.4128 17.1153 12.8117 17.056 13.1972 16.9375C13.5827 16.8188 13.9421 16.639 14.2754 16.398L8.60242 10.725C8.36142 11.0583 8.18159 11.4178 8.06292 11.8033C7.94442 12.1888 7.88517 12.5877 7.88517 13C7.88517 14.1432 8.28526 15.1148 9.08542 15.915C9.88559 16.7152 10.8573 17.1153 12.0004 17.1153ZM12.0052 15.6155C11.2715 15.6155 10.6514 15.3622 10.1449 14.8555C9.63826 14.349 9.38492 13.7289 9.38492 12.9953C9.38492 12.6459 9.45067 12.3123 9.58217 11.9943C9.71351 11.6763 9.90226 11.3942 10.1484 11.148L13.8524 14.852C13.6063 15.0982 13.3242 15.2869 13.0062 15.4183C12.6882 15.5498 12.3545 15.6155 12.0052 15.6155Z" fill="#141414"/>
</g>
</svg>
