<svg width="24" height="24" viewBox="0 0 24 24" fill="none" xmlns="http://www.w3.org/2000/svg">
<mask id="mask0_740_8300" style="mask-type:alpha" maskUnits="userSpaceOnUse" x="0" y="0" width="24" height="24">
<rect width="24" height="24" fill="#D9D9D9"/>
</mask>
<g mask="url(#mask0_740_8300)">
<path d="M16.5152 18.8845H5.24973C5.03723 18.8845 4.85915 18.8127 4.71548 18.669C4.57165 18.5252 4.49973 18.3469 4.49973 18.1342C4.49973 17.9218 4.57165 17.7437 4.71548 17.6C4.85915 17.4565 5.03723 17.3848 5.24973 17.3848H6.30748V9.923C6.30748 9.45633 6.3639 8.99275 6.47673 8.53225C6.58957 8.07175 6.75882 7.63283 6.98449 7.2155L9.69198 9.923H7.58449L2.56123 4.9C2.4229 4.7615 2.35207 4.5875 2.34873 4.378C2.34557 4.16833 2.4164 3.99108 2.56123 3.84625C2.70623 3.70142 2.8819 3.629 3.08823 3.629C3.29457 3.629 3.47023 3.70142 3.61523 3.84625L20.4035 20.6348C20.542 20.7731 20.6154 20.9445 20.6237 21.149C20.6321 21.3535 20.558 21.534 20.4015 21.6905C20.258 21.834 20.0831 21.9058 19.8767 21.9058C19.6702 21.9058 19.4946 21.8333 19.3497 21.6885L16.5152 18.8845ZM17.692 12.8693C17.692 13.0476 17.6385 13.2111 17.5315 13.3598C17.4245 13.5084 17.2889 13.6212 17.1247 13.698C16.9606 13.775 16.7897 13.7958 16.6122 13.7605C16.4347 13.7253 16.2825 13.6442 16.1555 13.5173L9.13623 6.498C9.0324 6.39417 8.95548 6.27975 8.90548 6.15475C8.85548 6.02958 8.83048 5.89658 8.83048 5.75575C8.83048 5.59008 8.87148 5.42817 8.95348 5.27C9.03565 5.11183 9.1504 4.99108 9.29773 4.90775C9.52607 4.77958 9.76073 4.6725 10.0017 4.5865C10.2427 4.50067 10.4921 4.4295 10.7497 4.373V3.75C10.7497 3.40283 10.8712 3.10767 11.114 2.8645C11.3568 2.6215 11.6517 2.5 11.9985 2.5C12.3455 2.5 12.6407 2.6215 12.8842 2.8645C13.1279 3.10767 13.2497 3.40283 13.2497 3.75V4.373C14.5574 4.64867 15.6247 5.30733 16.4517 6.349C17.2786 7.39067 17.692 8.582 17.692 9.923V12.8693ZM11.9997 21.6923C11.5472 21.6923 11.1437 21.5678 10.7892 21.319C10.4347 21.07 10.2575 20.7343 10.2575 20.3118C10.2575 20.1911 10.3065 20.0898 10.4045 20.0077C10.5025 19.9256 10.6117 19.8845 10.7322 19.8845H13.265C13.392 19.8845 13.5032 19.9258 13.5987 20.0085C13.6942 20.0912 13.742 20.1927 13.742 20.313C13.742 20.7338 13.5647 21.0689 13.2102 21.3183C12.8557 21.5676 12.4522 21.6923 11.9997 21.6923Z" fill="#141414"/>
</g>
</svg>
