<svg width="18" height="18" viewBox="0 0 18 18" fill="none" xmlns="http://www.w3.org/2000/svg">
<g id="Icon / Objects" clip-path="url(#clip0_3328_49533)">
<path id="fill" fill-rule="evenodd" clip-rule="evenodd" d="M6.74304 17.0747C6.89479 17.2458 7.10264 17.3571 7.32917 17.3886C7.88313 17.4776 8.44283 17.526 9.00384 17.5336C9.56452 17.5256 10.1239 17.4768 10.6774 17.3875C10.904 17.356 11.1118 17.2447 11.2636 17.0736C11.4153 16.9025 11.501 16.6828 11.5052 16.4542V14.371L11.6118 13.444C11.7625 12.2244 12.3613 11.1043 13.2918 10.3016C13.8709 9.78174 14.3283 9.14077 14.6318 8.42421C14.9352 7.70765 15.0772 6.93308 15.0476 6.15549C14.9974 4.60074 14.3333 3.1292 13.2005 2.06304C12.0678 0.996885 10.5588 0.422973 9.00384 0.466953C7.44817 0.421824 5.93806 0.995222 4.8044 2.0615C3.67074 3.12778 3.006 4.59997 2.95584 6.15549C2.92679 6.93341 3.06943 7.70819 3.37361 8.42477C3.67779 9.14135 4.13605 9.78214 4.71584 10.3016C5.646 11.1045 6.24442 12.2245 6.39477 13.444L6.50144 14.372V16.4552C6.50562 16.6839 6.59129 16.9036 6.74304 17.0747ZM4.3443 7.9801C4.10468 7.40281 3.99483 6.77992 4.02251 6.15549C4.07278 4.88293 4.62516 3.68212 5.55875 2.8159C6.49234 1.94968 7.73109 1.48861 9.00384 1.53362C10.2813 1.49475 11.5221 1.96332 12.455 2.83683C13.3879 3.71035 13.9369 4.91774 13.982 6.19495C14.0054 6.81667 13.8918 7.43593 13.6492 8.00885C13.4066 8.58177 13.041 9.09431 12.5782 9.51015C11.4664 10.4717 10.7476 11.8091 10.559 13.267H7.44757C7.25391 11.8025 6.52839 10.4604 5.40917 9.49629C4.94744 9.07499 4.58391 8.5574 4.3443 7.9801ZM8.64544 10.1587V12.5555H9.35584V10.1587L10.2497 9.33415C10.3063 9.3481 10.3643 9.35526 10.4225 9.35549C10.563 9.35549 10.7003 9.31385 10.8171 9.23584C10.9339 9.15782 11.0249 9.04694 11.0787 8.91719C11.1325 8.78744 11.1467 8.64466 11.1193 8.50689C11.092 8.36911 11.0245 8.24253 10.9252 8.14313C10.826 8.04374 10.6995 7.976 10.5618 7.94847C10.424 7.92094 10.2812 7.93485 10.1514 7.98846C10.0216 8.04206 9.91054 8.13295 9.83235 8.24963C9.75416 8.36632 9.71232 8.50356 9.71211 8.64402C9.71205 8.69899 9.71849 8.75377 9.73131 8.80722L9.00064 9.48135L8.26997 8.80722C8.28279 8.75377 8.28924 8.69899 8.28917 8.64402C8.28896 8.50338 8.24701 8.36597 8.16863 8.24919C8.09025 8.13242 7.97897 8.04154 7.8489 7.98806C7.71882 7.93458 7.5758 7.92092 7.43795 7.9488C7.3001 7.97668 7.17363 8.04484 7.07456 8.14466C6.97549 8.24448 6.90827 8.37147 6.88143 8.50952C6.85459 8.64757 6.86933 8.79049 6.92379 8.92016C6.97824 9.04983 7.06996 9.16042 7.18732 9.23792C7.30468 9.31541 7.4424 9.35633 7.58304 9.35549C7.64128 9.35526 7.69929 9.3481 7.75584 9.33415L8.64544 10.1587ZM8.98997 16.467C8.51378 16.4593 8.03868 16.4187 7.56811 16.3454V15.7555H9.00384V15.044H7.56811V14.372L7.57131 14.3336H10.4353V16.3464C9.95694 16.4204 9.47398 16.4606 8.98997 16.467Z" fill="#A1A1A1"/>
</g>
<defs>
<clipPath id="clip0_3328_49533">
<rect width="17.0667" height="17.0667" fill="white" transform="translate(0.466797 0.466675)"/>
</clipPath>
</defs>
</svg>
