<svg width="24" height="24" viewBox="0 0 24 24" fill="none" xmlns="http://www.w3.org/2000/svg">
<path d="M3.78077 19.8499C3.3536 19.8499 2.98293 19.6928 2.66877 19.3787C2.35443 19.0643 2.19727 18.6937 2.19727 18.2667V5.73315C2.19727 5.30615 2.35443 4.93549 2.66877 4.62115C2.98293 4.30699 3.3536 4.1499 3.78077 4.1499H16.3175C16.7364 4.1499 17.1044 4.30699 17.4215 4.62115C17.7387 4.93549 17.8973 5.30615 17.8973 5.73315V10.8332L21.1308 7.5999C21.2529 7.47774 21.3974 7.4479 21.564 7.5104C21.7307 7.5729 21.814 7.69165 21.814 7.86665V16.1367C21.814 16.3085 21.7307 16.4259 21.564 16.4889C21.3974 16.5517 21.2529 16.5221 21.1308 16.3999L17.8973 13.1667V18.2667C17.8973 18.6937 17.7387 19.0643 17.4215 19.3787C17.1044 19.6928 16.7364 19.8499 16.3175 19.8499H3.78077ZM3.78077 18.2667H16.314V5.73315H3.78077V18.2667Z" fill="#141414"/>
<path d="M10.922 9.5H8.72579C8.51329 9.5 8.33513 9.42808 8.19129 9.28425C8.04763 9.14042 7.97579 8.96225 7.97579 8.74975C7.97579 8.53708 8.04763 8.359 8.19129 8.2155C8.33513 8.07183 8.51329 8 8.72579 8H12.572C12.828 8 13.0426 8.08667 13.2158 8.26C13.3891 8.43317 13.4758 8.64775 13.4758 8.90375V12.75C13.4758 12.9625 13.4039 13.1407 13.26 13.2845C13.1162 13.4282 12.938 13.5 12.7255 13.5C12.5129 13.5 12.3348 13.4282 12.1913 13.2845C12.0476 13.1407 11.9758 12.9625 11.9758 12.75V10.5537L7.27204 15.2578C7.13354 15.3963 6.95946 15.4671 6.74979 15.4703C6.54013 15.4734 6.36288 15.4026 6.21804 15.2578C6.07321 15.1129 6.00079 14.9373 6.00079 14.7308C6.00079 14.5244 6.07321 14.3487 6.21804 14.2037L10.922 9.5Z" fill="#141414"/>
</svg>
