<svg width="24" height="24" viewBox="0 0 24 24" fill="none" xmlns="http://www.w3.org/2000/svg">
<mask id="mask0_740_8317" style="mask-type:alpha" maskUnits="userSpaceOnUse" x="0" y="0" width="24" height="24">
<rect width="24" height="24" fill="#D9D9D9"/>
</mask>
<g mask="url(#mask0_740_8317)">
<path d="M15.5 18.5C15.091 18.5 14.7387 18.3523 14.4432 18.0568C14.1477 17.7613 14 17.409 14 17V7C14 6.591 14.1477 6.23875 14.4432 5.94325C14.7387 5.64775 15.091 5.5 15.5 5.5H16.25C16.659 5.5 17.0113 5.64775 17.3068 5.94325C17.6023 6.23875 17.75 6.591 17.75 7V17C17.75 17.409 17.6023 17.7613 17.3068 18.0568C17.0113 18.3523 16.659 18.5 16.25 18.5H15.5ZM7.75 18.5C7.341 18.5 6.98875 18.3523 6.69325 18.0568C6.39775 17.7613 6.25 17.409 6.25 17V7C6.25 6.591 6.39775 6.23875 6.69325 5.94325C6.98875 5.64775 7.341 5.5 7.75 5.5H8.5C8.909 5.5 9.26125 5.64775 9.55675 5.94325C9.85225 6.23875 10 6.591 10 7V17C10 17.409 9.85225 17.7613 9.55675 18.0568C9.26125 18.3523 8.909 18.5 8.5 18.5H7.75Z" fill="#141414"/>
</g>
</svg>
