<svg width="24" height="24" viewBox="0 0 24 24" fill="none" xmlns="http://www.w3.org/2000/svg">
<path d="M19.4402 20.5C17.5557 20.5 15.6625 20.0618 13.7605 19.1855C11.8587 18.3092 10.1097 17.073 8.5135 15.477C6.92383 13.8808 5.69083 12.1333 4.8145 10.2345C3.93817 8.33583 3.5 6.44425 3.5 4.55975C3.5 4.25975 3.6 4.00808 3.8 3.80475C4 3.60158 4.25 3.5 4.55 3.5H7.8115C8.064 3.5 8.28675 3.58242 8.47975 3.74725C8.67275 3.91192 8.7955 4.11542 8.848 4.35775L9.42125 7.3C9.46092 7.573 9.45258 7.80758 9.39625 8.00375C9.33975 8.19992 9.23842 8.36467 9.09225 8.498L6.78275 10.7462C7.15442 11.4269 7.57908 12.0708 8.05675 12.678C8.53425 13.285 9.05125 13.8647 9.60775 14.4173C10.1564 14.9661 10.7397 15.4757 11.3577 15.9462C11.9757 16.4167 12.6431 16.8546 13.3598 17.2598L15.6038 14.9963C15.7603 14.8334 15.9498 14.7192 16.1723 14.6538C16.3946 14.5884 16.6257 14.5724 16.8655 14.6058L19.6423 15.1713C19.8948 15.2379 20.1008 15.3667 20.2605 15.5577C20.4202 15.7487 20.5 15.9654 20.5 16.2078V19.45C20.5 19.75 20.3984 20 20.1952 20.2C19.9919 20.4 19.7402 20.5 19.4402 20.5ZM15.5153 9.5385H17.7115C17.9243 9.5385 18.1025 9.61033 18.246 9.754C18.3897 9.8975 18.4615 10.0757 18.4615 10.2885C18.4615 10.5013 18.3897 10.6795 18.246 10.823C18.1025 10.9667 17.9243 11.0385 17.7115 11.0385H13.8652C13.6076 11.0385 13.3926 10.9523 13.2203 10.7798C13.0478 10.6074 12.9615 10.3924 12.9615 10.1348V6.2885C12.9615 6.07567 13.0333 5.8975 13.177 5.754C13.3205 5.61033 13.4987 5.5385 13.7115 5.5385C13.9243 5.5385 14.1025 5.61033 14.246 5.754C14.3897 5.8975 14.4615 6.07567 14.4615 6.2885V8.48475L19.1652 3.78075C19.3038 3.64225 19.4778 3.57142 19.6875 3.56825C19.8972 3.56508 20.0744 3.63592 20.2193 3.78075C20.3641 3.92558 20.4365 4.10125 20.4365 4.30775C20.4365 4.51408 20.3641 4.68975 20.2193 4.83475L15.5153 9.5385Z" fill="#141414"/>
</svg>
