<svg width="24" height="24" viewBox="0 0 24 24" fill="none" xmlns="http://www.w3.org/2000/svg">
<mask id="mask0_740_8299" style="mask-type:alpha" maskUnits="userSpaceOnUse" x="0" y="0" width="24" height="24">
<rect width="24" height="24" fill="#D9D9D9"/>
</mask>
<g mask="url(#mask0_740_8299)">
<path d="M19.7885 11.7308C19.5858 11.7308 19.4076 11.6589 19.2538 11.5153C19.0999 11.3718 19.0096 11.1936 18.9828 10.9808C18.7661 9.36661 18.0863 7.98811 16.9433 6.84528C15.8003 5.70228 14.4218 5.02244 12.8078 4.80578C12.5949 4.77878 12.4167 4.69094 12.273 4.54228C12.1295 4.39361 12.0578 4.21286 12.0578 4.00003C12.0578 3.78719 12.1321 3.60903 12.2808 3.46553C12.4294 3.32186 12.6051 3.26353 12.8078 3.29053C14.8436 3.51103 16.5792 4.33886 18.0145 5.77403C19.4497 7.20936 20.2775 8.94494 20.498 10.9808C20.525 11.1833 20.4667 11.3589 20.323 11.5078C20.1795 11.6564 20.0013 11.7308 19.7885 11.7308ZM15.652 11.7308C15.4865 11.7308 15.3413 11.675 15.2163 11.5635C15.0913 11.452 14.9968 11.3033 14.9328 11.1173C14.7801 10.5763 14.5002 10.099 14.0933 9.68553C13.6863 9.27203 13.2123 8.99228 12.6713 8.84628C12.4853 8.78211 12.3365 8.68753 12.225 8.56253C12.1135 8.43753 12.0578 8.28719 12.0578 8.11153C12.0578 7.86153 12.1439 7.65961 12.3163 7.50578C12.4888 7.35194 12.6846 7.30194 12.9038 7.35578C13.7794 7.55961 14.5339 7.97819 15.1673 8.61153C15.8006 9.24486 16.2224 10.0025 16.4328 10.8845C16.4866 11.1039 16.4324 11.2997 16.2703 11.472C16.1081 11.6445 15.902 11.7308 15.652 11.7308ZM19.4403 20.5C17.5558 20.5 15.6625 20.0619 13.7605 19.1855C11.8587 18.3092 10.1097 17.073 8.5135 15.477C6.92383 13.8809 5.69083 12.1334 4.8145 10.2345C3.93817 8.33586 3.5 6.44428 3.5 4.55978C3.5 4.25978 3.6 4.00811 3.8 3.80478C4 3.60161 4.25 3.50003 4.55 3.50003H7.8115C8.064 3.50003 8.28675 3.58244 8.47975 3.74728C8.67275 3.91194 8.7955 4.11544 8.848 4.35778L9.42125 7.30003C9.46092 7.57303 9.45258 7.80761 9.39625 8.00378C9.33975 8.19994 9.23842 8.36469 9.09225 8.49803L6.78275 10.7463C7.15442 11.4269 7.57908 12.0709 8.05675 12.678C8.53425 13.285 9.05125 13.8648 9.60775 14.4173C10.1564 14.9661 10.7398 15.4758 11.3578 15.9463C11.9757 16.4168 12.6431 16.8546 13.3598 17.2598L15.6038 14.9963C15.7603 14.8334 15.9498 14.7193 16.1723 14.6538C16.3946 14.5884 16.6257 14.5724 16.8655 14.6058L19.6423 15.1713C19.8948 15.2379 20.1008 15.3668 20.2605 15.5578C20.4202 15.7488 20.5 15.9654 20.5 16.2078V19.45C20.5 19.75 20.3984 20 20.1953 20.2C19.9919 20.4 19.7403 20.5 19.4403 20.5Z" fill="#141414"/>
</g>
</svg>
