<svg width="24" height="24" viewBox="0 0 24 24" fill="none" xmlns="http://www.w3.org/2000/svg">
<path d="M13.7605 19.1855C15.6625 20.0618 17.5557 20.5 19.4402 20.5C19.7402 20.5 19.9919 20.4 20.1952 20.2C20.3984 20 20.5 19.75 20.5 19.45V16.2078C20.5 15.9654 20.4202 15.7487 20.2605 15.5577C20.1008 15.3667 19.8948 15.2379 19.6423 15.1713L16.8655 14.6058C16.6257 14.5724 16.3946 14.5884 16.1723 14.6538C15.9498 14.7193 15.7603 14.8334 15.6038 14.9963L13.3598 17.2598C12.6431 16.8546 11.9757 16.4167 11.3577 15.9462C10.7397 15.4757 10.1564 14.9661 9.60775 14.4173C9.05125 13.8648 8.53425 13.285 8.05675 12.678C7.57908 12.0708 7.15442 11.4269 6.78275 10.7462L9.09225 8.498C9.23842 8.36467 9.33975 8.19992 9.39625 8.00375C9.45258 7.80758 9.46092 7.573 9.42125 7.3L8.848 4.35775C8.7955 4.11542 8.67275 3.91192 8.47975 3.74725C8.28675 3.58242 8.064 3.5 7.8115 3.5H4.55C4.25 3.5 4 3.60158 3.8 3.80475C3.6 4.00808 3.5 4.25975 3.5 4.55975C3.5 6.44425 3.93817 8.33583 4.8145 10.2345C5.69083 12.1333 6.92383 13.8808 8.5135 15.477C10.1097 17.073 11.8587 18.3092 13.7605 19.1855Z" fill="#141414"/>
<path d="M15.6865 5.0681H17.8828L13.1788 9.77185C13.0339 9.91685 12.9615 10.0925 12.9615 10.2989C12.9615 10.5054 13.0339 10.681 13.1788 10.8259C13.3236 10.9707 13.5009 11.0415 13.7105 11.0384C13.9202 11.0352 14.0943 10.9644 14.2328 10.8259L18.9365 6.12185V8.3181C18.9365 8.5306 19.0084 8.70877 19.152 8.8526C19.2955 8.99627 19.4736 9.0681 19.6863 9.0681C19.8988 9.0681 20.0769 8.99627 20.2208 8.8526C20.3646 8.70877 20.4365 8.5306 20.4365 8.3181V4.47185C20.4365 4.21585 20.3499 4.00127 20.1765 3.8281C20.0034 3.65477 19.7888 3.5681 19.5328 3.5681H15.6865C15.474 3.5681 15.2959 3.63993 15.152 3.7836C15.0084 3.9271 14.9365 4.10518 14.9365 4.31785C14.9365 4.53035 15.0084 4.70852 15.152 4.85235C15.2959 4.99618 15.474 5.0681 15.6865 5.0681Z" fill="#141414"/>
</svg>
