<svg width="24" height="24" viewBox="0 0 24 24" fill="none" xmlns="http://www.w3.org/2000/svg">
<path d="M3.51687 20.2332L1.20112 17.9342C1.04212 17.7752 0.964038 17.5916 0.966871 17.3832C0.969538 17.1749 1.04729 16.9861 1.20012 16.8167C2.58629 15.2444 4.2252 14.0486 6.11687 13.2292C8.00854 12.4097 9.96962 12 12.0001 12C14.0306 12 15.9904 12.4097 17.8794 13.2292C19.7682 14.0486 21.4085 15.2444 22.8001 16.8167C22.953 16.9861 23.0307 17.1749 23.0334 17.3832C23.0362 17.5916 22.9578 17.7752 22.7981 17.9342L20.5001 20.2332C20.3556 20.3777 20.1646 20.4577 19.9271 20.473C19.6896 20.4882 19.4912 20.4355 19.3319 20.315L16.5001 18.1875C16.3946 18.1087 16.3155 18.0167 16.2626 17.9117C16.2098 17.8067 16.1834 17.6876 16.1834 17.5542V14.284C15.5047 14.0393 14.8121 13.8614 14.1056 13.7502C13.3991 13.6389 12.7028 13.5832 12.0166 13.5832C11.316 13.5832 10.6125 13.6388 9.90637 13.75C9.2002 13.8612 8.5092 14.0389 7.83337 14.2832V17.55C7.83337 17.6765 7.8077 17.794 7.75637 17.9025C7.70504 18.011 7.62521 18.1046 7.51687 18.1832L4.66437 20.3205C4.47437 20.4597 4.27479 20.5206 4.06562 20.5032C3.85662 20.4861 3.6737 20.3961 3.51687 20.2332ZM6.16687 14.8332C5.5752 15.1277 5.00362 15.4819 4.45212 15.8957C3.90079 16.3097 3.36679 16.7501 2.85012 17.2167L4.16687 18.5667L6.16687 17.0667V14.8332ZM17.7669 14.7832V16.9667L19.8334 18.55L21.1669 17.2332C20.6502 16.7139 20.1106 16.2584 19.5481 15.8667C18.9856 15.4751 18.3919 15.1139 17.7669 14.7832ZM6.13062 8.80425C5.90745 8.80425 5.72087 8.7285 5.57087 8.577C5.42087 8.42567 5.34587 8.23891 5.34587 8.01675V3.95425C5.34587 3.73841 5.42162 3.55317 5.57312 3.3985C5.72445 3.244 5.9112 3.16675 6.13337 3.16675H10.1834C10.4089 3.16675 10.5979 3.2435 10.7504 3.397C10.903 3.5505 10.9794 3.74075 10.9794 3.96775C10.9794 4.19475 10.903 4.38258 10.7504 4.53125C10.5979 4.67992 10.4089 4.75425 10.1834 4.75425H7.97937L11.9876 8.72925L17.0039 3.71275C17.1625 3.55425 17.3509 3.47225 17.5689 3.46675C17.7869 3.46108 17.975 3.53908 18.1334 3.70075C18.2917 3.86258 18.3709 4.05217 18.3709 4.2695C18.3709 4.487 18.2914 4.67525 18.1324 4.83425L13.1044 9.8625C12.794 10.1763 12.4184 10.3332 11.9774 10.3332C11.5362 10.3332 11.1674 10.1763 10.8709 9.8625L6.92937 5.8875V8.01675C6.92937 8.23891 6.85195 8.42567 6.69712 8.577C6.54245 8.7285 6.35362 8.80425 6.13062 8.80425Z" fill="#141414"/>
</svg>
