<svg width="24" height="24" viewBox="0 0 24 24" fill="none" xmlns="http://www.w3.org/2000/svg">
<mask id="mask0_740_8298" style="mask-type:alpha" maskUnits="userSpaceOnUse" x="0" y="0" width="24" height="24">
<rect width="24" height="24" fill="#D9D9D9"/>
</mask>
<g mask="url(#mask0_740_8298)">
<path d="M3.37098 19.775L1.46523 17.9193C1.25873 17.7193 1.15706 17.4811 1.16023 17.2048C1.16356 16.9284 1.26839 16.6871 1.47473 16.4808C2.85806 15.0256 4.48081 13.915 6.34298 13.149C8.20514 12.383 10.0907 12 11.9997 12C13.9087 12 15.7917 12.383 17.6487 13.149C19.5057 13.915 21.1311 15.0256 22.5247 16.4808C22.7311 16.6871 22.8359 16.9284 22.8392 17.2048C22.8424 17.4811 22.7407 17.7193 22.5342 17.9193L20.6285 19.775C20.426 19.9712 20.1991 20.0807 19.9477 20.1038C19.6966 20.1269 19.4646 20.0603 19.2517 19.9038L16.7362 17.9923C16.5709 17.8666 16.4485 17.7275 16.369 17.575C16.2895 17.4223 16.2497 17.2499 16.2497 17.0577V14.2365C15.5267 13.9917 14.8222 13.8077 14.1362 13.6845C13.4504 13.5615 12.7382 13.5 11.9997 13.5C11.2612 13.5 10.5491 13.5615 9.86323 13.6845C9.17723 13.8077 8.47273 13.9917 7.74973 14.2365V17.0577C7.74973 17.2499 7.70998 17.4223 7.63048 17.575C7.55098 17.7275 7.42856 17.8666 7.26323 17.9923L4.74773 19.9038C4.53489 20.0603 4.30289 20.1269 4.05173 20.1038C3.80039 20.0807 3.57348 19.9712 3.37098 19.775ZM6.25948 9C6.04664 9 5.86839 8.92817 5.72473 8.7845C5.58123 8.641 5.50948 8.46283 5.50948 8.25V4.404C5.50948 4.14617 5.59564 3.93108 5.76798 3.75875C5.94048 3.58625 6.15556 3.5 6.41323 3.5H10.2595C10.4721 3.5 10.6503 3.57183 10.794 3.7155C10.9375 3.859 11.0092 4.03717 11.0092 4.25C11.0092 4.46283 10.9375 4.641 10.794 4.7845C10.6503 4.92817 10.4721 5 10.2595 5H8.06323L11.742 8.67875C11.7996 8.73658 11.8734 8.7655 11.9632 8.7655C12.0529 8.7655 12.1266 8.73658 12.1845 8.67875L16.9227 3.9405C17.0716 3.79167 17.2481 3.71567 17.4525 3.7125C17.657 3.70933 17.8368 3.78533 17.992 3.9405C18.1471 4.0955 18.2247 4.27367 18.2247 4.475C18.2247 4.67633 18.1471 4.8545 17.992 5.0095L13.2592 9.74225C12.9144 10.0871 12.4875 10.2595 11.9785 10.2595C11.4696 10.2595 11.0427 10.0871 10.6977 9.74225L7.00923 6.05375V8.25C7.00923 8.46283 6.93748 8.641 6.79398 8.7845C6.65031 8.92817 6.47214 9 6.25948 9Z" fill="#141414"/>
</g>
</svg>
