<svg width="24" height="24" viewBox="0 0 24 24" fill="none" xmlns="http://www.w3.org/2000/svg">
<mask id="mask0_740_8334" style="mask-type:alpha" maskUnits="userSpaceOnUse" x="0" y="0" width="24" height="24">
<rect width="24" height="24" fill="#D9D9D9"/>
</mask>
<g mask="url(#mask0_740_8334)">
<path d="M8.5 16.4442V7.55573C8.5 7.29173 8.59058 7.07506 8.77175 6.90573C8.95292 6.73656 9.16433 6.65198 9.406 6.65198C9.4815 6.65198 9.56067 6.66289 9.6435 6.68473C9.72633 6.70639 9.80542 6.73906 9.88075 6.78273L16.8767 11.2365C17.0141 11.3301 17.117 11.4423 17.1855 11.573C17.2542 11.7038 17.2885 11.8461 17.2885 12C17.2885 12.1538 17.2542 12.2961 17.1855 12.427C17.117 12.5576 17.0141 12.6698 16.8767 12.7635L9.88075 17.2172C9.80525 17.2609 9.72592 17.2936 9.64275 17.3152C9.55975 17.3371 9.4805 17.348 9.405 17.348C9.16317 17.348 8.95192 17.2634 8.77125 17.0942C8.59042 16.9249 8.5 16.7082 8.5 16.4442Z" fill="#141414"/>
</g>
</svg>
