<svg width="16" height="17" viewBox="0 0 16 17" fill="none" xmlns="http://www.w3.org/2000/svg">
<g id="Base_Icon">
<path id="Vector" d="M1.40092 9.11857C1.28981 9.00746 1.23703 8.87601 1.24258 8.72424C1.24814 8.57235 1.30647 8.44085 1.41758 8.32974C1.5287 8.22229 1.6602 8.16768 1.81208 8.1659C1.96386 8.16401 2.09531 8.21862 2.20642 8.32974L4.76208 10.8964C4.82497 10.9594 4.89164 11.0261 4.96208 11.0964L5.16208 11.2964C5.2732 11.4075 5.32781 11.5371 5.32592 11.6852C5.32403 11.8335 5.26753 11.9631 5.15642 12.0742L5.14542 12.0852C5.03431 12.1927 4.90464 12.2473 4.75642 12.2492C4.60831 12.251 4.4787 12.1963 4.36758 12.0852L1.40092 9.11857ZM7.90092 10.8909L13.8231 4.96857C13.9342 4.85746 14.0657 4.80285 14.2176 4.80473C14.3695 4.80662 14.501 4.86312 14.6121 4.97423C14.7194 5.08535 14.774 5.21679 14.7759 5.36857C14.7778 5.52046 14.7232 5.65196 14.6121 5.76307L8.28975 12.0852C8.17864 12.1963 8.04903 12.2519 7.90092 12.2519C7.75281 12.2519 7.6232 12.1963 7.51208 12.0852L4.54542 9.11857C4.43797 9.01123 4.38608 8.88068 4.38975 8.7269C4.39353 8.57323 4.44908 8.44085 4.55642 8.32974C4.66753 8.21862 4.79997 8.16307 4.95375 8.16307C5.10742 8.16307 5.23981 8.21862 5.35092 8.32974L7.90092 10.8909ZM11.4621 5.76857L8.28975 8.9409C8.18242 9.04824 8.05375 9.10007 7.90375 9.0964C7.75375 9.09273 7.6232 9.03718 7.51208 8.92974C7.40097 8.81862 7.34542 8.68624 7.34542 8.53257C7.34542 8.37879 7.40097 8.24635 7.51208 8.13523L10.6731 4.97423C10.7805 4.86679 10.9111 4.81307 11.0648 4.81307C11.2185 4.81307 11.351 4.86679 11.4621 4.97423C11.5732 5.08535 11.6288 5.21773 11.6288 5.3714C11.6288 5.52507 11.5732 5.65746 11.4621 5.76857Z" fill="#6852D6"/>
</g>
</svg>
