<svg width="32" height="32" viewBox="0 0 32 32" fill="none" xmlns="http://www.w3.org/2000/svg">
<g id="Base_Icon">
<mask id="mask0_3522_63973" style="mask-type:alpha" maskUnits="userSpaceOnUse" x="0" y="0" width="32" height="32">
<rect id="Bounding box" width="32" height="32" fill="#D9D9D9"/>
</mask>
<g mask="url(#mask0_3522_63973)">
<path id="mic" d="M15.9995 18C15.0679 18 14.2795 17.6773 13.6342 17.032C12.9888 16.3867 12.6662 15.5982 12.6662 14.6667V6.66667C12.6662 5.73511 12.9888 4.94667 13.6342 4.30134C14.2795 3.656 15.0679 3.33334 15.9995 3.33334C16.931 3.33334 17.7195 3.656 18.3648 4.30134C19.0102 4.94667 19.3328 5.73511 19.3328 6.66667V14.6667C19.3328 15.5982 19.0102 16.3867 18.3648 17.032C17.7195 17.6773 16.931 18 15.9995 18ZM14.9995 26.6667V23.2717C13.0148 23.0426 11.3139 22.2272 9.89682 20.8257C8.47993 19.4239 7.65005 17.7153 7.40716 15.7C7.37138 15.4162 7.44571 15.1731 7.63016 14.9707C7.81482 14.768 8.04905 14.6667 8.33282 14.6667C8.6166 14.6667 8.85416 14.7646 9.04549 14.9603C9.23705 15.1559 9.36449 15.3956 9.42782 15.6793C9.67049 17.312 10.417 18.6624 11.6675 19.7307C12.9179 20.7991 14.3619 21.3333 15.9995 21.3333C17.6593 21.3333 19.1088 20.7936 20.3482 19.714C21.5875 18.6347 22.3285 17.2898 22.5712 15.6793C22.6345 15.3956 22.7619 15.1559 22.9535 14.9603C23.1448 14.7646 23.3824 14.6667 23.6662 14.6667C23.9499 14.6667 24.1842 14.768 24.3688 14.9707C24.5533 15.1731 24.6276 15.4162 24.5918 15.7C24.3489 17.6709 23.5246 19.3662 22.1188 20.786C20.7128 22.2056 19.0064 23.0341 16.9995 23.2717V26.6667C16.9995 26.9504 16.9037 27.188 16.7122 27.3793C16.5208 27.5709 16.2833 27.6667 15.9995 27.6667C15.7157 27.6667 15.4782 27.5709 15.2868 27.3793C15.0953 27.188 14.9995 26.9504 14.9995 26.6667Z" fill="#F44649"/>
</g>
</g>
</svg>
