<svg width="48" height="48" viewBox="0 0 48 48" fill="none" xmlns="http://www.w3.org/2000/svg">
<g id="Base_Icon">
<mask id="mask0_2993_47565" style="mask-type:alpha" maskUnits="userSpaceOnUse" x="0" y="0" width="48" height="48">
<rect id="Bounding box" width="48" height="48" fill="#D9D9D9"/>
</mask>
<g mask="url(#mask0_2993_47565)">
<path id="mic" d="M23.9992 27C22.6019 27 21.4192 26.516 20.4512 25.548C19.4832 24.58 18.9992 23.3973 18.9992 22V10C18.9992 8.60267 19.4832 7.42 20.4512 6.452C21.4192 5.484 22.6019 5 23.9992 5C25.3966 5 26.5792 5.484 27.5472 6.452C28.5152 7.42 28.9992 8.60267 28.9992 10V22C28.9992 23.3973 28.5152 24.58 27.5472 25.548C26.5792 26.516 25.3966 27 23.9992 27ZM22.4992 40V34.9075C19.5222 34.5638 16.9709 33.3408 14.8452 31.2385C12.7199 29.1358 11.4751 26.573 11.1107 23.55C11.0571 23.1243 11.1686 22.7597 11.4452 22.456C11.7222 22.152 12.0736 22 12.4992 22C12.9249 22 13.2812 22.1468 13.5682 22.4405C13.8556 22.7338 14.0467 23.0933 14.1417 23.519C14.5057 25.968 15.6256 27.9937 17.5012 29.596C19.3769 31.1987 21.5429 32 23.9992 32C26.4889 32 28.6632 31.1903 30.5222 29.571C32.3812 27.952 33.4927 25.9347 33.8567 23.519C33.9517 23.0933 34.1429 22.7338 34.4302 22.4405C34.7172 22.1468 35.0736 22 35.4992 22C35.9249 22 36.2762 22.152 36.5532 22.456C36.8299 22.7597 36.9414 23.1243 36.8877 23.55C36.5234 26.5063 35.2869 29.0493 33.1782 31.179C31.0692 33.3083 28.5096 34.5512 25.4992 34.9075V40C25.4992 40.4257 25.3556 40.782 25.0682 41.069C24.7812 41.3563 24.4249 41.5 23.9992 41.5C23.5736 41.5 23.2172 41.3563 22.9302 41.069C22.6429 40.782 22.4992 40.4257 22.4992 40Z" fill="white"/>
</g>
</g>
</svg>
