<svg width="24" height="24" viewBox="0 0 24 24" fill="none" xmlns="http://www.w3.org/2000/svg">
<mask id="mask0_740_8413" style="mask-type:alpha" maskUnits="userSpaceOnUse" x="0" y="0" width="24" height="24">
<rect width="24" height="24" fill="#D9D9D9"/>
</mask>
<g mask="url(#mask0_740_8413)">
<path d="M12.0391 19.5C9.94523 19.5 8.17181 18.7736 6.71881 17.3207C5.26565 15.8679 4.53906 14.0948 4.53906 12.0015C4.53906 9.90817 5.26565 8.13458 6.71881 6.68075C8.17181 5.22692 9.94523 4.5 12.0391 4.5C13.2082 4.5 14.3146 4.75992 15.3583 5.27975C16.4018 5.79975 17.2697 6.53342 17.9621 7.48075V5.25C17.9621 5.0375 18.034 4.85942 18.1778 4.71575C18.3216 4.57192 18.4998 4.5 18.7123 4.5C18.925 4.5 19.1031 4.57192 19.2466 4.71575C19.3902 4.85942 19.4621 5.0375 19.4621 5.25V9.7115C19.4621 9.96767 19.3755 10.1823 19.2023 10.3555C19.029 10.5287 18.8143 10.6152 18.5583 10.6152H14.0968C13.8843 10.6152 13.7061 10.5434 13.5623 10.3997C13.4186 10.2559 13.3468 10.0777 13.3468 9.865C13.3468 9.6525 13.4186 9.47442 13.5623 9.33075C13.7061 9.18725 13.8843 9.1155 14.0968 9.1155H17.2968C16.7698 8.15 16.039 7.38942 15.1043 6.83375C14.1698 6.27792 13.1481 6 12.0391 6C10.3724 6 8.95573 6.58333 7.78906 7.75C6.6224 8.91667 6.03906 10.3333 6.03906 12C6.03906 13.6667 6.6224 15.0833 7.78906 16.25C8.95573 17.4167 10.3724 18 12.0391 18C13.2012 18 14.2651 17.6948 15.2308 17.0845C16.1965 16.4743 16.9281 15.6602 17.4256 14.6423C17.5204 14.4602 17.6598 14.333 17.8438 14.2605C18.0278 14.1882 18.2153 14.184 18.4063 14.248C18.6101 14.3122 18.7528 14.4455 18.8343 14.648C18.9156 14.8507 18.9089 15.043 18.8141 15.225C18.1947 16.5198 17.2806 17.556 16.0716 18.3335C14.8626 19.1112 13.5184 19.5 12.0391 19.5Z" fill="#141414"/>
</g>
</svg>
