<svg width="24" height="24" viewBox="0 0 24 24" fill="none" xmlns="http://www.w3.org/2000/svg">
<mask id="mask0_740_8296" style="mask-type:alpha" maskUnits="userSpaceOnUse" x="0" y="0" width="24" height="24">
<rect width="24" height="24" fill="#D9D9D9"/>
</mask>
<g mask="url(#mask0_740_8296)">
<path d="M6.37283 11.75L9.69608 15.073C9.84475 15.2218 9.91808 15.3959 9.91608 15.5953C9.91424 15.7946 9.83574 15.9718 9.68058 16.127C9.52541 16.2718 9.34974 16.3468 9.15358 16.352C8.95758 16.357 8.78199 16.282 8.62683 16.127L4.13258 11.6328C3.95174 11.4519 3.86133 11.241 3.86133 11C3.86133 10.759 3.95174 10.5481 4.13258 10.3673L8.62683 5.873C8.76533 5.73467 8.93674 5.66384 9.14108 5.6605C9.34558 5.65734 9.52541 5.72817 9.68058 5.873C9.83574 6.02817 9.91333 6.20642 9.91333 6.40775C9.91333 6.60892 9.83574 6.78709 9.68058 6.94225L6.37283 10.25H15.7498C17.0627 10.25 18.1825 10.7135 19.1093 11.6405C20.0363 12.5673 20.4998 13.6872 20.4998 15V17.75C20.4998 17.9628 20.428 18.141 20.2843 18.2845C20.1408 18.4282 19.9627 18.5 19.7498 18.5C19.537 18.5 19.3588 18.4282 19.2153 18.2845C19.0717 18.141 18.9998 17.9628 18.9998 17.75V15C18.9998 14.1025 18.6825 13.3365 18.0478 12.702C17.4133 12.0673 16.6473 11.75 15.7498 11.75H6.37283Z" fill="#141414"/>
</g>
</svg>
