<svg width="24" height="24" viewBox="0 0 24 24" fill="none" xmlns="http://www.w3.org/2000/svg">
<path d="M12.0641 20.85C10.8332 20.85 9.67765 20.6174 8.59731 20.152C7.51681 19.6869 6.57381 19.0529 5.76831 18.25C4.96265 17.4472 4.32723 16.5066 3.86206 15.4283C3.39673 14.3498 3.16406 13.1963 3.16406 11.9678C3.16406 10.7393 3.39673 9.59102 3.86206 8.52302C4.32723 7.45486 4.96356 6.52236 5.77106 5.72552C6.57856 4.92852 7.52373 4.30002 8.60656 3.84002C9.6894 3.38002 10.8475 3.15002 12.0808 3.15002C13.3946 3.15002 14.6384 3.43611 15.8121 4.00827C16.9856 4.58061 17.9973 5.37227 18.8473 6.38327V4.63752C18.8473 4.41886 18.9223 4.23294 19.0723 4.07977C19.2223 3.92661 19.4098 3.85002 19.6348 3.85002C19.8598 3.85002 20.0487 3.92628 20.2016 4.07878C20.3544 4.23144 20.4308 4.41661 20.4308 4.63427V8.33752C20.4308 8.56252 20.3544 8.75144 20.2016 8.90427C20.0487 9.05694 19.8598 9.13328 19.6348 9.13328H15.9183C15.6933 9.13328 15.5058 9.05628 15.3558 8.90228C15.2058 8.74828 15.1308 8.56144 15.1308 8.34177C15.1308 8.12194 15.2058 7.93502 15.3558 7.78102C15.5058 7.62702 15.6933 7.55002 15.9183 7.55002H17.7473C17.0363 6.69719 16.1928 6.01452 15.2168 5.50202C14.2408 4.98952 13.1962 4.73327 12.0831 4.73327C10.0566 4.73327 8.32731 5.42844 6.89531 6.81877C5.46331 8.20911 4.74731 9.90969 4.74731 11.9205C4.74731 13.9565 5.45748 15.6899 6.87781 17.1205C8.29831 18.5514 10.0271 19.2668 12.0641 19.2668C13.8836 19.2668 15.4606 18.6751 16.7953 17.4918C18.13 16.3084 18.9232 14.8297 19.1751 13.0555C19.2177 12.838 19.3186 12.6612 19.4776 12.525C19.6367 12.3889 19.8221 12.3264 20.0336 12.3375C20.2622 12.3487 20.4488 12.4378 20.5933 12.6048C20.7376 12.7718 20.7931 12.9604 20.7598 13.1708C20.4765 15.3541 19.5156 17.1799 17.8773 18.648C16.2388 20.116 14.3011 20.85 12.0641 20.85ZM12.8308 11.6475L15.5508 14.3365C15.7125 14.4984 15.7933 14.6889 15.7933 14.9083C15.7933 15.1278 15.7127 15.3167 15.5516 15.475C15.3904 15.6334 15.2043 15.7125 14.9933 15.7125C14.7821 15.7125 14.5956 15.6317 14.4336 15.47L11.4816 12.5338C11.4004 12.4529 11.3411 12.3647 11.3036 12.269C11.2661 12.1732 11.2473 12.071 11.2473 11.9625V7.82078C11.2473 7.60227 11.3223 7.41636 11.4723 7.26302C11.6223 7.10986 11.8098 7.03327 12.0348 7.03327C12.2598 7.03327 12.4487 7.10986 12.6016 7.26302C12.7544 7.41636 12.8308 7.60227 12.8308 7.82078V11.6475Z" fill="#141414"/>
</svg>
