<?xml version="1.0" encoding="UTF-8"?>
<!-- Generator: visioncortex VTracer 0.6.3 -->
<svg version="1.1" xmlns="http://www.w3.org/2000/svg" width="1280" height="1280">
<path d="M0 0 C0.97 -0.01 1.94 -0.02 2.93 -0.04 C8.42 -0.05 12.95 0.37 18.12 2.19 C21.47 3.33 24.75 4.35 28.19 5.12 C31.61 5.95 34.15 7.26 37.12 9.19 C38.03 9.54 38.94 9.89 39.88 10.25 C42.12 11.19 42.12 11.19 43.12 13.19 C44.78 14.3 44.78 14.3 46.69 15.31 C47.82 15.93 48.96 16.55 50.12 17.19 C50.12 17.85 50.12 18.51 50.12 19.19 C50.85 19.41 51.57 19.64 52.31 19.88 C58.69 22.85 63.23 29.47 67.12 35.19 C67.12 35.85 67.12 36.51 67.12 37.19 C67.79 37.19 68.44 37.19 69.12 37.19 C72.12 43.94 72.12 43.94 72.12 46.19 C73.12 46.52 74.11 46.85 75.12 47.19 C75.97 49.52 75.97 49.52 76.62 52.44 C77.34 55.57 77.93 57.89 79.68 60.6 C85.84 71.61 82.12 96.79 82.12 106.19 C263.79 105.69 263.79 105.69 449.12 105.19 C449.46 97.93 449.78 90.67 450.12 83.19 C451.02 77.12 451.96 71.19 453.12 65.19 C453.41 63.57 453.41 63.57 453.7 61.92 C454.86 55.45 454.86 55.45 457.12 53.19 C457.66 51.75 458.13 50.29 458.56 48.81 C459.65 45.38 460.76 42.95 463.12 40.19 C463.9 38.83 463.9 38.83 464.69 37.44 C465.4 36.32 465.4 36.32 466.12 35.19 C466.78 35.19 467.45 35.19 468.12 35.19 C468.46 33.54 468.78 31.89 469.12 30.19 C470.45 29.86 471.76 29.53 473.12 29.19 C473.46 27.87 473.78 26.55 474.12 25.19 C475.45 24.86 476.76 24.53 478.12 24.19 C478.25 23.26 478.25 23.26 478.38 22.31 C479.12 20.19 479.12 20.19 481.06 19.12 C481.74 18.82 482.42 18.51 483.12 18.19 C483.78 17.2 484.45 16.21 485.12 15.19 C487.75 14.5 487.75 14.5 490.12 14.19 C490.46 13.2 490.78 12.21 491.12 11.19 C493.09 10.09 493.09 10.09 495.5 9.12 C498.34 7.97 500.55 6.91 503.12 5.19 C505.92 4.58 508.71 4.17 511.53 3.75 C514.34 3.31 514.34 3.31 517.12 1.19 C522.52 -0.21 527.96 -0.03 533.5 -0.06 C535.02 -0.09 535.02 -0.09 536.58 -0.12 C542.68 -0.16 546.68 0.49 552.12 3.19 C555.51 4.05 558.91 4.74 562.33 5.44 C565.12 6.19 565.12 6.19 567.12 8.19 C569.18 8.99 571.25 9.64 573.35 10.31 C574.23 10.74 574.23 10.74 575.12 11.19 C575.46 12.18 575.78 13.17 576.12 14.19 C576.91 14.29 577.69 14.39 578.5 14.5 C581.12 15.19 581.12 15.19 583.12 18.19 C584.79 19.19 586.46 20.19 588.12 21.19 C589.75 22.64 591.34 24.14 592.88 25.69 C593.65 26.46 594.43 27.23 595.23 28.03 C597.13 30.19 597.13 30.19 598.12 33.19 C598.81 33.85 599.49 34.51 600.19 35.19 C602.12 37.19 602.12 37.19 602.12 40.19 C603.12 40.52 604.11 40.85 605.12 41.19 C606.22 43.15 606.22 43.15 607.19 45.56 C608.34 48.4 609.41 50.61 611.12 53.19 C611.7 55.85 612.07 58.51 612.46 61.2 C613.03 64.3 613.03 64.3 614.63 67.37 C616.35 71.29 616.6 75.07 616.64 79.31 C616.65 80.05 616.67 80.8 616.69 81.57 C616.74 83.92 616.78 86.27 616.81 88.62 C616.85 90.23 616.88 91.84 616.92 93.44 C617 97.36 617.07 101.27 617.12 105.19 C618.5 105.2 618.5 105.2 619.9 105.21 C628.63 105.26 637.37 105.34 646.1 105.42 C650.59 105.47 655.08 105.51 659.57 105.53 C696.97 105.77 696.97 105.77 714.1 108.84 C717.24 109.38 720.4 109.78 723.56 110.19 C728.24 110.92 731.86 112.18 736.12 114.19 C737.49 114.55 738.87 114.88 740.25 115.19 C743.68 115.98 746.15 117.28 749.12 119.19 C751.43 120.25 753.77 121.22 756.12 122.19 C756.12 122.85 756.12 123.51 756.12 124.19 C757.01 124.27 757.9 124.35 758.81 124.44 C762.61 125.3 764.22 126.66 767.12 129.19 C768.05 129.72 768.98 130.26 769.94 130.81 C770.66 131.27 771.38 131.72 772.12 132.19 C772.12 132.85 772.12 133.51 772.12 134.19 C772.86 134.28 773.6 134.38 774.36 134.47 C777.53 135.29 779.02 136.44 781.44 138.62 C782.13 139.24 782.83 139.86 783.55 140.5 C785.12 142.19 785.12 142.19 785.12 144.19 C785.96 144.53 785.96 144.53 786.81 144.88 C793.1 148.45 798.11 155.31 802.12 161.19 C802.12 162.18 802.12 163.17 802.12 164.19 C803.08 164.53 803.08 164.53 804.06 164.88 C806.12 166.19 806.12 166.19 806.88 168.81 C807 169.99 807 169.99 807.12 171.19 C808.12 171.52 809.11 171.85 810.12 172.19 C811.57 175.08 812.12 176.93 812.12 180.19 C813.12 180.52 814.11 180.85 815.12 181.19 C816.22 183.37 816.22 183.37 817.19 186.06 C818.31 189.15 819.29 191.43 821.12 194.19 C821.69 196.62 822.07 199.05 822.46 201.52 C823.03 204.29 823.03 204.29 824.62 206.91 C826.59 211.19 826.85 215.09 827.19 219.75 C827.62 225.17 828.16 230.47 829.14 235.83 C830.52 244.68 830.4 253.47 830.37 262.41 C830.37 264.34 830.37 266.27 830.38 268.2 C830.38 273.47 830.38 278.75 830.37 284.02 C830.36 289.72 830.37 295.42 830.37 301.12 C830.38 310.98 830.37 320.85 830.37 330.71 C830.36 346.3 830.37 361.88 830.39 377.47 C830.39 382.81 830.4 388.14 830.4 393.48 C830.4 394.14 830.4 394.81 830.4 395.5 C830.41 411.33 830.42 427.16 830.43 442.99 C830.43 443.68 830.43 444.37 830.43 445.09 C830.44 461.25 830.44 477.42 830.43 493.58 C830.43 494.28 830.43 494.97 830.43 495.69 C830.43 499.2 830.43 502.71 830.43 506.22 C830.43 506.92 830.43 507.61 830.43 508.33 C830.43 509.73 830.43 511.13 830.43 512.53 C830.42 536.31 830.44 560.09 830.47 583.88 C830.48 598.11 830.49 612.35 830.47 626.59 C830.46 636.34 830.46 646.08 830.48 655.83 C830.49 661.46 830.5 667.08 830.48 672.71 C830.46 677.86 830.47 683 830.49 688.15 C830.5 690.01 830.49 691.88 830.48 693.75 C830.46 696.27 830.48 698.8 830.5 701.33 C830.48 702.43 830.48 702.43 830.46 703.55 C830.53 707.41 830.98 709.01 833.5 712.01 C834.37 712.73 835.23 713.45 836.12 714.19 C836.99 715.06 837.85 715.94 838.74 716.84 C844.8 722.97 844.8 722.97 851.25 728.69 C855.44 732.25 858.75 736.43 862.14 740.73 C863.99 743.14 863.99 743.14 865.89 744.83 C867.12 746.19 867.12 746.19 867.12 749.19 C867.76 749.43 868.4 749.68 869.06 749.94 C871.67 751.52 871.42 752.36 872.12 755.19 C873.12 755.68 873.12 755.68 874.12 756.19 C875.12 756.68 875.12 756.68 876.12 757.19 C876.49 758.51 876.82 759.85 877.12 761.19 C878.12 761.52 879.11 761.85 880.12 762.19 C881.77 764.79 882.12 766.05 882.12 769.19 C882.72 769.41 883.32 769.64 883.94 769.88 C887.28 771.88 888.43 774.75 890.09 778.19 C890.43 778.89 890.77 779.59 891.12 780.31 C891.43 780.98 891.74 781.64 892.06 782.32 C893.19 784.31 894.5 785.6 896.12 787.19 C897.18 789.16 898.17 791.16 899.12 793.19 C899.96 794.77 899.96 794.77 900.81 796.38 C902.12 799.19 902.12 799.19 902.12 802.19 C902.79 802.19 903.44 802.19 904.12 802.19 C904.54 803.2 904.95 804.21 905.38 805.25 C906.48 807.87 907.73 810.22 909.25 812.62 C911.51 816.41 911.82 819.82 912.12 824.19 C913.12 824.52 914.11 824.85 915.12 825.19 C915.97 827.52 915.97 827.52 916.62 830.44 C917.68 834.78 917.68 834.78 919.75 838.69 C922.04 842.85 921.89 847.51 922.12 852.19 C922.79 852.19 923.44 852.19 924.12 852.19 C926.41 857.22 926.85 862.17 927.46 867.62 C927.98 871.22 927.98 871.22 929.62 874.44 C931.81 879.18 931.86 884.17 932.19 889.31 C932.32 891.25 932.45 893.19 932.6 895.13 C932.68 896.41 932.68 896.41 932.76 897.71 C933.02 900.21 933.02 900.21 934.1 902.44 C936.67 909.31 936.28 917.03 936.29 924.27 C936.3 925.2 936.3 926.14 936.3 927.1 C936.31 929.07 936.31 931.04 936.31 933.01 C936.31 935.98 936.33 938.96 936.35 941.93 C936.42 965.6 936.42 965.6 933.12 972.19 C932.93 973.79 932.78 975.41 932.66 977.02 C932.58 977.98 932.5 978.95 932.42 979.94 C932.27 981.97 932.11 984 931.96 986.03 C931.88 986.99 931.8 987.96 931.72 988.96 C931.66 989.84 931.59 990.72 931.52 991.63 C931.09 994.4 930.23 996.63 929.12 999.19 C927.48 1004.32 926.52 1009.41 925.69 1014.73 C925.12 1017.19 925.12 1017.19 923.12 1020.19 C922.31 1023.43 921.66 1026.69 921 1029.96 C920.13 1033.18 918.88 1035.38 917.12 1038.19 C916.44 1040.31 916.44 1040.31 916.06 1042.38 C915.12 1046.19 915.12 1046.19 913.12 1048.19 C912.27 1050.76 911.6 1053.35 910.91 1055.97 C910.12 1058.19 910.12 1058.19 908.12 1059.19 C907.32 1061.13 907.32 1061.13 906.69 1063.44 C905.55 1067.06 904.2 1069.99 902.12 1073.19 C901.67 1074.12 901.22 1075.04 900.75 1076 C899.15 1079.14 897.36 1082.05 895.46 1085.02 C893.21 1088.66 891.17 1092.42 889.12 1096.19 C888.46 1096.19 887.81 1096.19 887.12 1096.19 C886.86 1097.16 886.59 1098.13 886.31 1099.12 C885.92 1100.14 885.53 1101.15 885.12 1102.19 C884.13 1102.52 883.14 1102.85 882.12 1103.19 C882.04 1103.93 881.96 1104.67 881.88 1105.44 C880.97 1108.76 879.61 1109.85 877.12 1112.19 C876.12 1113.85 875.12 1115.52 874.12 1117.19 C873.46 1117.52 872.81 1117.85 872.12 1118.19 C871.63 1119.03 871.13 1119.88 870.62 1120.75 C870.13 1121.55 869.63 1122.36 869.12 1123.19 C868.46 1123.19 867.81 1123.19 867.12 1123.19 C867.04 1123.77 866.96 1124.34 866.88 1124.94 C865.89 1127.89 864.4 1129.03 862.12 1131.19 C860.99 1132.45 859.86 1133.72 858.75 1135 C858.14 1135.7 857.53 1136.4 856.9 1137.12 C855.82 1138.38 854.76 1139.65 853.73 1140.95 C848.53 1147.41 841.9 1152.25 835.39 1157.32 C833.06 1159.09 833.06 1159.09 831.5 1161.44 C831.05 1162.02 830.59 1162.59 830.12 1163.19 C829.13 1163.19 828.14 1163.19 827.12 1163.19 C826.72 1164.15 826.72 1164.15 826.31 1165.12 C825.12 1167.19 825.12 1167.19 822.12 1168.19 C821.67 1168.81 821.22 1169.42 820.75 1170.06 C818.82 1172.58 816.88 1173.64 814.12 1175.19 C813.42 1175.74 812.72 1176.3 812 1176.88 C810.12 1178.19 810.12 1178.19 807.12 1178.19 C806.9 1178.83 806.67 1179.47 806.44 1180.12 C805.12 1182.19 805.12 1182.19 802.5 1182.94 C801.32 1183.06 801.32 1183.06 800.12 1183.19 C799.8 1184.18 799.46 1185.17 799.12 1186.19 C797.45 1187.25 797.45 1187.25 795.38 1188.19 C792.92 1189.33 790.64 1190.48 788.31 1191.88 C786.12 1193.19 786.12 1193.19 783.12 1194.19 C782.71 1194.64 782.3 1195.1 781.88 1195.56 C779.85 1197.44 777.76 1198.28 775.21 1199.3 C772.79 1200.33 770.47 1201.5 768.12 1202.69 C763.29 1205.13 758.43 1207.3 753.38 1209.25 C750.91 1210.19 750.91 1210.19 748.12 1212.19 C746.68 1212.55 745.22 1212.86 743.75 1213.12 C740.92 1213.7 739.17 1214.16 736.69 1215.69 C733.39 1217.62 730.26 1218 726.52 1218.66 C723.97 1219.11 723.97 1219.11 721.31 1220.69 C717.11 1222.67 713.03 1223.03 708.44 1223.56 C705.05 1224.06 705.05 1224.06 701.91 1225.68 C697.15 1227.86 692.16 1227.92 687 1228.25 C685.06 1228.38 683.12 1228.52 681.18 1228.66 C679.9 1228.74 679.9 1228.74 678.6 1228.82 C676.1 1229.08 676.1 1229.08 673.87 1230.16 C667.02 1232.73 659.31 1232.35 652.08 1232.36 C651.15 1232.36 650.21 1232.36 649.25 1232.37 C647.29 1232.37 645.32 1232.37 643.36 1232.37 C640.4 1232.37 637.43 1232.39 634.47 1232.41 C609.72 1232.49 609.72 1232.49 603.12 1229.19 C601.62 1229 600.1 1228.87 598.58 1228.76 C597.67 1228.68 596.76 1228.61 595.83 1228.54 C593.92 1228.39 592.01 1228.25 590.11 1228.11 C584.48 1227.65 580.31 1226.54 575.12 1224.19 C572.21 1223.48 569.27 1223.01 566.31 1222.56 C558.34 1221.3 558.34 1221.3 556.12 1220.19 C556.12 1219.53 556.12 1218.87 556.12 1218.19 C555.42 1218.16 554.72 1218.14 554 1218.11 C548.26 1217.77 544.03 1217.03 539.05 1214.16 C536.94 1213.09 535 1212.61 532.69 1212.12 C531.51 1211.82 530.34 1211.51 529.12 1211.19 C528.79 1210.2 528.47 1209.21 528.12 1208.19 C526.36 1208.06 526.36 1208.06 524.56 1207.94 C520.69 1207.46 518.1 1206.28 514.83 1204.22 C512.91 1203 512.91 1203 509.75 1201.75 C503.2 1198.93 497.17 1195.26 491.16 1191.44 C489 1190.11 486.79 1188.9 484.56 1187.69 C480.5 1185.45 476.77 1183.06 473.12 1180.19 C473.12 1179.53 473.12 1178.87 473.12 1178.19 C471.98 1178 471.98 1178 470.81 1177.81 C468.13 1177.19 468.13 1177.19 465.12 1175.19 C465.12 1174.53 465.12 1173.87 465.12 1173.19 C463.92 1172.79 463.92 1172.79 462.69 1172.38 C461.42 1171.79 461.42 1171.79 460.12 1171.19 C459.79 1170.2 459.47 1169.21 459.12 1168.19 C458.3 1167.86 457.48 1167.53 456.62 1167.19 C455.8 1166.86 454.98 1166.53 454.12 1166.19 C453.79 1165.2 453.47 1164.21 453.12 1163.19 C452.57 1163.06 452.01 1162.94 451.44 1162.81 C447.84 1161.84 445.84 1159.72 443.12 1157.19 C443.12 1156.53 443.12 1155.87 443.12 1155.19 C442.47 1155.19 441.8 1155.19 441.12 1155.19 C441.12 1154.53 441.12 1153.87 441.12 1153.19 C440.4 1152.96 439.68 1152.73 438.94 1152.5 C435.58 1150.93 433.56 1148.89 431.12 1146.19 C430.08 1145.05 430.08 1145.05 429.02 1143.88 C425.53 1140.04 422.09 1136.17 418.75 1132.19 C415.64 1128.49 415.64 1128.49 411.25 1126.94 C410.54 1126.94 409.83 1126.94 409.1 1126.94 C407.87 1126.93 407.87 1126.93 406.61 1126.92 C405.25 1126.93 405.25 1126.93 403.87 1126.93 C402.9 1126.93 401.94 1126.93 400.95 1126.92 C397.68 1126.92 394.42 1126.92 391.16 1126.93 C388.81 1126.93 386.46 1126.92 384.11 1126.92 C378.3 1126.91 372.5 1126.91 366.7 1126.91 C359.75 1126.92 352.8 1126.91 345.85 1126.9 C333.02 1126.89 320.19 1126.88 307.36 1126.88 C289.82 1126.88 272.29 1126.87 254.75 1126.85 C246.58 1126.84 238.41 1126.83 230.23 1126.82 C229.42 1126.82 228.6 1126.82 227.75 1126.82 C208.27 1126.8 188.78 1126.79 169.3 1126.77 C168.44 1126.77 167.59 1126.77 166.71 1126.77 C146.83 1126.76 126.96 1126.75 107.08 1126.74 C100.2 1126.74 93.32 1126.73 86.43 1126.73 C85.58 1126.73 84.73 1126.73 83.86 1126.73 C64.44 1126.72 45.03 1126.71 25.62 1126.69 C24.8 1126.69 23.98 1126.69 23.14 1126.69 C14.97 1126.68 6.81 1126.67 -1.35 1126.66 C-5.37 1126.66 -9.39 1126.65 -13.4 1126.65 C-14.19 1126.65 -14.99 1126.64 -15.8 1126.64 C-28.49 1126.63 -41.18 1126.63 -53.88 1126.63 C-66.66 1126.63 -79.43 1126.62 -92.21 1126.6 C-99.13 1126.59 -106.04 1126.59 -112.96 1126.6 C-119.3 1126.6 -125.64 1126.6 -131.99 1126.58 C-134.27 1126.57 -136.55 1126.58 -138.83 1126.58 C-152.57 1126.62 -165.74 1125.68 -179.31 1123.54 C-183.04 1123.03 -186.79 1122.75 -190.55 1122.5 C-193.54 1122.1 -195.43 1120.9 -197.88 1119.19 C-199.92 1118.6 -201.98 1118.08 -204.06 1117.62 C-209.66 1116.4 -209.66 1116.4 -211.88 1114.19 C-213.29 1113.66 -214.74 1113.18 -216.19 1112.75 C-219.77 1111.61 -222.73 1110.29 -225.88 1108.19 C-226.99 1107.54 -226.99 1107.54 -228.12 1106.88 C-231.36 1104.89 -234.51 1102.79 -237.66 1100.67 C-239 1099.78 -240.33 1098.89 -241.68 1098.02 C-244.37 1096.27 -246.67 1094.51 -248.88 1092.19 C-249.53 1091.86 -250.19 1091.53 -250.88 1091.19 C-250.88 1090.2 -250.88 1089.21 -250.88 1088.19 C-251.68 1087.94 -252.48 1087.69 -253.31 1087.44 C-255.88 1086.19 -255.88 1086.19 -256.69 1084.06 C-256.75 1083.44 -256.81 1082.83 -256.88 1082.19 C-257.87 1082.19 -258.86 1082.19 -259.88 1082.19 C-260.1 1081.63 -260.33 1081.07 -260.56 1080.5 C-261.87 1077.96 -261.87 1077.96 -264.5 1075.56 C-265.68 1074.39 -265.68 1074.39 -266.88 1073.19 C-266.88 1072.53 -266.88 1071.87 -266.88 1071.19 C-267.87 1070.86 -268.86 1070.53 -269.88 1070.19 C-271.52 1067.59 -271.88 1066.33 -271.88 1063.19 C-272.47 1062.98 -273.07 1062.78 -273.69 1062.56 C-276.78 1060.62 -277.39 1058.52 -278.88 1055.19 C-279.72 1053.45 -280.58 1051.73 -281.44 1050 C-281.85 1049.16 -282.27 1048.32 -282.69 1047.46 C-283.92 1045.01 -283.92 1045.01 -285.88 1042.19 C-286.43 1039.98 -286.82 1037.78 -287.21 1035.54 C-287.78 1033.08 -287.78 1033.08 -289.38 1030.84 C-291.23 1027.56 -291.53 1024.85 -291.94 1021.12 C-292.41 1016.94 -292.96 1013.9 -294.88 1010.19 C-295.67 1006.24 -296 1002.5 -296 998.48 C-296 997.35 -296.01 996.23 -296.01 995.07 C-296.01 993.85 -296.01 992.62 -296 991.36 C-296.01 990.04 -296.01 988.73 -296.01 987.37 C-296.01 983.71 -296.01 980.06 -296.01 976.4 C-296.01 972.42 -296.01 968.44 -296.02 964.47 C-296.02 957.5 -296.02 950.52 -296.02 943.55 C-296.02 933.18 -296.02 922.81 -296.03 912.44 C-296.04 892.85 -296.04 873.26 -296.04 853.66 C-296.04 838.53 -296.04 823.4 -296.05 808.28 C-296.05 803.92 -296.05 799.57 -296.05 795.22 C-296.05 794.14 -296.05 793.06 -296.05 791.94 C-296.06 761.5 -296.06 731.07 -296.06 700.63 C-296.06 699.48 -296.06 698.33 -296.06 697.15 C-296.06 691.33 -296.06 685.51 -296.06 679.69 C-296.06 678.54 -296.06 677.38 -296.06 676.19 C-296.06 673.85 -296.06 671.52 -296.06 669.18 C-296.06 632.81 -296.07 596.45 -296.08 560.08 C-296.1 519.24 -296.1 478.4 -296.1 437.56 C-296.1 433.21 -296.1 428.85 -296.1 424.5 C-296.1 423.43 -296.1 422.36 -296.1 421.25 C-296.1 403.99 -296.11 386.72 -296.12 369.46 C-296.13 352.11 -296.13 334.77 -296.12 317.42 C-296.12 307.11 -296.12 296.81 -296.13 286.5 C-296.14 279.61 -296.13 272.73 -296.13 265.85 C-296.12 261.92 -296.12 258 -296.13 254.07 C-296.14 249.85 -296.13 245.62 -296.12 241.4 C-296.13 240.18 -296.13 238.96 -296.14 237.7 C-296.07 221.38 -296.07 221.38 -292.88 218.19 C-292.46 215.07 -292.1 211.95 -291.8 208.82 C-291.32 204.66 -290.49 202.39 -287.88 199.19 C-286.99 196.52 -286.99 196.52 -286.38 193.69 C-285.47 189.75 -284.4 187.33 -281.88 184.19 C-281.16 182.51 -280.45 180.83 -279.76 179.14 C-278.17 175.64 -276.25 172.21 -273.88 169.19 C-273.22 169.19 -272.56 169.19 -271.88 169.19 C-271.75 168.42 -271.63 167.66 -271.5 166.88 C-270.88 164.19 -270.88 164.19 -268.88 161.19 C-268.22 161.19 -267.56 161.19 -266.88 161.19 C-266.61 160.4 -266.34 159.62 -266.06 158.81 C-264.88 156.19 -264.88 156.19 -261.88 154.19 C-261.2 152.86 -260.54 151.52 -259.88 150.19 C-258.22 148.48 -258.22 148.48 -256.38 146.94 C-255.46 146.16 -255.46 146.16 -254.53 145.36 C-252.88 144.19 -252.88 144.19 -250.88 144.19 C-250.88 143.2 -250.88 142.21 -250.88 141.19 C-250.3 140.94 -249.72 140.69 -249.12 140.44 C-246.54 139 -244.93 137.31 -242.88 135.19 C-239.06 131.78 -235.5 129.35 -230.88 127.19 C-228.35 125.71 -225.86 124.18 -223.38 122.62 C-219.31 120.29 -216.61 119.19 -211.88 119.19 C-211.38 117.7 -211.38 117.7 -210.88 116.19 C-208.36 115.34 -208.36 115.34 -205.19 114.69 C-201.81 113.98 -199.12 113.32 -196.08 111.66 C-191.83 109.71 -187.93 109.46 -183.31 109.12 C-177.87 108.69 -172.55 108.14 -167.18 107.17 C-158.63 105.84 -150.17 105.94 -141.54 105.99 C-139.81 106 -138.08 106 -136.35 106 C-131.84 106.01 -127.33 106.03 -122.82 106.05 C-118.21 106.07 -113.59 106.08 -108.97 106.09 C-99.94 106.11 -90.91 106.15 -81.88 106.19 C-81.88 105.45 -81.88 104.71 -81.88 103.95 C-81.88 100.56 -81.89 97.17 -81.89 93.79 C-81.89 92.63 -81.89 91.47 -81.9 90.27 C-81.92 63.6 -81.92 63.6 -77.85 56.04 C-76.66 53.94 -76.66 53.94 -75.81 50.38 C-74.88 47.22 -73.9 45.7 -71.88 43.19 C-71.42 42.26 -70.97 41.33 -70.5 40.38 C-67.42 34.32 -63.83 29.88 -58.57 25.59 C-55.42 22.99 -52.63 20.02 -49.88 17 C-47.65 14.98 -45.66 14.26 -42.88 13.19 C-42.42 12.71 -41.97 12.24 -41.5 11.75 C-39.03 9.38 -36.02 8.48 -32.88 7.19 C-31.39 6.2 -31.39 6.2 -29.88 5.19 C-27.08 4.58 -24.29 4.17 -21.47 3.75 C-18.66 3.31 -18.66 3.31 -15.88 1.19 C-10.63 -0.17 -5.39 0 0 0 Z M-21.6 70.26 C-23.89 73.73 -24 77.11 -24.01 81.19 C-24.01 82.2 -24.02 83.21 -24.02 84.24 C-24.02 85.34 -24.02 86.44 -24.02 87.58 C-24.02 88.74 -24.03 89.9 -24.03 91.1 C-24.04 94.95 -24.04 98.8 -24.04 102.65 C-24.05 104.65 -24.05 106.65 -24.05 108.64 C-24.06 114.92 -24.06 121.2 -24.06 127.48 C-24.06 133.96 -24.07 140.43 -24.09 146.91 C-24.1 152.47 -24.1 158.03 -24.1 163.6 C-24.1 166.92 -24.11 170.24 -24.12 173.56 C-24.13 177.26 -24.12 180.96 -24.12 184.67 C-24.12 185.77 -24.13 186.86 -24.13 187.99 C-24.13 189.51 -24.13 189.51 -24.12 191.06 C-24.12 191.93 -24.12 192.81 -24.12 193.71 C-23.84 196.49 -23.02 198.65 -21.88 201.19 C-21.21 201.19 -20.56 201.19 -19.88 201.19 C-19.65 201.93 -19.42 202.67 -19.19 203.44 C-16.66 208.73 -11.98 210.75 -6.88 213.19 C-6.55 213.52 -6.21 213.85 -5.88 214.19 C-3.94 214.34 -2 214.41 -0.06 214.44 C1.52 214.48 1.52 214.48 3.14 214.52 C6.48 214.15 7.64 213.35 10.12 211.19 C11.12 210.73 12.11 210.28 13.12 209.81 C16.43 208.02 18.05 206.3 20.12 203.19 C20.12 202.53 20.12 201.87 20.12 201.19 C21.12 200.86 22.11 200.53 23.12 200.19 C24.27 197.23 24.25 194.33 24.26 191.18 C24.26 190.18 24.27 189.17 24.27 188.13 C24.27 187.03 24.27 185.93 24.27 184.8 C24.27 183.63 24.28 182.47 24.28 181.27 C24.29 177.42 24.29 173.57 24.29 169.72 C24.3 167.73 24.3 165.73 24.3 163.73 C24.31 157.45 24.31 151.17 24.31 144.89 C24.31 138.42 24.32 131.94 24.34 125.47 C24.35 119.9 24.35 114.34 24.35 108.78 C24.35 105.46 24.36 102.14 24.37 98.82 C24.38 95.11 24.37 91.41 24.37 87.71 C24.37 86.61 24.38 85.51 24.38 84.38 C24.38 83.37 24.38 82.36 24.37 81.32 C24.37 80.44 24.37 79.57 24.37 78.67 C24.09 75.88 23.27 73.73 22.12 71.19 C21.47 71.19 20.81 71.19 20.12 71.19 C19.9 70.44 19.67 69.7 19.44 68.94 C16.91 63.65 12.23 61.63 7.12 59.19 C6.8 58.86 6.46 58.53 6.12 58.19 C-6.17 56.59 -13.78 61.09 -21.6 70.26 Z M522.12 61.19 C521.24 61.5 520.35 61.81 519.44 62.12 C516.63 63.41 516.36 64.46 515.12 67.19 C514.13 67.52 513.14 67.85 512.12 68.19 C509.36 74.53 509.84 82.14 509.87 88.9 C509.86 90.04 509.86 91.17 509.86 92.35 C509.85 96.09 509.85 99.82 509.86 103.56 C509.86 106.17 509.86 108.78 509.85 111.4 C509.85 116.86 509.85 122.32 509.86 127.79 C509.88 134.08 509.87 140.38 509.86 146.68 C509.85 152.76 509.85 158.84 509.86 164.93 C509.86 167.5 509.86 170.08 509.85 172.66 C509.85 176.26 509.86 179.87 509.87 183.48 C509.86 184.53 509.86 185.59 509.85 186.68 C509.83 195.63 509.83 195.63 512.12 204.19 C513.12 204.52 514.11 204.85 515.12 205.19 C515.42 205.82 515.72 206.46 516.03 207.11 C517.47 209.84 518.85 210.26 521.69 211.38 C526.07 213.14 526.07 213.14 527.12 214.19 C529.04 214.34 530.96 214.41 532.88 214.44 C533.92 214.46 534.97 214.49 536.05 214.52 C539.5 214.15 541.28 213.12 544.12 211.19 C544.95 210.9 545.77 210.61 546.62 210.31 C550.57 208.54 553.26 206.09 555.07 202.12 C555.79 200.15 556.46 198.17 557.12 196.19 C557.46 195.86 557.78 195.53 558.12 195.19 C558.23 193.67 558.26 192.14 558.27 190.62 C558.27 189.63 558.28 188.65 558.28 187.63 C558.28 186.54 558.28 185.45 558.29 184.32 C558.29 183.18 558.3 182.04 558.3 180.86 C558.32 177.06 558.32 173.25 558.33 169.45 C558.33 166.82 558.34 164.19 558.35 161.56 C558.35 156.74 558.36 151.92 558.36 147.09 C558.37 140 558.39 132.9 558.41 125.81 C558.44 119.67 558.45 113.52 558.45 107.38 C558.45 104.77 558.46 102.15 558.47 99.54 C558.49 95.88 558.49 92.23 558.48 88.57 C558.49 87.49 558.5 86.4 558.51 85.29 C558.48 78.26 558.48 78.26 555.12 72.19 C554.84 71.36 554.55 70.54 554.25 69.69 C552.48 65.75 550.03 63.06 546.05 61.24 C544.09 60.52 542.11 59.85 540.12 59.19 C539.79 58.86 539.47 58.53 539.12 58.19 C537.21 58.03 535.29 57.97 533.38 57.94 C532.33 57.91 531.28 57.89 530.2 57.86 C526.74 58.23 524.97 59.26 522.12 61.19 Z M-189.88 171.19 C-191.83 171.99 -193.81 172.66 -195.81 173.34 C-205.51 177.31 -213.4 185.18 -219.88 193.19 C-220.66 194.09 -221.44 195 -222.25 195.94 C-223.99 198.05 -223.99 198.05 -224.44 200.44 C-224.58 201.01 -224.73 201.59 -224.88 202.19 C-226.36 202.68 -226.36 202.68 -227.88 203.19 C-229.05 205.11 -229.05 205.11 -229.94 207.44 C-230.42 208.59 -230.42 208.59 -230.91 209.77 C-231.23 210.56 -231.55 211.36 -231.88 212.19 C-232.21 212.98 -232.55 213.78 -232.9 214.6 C-233.99 217.49 -234.72 220.37 -235.44 223.38 C-236.77 228.98 -236.77 228.98 -237.88 231.19 C-237.97 233.99 -238 236.78 -237.99 239.58 C-237.99 240.45 -237.99 241.32 -237.99 242.22 C-237.99 245.09 -237.98 247.97 -237.97 250.85 C-237.97 252.84 -237.97 254.84 -237.97 256.83 C-237.96 262.08 -237.95 267.33 -237.94 272.58 C-237.93 277.94 -237.93 283.29 -237.92 288.65 C-237.91 299.16 -237.9 309.67 -237.88 320.19 C-150.42 320.2 -62.96 320.22 50.1 320.23 C51.53 320.23 52.96 320.23 54.4 320.23 C84.49 320.23 114.58 320.24 144.68 320.24 C159.79 320.24 174.91 320.24 190.03 320.24 C192.31 320.24 194.59 320.24 196.87 320.24 C232 320.25 267.12 320.25 302.25 320.26 C303.38 320.26 303.38 320.26 304.54 320.26 C316.72 320.26 328.91 320.26 341.09 320.26 C376.17 320.27 411.25 320.28 446.33 320.28 C447.41 320.28 447.41 320.28 448.52 320.28 C464.34 320.28 480.16 320.28 495.99 320.28 C502.35 320.28 508.72 320.28 515.08 320.28 C515.78 320.28 516.48 320.28 517.19 320.28 C539.67 320.28 562.14 320.29 584.62 320.29 C607.87 320.3 631.13 320.3 654.38 320.3 C667.81 320.3 681.23 320.3 694.65 320.31 C703.6 320.31 712.54 320.31 721.49 320.31 C726.6 320.31 731.71 320.31 736.82 320.31 C741.46 320.32 746.1 320.32 750.73 320.31 C752.41 320.31 754.09 320.31 755.77 320.31 C758.03 320.32 760.29 320.32 762.54 320.31 C764.43 320.31 764.43 320.31 766.35 320.31 C769.03 320.5 769.03 320.5 770.12 319.19 C770.23 316.56 770.27 313.96 770.27 311.33 C770.27 310.5 770.28 309.68 770.28 308.83 C770.29 306.08 770.29 303.33 770.29 300.59 C770.3 298.67 770.3 296.76 770.3 294.85 C770.31 290.82 770.31 286.79 770.31 282.77 C770.31 277.64 770.32 272.52 770.34 267.4 C770.35 263.44 770.35 259.47 770.35 255.51 C770.35 253.63 770.36 251.74 770.37 249.85 C771.48 230.45 771.48 230.45 765.12 213.19 C764.41 211.53 763.7 209.87 763.01 208.2 C760.23 201.18 760.23 201.18 755.12 196.19 C754.84 195.58 754.55 194.97 754.25 194.35 C752.91 191.77 751.36 190.46 749.12 188.62 C746.57 186.51 744.99 184.99 743.12 182.19 C742.13 181.86 741.14 181.53 740.12 181.19 C738.79 179.85 737.46 178.52 736.12 177.19 C734.48 176.15 732.82 175.14 731.12 174.19 C730.13 173.53 729.14 172.87 728.12 172.19 C726.95 171.86 725.77 171.53 724.56 171.19 C721.12 170.19 721.12 170.19 719.12 168.19 C707.52 165.56 695.49 165.91 683.66 165.96 C681.74 165.96 679.81 165.96 677.88 165.96 C673.88 165.96 669.88 165.97 665.88 165.98 C660.74 166 655.6 166 650.46 166 C646.5 166 642.54 166.01 638.58 166.01 C636.68 166.02 634.78 166.02 632.88 166.02 C630.25 166.02 627.62 166.03 624.99 166.04 C624.2 166.04 623.41 166.04 622.6 166.04 C619.07 165.74 619.07 165.74 616.12 167.19 C615.99 169.55 615.91 171.89 615.88 174.26 C615.85 175.73 615.81 177.2 615.78 178.66 C615.73 180.98 615.69 183.3 615.65 185.62 C615.61 187.85 615.56 190.09 615.5 192.32 C615.5 193 615.49 193.69 615.48 194.39 C615.34 200.02 613.93 204.84 612.12 210.12 C611.34 212.51 610.74 214.81 610.19 217.25 C609.36 220.67 608.05 223.22 606.12 226.19 C605.77 227.09 605.42 228 605.06 228.94 C604.12 231.19 604.12 231.19 602.12 232.19 C601.7 233.07 601.27 233.96 600.83 234.87 C598.95 238.53 596.6 241.34 593.81 244.31 C593.35 244.82 592.89 245.34 592.42 245.86 C589.29 249.24 586.04 251.72 582.12 254.19 C581.57 254.74 581.01 255.3 580.44 255.88 C579.12 257.19 579.12 257.19 576.12 258.19 C575.47 259.18 574.8 260.17 574.12 261.19 C572.29 262.07 572.29 262.07 570.19 262.75 C567.38 263.68 565.65 264.5 563.12 266.19 C560.46 266.76 557.8 267.14 555.11 267.53 C552.01 268.09 552.01 268.09 548.99 269.73 C544.03 271.96 538.9 271.59 533.56 271.5 C532.55 271.5 531.53 271.51 530.49 271.51 C525.3 271.47 520.98 271.22 516.12 269.19 C513.08 268.28 510.04 267.4 506.94 266.69 C504.99 266.24 503.05 265.72 501.12 265.19 C500.79 264.53 500.47 263.87 500.12 263.19 C498.18 262.16 498.18 262.16 495.88 261.25 C492.44 259.79 489.32 258.13 486.12 256.19 C485.47 256.19 484.8 256.19 484.12 256.19 C483.92 255.63 483.71 255.07 483.5 254.5 C481.55 251.22 479.18 249.48 476.12 247.19 C475.47 247.19 474.8 247.19 474.12 247.19 C474 246.32 474 246.32 473.88 245.44 C472.66 241.8 469.84 239.84 467.06 237.31 C464.76 234.79 463.55 232.29 462.12 229.19 C461.61 228.18 461.09 227.17 460.56 226.12 C459.12 223.19 459.12 223.19 458.06 220.5 C457.13 217.98 457.13 217.98 455.12 215.19 C454.71 212.65 454.38 210.18 454.12 207.62 C453.66 203.14 453.07 198.79 452.1 194.38 C450.94 188.81 450.72 183.31 450.56 177.62 C450.5 175.67 450.44 173.71 450.37 171.75 C450.35 170.89 450.32 170.04 450.3 169.16 C450.34 167.19 450.34 167.19 449.12 166.19 C447.18 166.09 445.22 166.06 443.27 166.06 C441.99 166.06 440.71 166.06 439.39 166.06 C437.95 166.06 436.51 166.06 435.07 166.07 C433.56 166.07 432.04 166.07 430.53 166.06 C426.35 166.06 422.16 166.07 417.98 166.07 C413.48 166.08 408.98 166.07 404.47 166.07 C396.67 166.07 388.86 166.08 381.05 166.08 C369.76 166.09 358.48 166.09 347.19 166.09 C328.88 166.1 310.56 166.1 292.25 166.11 C274.46 166.12 256.66 166.13 238.87 166.13 C237.23 166.13 237.23 166.13 235.55 166.13 C230.05 166.13 224.55 166.14 219.05 166.14 C173.41 166.15 127.77 166.17 82.12 166.19 C82.06 168.1 82.06 168.1 81.99 170.06 C81.82 174.8 81.63 179.54 81.44 184.28 C81.35 186.34 81.28 188.39 81.21 190.44 C81.1 193.39 80.98 196.34 80.86 199.29 C80.83 200.21 80.8 201.12 80.77 202.06 C80.54 206.96 80.11 210.12 77.12 214.19 C76.28 216.96 75.63 219.74 74.97 222.57 C74.08 225.32 72.91 226.94 71.12 229.19 C70.4 231.17 69.72 233.17 69.12 235.19 C68.46 235.19 67.81 235.19 67.12 235.19 C65.75 237.16 64.42 239.16 63.12 241.19 C59.96 245.55 56.26 248.78 52.12 252.19 C51.59 252.65 51.06 253.1 50.52 253.57 C45.72 257.69 40.64 260.49 34.99 263.22 C32.88 264.27 32.88 264.27 30.12 266.19 C27.33 266.79 24.54 267.2 21.72 267.62 C18.91 268.07 18.91 268.07 16.12 270.19 C10.88 271.55 5.64 271.37 0.25 271.38 C-0.72 271.39 -1.69 271.4 -2.68 271.41 C-8.17 271.42 -12.7 271.01 -17.88 269.19 C-21.22 268.05 -24.5 267.03 -27.94 266.25 C-31.36 265.42 -33.93 264.15 -36.88 262.19 C-37.62 261.84 -38.36 261.49 -39.12 261.12 C-40.88 260.19 -40.88 260.19 -41.88 258.19 C-42.99 257.71 -44.1 257.24 -45.25 256.75 C-48.57 255.32 -49.55 254.66 -51.88 252.19 C-53.88 250.44 -55.91 248.72 -57.94 247 C-59.88 245.19 -59.88 245.19 -61.5 242.96 C-61.95 242.38 -62.41 241.79 -62.88 241.19 C-63.53 241.19 -64.19 241.19 -64.88 241.19 C-65.14 240.44 -65.41 239.7 -65.69 238.94 C-66.83 236.28 -68.14 234.48 -69.88 232.19 C-70.89 230.2 -71.89 228.2 -72.88 226.19 C-73.53 225.2 -74.19 224.21 -74.88 223.19 C-75.42 221.74 -75.91 220.28 -76.38 218.81 C-77.11 216.5 -77.8 214.33 -78.88 212.16 C-80.3 207.9 -80.34 203.76 -80.51 199.29 C-80.55 198.35 -80.59 197.4 -80.63 196.42 C-80.76 193.41 -80.88 190.39 -81 187.38 C-81.09 185.33 -81.17 183.28 -81.26 181.23 C-81.48 176.22 -81.68 171.2 -81.88 166.19 C-93.09 166.14 -104.3 166.11 -115.52 166.08 C-120.73 166.07 -125.94 166.06 -131.15 166.04 C-136.18 166.01 -141.22 166 -146.26 166 C-148.17 165.99 -150.08 165.99 -151.99 165.98 C-171.76 165.08 -171.76 165.08 -189.88 171.19 Z M-237.88 378.19 C-237.94 480.82 -238 583.45 -238.06 689.19 C-238.09 721.64 -238.12 754.09 -238.15 787.53 C-238.16 816.52 -238.16 816.52 -238.16 845.51 C-238.16 859.32 -238.18 873.12 -238.2 886.93 C-238.21 901 -238.22 915.07 -238.22 929.14 C-238.21 937.52 -238.22 945.89 -238.24 954.26 C-238.25 960.43 -238.25 966.6 -238.24 972.77 C-238.24 975.28 -238.24 977.78 -238.25 980.28 C-238.26 983.68 -238.26 987.07 -238.24 990.47 C-238.26 991.94 -238.26 991.94 -238.27 993.44 C-238.22 999.4 -237.24 1003.71 -234.88 1009.19 C-234.31 1011.75 -233.9 1014.3 -233.5 1016.89 C-232.77 1019.56 -231.58 1021.04 -229.88 1023.19 C-228.74 1025.48 -227.83 1027.81 -226.88 1030.19 C-226.22 1030.19 -225.56 1030.19 -224.88 1030.19 C-224.69 1031.01 -224.5 1031.84 -224.31 1032.69 C-221.11 1040.49 -214.23 1045.89 -207.88 1051.19 C-206.99 1051.97 -206.1 1052.76 -205.19 1053.56 C-202.7 1055.31 -200.88 1055.84 -197.88 1056.19 C-197.38 1057.67 -197.38 1057.67 -196.88 1059.19 C-194.61 1060.14 -194.61 1060.14 -191.94 1060.75 C-187.07 1061.99 -187.07 1061.99 -184.88 1064.19 C-172.68 1067.02 -159.89 1066.46 -147.46 1066.43 C-145.2 1066.43 -142.95 1066.43 -140.7 1066.43 C-134.54 1066.44 -128.38 1066.43 -122.23 1066.42 C-116.26 1066.41 -110.29 1066.41 -104.32 1066.41 C-92.12 1066.42 -79.93 1066.41 -67.73 1066.4 C-55.66 1066.39 -43.59 1066.38 -31.52 1066.38 C-30.77 1066.38 -30.01 1066.38 -29.24 1066.38 C-25.42 1066.38 -21.6 1066.38 -17.78 1066.37 C9.23 1066.37 36.24 1066.36 63.25 1066.34 C89.49 1066.32 115.72 1066.31 141.95 1066.3 C142.76 1066.3 143.57 1066.3 144.41 1066.3 C152.53 1066.29 160.66 1066.29 168.79 1066.29 C185.35 1066.28 201.9 1066.28 218.46 1066.27 C219.6 1066.27 219.6 1066.27 220.76 1066.27 C271.55 1066.25 322.34 1066.22 373.12 1066.19 C373.46 1065.2 373.78 1064.21 374.12 1063.19 C373.16 1061.5 372.2 1059.81 371.17 1058.16 C370.07 1056.08 369.55 1054.24 369.06 1051.94 C368.5 1048.3 368.5 1048.3 366.63 1046.73 C364.74 1044.79 364.56 1043.46 364.12 1040.81 C363.58 1037.97 363.19 1036.29 361.62 1033.81 C359.22 1029.61 358.83 1024.94 358.12 1020.19 C357.47 1020.19 356.8 1020.19 356.12 1020.19 C355.94 1018.9 355.76 1017.61 355.57 1016.28 C355.32 1014.56 355.07 1012.84 354.81 1011.12 C354.69 1010.28 354.58 1009.43 354.46 1008.56 C353.86 1004.61 353.22 1001.4 351.59 997.73 C349.65 993.04 349.4 988.65 349.06 983.62 C348.65 977.77 348.05 972.76 346.12 967.19 C345.09 960.87 344.97 954.53 344.96 948.14 C344.95 947.21 344.95 946.27 344.95 945.31 C344.94 943.35 344.94 941.39 344.94 939.42 C344.94 936.46 344.92 933.5 344.9 930.53 C344.83 905.78 344.83 905.78 348.12 899.19 C348.31 897.68 348.45 896.16 348.55 894.64 C348.63 893.74 348.7 892.83 348.78 891.89 C348.92 889.98 349.06 888.08 349.2 886.17 C349.67 880.54 350.78 876.38 353.12 871.19 C353.81 868.27 354.25 865.34 354.69 862.38 C355.86 854.45 355.86 854.45 358.12 852.19 C358.97 848.96 359.59 845.72 360.25 842.45 C361.12 839.2 362.37 837.02 364.12 834.19 C364.82 831.8 364.82 831.8 365.19 829.44 C365.6 827.08 365.6 827.08 366.12 825.19 C366.78 824.86 367.45 824.53 368.12 824.19 C368.93 822.01 368.93 822.01 369.56 819.44 C370.65 815.58 371.89 812.54 374.12 809.19 C375.95 805.7 377.57 802.17 379.12 798.56 C380.5 795.41 382.06 792.94 384.12 790.19 C384.84 787.54 384.84 787.54 385.12 785.19 C386.12 784.86 387.11 784.53 388.12 784.19 C389.16 781.87 390.15 779.53 391.12 777.19 C392.69 775.5 392.69 775.5 394.12 774.19 C394.48 773.49 394.83 772.79 395.19 772.06 C396.12 770.19 396.12 770.19 398.12 769.19 C398.56 768.32 398.99 767.45 399.44 766.56 C402.46 760.52 406.29 755.85 411.19 751.25 C413.17 749.34 413.17 749.34 414.12 747.19 C415.37 744.69 417.17 743.15 419.12 741.19 C419.12 740.53 419.12 739.87 419.12 739.19 C419.71 738.95 420.3 738.72 420.9 738.47 C423.62 736.9 424.85 735.16 426.69 732.62 C430.54 727.61 434.88 723.91 439.9 720.1 C442.37 718.31 442.37 718.31 443.12 715.19 C444.79 714.51 446.45 713.84 448.12 713.19 C448.78 712.2 449.45 711.21 450.12 710.19 C451.12 709.86 452.11 709.53 453.12 709.19 C454.48 707.88 455.81 706.54 457.12 705.19 C467.75 695.98 467.75 695.98 473.12 694.19 C473.78 693.2 474.45 692.21 475.12 691.19 C476.79 690.51 478.45 689.84 480.12 689.19 C480.6 688.71 481.07 688.24 481.56 687.75 C483.77 685.55 486.33 684.53 489.12 683.19 C491.84 681.62 494.42 679.98 497 678.19 C499.36 676.68 501.33 675.61 503.88 674.56 C507.14 673.42 507.14 673.42 509.12 671.19 C511.06 670.43 513.01 669.68 514.96 668.98 C516.97 668.24 518.92 667.43 520.88 666.56 C524.12 665.19 524.12 665.19 526.5 664.62 C527.04 664.48 527.57 664.34 528.12 664.19 C528.46 663.53 528.78 662.87 529.12 662.19 C532.37 661.32 535.63 660.71 538.93 660.07 C542.11 659.19 543.57 658.16 546.12 656.19 C548.63 655.53 548.63 655.53 551.25 655.12 C555.14 654.6 555.14 654.6 558.12 652.19 C561.63 651.48 565.12 650.93 568.65 650.42 C572.17 649.86 574.81 649.35 577.98 647.66 C582.58 645.51 587.11 645.44 592.12 645.12 C598.17 644.72 603.38 644.19 609.12 642.19 C615.53 641.13 621.95 641.03 628.43 641.02 C629.38 641.02 630.34 641.01 631.33 641.01 C633.34 641 635.36 641 637.37 641 C640.42 641 643.47 640.98 646.51 640.96 C670.54 640.89 670.54 640.89 677.12 644.19 C678.63 644.37 680.15 644.51 681.67 644.62 C682.58 644.69 683.49 644.76 684.42 644.84 C686.33 644.99 688.24 645.13 690.14 645.26 C695.78 645.73 699.92 646.87 705.12 649.19 C708.41 649.93 711.72 650.41 715.06 650.88 C715.94 651 716.81 651.13 717.71 651.27 C719.85 651.58 721.99 651.89 724.12 652.19 C724.12 652.85 724.12 653.51 724.12 654.19 C725.35 654.35 725.35 654.35 726.61 654.52 C727.69 654.68 728.76 654.84 729.88 655 C730.94 655.15 732.01 655.3 733.11 655.46 C736.26 656.22 737.61 657.24 740.12 659.19 C742.89 660.11 742.89 660.11 745.81 660.75 C748.76 661.44 748.76 661.44 751.12 662.19 C751.45 662.85 751.78 663.51 752.12 664.19 C754.3 664.99 754.3 664.99 756.88 665.62 C760.74 666.7 763.69 668.1 767.12 670.19 C768.12 669.86 769.11 669.53 770.12 669.19 C770.12 573.16 770.12 477.13 770.12 378.19 C437.48 378.19 104.84 378.19 -237.88 378.19 Z M610.85 700.5 C607.24 701.41 603.91 701.62 600.19 701.75 C594.42 701.95 589.94 702.97 584.66 705.25 C580.65 706.73 576.51 707.02 572.28 707.53 C568.97 708.22 566.97 709.4 564.12 711.19 C561.81 711.81 561.81 711.81 559.56 712.19 C556.1 712.86 556.1 712.86 553.12 714.69 C550.37 716.75 547.61 717.02 544.25 717.56 C541.75 718.3 540.9 719.34 539.12 721.19 C537.08 722.14 537.08 722.14 534.94 722.88 C533.86 723.25 533.86 723.25 532.77 723.64 C532.23 723.82 531.68 724 531.12 724.19 C531.12 724.85 531.12 725.51 531.12 726.19 C530.5 726.3 529.87 726.41 529.23 726.52 C528 726.76 528 726.76 526.75 727 C525.94 727.15 525.13 727.3 524.29 727.46 C521.77 728.06 521.77 728.06 520.12 731.19 C518.15 732.24 516.15 733.24 514.12 734.19 C507.63 737.88 501.32 741.8 496.12 747.19 C494.8 747.87 493.47 748.54 492.12 749.19 C491.1 750.16 490.11 751.17 489.12 752.19 C483.81 756.85 483.81 756.85 481.12 758.19 C480.79 759.18 480.47 760.17 480.12 761.19 C478.8 761.87 477.46 762.53 476.12 763.19 C474.3 764.99 474.3 764.99 472.62 767.06 C470.7 769.34 468.83 771.48 466.69 773.56 C464.89 775.05 464.89 775.05 465.12 777.19 C464.13 777.19 463.14 777.19 462.12 777.19 C461.88 777.76 461.63 778.34 461.38 778.94 C459.53 782.27 456.86 784.52 454.06 787.06 C451.79 789.56 450.6 792.17 449.12 795.19 C448.14 796.2 447.14 797.2 446.12 798.19 C442.73 802.55 439.78 807.17 437.12 812.02 C434.32 817.09 434.32 817.09 432.12 818.19 C431.53 820.49 431.17 822.8 430.79 825.16 C430.57 825.83 430.35 826.5 430.12 827.19 C429.13 827.52 428.14 827.85 427.12 828.19 C426.17 830.26 426.17 830.26 425.56 832.69 C424.87 835.16 424.87 835.16 424.12 837.19 C423.47 837.52 422.8 837.85 422.12 838.19 C421.29 840.7 421.29 840.7 420.62 843.62 C419.34 848.97 419.34 848.97 417.12 851.19 C416.58 852.9 416.11 854.63 415.69 856.38 C414.84 859.68 413.98 862.51 412.56 865.62 C410.83 869.92 410.25 874.04 409.65 878.61 C409.12 881.19 409.12 881.19 407.12 883.19 C406.71 885.2 406.71 885.2 406.6 887.52 C406.53 888.4 406.46 889.28 406.38 890.19 C406.26 892.02 406.13 893.85 406 895.68 C405.6 900.7 404.88 905.33 403.58 910.2 C401.68 918.02 401.67 925.68 401.73 933.69 C401.75 936.18 401.73 938.68 401.71 941.17 C401.7 949.55 402.23 957.12 404.41 965.27 C405.75 970.73 405.94 976.32 406.3 981.92 C406.68 986.92 407.33 989.93 410.12 994.19 C410.77 997.46 411.13 1000.71 411.5 1004.03 C412.16 1007.37 413.33 1009.34 415.12 1012.19 C415.75 1014.5 415.75 1014.5 416.12 1016.75 C416.8 1020.21 416.8 1020.21 418.62 1023.19 C420.69 1025.94 420.96 1028.71 421.5 1032.07 C422.24 1034.56 423.28 1035.41 425.12 1037.19 C426.07 1039.23 426.07 1039.23 426.81 1041.38 C427.06 1042.09 427.32 1042.81 427.57 1043.54 C427.76 1044.09 427.94 1044.63 428.12 1045.19 C428.78 1045.19 429.45 1045.19 430.12 1045.19 C430.23 1045.81 430.34 1046.44 430.46 1047.09 C430.69 1048.31 430.69 1048.31 430.94 1049.56 C431.09 1050.37 431.24 1051.19 431.39 1052.02 C432 1054.55 432 1054.55 435.12 1056.19 C436.18 1058.16 437.17 1060.16 438.12 1062.19 C439.71 1064.92 441.37 1067.56 443.12 1070.19 C443.78 1070.19 444.45 1070.19 445.12 1070.19 C445.37 1071.1 445.62 1072 445.88 1072.94 C447.19 1076.35 448.5 1077.73 451.12 1080.19 C451.81 1081.51 452.48 1082.85 453.12 1084.19 C454.1 1085.21 455.11 1086.21 456.12 1087.19 C460.78 1092.51 460.78 1092.51 462.12 1095.19 C463.12 1095.19 464.11 1095.19 465.12 1095.19 C465.29 1095.87 465.46 1096.55 465.62 1097.25 C467.51 1100.95 469.99 1102.91 473.16 1105.54 C475.12 1107.19 475.12 1107.19 477.5 1109.62 C478.99 1111.42 478.99 1111.42 481.12 1111.19 C481.12 1112.18 481.12 1113.17 481.12 1114.19 C481.99 1114.56 481.99 1114.56 482.88 1114.94 C486.2 1116.79 488.46 1119.45 491 1122.25 C493.5 1124.53 496.09 1125.7 499.12 1127.19 C500.8 1128.52 502.46 1129.85 504.12 1131.19 C504.78 1131.19 505.44 1131.19 506.12 1131.19 C506.62 1132.67 506.62 1132.67 507.12 1134.19 C509.44 1135.22 511.78 1136.22 514.12 1137.19 C515.81 1138.75 515.81 1138.75 517.12 1140.19 C517.83 1140.54 518.53 1140.89 519.25 1141.25 C521.12 1142.19 521.12 1142.19 522.12 1144.19 C524.21 1145.02 524.21 1145.02 526.62 1145.69 C529.09 1146.41 529.09 1146.41 531.12 1147.19 C531.46 1147.85 531.78 1148.51 532.12 1149.19 C534.07 1149.99 534.07 1149.99 536.38 1150.62 C540 1151.76 542.87 1153.22 546.12 1155.19 C548.46 1155.86 550.79 1156.53 553.12 1157.19 C553.78 1157.85 554.44 1158.51 555.12 1159.19 C557.11 1159.75 559.11 1160.24 561.12 1160.69 C566.9 1161.97 566.9 1161.97 569.12 1164.19 C571.05 1164.74 571.05 1164.74 573.26 1165.04 C574.47 1165.23 574.47 1165.23 575.7 1165.43 C576.96 1165.62 576.96 1165.62 578.25 1165.81 C579.1 1165.95 579.95 1166.08 580.82 1166.22 C582.92 1166.55 585.02 1166.87 587.12 1167.19 C587.12 1167.85 587.12 1168.51 587.12 1169.19 C587.69 1169.23 588.26 1169.28 588.85 1169.32 C591.5 1169.54 594.16 1169.77 596.81 1170 C598.15 1170.11 598.15 1170.11 599.52 1170.21 C604.57 1170.66 609.27 1171.44 614.18 1172.74 C621.84 1174.59 629.31 1174.64 637.14 1174.58 C639.56 1174.56 641.97 1174.58 644.38 1174.6 C653 1174.61 660.76 1173.92 669.16 1171.88 C672.88 1171.01 676.31 1170.75 680.12 1170.62 C685.86 1170.42 690.33 1169.39 695.59 1167.12 C699.6 1165.64 703.74 1165.36 707.97 1164.85 C711.28 1164.15 713.28 1162.97 716.12 1161.19 C718.44 1160.56 718.44 1160.56 720.69 1160.19 C724.15 1159.51 724.15 1159.51 727.12 1157.69 C729.88 1155.62 732.64 1155.36 736 1154.81 C738.49 1154.08 739.36 1153.03 741.12 1151.19 C743.46 1150.52 745.79 1149.85 748.12 1149.19 C749.15 1148.21 750.15 1147.21 751.12 1146.19 C753.44 1145.16 755.78 1144.16 758.12 1143.19 C760.85 1141.7 763.16 1140.16 765.56 1138.19 C768.28 1136.07 771.01 1134.64 774.12 1133.19 C774.12 1132.53 774.12 1131.87 774.12 1131.19 C775.03 1130.94 775.94 1130.69 776.88 1130.44 C780.29 1129.12 781.67 1127.81 784.12 1125.19 C785.45 1124.5 786.78 1123.84 788.12 1123.19 C789.15 1122.21 790.14 1121.21 791.12 1120.19 C796.44 1115.53 796.44 1115.53 799.12 1114.19 C799.45 1113.2 799.79 1112.21 800.12 1111.19 C801.45 1110.51 802.79 1109.85 804.12 1109.19 C805.98 1107.32 805.98 1107.32 807.69 1105.19 C809.8 1102.63 811.32 1101.05 814.12 1099.19 C814.45 1098.2 814.79 1097.21 815.12 1096.19 C816.12 1095.86 817.11 1095.53 818.12 1095.19 C818.81 1093.86 819.47 1092.53 820.12 1091.19 C822.06 1089.12 824.09 1087.22 826.19 1085.31 C828.46 1082.82 829.65 1080.21 831.12 1077.19 C832.12 1076.19 833.12 1075.19 834.12 1074.19 C834.29 1073.49 834.45 1072.79 834.62 1072.06 C834.79 1071.44 834.95 1070.83 835.12 1070.19 C836.12 1069.86 837.11 1069.53 838.12 1069.19 C839.18 1067.21 840.17 1065.21 841.12 1063.19 C842.11 1061.84 843.1 1060.51 844.12 1059.19 C846.77 1055.34 848.04 1051.53 849.28 1047.08 C849.56 1046.45 849.84 1045.83 850.12 1045.19 C851.12 1044.86 852.11 1044.53 853.12 1044.19 C854.08 1042.12 854.08 1042.12 854.69 1039.69 C855.38 1037.22 855.38 1037.22 856.12 1035.19 C856.79 1034.86 857.44 1034.53 858.12 1034.19 C858.96 1031.68 858.96 1031.68 859.62 1028.75 C860.91 1023.41 860.91 1023.41 863.12 1021.19 C863.69 1019.2 864.18 1017.2 864.62 1015.19 C865.9 1009.41 865.9 1009.41 868.12 1007.19 C868.7 1004.54 869.2 1001.93 869.62 999.25 C870.86 991.59 870.86 991.59 873.12 988.19 C874.49 983.08 874.43 977.82 874.65 972.56 C874.91 969.02 875.73 965.8 876.64 962.38 C878.54 954.47 878.58 946.77 878.52 938.69 C878.5 936.19 878.52 933.7 878.54 931.2 C878.55 922.76 878 915.13 875.82 906.91 C874.9 903.3 874.69 899.97 874.56 896.25 C874.36 890.49 873.34 886 871.06 880.72 C869.58 876.71 869.29 872.57 868.79 868.34 C868.09 865.03 866.91 863.03 865.12 860.19 C864.5 857.87 864.5 857.87 864.12 855.62 C863.45 852.16 863.45 852.16 861.62 849.19 C859.56 846.43 859.29 843.67 858.75 840.31 C858.01 837.81 856.97 836.97 855.12 835.19 C854.18 833.14 854.18 833.14 853.44 831 C853.19 830.28 852.93 829.57 852.68 828.83 C852.4 828.02 852.4 828.02 852.12 827.19 C851.46 827.19 850.81 827.19 850.12 827.19 C850.02 826.56 849.91 825.93 849.79 825.29 C849.63 824.47 849.48 823.65 849.31 822.81 C849.09 821.59 849.09 821.59 848.86 820.35 C848.25 817.83 848.25 817.83 845.12 816.19 C844.07 814.21 843.08 812.21 842.12 810.19 C840.54 807.45 838.88 804.82 837.12 802.19 C836.46 802.19 835.81 802.19 835.12 802.19 C834.88 801.28 834.63 800.37 834.38 799.44 C833.06 796.02 831.75 794.65 829.12 792.19 C828.44 790.86 827.77 789.53 827.12 788.19 C826.15 787.16 825.14 786.17 824.12 785.19 C819.47 779.87 819.47 779.87 818.12 777.19 C817.13 777.19 816.14 777.19 815.12 777.19 C814.96 776.51 814.8 775.83 814.62 775.12 C812.76 771.47 810.35 769.62 807.22 767.03 C804.68 764.79 802.62 762.33 800.55 759.67 C798.9 757.95 797.27 757.19 795.12 756.19 C793.06 754.25 791.15 752.22 789.25 750.12 C786.75 747.85 784.15 746.67 781.12 745.19 C780.12 744.19 779.12 743.19 778.12 742.19 C777.42 742.02 776.72 741.86 776 741.69 C775.38 741.52 774.76 741.36 774.12 741.19 C773.8 740.2 773.46 739.21 773.12 738.19 C771.15 737.14 769.15 736.14 767.12 735.19 C765.78 734.2 764.45 733.2 763.12 732.19 C762.4 731.84 761.68 731.49 760.94 731.12 C759.12 730.19 759.12 730.19 758.12 728.19 C755.82 727.59 753.51 727.23 751.16 726.85 C750.49 726.63 749.82 726.41 749.12 726.19 C748.8 725.2 748.46 724.21 748.12 723.19 C746.06 722.24 746.06 722.24 743.62 721.62 C741.16 720.93 741.16 720.93 739.12 720.19 C738.8 719.53 738.46 718.87 738.12 718.19 C735.62 717.35 735.62 717.35 732.69 716.69 C727.34 715.41 727.34 715.41 725.12 713.19 C723.41 712.65 721.68 712.18 719.94 711.75 C716.62 710.9 713.76 710.03 710.62 708.62 C706.6 706.97 702.77 706.34 698.48 705.71 C696.12 705.19 696.12 705.19 694.12 703.19 C688.39 701.89 682.54 701.89 676.68 701.66 C673.07 701.41 669.79 700.6 666.29 699.67 C658.39 697.77 650.7 697.73 642.62 697.8 C640.13 697.81 637.64 697.8 635.14 697.78 C626.7 697.77 619.06 698.31 610.85 700.5 Z " fill="#000000" transform="translate(319.875,23.8125)"/>
<path d="M0 0 C1.33 -0.01 2.67 -0.01 4 -0.02 C6.79 -0.03 9.58 -0.04 12.36 -0.03 C15.91 -0.03 19.46 -0.06 23.01 -0.1 C25.76 -0.12 28.51 -0.12 31.26 -0.12 C33.2 -0.12 35.14 -0.15 37.07 -0.17 C43.81 -0.13 49.11 0.49 55.23 3.37 C57.28 4.32 59.2 4.88 61.39 5.4 C62.36 5.71 63.33 6.02 64.32 6.34 C64.65 7.33 64.98 8.32 65.32 9.34 C66.62 9.43 66.62 9.43 67.95 9.52 C72.04 10.51 74.37 12.49 77.32 15.34 C78.19 16.16 79.06 16.99 79.95 17.84 C82.24 20.24 84.29 22.71 86.32 25.34 C87 26.12 87.69 26.9 88.39 27.71 C90.63 30.75 91.9 33.84 93.32 37.34 C93.98 38.33 94.64 39.32 95.32 40.34 C95.92 43.11 96.44 45.85 96.89 48.65 C97.01 49.4 97.14 50.14 97.27 50.91 C97.63 53.05 97.98 55.19 98.32 57.34 C98.5 58.23 98.67 59.12 98.85 60.03 C99.44 64.17 99.51 68.22 99.53 72.4 C99.53 73.27 99.54 74.14 99.54 75.03 C99.55 76.87 99.56 78.7 99.56 80.54 C99.57 83.3 99.61 86.06 99.64 88.82 C99.7 99.14 98.97 108.32 96.32 118.34 C95.98 120.02 95.64 121.71 95.32 123.4 C94.56 126.85 93.3 129.38 91.32 132.34 C90.99 133.2 90.66 134.07 90.32 134.96 C89.26 137.48 88.26 138.46 86.32 140.34 C85.21 141.62 84.11 142.91 83.01 144.21 C80 147.67 76.93 150.51 73.32 153.34 C72.52 154.04 71.72 154.74 70.89 155.46 C67.87 157.67 64.78 158.93 61.32 160.34 C60.33 161 59.34 161.66 58.32 162.34 C55.51 162.93 52.73 163.45 49.89 163.9 C48.37 164.15 46.85 164.4 45.33 164.65 C44.66 164.76 43.98 164.87 43.29 164.98 C41.33 165.31 41.33 165.31 39.46 165.85 C37.31 166.34 35.43 166.47 33.23 166.48 C32.44 166.49 31.64 166.49 30.83 166.5 C29.97 166.5 29.12 166.5 28.25 166.5 C26.92 166.51 26.92 166.51 25.56 166.51 C23.69 166.52 21.82 166.52 19.94 166.52 C17.1 166.52 14.25 166.54 11.41 166.56 C9.58 166.56 7.76 166.57 5.93 166.57 C5.09 166.57 4.25 166.58 3.38 166.59 C-1.98 166.57 -6.51 165.78 -11.68 164.34 C-15.48 163.85 -19.28 163.46 -23.09 163.09 C-27.09 162.25 -29.41 160.75 -32.68 158.34 C-33.85 157.9 -33.85 157.9 -35.05 157.46 C-39.01 155.76 -42.49 153.24 -45.68 150.34 C-45.68 149.68 -45.68 149.02 -45.68 148.34 C-46.42 148.13 -47.16 147.92 -47.93 147.71 C-51.53 145.91 -52.65 143.78 -54.68 140.34 C-55.54 139.01 -55.54 139.01 -56.43 137.65 C-57.68 135.34 -57.68 135.34 -57.68 132.34 C-58.67 132.01 -59.66 131.68 -60.68 131.34 C-61.52 129.08 -61.52 129.08 -62.18 126.21 C-62.92 123.01 -63.63 120.41 -65.21 117.51 C-67.66 111.81 -67.08 105.61 -67.04 99.52 C-67.04 98.18 -67.04 96.83 -67.04 95.49 C-67.04 92.68 -67.03 89.88 -67.01 87.08 C-66.99 83.49 -66.99 79.91 -67 76.33 C-67 73.56 -66.99 70.79 -66.98 68.02 C-66.98 66.06 -66.98 64.1 -66.98 62.14 C-66.97 60.94 -66.96 59.74 -66.95 58.51 C-66.95 57.46 -66.94 56.41 -66.94 55.33 C-66.65 52.08 -65.82 49.38 -64.68 46.34 C-64.02 46.34 -63.36 46.34 -62.68 46.34 C-62.64 45.65 -62.6 44.96 -62.56 44.25 C-62.5 43.35 -62.43 42.45 -62.36 41.52 C-62.31 40.63 -62.25 39.74 -62.19 38.82 C-61.6 35.95 -60.8 35.25 -58.68 33.34 C-58.18 32.16 -57.69 30.98 -57.18 29.77 C-55.68 26.34 -55.68 26.34 -52.68 24.34 C-52.24 23.44 -52.24 23.44 -51.8 22.52 C-49.73 18.51 -46.95 15.76 -42.68 14.34 C-42.26 13.72 -41.85 13.1 -41.43 12.46 C-39 9.52 -36.17 8.73 -32.68 7.34 C-32.02 6.68 -31.36 6.02 -30.68 5.34 C-28.29 4.92 -28.29 4.92 -25.55 4.71 C-24.64 4.64 -23.73 4.56 -22.79 4.48 C-22.09 4.44 -21.4 4.39 -20.68 4.34 C-20.68 3.68 -20.68 3.02 -20.68 2.34 C-13.88 -0.18 -7.18 0.01 0 0 Z M-8.68 60.34 C-8.97 62.36 -8.97 62.36 -8.9 64.69 C-8.9 65.59 -8.9 66.5 -8.9 67.42 C-8.89 68.4 -8.88 69.37 -8.87 70.38 C-8.87 71.37 -8.87 72.37 -8.86 73.39 C-8.85 76.58 -8.83 79.77 -8.8 82.96 C-8.79 85.12 -8.78 87.28 -8.77 89.44 C-8.75 94.74 -8.72 100.04 -8.68 105.34 C-5.92 106.25 -4.26 106.47 -1.42 106.48 C-0.57 106.49 0.29 106.49 1.17 106.5 C2.55 106.5 2.55 106.5 3.95 106.5 C4.9 106.51 5.84 106.51 6.82 106.51 C8.82 106.52 10.81 106.52 12.81 106.52 C15.88 106.52 18.94 106.54 22.01 106.56 C23.95 106.56 25.89 106.57 27.83 106.57 C29.21 106.58 29.21 106.58 30.62 106.59 C31.9 106.58 31.9 106.58 33.2 106.58 C33.95 106.58 34.7 106.58 35.47 106.58 C37.57 106.49 37.57 106.49 39.32 104.34 C39.62 102.42 39.62 102.42 39.57 100.21 C39.57 99.36 39.57 98.51 39.58 97.63 C39.57 96.71 39.56 95.79 39.55 94.84 C39.55 93.9 39.55 92.95 39.55 91.98 C39.55 89.98 39.54 87.98 39.53 85.98 C39.51 82.91 39.51 79.85 39.51 76.79 C39.5 74.85 39.5 72.91 39.49 70.96 C39.49 70.05 39.49 69.13 39.49 68.18 C39.48 67.33 39.48 66.47 39.47 65.59 C39.47 64.84 39.46 64.09 39.46 63.32 C39.39 61.12 39.39 61.12 38.32 58.34 C31.95 58.29 25.58 58.25 19.21 58.23 C17.04 58.22 14.87 58.2 12.7 58.19 C9.59 58.16 6.48 58.15 3.36 58.14 C2.39 58.13 1.42 58.12 0.41 58.11 C-0.49 58.11 -1.39 58.11 -2.32 58.11 C-3.11 58.1 -3.91 58.1 -4.73 58.1 C-6.91 58.16 -6.91 58.16 -8.68 60.34 Z " fill="#000000" transform="translate(250.67578125,663.6640625)"/>
<path d="M0 0 C0.86 -0 1.72 -0.01 2.61 -0.01 C4.42 -0.02 6.24 -0.02 8.06 -0.01 C10.78 -0.01 13.5 -0.04 16.22 -0.06 C50.69 -0.19 50.69 -0.19 60.95 8.3 C61.71 8.59 62.48 8.89 63.28 9.19 C69.71 11.87 75.27 17.23 79.95 22.3 C80.4 22.77 80.85 23.24 81.32 23.73 C84.43 27.15 85.62 29.7 85.95 34.3 C86.94 34.63 87.93 34.96 88.95 35.3 C89.79 37.56 89.79 37.56 90.45 40.43 C91.19 43.63 91.91 46.23 93.48 49.14 C95.91 54.77 95.35 60.88 95.31 66.9 C95.31 68.86 95.31 68.86 95.31 70.86 C95.31 73.62 95.3 76.38 95.28 79.13 C95.26 82.66 95.26 86.18 95.27 89.7 C95.27 93.08 95.26 96.46 95.25 99.84 C95.25 101.1 95.25 102.35 95.25 103.65 C95.24 104.83 95.23 106.01 95.22 107.22 C95.22 108.25 95.21 109.29 95.21 110.35 C94.92 113.6 94.08 116.25 92.95 119.3 C92.62 120.29 92.29 121.28 91.95 122.3 C91.62 123.29 91.29 124.28 90.95 125.3 C90.64 126.31 90.33 127.32 90.01 128.36 C88.94 131.31 87.63 133.67 85.95 136.3 C85.17 137.66 85.17 137.66 84.38 139.05 C82.95 141.3 82.95 141.3 80.95 142.3 C80.68 142.88 80.41 143.46 80.13 144.05 C78.01 148.08 75.26 150.86 70.95 152.3 C70.53 152.92 70.12 153.54 69.7 154.18 C67.27 157.12 64.44 157.9 60.95 159.3 C60.29 159.96 59.63 160.62 58.95 161.3 C56.4 161.92 53.85 162.32 51.26 162.74 C48.77 163.13 48.77 163.13 46.95 165.3 C43.3 166.29 39.81 166.44 36.04 166.48 C34.88 166.49 33.71 166.5 32.51 166.52 C30.63 166.53 30.63 166.53 28.72 166.54 C27.42 166.55 26.12 166.56 24.78 166.56 C22.03 166.58 19.29 166.59 16.54 166.6 C13.04 166.61 9.55 166.64 6.06 166.68 C2.7 166.71 -0.67 166.72 -4.03 166.73 C-5.27 166.74 -6.51 166.76 -7.79 166.78 C-14.74 166.76 -20.31 165.96 -26.74 163.26 C-28.88 162.37 -30.93 161.78 -33.18 161.24 C-34.13 160.93 -35.08 160.62 -36.05 160.3 C-36.38 159.31 -36.71 158.32 -37.05 157.3 C-37.92 157.24 -38.79 157.18 -39.68 157.11 C-43.77 156.13 -46.1 154.15 -49.05 151.3 C-49.92 150.48 -50.79 149.65 -51.68 148.8 C-53.97 146.39 -56.02 143.92 -58.05 141.3 C-59.08 140.13 -59.08 140.13 -60.12 138.93 C-62.36 135.88 -63.63 132.79 -65.05 129.3 C-65.71 128.31 -66.37 127.32 -67.05 126.3 C-67.65 123.52 -68.17 120.79 -68.62 117.99 C-68.74 117.24 -68.87 116.49 -69 115.72 C-69.36 113.58 -69.71 111.44 -70.05 109.3 C-70.23 108.41 -70.4 107.52 -70.58 106.6 C-71.17 102.46 -71.24 98.42 -71.26 94.24 C-71.26 93.37 -71.27 92.5 -71.28 91.61 C-71.28 89.77 -71.29 87.94 -71.29 86.1 C-71.3 83.34 -71.34 80.58 -71.37 77.81 C-71.43 67.5 -70.7 58.32 -68.05 48.3 C-67.71 46.62 -67.37 44.93 -67.05 43.24 C-66.29 39.79 -65.03 37.26 -63.05 34.3 C-62.72 33.43 -62.39 32.57 -62.05 31.68 C-60.99 29.16 -59.99 28.18 -58.05 26.3 C-56.94 25.01 -55.84 23.72 -54.74 22.43 C-51.73 18.96 -48.66 16.13 -45.05 13.3 C-43.85 12.25 -43.85 12.25 -42.62 11.18 C-39.6 8.97 -36.51 7.71 -33.05 6.3 C-32.06 5.64 -31.07 4.98 -30.05 4.3 C-27.82 3.9 -25.56 3.57 -23.3 3.3 C-19.68 2.86 -16.37 2.4 -12.89 1.28 C-8.48 0.15 -4.53 -0.01 0 0 Z M-11.05 62.3 C-11.35 64.22 -11.35 64.22 -11.3 66.43 C-11.3 67.28 -11.3 68.13 -11.31 69.01 C-11.3 69.93 -11.29 70.85 -11.29 71.8 C-11.28 72.74 -11.28 73.69 -11.28 74.66 C-11.28 76.66 -11.27 78.66 -11.26 80.66 C-11.24 83.72 -11.24 86.79 -11.24 89.85 C-11.24 91.79 -11.23 93.73 -11.22 95.67 C-11.22 96.59 -11.22 97.51 -11.22 98.46 C-11.21 99.31 -11.21 100.16 -11.2 101.04 C-11.2 101.8 -11.19 102.55 -11.19 103.32 C-11.12 105.51 -11.12 105.51 -10.05 108.3 C-3.68 108.35 2.69 108.39 9.06 108.41 C11.23 108.42 13.4 108.43 15.57 108.45 C18.68 108.48 21.79 108.49 24.91 108.5 C25.88 108.51 26.85 108.52 27.86 108.53 C28.76 108.53 29.66 108.53 30.59 108.53 C31.38 108.53 32.18 108.54 33 108.54 C35.18 108.47 35.18 108.47 36.95 106.3 C37.24 104.28 37.24 104.28 37.17 101.94 C37.17 100.59 37.17 100.59 37.17 99.21 C37.16 98.24 37.15 97.27 37.14 96.26 C37.14 94.77 37.14 94.77 37.13 93.24 C37.12 90.05 37.1 86.87 37.07 83.68 C37.06 81.52 37.05 79.36 37.04 77.2 C37.02 71.9 36.99 66.6 36.95 61.3 C34.19 60.38 32.53 60.17 29.69 60.16 C28.83 60.15 27.98 60.14 27.1 60.14 C25.72 60.13 25.72 60.13 24.32 60.13 C23.37 60.13 22.43 60.13 21.45 60.12 C19.45 60.12 17.46 60.12 15.46 60.12 C12.39 60.11 9.33 60.1 6.26 60.08 C4.32 60.07 2.38 60.07 0.44 60.07 C-0.48 60.06 -1.4 60.06 -2.35 60.05 C-3.2 60.05 -4.05 60.05 -4.93 60.06 C-5.68 60.06 -6.43 60.06 -7.2 60.05 C-9.3 60.14 -9.3 60.14 -11.05 62.3 Z " fill="#000000" transform="translate(681.0546875,449.69921875)"/>
<path d="M0 0 C1.3 -0.01 1.3 -0.01 2.63 -0.02 C4.47 -0.03 6.3 -0.03 8.14 -0.04 C10.9 -0.05 13.66 -0.08 16.43 -0.11 C26.74 -0.17 35.92 0.56 45.94 3.2 C47.62 3.55 49.31 3.88 51 4.2 C54.45 4.97 56.98 6.23 59.94 8.2 C60.8 8.53 61.67 8.86 62.56 9.2 C65.08 10.26 66.06 11.27 67.94 13.2 C69.22 14.31 70.52 15.42 71.81 16.52 C75.27 19.53 78.11 22.59 80.94 26.2 C81.64 27.01 82.34 27.81 83.06 28.64 C85.27 31.66 86.53 34.75 87.94 38.2 C88.6 39.19 89.26 40.18 89.94 41.2 C90.34 43.44 90.67 45.69 90.94 47.95 C91.38 51.57 91.83 54.87 92.96 58.34 C94.11 62.87 94.23 66.93 94.2 71.57 C94.21 72.46 94.21 73.34 94.21 74.24 C94.21 76.1 94.21 77.95 94.2 79.81 C94.19 82.63 94.2 85.45 94.21 88.27 C94.21 90.08 94.21 91.89 94.2 93.7 C94.21 94.53 94.21 95.37 94.22 96.23 C94.17 101.55 93.36 106.07 91.94 111.2 C91.45 115 91.06 118.8 90.7 122.62 C89.84 126.64 88.32 128.89 85.94 132.2 C85.27 133.87 84.6 135.54 83.94 137.2 C80.47 142.31 76.47 147.02 71.94 151.2 C71.47 151.66 70.99 152.11 70.51 152.58 C67.09 155.69 64.54 156.87 59.94 157.2 C59.61 158.19 59.28 159.18 58.94 160.2 C56.68 161.05 56.68 161.05 53.81 161.7 C50.61 162.45 48.01 163.17 45.1 164.73 C39.46 167.17 33.36 166.61 27.34 166.57 C25.38 166.57 25.38 166.57 23.38 166.57 C20.62 166.57 17.86 166.56 15.1 166.54 C11.58 166.52 8.06 166.52 4.54 166.52 C1.16 166.53 -2.22 166.51 -5.6 166.5 C-6.86 166.5 -8.12 166.51 -9.41 166.51 C-10.59 166.5 -11.77 166.49 -12.98 166.48 C-14.02 166.47 -15.05 166.47 -16.11 166.46 C-19.36 166.18 -22.01 165.34 -25.06 164.2 C-26.05 163.87 -27.04 163.54 -28.06 163.2 C-29.05 162.87 -30.04 162.54 -31.06 162.2 C-32.07 161.89 -33.08 161.58 -34.12 161.27 C-37.07 160.2 -39.43 158.89 -42.06 157.2 C-42.97 156.69 -43.88 156.17 -44.81 155.64 C-47.06 154.2 -47.06 154.2 -48.06 152.2 C-48.64 151.93 -49.22 151.67 -49.81 151.39 C-53.84 149.27 -56.62 146.52 -58.06 142.2 C-58.68 141.79 -59.3 141.38 -59.94 140.95 C-62.88 138.53 -63.66 135.7 -65.06 132.2 C-65.72 131.54 -66.38 130.88 -67.06 130.2 C-67.68 127.66 -68.08 125.1 -68.5 122.52 C-68.89 120.03 -68.89 120.03 -71.06 118.2 C-72.05 114.56 -72.2 111.07 -72.24 107.3 C-72.25 106.14 -72.27 104.97 -72.28 103.77 C-72.29 102.52 -72.29 101.27 -72.3 99.98 C-72.31 98.68 -72.32 97.38 -72.33 96.04 C-72.34 93.29 -72.35 90.54 -72.36 87.8 C-72.37 84.3 -72.4 80.81 -72.44 77.32 C-72.48 73.95 -72.48 70.59 -72.49 67.23 C-72.51 65.99 -72.52 64.75 -72.54 63.47 C-72.52 56.52 -71.72 50.95 -69.03 44.52 C-68.13 42.38 -67.54 40.33 -67 38.08 C-66.69 37.13 -66.38 36.18 -66.06 35.2 C-64.58 34.71 -64.58 34.71 -63.06 34.2 C-63 33.34 -62.94 32.47 -62.88 31.58 C-61.86 27.35 -60.01 25.36 -57.06 22.2 C-56.34 21.42 -55.62 20.64 -54.88 19.83 C-53.06 18.2 -53.06 18.2 -51.06 18.2 C-50.73 17.21 -50.4 16.22 -50.06 15.2 C-45.61 11.03 -40.69 8.41 -35.06 6.2 C-34.07 5.54 -33.08 4.88 -32.06 4.2 C-29.29 3.61 -26.55 3.09 -23.75 2.64 C-22.63 2.45 -22.63 2.45 -21.49 2.26 C-20.08 2.02 -18.67 1.79 -17.26 1.56 C-15.62 1.29 -13.99 0.99 -12.37 0.67 C-8.23 0.08 -4.18 0.02 0 0 Z M-14.06 61.2 C-14.11 67.58 -14.15 73.95 -14.17 80.32 C-14.18 82.49 -14.2 84.66 -14.21 86.83 C-14.24 89.94 -14.25 93.05 -14.26 96.16 C-14.27 97.14 -14.28 98.11 -14.29 99.12 C-14.29 100.02 -14.29 100.92 -14.29 101.85 C-14.29 102.64 -14.3 103.44 -14.3 104.25 C-14.24 106.44 -14.24 106.44 -12.06 108.2 C-10.04 108.49 -10.04 108.49 -7.7 108.43 C-6.8 108.43 -5.9 108.43 -4.97 108.43 C-4 108.42 -3.03 108.41 -2.02 108.4 C-0.53 108.39 -0.53 108.39 0.99 108.39 C4.18 108.38 7.37 108.35 10.56 108.33 C12.72 108.32 14.88 108.31 17.04 108.3 C22.34 108.28 27.64 108.25 32.94 108.2 C33.86 105.45 34.07 103.79 34.08 100.95 C34.09 100.09 34.1 99.24 34.1 98.36 C34.1 97.44 34.1 96.52 34.11 95.57 C34.11 94.63 34.11 93.68 34.12 92.71 C34.12 90.71 34.12 88.71 34.12 86.72 C34.12 83.65 34.14 80.58 34.16 77.52 C34.17 75.58 34.17 73.64 34.17 71.7 C34.18 70.78 34.18 69.86 34.19 68.91 C34.19 67.63 34.19 67.63 34.18 66.33 C34.18 65.58 34.18 64.83 34.18 64.06 C34.1 61.96 34.1 61.96 31.94 60.2 C30.02 59.91 30.02 59.91 27.81 59.96 C26.96 59.96 26.11 59.95 25.23 59.95 C23.85 59.96 23.85 59.96 22.44 59.97 C21.5 59.97 20.55 59.97 19.58 59.97 C17.58 59.98 15.58 59.98 13.58 60 C10.52 60.02 7.45 60.02 4.39 60.02 C2.45 60.02 0.51 60.03 -1.43 60.04 C-2.35 60.04 -3.27 60.04 -4.22 60.04 C-5.5 60.05 -5.5 60.05 -6.81 60.06 C-7.93 60.06 -7.93 60.06 -9.08 60.07 C-11.27 60.13 -11.27 60.13 -14.06 61.2 Z " fill="#000000" transform="translate(896.0625,449.796875)"/>
<path d="M0 0 C1.3 -0.01 1.3 -0.01 2.63 -0.02 C4.47 -0.03 6.3 -0.03 8.14 -0.04 C10.9 -0.05 13.66 -0.08 16.43 -0.11 C26.74 -0.17 35.92 0.56 45.94 3.2 C47.62 3.55 49.31 3.88 51 4.2 C54.45 4.97 56.98 6.23 59.94 8.2 C60.8 8.53 61.67 8.86 62.56 9.2 C65.08 10.26 66.06 11.27 67.94 13.2 C69.22 14.31 70.52 15.42 71.81 16.52 C75.27 19.53 78.11 22.59 80.94 26.2 C81.64 27.01 82.34 27.81 83.06 28.64 C85.27 31.66 86.53 34.75 87.94 38.2 C88.6 39.19 89.26 40.18 89.94 41.2 C90.34 43.44 90.67 45.69 90.94 47.95 C91.38 51.57 91.83 54.87 92.96 58.34 C94.11 62.87 94.23 66.93 94.2 71.57 C94.21 72.46 94.21 73.34 94.21 74.24 C94.21 76.1 94.21 77.95 94.2 79.81 C94.19 82.63 94.2 85.45 94.21 88.27 C94.21 90.08 94.21 91.89 94.2 93.7 C94.21 94.53 94.21 95.37 94.22 96.23 C94.17 101.55 93.36 106.07 91.94 111.2 C91.45 115 91.06 118.8 90.7 122.62 C89.84 126.64 88.32 128.89 85.94 132.2 C85.27 133.87 84.6 135.54 83.94 137.2 C80.47 142.31 76.47 147.02 71.94 151.2 C71.47 151.66 70.99 152.11 70.51 152.58 C67.09 155.69 64.54 156.87 59.94 157.2 C59.61 158.19 59.28 159.18 58.94 160.2 C56.68 161.05 56.68 161.05 53.81 161.7 C50.61 162.45 48.01 163.17 45.1 164.73 C39.46 167.17 33.36 166.61 27.34 166.57 C25.38 166.57 25.38 166.57 23.38 166.57 C20.62 166.57 17.86 166.56 15.1 166.54 C11.58 166.52 8.06 166.52 4.54 166.52 C1.16 166.53 -2.22 166.51 -5.6 166.5 C-6.86 166.5 -8.12 166.51 -9.41 166.51 C-10.59 166.5 -11.77 166.49 -12.98 166.48 C-14.02 166.47 -15.05 166.47 -16.11 166.46 C-19.36 166.18 -22.01 165.34 -25.06 164.2 C-26.05 163.87 -27.04 163.54 -28.06 163.2 C-29.05 162.87 -30.04 162.54 -31.06 162.2 C-32.07 161.89 -33.08 161.58 -34.12 161.27 C-37.07 160.2 -39.43 158.89 -42.06 157.2 C-42.97 156.69 -43.88 156.17 -44.81 155.64 C-47.06 154.2 -47.06 154.2 -48.06 152.2 C-48.64 151.93 -49.22 151.67 -49.81 151.39 C-53.84 149.27 -56.62 146.52 -58.06 142.2 C-58.68 141.79 -59.3 141.38 -59.94 140.95 C-62.88 138.53 -63.66 135.7 -65.06 132.2 C-65.72 131.54 -66.38 130.88 -67.06 130.2 C-67.68 127.66 -68.08 125.1 -68.5 122.52 C-68.89 120.03 -68.89 120.03 -71.06 118.2 C-72.05 114.56 -72.2 111.07 -72.24 107.3 C-72.25 106.14 -72.27 104.97 -72.28 103.77 C-72.29 102.52 -72.29 101.27 -72.3 99.98 C-72.31 98.68 -72.32 97.38 -72.33 96.04 C-72.34 93.29 -72.35 90.54 -72.36 87.8 C-72.37 84.3 -72.4 80.81 -72.44 77.32 C-72.48 73.95 -72.48 70.59 -72.49 67.23 C-72.51 65.99 -72.52 64.75 -72.54 63.47 C-72.52 56.52 -71.72 50.95 -69.03 44.52 C-68.13 42.38 -67.54 40.33 -67 38.08 C-66.69 37.13 -66.38 36.18 -66.06 35.2 C-64.58 34.71 -64.58 34.71 -63.06 34.2 C-63 33.34 -62.94 32.47 -62.88 31.58 C-61.86 27.35 -60.01 25.36 -57.06 22.2 C-56.34 21.42 -55.62 20.64 -54.88 19.83 C-53.06 18.2 -53.06 18.2 -51.06 18.2 C-50.73 17.21 -50.4 16.22 -50.06 15.2 C-45.61 11.03 -40.69 8.41 -35.06 6.2 C-34.07 5.54 -33.08 4.88 -32.06 4.2 C-29.29 3.61 -26.55 3.09 -23.75 2.64 C-22.63 2.45 -22.63 2.45 -21.49 2.26 C-20.08 2.02 -18.67 1.79 -17.26 1.56 C-15.62 1.29 -13.99 0.99 -12.37 0.67 C-8.23 0.08 -4.18 0.02 0 0 Z M-14.06 61.2 C-14.11 67.58 -14.15 73.95 -14.17 80.32 C-14.18 82.49 -14.2 84.66 -14.21 86.83 C-14.24 89.94 -14.25 93.05 -14.26 96.16 C-14.27 97.14 -14.28 98.11 -14.29 99.12 C-14.29 100.02 -14.29 100.92 -14.29 101.85 C-14.29 102.64 -14.3 103.44 -14.3 104.25 C-14.24 106.44 -14.24 106.44 -12.06 108.2 C-10.04 108.49 -10.04 108.49 -7.7 108.43 C-6.8 108.43 -5.9 108.43 -4.97 108.43 C-4 108.42 -3.03 108.41 -2.02 108.4 C-0.53 108.39 -0.53 108.39 0.99 108.39 C4.18 108.38 7.37 108.35 10.56 108.33 C12.72 108.32 14.88 108.31 17.04 108.3 C22.34 108.28 27.64 108.25 32.94 108.2 C33.86 105.45 34.07 103.79 34.08 100.95 C34.09 100.09 34.1 99.24 34.1 98.36 C34.1 97.44 34.1 96.52 34.11 95.57 C34.11 94.63 34.11 93.68 34.12 92.71 C34.12 90.71 34.12 88.71 34.12 86.72 C34.12 83.65 34.14 80.58 34.16 77.52 C34.17 75.58 34.17 73.64 34.17 71.7 C34.18 70.78 34.18 69.86 34.19 68.91 C34.19 67.63 34.19 67.63 34.18 66.33 C34.18 65.58 34.18 64.83 34.18 64.06 C34.1 61.96 34.1 61.96 31.94 60.2 C30.02 59.91 30.02 59.91 27.81 59.96 C26.96 59.96 26.11 59.95 25.23 59.95 C23.85 59.96 23.85 59.96 22.44 59.97 C21.5 59.97 20.55 59.97 19.58 59.97 C17.58 59.98 15.58 59.98 13.58 60 C10.52 60.02 7.45 60.02 4.39 60.02 C2.45 60.02 0.51 60.03 -1.43 60.04 C-2.35 60.04 -3.27 60.04 -4.22 60.04 C-5.5 60.05 -5.5 60.05 -6.81 60.06 C-7.93 60.06 -7.93 60.06 -9.08 60.07 C-11.27 60.13 -11.27 60.13 -14.06 61.2 Z " fill="#000000" transform="translate(256.0625,449.796875)"/>
<path d="M0 0 C2.88 0.01 5.76 0 8.64 -0.01 C16.89 -0.01 25.14 0.03 33.38 0.45 C35.08 0.54 35.08 0.54 36.82 0.62 C40.12 1.18 42.07 2.28 44.82 4.13 C46.36 4.72 47.93 5.27 49.51 5.76 C51.72 6.45 53.74 7.09 55.82 8.13 C55.82 8.79 55.82 9.45 55.82 10.13 C57.8 10.79 59.78 11.45 61.82 12.13 C61.82 13.12 61.82 14.11 61.82 15.13 C62.54 15.36 63.26 15.58 64.01 15.82 C69.19 18.24 72.11 22.21 74.82 27.13 C75.37 27.98 75.93 28.82 76.51 29.69 C77.82 32.13 77.82 32.13 77.82 36.13 C78.81 36.46 79.8 36.79 80.82 37.13 C81.68 40.15 82.27 43.04 82.82 46.13 C83.18 47.91 83.18 47.91 83.56 49.72 C85.57 59.77 86.29 69.47 86.21 79.71 C86.19 82.13 86.21 84.54 86.23 86.96 C86.24 97.65 84.98 107.67 82.82 118.13 C82.55 119.62 82.55 119.62 82.28 121.14 C81.82 123.63 81.82 123.63 80.82 127.13 C79.83 127.46 78.84 127.79 77.82 128.13 C77.74 129.2 77.65 130.28 77.57 131.38 C76.74 135.52 75.89 136.43 72.82 139.13 C72.52 139.76 72.22 140.39 71.91 141.04 C70.68 143.4 69.35 144.67 67.32 146.38 C66.71 146.9 66.1 147.42 65.47 147.96 C63.82 149.13 63.82 149.13 61.82 149.13 C61.45 150.09 61.45 150.09 61.07 151.07 C59.82 153.13 59.82 153.13 57.69 153.88 C57.07 153.96 56.46 154.05 55.82 154.13 C55.82 154.79 55.82 155.45 55.82 156.13 C53.17 157.89 51.35 158.71 48.38 159.63 C46.13 160.33 44.11 160.96 42.08 162.14 C32.05 166.54 16.53 164.28 5.77 164.26 C2.89 164.26 0.01 164.26 -2.87 164.27 C-35 164.28 -35 164.28 -43.18 159.13 C-44.19 158.64 -45.2 158.14 -46.24 157.63 C-49.63 155.9 -52.9 154.04 -56.18 152.13 C-56.18 151.14 -56.18 150.15 -56.18 149.13 C-56.77 149.02 -57.37 148.92 -57.98 148.81 C-60.49 148.04 -61.6 147.11 -63.43 145.26 C-63.95 144.74 -64.47 144.23 -65.01 143.7 C-66.18 142.13 -66.18 142.13 -66.18 139.13 C-66.78 138.92 -67.38 138.72 -67.99 138.51 C-71.06 136.58 -71.75 134.43 -73.18 131.13 C-73.96 129.4 -73.96 129.4 -74.74 127.63 C-76.03 124.49 -77.15 121.36 -78.18 118.13 C-78.53 117.21 -78.87 116.28 -79.22 115.33 C-80.21 112.05 -80.44 109.45 -80.44 106.04 C-80.45 104.86 -80.45 103.67 -80.46 102.46 C-80.46 101.19 -80.45 99.93 -80.45 98.63 C-80.45 97.32 -80.45 96.01 -80.45 94.66 C-80.46 91.9 -80.45 89.14 -80.44 86.37 C-80.43 82.84 -80.44 79.31 -80.45 75.78 C-80.46 72.4 -80.45 69.01 -80.45 65.63 C-80.45 63.74 -80.45 63.74 -80.46 61.8 C-80.45 60.62 -80.45 59.44 -80.44 58.22 C-80.44 57.19 -80.44 56.16 -80.44 55.09 C-80.16 51.84 -79.32 49.18 -78.18 46.13 C-77.72 44.68 -77.72 44.68 -77.24 43.19 C-75.03 36.81 -72.39 30.48 -68.18 25.13 C-67.52 25.13 -66.86 25.13 -66.18 25.13 C-66.08 24.54 -65.97 23.94 -65.86 23.33 C-65.09 20.83 -64.16 19.71 -62.31 17.88 C-61.79 17.36 -61.28 16.84 -60.75 16.3 C-59.18 15.13 -59.18 15.13 -56.18 15.13 C-55.85 13.81 -55.52 12.49 -55.18 11.13 C-53.53 10.8 -51.88 10.47 -50.18 10.13 C-49.85 9.14 -49.52 8.15 -49.18 7.13 C-47.04 6.03 -47.04 6.03 -44.37 5.07 C-40.81 3.8 -40.81 3.8 -37.45 2.11 C-27.12 -2.34 -11.09 -0.02 0 0 Z M-22.18 59.13 C-22.18 74.31 -22.18 89.49 -22.18 105.13 C-19.86 106.29 -18.53 106.26 -15.95 106.26 C-15.07 106.26 -14.2 106.27 -13.3 106.27 C-12.35 106.27 -11.41 106.27 -10.43 106.26 C-8.98 106.26 -8.98 106.26 -7.5 106.27 C-5.44 106.27 -3.39 106.26 -1.34 106.26 C1.81 106.26 4.95 106.26 8.1 106.27 C10.09 106.27 12.08 106.27 14.07 106.26 C15.01 106.27 15.96 106.27 16.93 106.27 C17.81 106.27 18.68 106.26 19.58 106.26 C20.35 106.26 21.13 106.26 21.92 106.26 C23.91 106.25 23.91 106.25 25.82 105.13 C25.82 89.95 25.82 74.77 25.82 59.13 C23.5 57.97 22.16 58 19.58 58 C18.71 58 17.84 57.99 16.93 57.99 C15.99 57.99 15.04 58 14.07 58 C13.1 58 12.13 58 11.13 57.99 C9.08 57.99 7.03 58 4.98 58 C1.83 58.01 -1.32 58 -4.46 57.99 C-6.45 57.99 -8.44 58 -10.43 58 C-11.38 58 -12.32 57.99 -13.3 57.99 C-14.17 57.99 -15.05 58 -15.95 58 C-16.72 58 -17.49 58 -18.28 58 C-20.27 58.01 -20.27 58.01 -22.18 59.13 Z " fill="#000000" transform="translate(264.181884765625,877.86962890625)"/>
<path d="M0 0 C1.18 -0.01 2.36 -0.02 3.57 -0.03 C5.46 -0.03 5.46 -0.03 7.39 -0.03 C8.69 -0.03 10 -0.03 11.35 -0.04 C14.11 -0.05 16.87 -0.05 19.62 -0.04 C23.15 -0.04 26.67 -0.05 30.19 -0.08 C33.57 -0.09 36.95 -0.09 40.32 -0.09 C41.58 -0.1 42.84 -0.11 44.13 -0.12 C50.55 -0.08 55.25 0.22 60.92 3.27 C63.72 4.08 66.54 4.76 69.37 5.43 C72.08 6.33 73.73 7.48 75.92 9.27 C77.28 10.05 77.28 10.05 78.67 10.84 C79.41 11.31 80.16 11.79 80.92 12.27 C80.92 12.93 80.92 13.59 80.92 14.27 C81.51 14.36 82.1 14.44 82.7 14.53 C85.57 15.49 86.6 16.88 88.48 19.21 C90.6 21.8 92.1 23.39 94.92 25.27 C95.61 27.9 95.61 27.9 95.92 30.27 C96.91 30.6 97.9 30.93 98.92 31.27 C100.02 33.42 100.02 33.42 100.98 36.09 C102.25 39.64 102.25 39.64 103.94 43 C108.39 53.33 106.08 69.36 106.05 80.46 C106.05 83.34 106.05 86.22 106.06 89.1 C106.07 119.86 106.07 119.86 100.92 128.27 C100.45 129.45 99.97 130.63 99.48 131.84 C97.68 135.82 95.64 138.86 92.92 142.27 C92.26 142.27 91.6 142.27 90.92 142.27 C90.58 143.36 90.58 143.36 90.23 144.46 C87.81 149.65 83.84 152.57 78.92 155.27 C78.08 155.83 77.23 156.39 76.36 156.96 C73.92 158.27 73.92 158.27 69.92 158.27 C69.59 159.26 69.26 160.25 68.92 161.27 C65.9 162.14 63.01 162.73 59.92 163.27 C58.15 163.64 58.15 163.64 56.33 164.02 C46.28 166.03 36.58 166.75 26.34 166.67 C23.92 166.65 21.51 166.67 19.09 166.68 C8.4 166.7 -1.62 165.43 -12.08 163.27 C-13.57 163.01 -13.57 163.01 -15.09 162.74 C-17.58 162.27 -17.58 162.27 -21.08 161.27 C-21.41 160.28 -21.74 159.29 -22.08 158.27 C-23.15 158.19 -24.22 158.11 -25.33 158.02 C-29.47 157.2 -30.38 156.35 -33.08 153.27 C-33.71 152.97 -34.34 152.67 -34.99 152.36 C-37.35 151.13 -38.62 149.81 -40.33 147.77 C-40.85 147.17 -41.37 146.56 -41.91 145.93 C-43.08 144.27 -43.08 144.27 -43.08 142.27 C-43.69 142.02 -44.29 141.76 -44.92 141.5 C-50.77 138.18 -52.97 130.29 -55.08 124.27 C-55.42 123.67 -55.77 123.06 -56.12 122.44 C-60.52 112.5 -58.23 96.91 -58.21 86.22 C-58.2 83.35 -58.21 80.47 -58.21 77.59 C-58.22 69.13 -58.16 60.66 -57.76 52.21 C-57.7 50.98 -57.64 49.75 -57.59 48.49 C-57.04 45.05 -56.02 43.12 -54.08 40.27 C-53.26 37.92 -52.59 35.56 -51.92 33.17 C-51.64 32.54 -51.36 31.92 -51.08 31.27 C-50.09 30.94 -49.1 30.61 -48.08 30.27 C-46.85 27.27 -46.85 27.27 -46.08 24.27 C-45.09 24.27 -44.1 24.27 -43.08 24.27 C-42.97 23.68 -42.87 23.09 -42.76 22.48 C-41.98 19.97 -41.06 18.85 -39.2 17.02 C-38.69 16.5 -38.18 15.98 -37.65 15.45 C-36.08 14.27 -36.08 14.27 -33.08 14.27 C-32.77 13.38 -32.77 13.38 -32.45 12.46 C-30.53 9.4 -28.38 8.71 -25.08 7.27 C-23.35 6.5 -23.35 6.5 -21.58 5.71 C-18.44 4.42 -15.31 3.31 -12.08 2.27 C-10.69 1.76 -10.69 1.76 -9.27 1.23 C-6.01 0.25 -3.4 0.02 0 0 Z M0.92 58.27 C-0.24 60.59 -0.2 61.93 -0.21 64.51 C-0.21 65.38 -0.21 66.26 -0.22 67.16 C-0.21 68.1 -0.21 69.05 -0.21 70.02 C-0.21 70.99 -0.21 71.96 -0.21 72.96 C-0.21 75.01 -0.21 77.06 -0.21 79.11 C-0.2 82.26 -0.21 85.41 -0.21 88.56 C-0.21 90.55 -0.21 92.54 -0.21 94.52 C-0.21 95.47 -0.21 96.42 -0.22 97.39 C-0.21 98.27 -0.21 99.14 -0.21 100.04 C-0.21 101.2 -0.21 101.2 -0.2 102.38 C-0.19 104.36 -0.19 104.36 0.92 106.27 C16.1 106.27 31.28 106.27 46.92 106.27 C48.08 103.96 48.05 102.62 48.05 100.04 C48.06 98.73 48.06 98.73 48.06 97.39 C48.06 96.45 48.06 95.5 48.05 94.52 C48.06 93.56 48.06 92.59 48.06 91.59 C48.06 89.54 48.06 87.49 48.05 85.43 C48.05 82.29 48.05 79.14 48.06 75.99 C48.06 74 48.06 72.01 48.05 70.02 C48.06 69.08 48.06 68.13 48.06 67.16 C48.06 66.28 48.05 65.41 48.05 64.51 C48.05 63.74 48.05 62.97 48.05 62.17 C48.04 60.19 48.04 60.19 46.92 58.27 C31.74 58.27 16.56 58.27 0.92 58.27 Z " fill="#000000" transform="translate(456.077880859375,663.725341796875)"/>
<path d="M0 0 C2.42 0.02 4.83 0 7.24 -0.02 C17.94 -0.03 27.96 1.23 38.42 3.39 C39.91 3.66 39.91 3.66 41.43 3.92 C43.92 4.39 43.92 4.39 47.42 5.39 C47.91 6.88 47.91 6.88 48.42 8.39 C49.49 8.47 50.56 8.56 51.67 8.64 C55.81 9.47 56.72 10.32 59.42 13.39 C60.05 13.69 60.68 13.99 61.33 14.3 C63.69 15.53 64.96 16.86 66.67 18.89 C67.45 19.8 67.45 19.8 68.24 20.73 C69.42 22.39 69.42 22.39 69.42 24.39 C70.02 24.65 70.63 24.9 71.26 25.16 C77.11 28.49 79.31 36.38 81.42 42.39 C81.76 43 82.1 43.6 82.46 44.23 C86.85 54.17 84.57 69.76 84.55 80.44 C84.54 83.32 84.55 86.2 84.55 89.08 C84.56 97.54 84.5 106 84.1 114.46 C84.04 115.69 83.98 116.91 83.92 118.18 C83.38 121.61 82.35 123.55 80.42 126.39 C79.6 128.74 78.93 131.1 78.26 133.5 C77.98 134.12 77.7 134.75 77.42 135.39 C76.43 135.72 75.44 136.05 74.42 136.39 C74.13 137.3 73.84 138.21 73.54 139.14 C72.19 143.03 70.45 144.64 67.42 147.39 C66.55 148.32 65.68 149.25 64.79 150.2 C62.42 152.39 62.42 152.39 59.42 152.39 C59.21 152.99 59 153.59 58.79 154.2 C56.86 157.27 54.72 157.96 51.42 159.39 C49.68 160.16 49.68 160.16 47.92 160.95 C44.77 162.24 41.65 163.36 38.42 164.39 C37.49 164.73 36.57 165.08 35.61 165.43 C32.34 166.41 29.74 166.65 26.34 166.67 C24.57 166.68 24.57 166.68 22.77 166.69 C20.88 166.69 20.88 166.69 18.95 166.69 C17.64 166.7 16.34 166.7 14.99 166.7 C12.23 166.71 9.47 166.71 6.71 166.71 C3.19 166.7 -0.33 166.72 -3.85 166.74 C-7.23 166.76 -10.61 166.76 -13.99 166.75 C-15.87 166.77 -15.87 166.77 -17.8 166.78 C-24.21 166.75 -28.92 166.45 -34.58 163.39 C-37.39 162.59 -40.2 161.91 -43.03 161.23 C-45.74 160.34 -47.39 159.18 -49.58 157.39 C-50.49 156.88 -51.4 156.36 -52.33 155.83 C-53.08 155.35 -53.82 154.88 -54.58 154.39 C-54.58 153.73 -54.58 153.07 -54.58 152.39 C-55.18 152.29 -55.77 152.18 -56.38 152.07 C-58.89 151.3 -60.01 150.37 -61.83 148.52 C-62.35 148 -62.88 147.49 -63.41 146.96 C-64.58 145.39 -64.58 145.39 -64.58 142.39 C-65.9 142.06 -67.22 141.73 -68.58 141.39 C-68.91 139.74 -69.24 138.09 -69.58 136.39 C-70.57 136.06 -71.56 135.73 -72.58 135.39 C-73.68 133.25 -73.68 133.25 -74.65 130.58 C-75.92 127.02 -75.92 127.02 -77.61 123.66 C-82.06 113.33 -79.74 97.3 -79.71 86.21 C-79.71 83.33 -79.71 80.45 -79.72 77.57 C-79.74 46.81 -79.74 46.81 -74.58 38.39 C-74.11 37.22 -73.64 36.04 -73.15 34.83 C-71.34 30.85 -69.3 27.81 -66.58 24.39 C-65.92 24.39 -65.26 24.39 -64.58 24.39 C-64.36 23.67 -64.13 22.95 -63.9 22.2 C-61.48 17.01 -57.5 14.09 -52.58 11.39 C-51.74 10.83 -50.89 10.28 -50.02 9.7 C-47.58 8.39 -47.58 8.39 -43.58 8.39 C-43.25 7.4 -42.92 6.41 -42.58 5.39 C-39.56 4.53 -36.67 3.94 -33.58 3.39 C-32.4 3.15 -31.22 2.9 -30 2.65 C-19.94 0.64 -10.24 -0.08 0 0 Z M-20.58 60.39 C-21.74 62.71 -21.71 64.05 -21.71 66.63 C-21.72 67.5 -21.72 68.37 -21.72 69.27 C-21.72 70.22 -21.72 71.17 -21.72 72.14 C-21.72 73.11 -21.72 74.08 -21.72 75.08 C-21.72 77.13 -21.72 79.18 -21.71 81.23 C-21.71 84.38 -21.71 87.53 -21.72 90.67 C-21.72 92.66 -21.72 94.65 -21.72 96.64 C-21.72 97.59 -21.72 98.53 -21.72 99.51 C-21.72 100.38 -21.72 101.26 -21.71 102.16 C-21.71 103.31 -21.71 103.31 -21.71 104.49 C-21.7 106.48 -21.7 106.48 -20.58 108.39 C-5.4 108.39 9.78 108.39 25.42 108.39 C26.58 106.07 26.54 104.74 26.55 102.16 C26.55 100.85 26.55 100.85 26.55 99.51 C26.55 98.56 26.55 97.62 26.55 96.64 C26.55 95.67 26.55 94.7 26.55 93.7 C26.55 91.65 26.55 89.6 26.55 87.55 C26.54 84.4 26.55 81.26 26.55 78.11 C26.55 76.12 26.55 74.13 26.55 72.14 C26.55 71.2 26.55 70.25 26.55 69.27 C26.55 68.4 26.55 67.53 26.55 66.63 C26.54 65.85 26.54 65.08 26.54 64.29 C26.53 62.3 26.53 62.3 25.42 60.39 C10.24 60.39 -4.94 60.39 -20.58 60.39 Z " fill="#000000" transform="translate(477.583984375,449.60888671875)"/>
<path d="M0 0 C3.03 0.01 6.07 0 9.1 -0.01 C17.65 -0.01 26.19 0.01 34.73 0.45 C36.43 0.54 36.43 0.54 38.18 0.62 C41.3 1.18 42.67 2.08 45.04 4.13 C47.08 4.9 47.08 4.9 49.23 5.44 C54.39 7.05 58.91 9.63 63.04 13.13 C63.04 13.79 63.04 14.45 63.04 15.13 C64.21 15.47 64.21 15.47 65.41 15.82 C68.71 17.46 68.83 18.77 70.04 22.13 C71.03 22.46 72.02 22.79 73.04 23.13 C74.69 25.73 75.04 26.99 75.04 30.13 C75.67 30.37 76.29 30.61 76.94 30.85 C79.61 32.48 79.85 33.6 80.66 36.57 C81.53 39.65 82.22 41.4 84.04 44.13 C85.74 55.61 85.19 67.58 85.17 79.15 C85.16 82.19 85.17 85.24 85.18 88.28 C85.19 117.85 85.19 117.85 81.04 124.13 C80.22 126.48 79.55 128.84 78.88 131.24 C78.6 131.86 78.33 132.49 78.04 133.13 C77.05 133.46 76.06 133.79 75.04 134.13 C74.85 135.28 74.85 135.28 74.66 136.44 C74.04 139.13 74.04 139.13 72.04 142.13 C71.38 142.13 70.72 142.13 70.04 142.13 C69.7 143.31 69.7 143.31 69.35 144.51 C67.7 147.8 66.4 147.93 63.04 149.13 C62.71 150.12 62.38 151.11 62.04 152.13 C59.04 154.13 59.04 154.13 55.04 154.13 C54.8 154.76 54.56 155.38 54.31 156.03 C52.7 158.69 51.62 158.94 48.66 159.76 C45.35 160.68 45.35 160.68 42.26 162.14 C32.34 166.58 16.87 164.28 6.15 164.26 C3.11 164.26 0.07 164.26 -2.97 164.27 C-11.54 164.27 -20.1 164.25 -28.65 163.81 C-29.79 163.75 -30.93 163.7 -32.1 163.64 C-35.23 163.08 -36.59 162.18 -38.96 160.13 C-41.3 159.28 -43.64 158.63 -46.04 157.97 C-46.67 157.7 -47.31 157.42 -47.96 157.13 C-48.29 156.14 -48.62 155.15 -48.96 154.13 C-49.62 154.09 -50.28 154.05 -50.96 154.01 C-55.36 152.72 -58.64 150.26 -61.96 147.13 C-63.27 144.32 -63.27 144.32 -63.96 142.13 C-64.95 141.8 -65.94 141.47 -66.96 141.13 C-68.61 138.53 -68.96 137.27 -68.96 134.13 C-69.59 133.89 -70.21 133.65 -70.86 133.41 C-73.53 131.78 -73.78 130.66 -74.59 127.69 C-75.45 124.61 -76.14 122.86 -77.96 120.13 C-79.66 108.67 -79.12 96.72 -79.09 85.17 C-79.09 82.14 -79.09 79.1 -79.1 76.07 C-79.11 45.39 -79.11 45.39 -75.96 40.13 C-75.3 40.13 -74.64 40.13 -73.96 40.13 C-73.88 38.85 -73.8 37.57 -73.71 36.26 C-73.45 34.02 -73.45 34.02 -72.96 32.13 C-70.96 30.94 -70.96 30.94 -68.96 30.13 C-68.29 27.69 -68.29 27.69 -67.96 25.13 C-67.3 24.14 -66.64 23.15 -65.96 22.13 C-65.3 22.13 -64.64 22.13 -63.96 22.13 C-63.73 21.38 -63.5 20.64 -63.27 19.87 C-61.69 16.55 -60.05 15.36 -57.02 13.32 C-56.15 12.71 -55.27 12.11 -54.37 11.49 C-51.96 10.13 -51.96 10.13 -48.96 10.13 C-48.63 9.14 -48.3 8.15 -47.96 7.13 C-44.64 5.43 -42.78 5.13 -38.96 5.13 C-38.96 4.47 -38.96 3.81 -38.96 3.13 C-29.05 -2.8 -11.17 -0.02 0 0 Z M-20.96 59.13 C-21.06 60.57 -21.09 62.01 -21.09 63.45 C-21.09 64.37 -21.1 65.29 -21.1 66.23 C-21.1 67.23 -21.1 68.23 -21.09 69.26 C-21.09 70.27 -21.1 71.29 -21.1 72.34 C-21.1 74.49 -21.1 76.65 -21.09 78.8 C-21.09 82.12 -21.09 85.43 -21.1 88.74 C-21.1 90.83 -21.1 92.92 -21.09 95.01 C-21.1 96 -21.1 97 -21.1 98.03 C-21.1 98.95 -21.09 99.86 -21.09 100.81 C-21.09 101.62 -21.09 102.43 -21.09 103.27 C-21.16 105.15 -21.16 105.15 -19.96 106.13 C-18.52 106.23 -17.08 106.26 -15.64 106.26 C-14.72 106.26 -13.81 106.27 -12.86 106.27 C-11.86 106.27 -10.86 106.27 -9.84 106.26 C-8.31 106.26 -8.31 106.26 -6.75 106.27 C-4.6 106.27 -2.44 106.26 -0.29 106.26 C3.02 106.26 6.34 106.26 9.65 106.27 C11.74 106.27 13.83 106.27 15.91 106.26 C17.41 106.27 17.41 106.27 18.94 106.27 C19.86 106.27 20.77 106.26 21.72 106.26 C22.53 106.26 23.34 106.26 24.18 106.26 C26.05 106.33 26.05 106.33 27.04 105.13 C27.14 103.69 27.17 102.25 27.17 100.81 C27.17 99.43 27.17 99.43 27.18 98.03 C27.18 97.03 27.17 96.03 27.17 95.01 C27.17 93.99 27.17 92.97 27.17 91.92 C27.18 89.77 27.17 87.61 27.17 85.46 C27.16 82.14 27.17 78.83 27.18 75.52 C27.18 73.43 27.17 71.34 27.17 69.26 C27.17 68.26 27.18 67.26 27.18 66.23 C27.17 65.31 27.17 64.4 27.17 63.45 C27.17 62.64 27.17 61.83 27.17 60.99 C27.24 59.11 27.24 59.11 26.04 58.13 C24.6 58.03 23.16 58 21.72 58 C20.8 58 19.88 57.99 18.94 57.99 C17.44 57.99 17.44 57.99 15.91 58 C14.39 58 14.39 58 12.83 57.99 C10.68 57.99 8.52 58 6.37 58 C3.05 58.01 -0.26 58 -3.57 57.99 C-5.66 57.99 -7.75 58 -9.84 58 C-10.83 58 -11.83 57.99 -12.86 57.99 C-13.78 57.99 -14.7 58 -15.64 58 C-16.45 58 -17.26 58 -18.1 58 C-19.98 57.93 -19.98 57.93 -20.96 59.13 Z " fill="#000000" transform="translate(476.9609375,877.86962890625)"/>
<path d="M0 0 C4.52 2.85 7.96 6 10 11 C10 11.99 10 12.98 10 14 C10.99 14.33 11.98 14.66 13 15 C14.61 18.21 14.27 21.66 14.31 25.19 C14.34 25.93 14.37 26.67 14.4 27.44 C14.47 33.14 13.15 36.26 10 41 C9.29 42.3 9.29 42.3 8.56 43.62 C6.68 46.49 4.45 48.6 2 51 C1.04 51.96 0.08 52.92 -0.88 53.88 C-1.65 54.65 -1.65 54.65 -2.44 55.44 C-2.99 55.99 -3.54 56.54 -4.1 57.11 C-5.34 58.35 -6.58 59.59 -7.82 60.83 C-8.48 61.49 -9.14 62.15 -9.81 62.83 C-24.94 77.97 -40.07 93.12 -55.21 108.26 C-63.95 117.01 -72.7 125.76 -81.44 134.52 C-89.08 142.17 -96.72 149.81 -104.36 157.45 C-108.4 161.5 -112.44 165.54 -116.48 169.59 C-120.28 173.39 -124.08 177.19 -127.88 180.99 C-129.27 182.38 -130.66 183.78 -132.06 185.17 C-133.96 187.08 -135.86 188.99 -137.77 190.89 C-138.32 191.44 -138.86 191.99 -139.43 192.56 C-148.94 202.04 -148.94 202.04 -154.25 203.75 C-157.76 204.82 -157.76 204.82 -160 206 C-161.83 206.12 -163.67 206.18 -165.5 206.19 C-166.48 206.2 -167.46 206.22 -168.47 206.23 C-171 206 -171 206 -173 204 C-175.31 203.19 -177.65 202.54 -180 201.88 C-180.66 201.59 -181.32 201.3 -182 201 C-182.33 200.01 -182.66 199.02 -183 198 C-184.05 197.66 -184.05 197.66 -185.12 197.31 C-188.83 195.62 -190.54 193.24 -193.11 190.14 C-194.96 188.05 -196.87 186.29 -199 184.5 C-202.45 181.58 -205.3 178.41 -208.22 174.97 C-210.03 172.96 -211.94 171.25 -214 169.5 C-217.45 166.58 -220.3 163.41 -223.22 159.97 C-225.03 157.96 -226.94 156.25 -229 154.5 C-232.45 151.58 -235.3 148.41 -238.22 144.97 C-240.03 142.96 -241.94 141.25 -244 139.5 C-247.45 136.58 -250.3 133.42 -253.2 129.98 C-255.09 127.9 -257.1 126.12 -259.25 124.31 C-262.23 121.79 -264.2 119.51 -266 116 C-266.66 115.34 -267.32 114.68 -268 114 C-269.9 105.25 -270.04 95.47 -267 87 C-265.51 86.5 -265.51 86.5 -264 86 C-263.75 85.28 -263.5 84.56 -263.25 83.81 C-261.36 79.56 -259.12 77.2 -255 75 C-249.8 73.41 -244.4 72.56 -239 72 C-238.5 72.5 -238.5 72.5 -238 73 C-235.19 73.45 -232.38 73.84 -229.57 74.21 C-227 75 -227 75 -225.9 77.01 C-225.6 77.67 -225.31 78.32 -225 79 C-224.43 79.1 -223.86 79.21 -223.27 79.31 C-219.89 80.33 -218.21 82.46 -215.74 84.96 C-215.23 85.48 -214.72 85.99 -214.2 86.52 C-213.09 87.64 -211.98 88.77 -210.88 89.89 C-209.14 91.67 -207.39 93.44 -205.64 95.21 C-201.28 99.6 -196.95 104.01 -192.61 108.42 C-188.94 112.15 -185.27 115.87 -181.59 119.58 C-179.86 121.32 -178.15 123.08 -176.43 124.83 C-175.37 125.9 -174.31 126.97 -173.26 128.04 C-172.34 128.97 -171.41 129.91 -170.47 130.87 C-167.59 133.38 -167.59 133.38 -164 134 C-161.44 131.86 -161.44 131.86 -159 129 C-119 89 -79 49 -39 9 C-37.67 7.61 -37.67 7.61 -36.31 6.19 C-34 4 -34 4 -32 4 C-31.67 3.01 -31.34 2.02 -31 1 C-28.93 0.12 -28.93 0.12 -26.31 -0.56 C-23.49 -1.32 -20.84 -2.07 -18.13 -3.18 C-11.97 -4.79 -5.77 -2.23 0 0 Z " fill="#000000" transform="translate(1087,859)"/>
</svg>
