<svg width="24" height="24" viewBox="0 0 24 24" fill="none" xmlns="http://www.w3.org/2000/svg">
<mask id="mask0_740_8382" style="mask-type:alpha" maskUnits="userSpaceOnUse" x="0" y="0" width="24" height="24">
<rect width="24" height="24" fill="#D9D9D9"/>
</mask>
<g mask="url(#mask0_740_8382)">
<path d="M12.75 11.6962V7.75C12.75 7.5375 12.6781 7.35933 12.5343 7.2155C12.3904 7.07183 12.2122 7 11.9998 7C11.7871 7 11.609 7.07183 11.4655 7.2155C11.3218 7.35933 11.25 7.5375 11.25 7.75V11.927C11.25 12.0447 11.2718 12.1587 11.3155 12.269C11.359 12.3793 11.4276 12.4813 11.5213 12.575L14.9462 16C15.0846 16.1385 15.2586 16.2093 15.4682 16.2125C15.6779 16.2157 15.8552 16.1448 16 16C16.1448 15.8552 16.2172 15.6795 16.2172 15.473C16.2172 15.2667 16.1448 15.0911 16 14.9462L12.75 11.6962ZM12.0017 21.5C10.6877 21.5 9.45267 21.2507 8.2965 20.752C7.14033 20.2533 6.13467 19.5766 5.2795 18.7218C4.42433 17.8669 3.74725 16.8617 3.24825 15.706C2.74942 14.5503 2.5 13.3156 2.5 12.0017C2.5 10.6877 2.74933 9.45267 3.248 8.2965C3.74667 7.14033 4.42342 6.13467 5.27825 5.2795C6.13308 4.42433 7.13833 3.74725 8.294 3.24825C9.44967 2.74942 10.6844 2.5 11.9983 2.5C13.3123 2.5 14.5473 2.74933 15.7035 3.248C16.8597 3.74667 17.8653 4.42342 18.7205 5.27825C19.5757 6.13308 20.2528 7.13833 20.7518 8.294C21.2506 9.44967 21.5 10.6844 21.5 11.9983C21.5 13.3123 21.2507 14.5473 20.752 15.7035C20.2533 16.8597 19.5766 17.8653 18.7218 18.7205C17.8669 19.5757 16.8617 20.2528 15.706 20.7518C14.5503 21.2506 13.3156 21.5 12.0017 21.5Z" fill="#141414"/>
</g>
</svg>
