<svg width="24" height="24" viewBox="0 0 24 24" fill="none" xmlns="http://www.w3.org/2000/svg">
<mask id="mask0_740_8364" style="mask-type:alpha" maskUnits="userSpaceOnUse" x="0" y="0" width="24" height="24">
<rect width="24" height="24" fill="#D9D9D9"/>
</mask>
<g mask="url(#mask0_740_8364)">
<path d="M11.1348 10.8077H13.1348V11.9192C13.1348 12.023 13.1799 12.0942 13.2703 12.1327C13.3606 12.171 13.4443 12.1518 13.5213 12.075L15.2173 10.3787C15.3109 10.2852 15.3578 10.1782 15.3578 10.0577C15.3578 9.93721 15.3109 9.83013 15.2173 9.73646L13.5213 8.04046C13.4443 7.96346 13.3606 7.94421 13.2703 7.98271C13.1799 8.02121 13.1348 8.09238 13.1348 8.19621V9.30771H11.1348C10.3719 9.30771 9.72285 9.5753 9.18752 10.1105C8.65235 10.6458 8.38477 11.2949 8.38477 12.0577V13.3077C8.38477 13.5205 8.45652 13.6987 8.60002 13.8422C8.74368 13.9859 8.92193 14.0577 9.13477 14.0577C9.34743 14.0577 9.5256 13.9859 9.66927 13.8422C9.81277 13.6987 9.88452 13.5205 9.88452 13.3077V12.0577C9.88452 11.7102 10.006 11.415 10.249 11.172C10.492 10.9291 10.7873 10.8077 11.1348 10.8077ZM2.13477 20.2307C1.92193 20.2307 1.74368 20.1589 1.60002 20.0152C1.45652 19.8717 1.38477 19.6935 1.38477 19.4807C1.38477 19.2679 1.45652 19.0897 1.60002 18.9462C1.74368 18.8025 1.92193 18.7307 2.13477 18.7307H21.8653C22.0781 18.7307 22.2563 18.8025 22.4 18.9462C22.5435 19.0897 22.6153 19.2679 22.6153 19.4807C22.6153 19.6935 22.5435 19.8717 22.4 20.0152C22.2563 20.1589 22.0781 20.2307 21.8653 20.2307H2.13477ZM4.30777 17.7307C3.8026 17.7307 3.37502 17.5557 3.02502 17.2057C2.67502 16.8557 2.50002 16.4281 2.50002 15.923V5.53846C2.50002 5.0333 2.67502 4.60571 3.02502 4.25571C3.37502 3.90571 3.8026 3.73071 4.30777 3.73071H19.6923C20.1974 3.73071 20.625 3.90571 20.975 4.25571C21.325 4.60571 21.5 5.0333 21.5 5.53846V15.923C21.5 16.4281 21.325 16.8557 20.975 17.2057C20.625 17.5557 20.1974 17.7307 19.6923 17.7307H4.30777Z" fill="#141414"/>
</g>
</svg>
