<svg width="24" height="24" viewBox="0 0 24 24" fill="none" xmlns="http://www.w3.org/2000/svg">
<mask id="mask0_740_8290" style="mask-type:alpha" maskUnits="userSpaceOnUse" x="0" y="0" width="24" height="24">
<rect width="24" height="24" fill="#D9D9D9"/>
</mask>
<g mask="url(#mask0_740_8290)">
<path d="M10.8927 21.5C10.5517 21.5 10.2572 21.3868 10.0092 21.1605C9.76107 20.9343 9.61007 20.6558 9.55623 20.325L9.31198 18.4538C9.04415 18.3641 8.76948 18.2385 8.48798 18.077C8.20665 17.9153 7.95507 17.7422 7.73323 17.5577L6.00048 18.2943C5.68632 18.4328 5.37065 18.4462 5.05348 18.3345C4.73615 18.223 4.48965 18.0205 4.31398 17.727L3.18698 15.773C3.01132 15.4795 2.96073 15.1689 3.03523 14.8413C3.10957 14.5138 3.28007 14.2436 3.54673 14.0308L5.04473 12.9058C5.02173 12.7571 5.0054 12.6077 4.99573 12.4578C4.98607 12.3078 4.98123 12.1583 4.98123 12.0095C4.98123 11.8673 4.98607 11.7228 4.99573 11.576C5.0054 11.4292 5.02173 11.2686 5.04473 11.0943L3.54673 9.96925C3.28007 9.75642 3.11115 9.48458 3.03998 9.15375C2.96882 8.82308 3.02107 8.51092 3.19673 8.21725L4.31398 6.29225C4.48965 6.00508 4.73615 5.80417 5.05348 5.6895C5.37065 5.57467 5.68632 5.5865 6.00048 5.725L7.72348 6.452C7.96465 6.261 8.22207 6.08633 8.49573 5.928C8.7694 5.76967 9.03832 5.64242 9.30248 5.54625L9.55623 3.675C9.61007 3.34417 9.76107 3.06567 10.0092 2.8395C10.2572 2.61317 10.5517 2.5 10.8927 2.5H13.1082C13.4492 2.5 13.7437 2.61317 13.9917 2.8395C14.2399 3.06567 14.3909 3.34417 14.4447 3.675L14.689 5.55575C14.989 5.66475 15.2604 5.792 15.5032 5.9375C15.7462 6.083 15.9915 6.2545 16.239 6.452L18.0102 5.725C18.3242 5.5865 18.6399 5.57467 18.9572 5.6895C19.2746 5.80417 19.521 6.00508 19.6965 6.29225L20.814 8.227C20.9896 8.5205 21.0402 8.83108 20.9657 9.15875C20.8914 9.48625 20.7209 9.75642 20.4542 9.96925L18.9177 11.123C18.9536 11.2845 18.9731 11.4355 18.9765 11.576C18.9796 11.7163 18.9812 11.8577 18.9812 12C18.9812 12.1358 18.978 12.274 18.9715 12.4145C18.9651 12.5548 18.9422 12.7154 18.9025 12.8963L20.41 14.0308C20.6766 14.2436 20.8488 14.5138 20.9265 14.8413C21.004 15.1689 20.9549 15.4795 20.7792 15.773L19.6465 17.7172C19.471 18.0109 19.223 18.2135 18.9025 18.325C18.582 18.4365 18.2646 18.423 17.9505 18.2845L16.239 17.548C15.9915 17.7455 15.7389 17.9202 15.4812 18.072C15.2236 18.224 14.9595 18.3481 14.689 18.4443L14.4447 20.325C14.3909 20.6558 14.2399 20.9343 13.9917 21.1605C13.7437 21.3868 13.4492 21.5 13.1082 21.5H10.8927ZM12.012 15C12.844 15 13.552 14.708 14.136 14.124C14.72 13.54 15.012 12.832 15.012 12C15.012 11.168 14.72 10.46 14.136 9.876C13.552 9.292 12.844 9 12.012 9C11.1696 9 10.4591 9.292 9.88023 9.876C9.3014 10.46 9.01198 11.168 9.01198 12C9.01198 12.832 9.3014 13.54 9.88023 14.124C10.4591 14.708 11.1696 15 12.012 15Z" fill="#141414"/>
</g>
</svg>
