<svg width="24" height="24" viewBox="0 0 24 24" fill="none" xmlns="http://www.w3.org/2000/svg">
<mask id="mask0_740_8343" style="mask-type:alpha" maskUnits="userSpaceOnUse" x="0" y="0" width="24" height="24">
<rect width="24" height="24" fill="#D9D9D9"/>
</mask>
<g mask="url(#mask0_740_8343)">
<path d="M16.8055 21.5C16.057 21.5 15.4215 21.2383 14.899 20.7148C14.3767 20.1912 14.1155 19.5556 14.1155 18.8078C14.1155 18.7078 14.1501 18.4648 14.2193 18.0788L7.10775 13.8923C6.86675 14.1423 6.58042 14.3381 6.24875 14.4798C5.91708 14.6214 5.56175 14.6923 5.18275 14.6923C4.43758 14.6923 3.80417 14.4294 3.2825 13.9038C2.76083 13.3781 2.5 12.7435 2.5 12C2.5 11.2565 2.76083 10.6219 3.2825 10.0962C3.80417 9.57058 4.43758 9.30775 5.18275 9.30775C5.56175 9.30775 5.91708 9.37858 6.24875 9.52025C6.58042 9.66192 6.86675 9.85775 7.10775 10.1077L14.2193 5.93075C14.1796 5.80775 14.1523 5.68725 14.1375 5.56925C14.1228 5.45125 14.1155 5.32558 14.1155 5.19225C14.1155 4.44442 14.3774 3.80875 14.9012 3.28525C15.4253 2.76175 16.0615 2.5 16.81 2.5C17.5585 2.5 18.1939 2.762 18.7163 3.286C19.2388 3.80983 19.5 4.446 19.5 5.1945C19.5 5.943 19.2383 6.5785 18.7148 7.101C18.1912 7.62333 17.5556 7.8845 16.8077 7.8845C16.4269 7.8845 16.0728 7.81208 15.7452 7.66725C15.4176 7.52242 15.1333 7.325 14.8923 7.075L7.78075 11.2615C7.82042 11.3847 7.84767 11.5052 7.8625 11.623C7.87717 11.741 7.8845 11.8667 7.8845 12C7.8845 12.1333 7.87717 12.259 7.8625 12.377C7.84767 12.4948 7.82042 12.6153 7.78075 12.7385L14.8923 16.925C15.1333 16.675 15.4176 16.4776 15.7452 16.3328C16.0728 16.1879 16.4269 16.1155 16.8077 16.1155C17.5556 16.1155 18.1912 16.3774 18.7148 16.9012C19.2383 17.4253 19.5 18.0615 19.5 18.81C19.5 19.5585 19.238 20.1939 18.714 20.7163C18.1902 21.2388 17.554 21.5 16.8055 21.5Z" fill="#141414"/>
</g>
</svg>
