<svg width="24" height="24" viewBox="0 0 24 24" fill="none" xmlns="http://www.w3.org/2000/svg">
<path d="M12 21.371C11.8962 21.371 11.7943 21.3627 11.6942 21.346C11.5942 21.3293 11.4974 21.3043 11.4037 21.271C9.29492 20.521 7.61708 19.1913 6.37025 17.2818C5.12342 15.3721 4.5 13.3115 4.5 11.1V6.59625C4.5 6.21792 4.60967 5.87658 4.829 5.57225C5.04817 5.26775 5.33017 5.04692 5.675 4.90975L11.3672 2.78475C11.5814 2.70775 11.7923 2.66925 12 2.66925C12.2077 2.66925 12.4186 2.70775 12.6328 2.78475L18.325 4.90975C18.6698 5.04692 18.9518 5.26775 19.171 5.57225C19.3903 5.87658 19.5 6.21792 19.5 6.59625V11.1C19.5 13.3115 18.8766 15.3721 17.6298 17.2818C16.3829 19.1913 14.7051 20.521 12.5963 21.271C12.5026 21.3043 12.4058 21.3293 12.3058 21.346C12.2058 21.3627 12.1038 21.371 12 21.371Z" fill="#141414"/>
</svg>
