<svg width="18" height="18" viewBox="0 0 18 18" fill="none" xmlns="http://www.w3.org/2000/svg">
<g id="Icon / Smileys &#38; People" clip-path="url(#clip0_3328_49518)">
<path id="fill" d="M9.00013 17.5333C7.3124 17.5333 5.66257 17.0329 4.25927 16.0952C2.85597 15.1576 1.76223 13.8248 1.11636 12.2656C0.470494 10.7063 0.301506 8.99055 0.630766 7.33524C0.960027 5.67994 1.77275 4.15944 2.96616 2.96603C4.15956 1.77263 5.68006 0.959905 7.33536 0.630644C8.99067 0.301384 10.7064 0.470372 12.2657 1.11624C13.825 1.76211 15.1577 2.85585 16.0953 4.25915C17.033 5.66245 17.5335 7.31228 17.5335 9.00001C17.5309 11.2624 16.6311 13.4314 15.0313 15.0312C13.4315 16.6309 11.2625 17.5308 9.00013 17.5333ZM9.0108 1.53335C7.53403 1.53335 6.09043 1.97126 4.86254 2.79171C3.63466 3.61215 2.67763 4.77829 2.1125 6.14264C1.54737 7.507 1.3995 9.00829 1.6876 10.4567C1.97571 11.9051 2.68684 13.2355 3.73107 14.2797C4.7753 15.324 6.10573 16.0351 7.55413 16.3232C9.00252 16.6113 10.5038 16.4634 11.8682 15.8983C13.2325 15.3332 14.3987 14.3762 15.2191 13.1483C16.0396 11.9204 16.4775 10.4768 16.4775 9.00001C16.4752 7.02042 15.6878 5.12256 14.288 3.72278C12.8883 2.32299 10.9904 1.5356 9.0108 1.53335ZM9.0108 15.5344C7.59683 15.5327 6.24126 14.9703 5.24144 13.9704C4.24161 12.9706 3.67916 11.615 3.67747 10.2011C3.67747 10.0667 3.77347 10.0037 3.97827 10.0037C4.39353 10.0421 4.80424 10.1196 5.20493 10.2352H5.21453C6.4534 10.5699 7.7279 10.7551 9.0108 10.7867C10.2933 10.755 11.5675 10.5699 12.806 10.2352H12.8156L12.838 10.2299C13.2315 10.117 13.6347 10.0413 14.0423 10.0037C14.2471 10.0037 14.3431 10.0667 14.3431 10.2011C14.3411 11.6154 13.7781 12.9712 12.7776 13.9709C11.7771 14.9706 10.4209 15.5325 9.00653 15.5333L9.0108 15.5344ZM4.9084 11.1099C4.78893 11.1099 4.73347 11.1493 4.73347 11.2347C4.73347 12.9979 7.05347 13.368 9.00013 13.368C9.88427 13.3922 10.7674 13.2909 11.6231 13.0672C12.7143 12.7333 13.2668 12.1147 13.2668 11.24C13.2668 11.1547 13.2113 11.1152 13.0919 11.1152C12.8243 11.1434 12.5602 11.1984 12.3036 11.2795C11.2295 11.5912 10.1184 11.7573 9.00013 11.7733C7.88077 11.7575 6.76861 11.5914 5.69347 11.2795C5.43811 11.1968 5.1751 11.14 4.9084 11.1099ZM11.9335 7.93335C11.4919 7.93335 11.1335 7.45548 11.1335 6.86668C11.1335 6.27788 11.4919 5.80001 11.9335 5.80001C12.3751 5.80001 12.7345 6.27894 12.7345 6.86668C12.7345 7.45441 12.374 7.93335 11.9335 7.93335ZM6.60013 7.93335C6.15853 7.93335 5.80013 7.45548 5.80013 6.86668C5.80013 6.27788 6.15853 5.80001 6.598 5.80001C7.03747 5.80001 7.39693 6.27894 7.39693 6.86668C7.39693 7.45441 7.03853 7.93335 6.598 7.93335H6.60013Z" fill="#A1A1A1"/>
</g>
<defs>
<clipPath id="clip0_3328_49518">
<rect width="17.0667" height="17.0667" fill="white" transform="translate(0.466797 0.466675)"/>
</clipPath>
</defs>
</svg>
