<svg width="26" height="26" viewBox="0 0 26 26" fill="none" xmlns="http://www.w3.org/2000/svg">
<g id="Spinner-Gradient/Spinner-Gradient-1">
<path id="Ellipse 26" d="M16.9278 2.82873C18.2643 3.34439 19.4863 4.11826 20.5238 5.10616C21.5613 6.09405 22.394 7.27662 22.9745 8.58636C23.555 9.89609 23.8718 11.3073 23.9069 12.7395C23.942 14.1717 23.6946 15.5967 23.1789 16.9333C22.6633 18.2699 21.8894 19.4918 20.9015 20.5293C19.9136 21.5668 18.7311 22.3996 17.4213 22.9801C16.1116 23.5605 14.7004 23.8774 13.2682 23.9124C11.836 23.9475 10.4109 23.7002 9.07437 23.1845C7.73779 22.6688 6.51587 21.895 5.47836 20.9071C4.44086 19.9192 3.6081 18.7366 3.02762 17.4269C2.44714 16.1171 2.13032 14.7059 2.09524 13.2737C2.06016 11.8416 2.30752 10.4165 2.82318 9.07992C3.33884 7.74335 4.11271 6.52142 5.1006 5.48392C6.0885 4.44641 7.27107 3.61365 8.5808 3.03317C9.89053 2.4527 11.3018 2.13588 12.7339 2.1008C14.1661 2.06572 15.5912 2.31307 16.9278 2.82873L16.9278 2.82873Z" stroke="#E8E8E8" stroke-width="4"/>
<path id="Ellipse 27" d="M16.9278 2.82873C18.2643 3.34439 19.4863 4.11826 20.5238 5.10616C21.5613 6.09405 22.394 7.27662 22.9745 8.58636C23.555 9.89609 23.8718 11.3073 23.9069 12.7395C23.942 14.1717 23.6946 15.5967 23.1789 16.9333C22.6633 18.2699 21.8894 19.4918 20.9015 20.5293C19.9136 21.5668 18.7311 22.3996 17.4213 22.9801C16.1116 23.5605 14.7004 23.8774 13.2682 23.9124C11.836 23.9475 10.4109 23.7002 9.07437 23.1845C7.73779 22.6688 6.51587 21.895 5.47836 20.9071C4.44086 19.9192 3.6081 18.7366 3.02762 17.4269C2.44714 16.1171 2.13032 14.7059 2.09524 13.2737C2.06016 11.8416 2.30752 10.4165 2.82318 9.07992C3.33884 7.74335 4.11271 6.52142 5.1006 5.48392C6.0885 4.44641 7.27107 3.61365 8.5808 3.03317C9.89053 2.4527 11.3018 2.13588 12.7339 2.1008C14.1661 2.06572 15.5912 2.31307 16.9278 2.82873L16.9278 2.82873Z" stroke="url(#paint0_angular_7177_657237)" stroke-width="4" stroke-linecap="round"/>
</g>
<defs>
<radialGradient id="paint0_angular_7177_657237" cx="0" cy="0" r="1" gradientUnits="userSpaceOnUse" gradientTransform="translate(13.0011 13.0066) rotate(21.0969) scale(10.9091)">
<stop stop-color="white"/>
<stop offset="1" stop-color="#2D2D2D"/>
</radialGradient>
</defs>
</svg>
