<svg width="24" height="24" viewBox="0 0 24 24" fill="none" xmlns="http://www.w3.org/2000/svg">
<mask id="mask0_740_8462" style="mask-type:alpha" maskUnits="userSpaceOnUse" x="0" y="0" width="24" height="24">
<rect width="24" height="24" fill="#D9D9D9"/>
</mask>
<g mask="url(#mask0_740_8462)">
<path d="M11.9996 16.6885L8.10939 19.0345C7.96439 19.1192 7.81914 19.1547 7.67364 19.1412C7.52814 19.1277 7.39648 19.0787 7.27864 18.9942C7.16064 18.9096 7.06956 18.799 7.00539 18.6625C6.94139 18.526 6.93114 18.375 6.97464 18.2095L8.00739 13.7922L4.57289 10.8192C4.44456 10.7077 4.36281 10.5786 4.32764 10.4317C4.29231 10.2849 4.30156 10.1422 4.35539 10.0037C4.40923 9.86541 4.48681 9.75232 4.58814 9.66449C4.68948 9.57665 4.82798 9.51924 5.00364 9.49224L9.53614 9.09624L11.2959 4.92499C11.3599 4.76982 11.457 4.65507 11.5871 4.58074C11.7173 4.5064 11.8548 4.46924 11.9996 4.46924C12.1445 4.46924 12.282 4.5064 12.4121 4.58074C12.5423 4.65507 12.6394 4.76982 12.7034 4.92499L14.4631 9.09624L18.9956 9.49224C19.1713 9.51924 19.3098 9.57665 19.4111 9.66449C19.5125 9.75232 19.5901 9.86541 19.6439 10.0037C19.6977 10.1422 19.707 10.2849 19.6716 10.4317C19.6365 10.5786 19.5547 10.7077 19.4264 10.8192L15.9919 13.7922L17.0246 18.2095C17.0681 18.375 17.0579 18.526 16.9939 18.6625C16.9297 18.799 16.8386 18.9096 16.7206 18.9942C16.6028 19.0787 16.4711 19.1277 16.3256 19.1412C16.1801 19.1547 16.0349 19.1192 15.8899 19.0345L11.9996 16.6885Z" fill="#141414"/>
</g>
</svg>
