<svg width="16" height="16" viewBox="0 0 16 16" fill="none" xmlns="http://www.w3.org/2000/svg">
<g id="State=Sending">
<path id="Vector" d="M8.5665 7.78867V5.08034C8.5665 4.93467 8.51545 4.81073 8.41334 4.7085C8.31123 4.60639 8.18728 4.55534 8.0415 4.55534C7.8915 4.55534 7.76556 4.60639 7.66367 4.7085C7.56189 4.81073 7.511 4.93467 7.511 5.08034V7.997C7.511 8.06734 7.5235 8.13312 7.5485 8.19434C7.5735 8.25556 7.60928 8.31295 7.65584 8.3665L9.97684 10.7477C10.0792 10.8621 10.2072 10.9174 10.361 10.9137C10.5147 10.91 10.6452 10.8544 10.7527 10.747C10.8563 10.6433 10.9082 10.5165 10.9082 10.3665C10.9082 10.2165 10.8566 10.0881 10.7533 9.98117L8.5665 7.78867ZM8.0005 14.5553C7.10106 14.5553 6.25234 14.3826 5.45434 14.0372C4.65623 13.6916 3.96106 13.2222 3.36884 12.6288C2.7765 12.0354 2.30767 11.3403 1.96234 10.5435C1.617 9.74673 1.44434 8.89906 1.44434 8.0005C1.44434 7.10106 1.61706 6.25234 1.9625 5.45434C2.30806 4.65623 2.7775 3.96106 3.37084 3.36884C3.96428 2.7765 4.65939 2.30767 5.45617 1.96234C6.25295 1.617 7.10061 1.44434 7.99917 1.44434C8.89861 1.44434 9.74734 1.61706 10.5453 1.9625C11.3434 2.30806 12.0386 2.7775 12.6308 3.37084C13.2232 3.96428 13.692 4.65939 14.0373 5.45617C14.3827 6.25295 14.5553 7.10062 14.5553 7.99917C14.5553 8.89862 14.3826 9.74734 14.0372 10.5453C13.6916 11.3434 13.2222 12.0386 12.6288 12.6308C12.0354 13.2232 11.3403 13.692 10.5435 14.0373C9.74673 14.3827 8.89906 14.5553 8.0005 14.5553ZM7.997 13.4998C9.50811 13.4998 10.8031 12.9614 11.8818 11.8845C12.9605 10.8077 13.4998 9.51378 13.4998 8.00267C13.4998 6.49156 12.9606 5.19661 11.882 4.11784C10.8034 3.03917 9.50939 2.49984 7.99984 2.49984C6.48684 2.49984 5.19195 3.03911 4.11517 4.11767C3.03828 5.19623 2.49984 6.49028 2.49984 7.99984C2.49984 9.51284 3.03828 10.8077 4.11517 11.8845C5.19195 12.9614 6.48589 13.4998 7.997 13.4998Z" fill="#F9F8FD"/>
</g>
</svg>
