<svg width="16" height="16" viewBox="0 0 16 16" fill="none" xmlns="http://www.w3.org/2000/svg">
<g clip-path="url(#clip0_1981_627688)">
<mask id="mask0_1981_627688" style="mask-type:alpha" maskUnits="userSpaceOnUse" x="0" y="0" width="16" height="16">
<rect width="16" height="16" fill="#D9D9D9"/>
</mask>
<g mask="url(#mask0_1981_627688)">
<path d="M1.66699 8.00008C1.66699 4.50228 4.50252 1.66675 8.00033 1.66675C11.4981 1.66675 14.3337 4.50228 14.3337 8.00008C14.3337 11.4979 11.4981 14.3334 8.00033 14.3334C4.50252 14.3334 1.66699 11.4979 1.66699 8.00008Z" fill="white"/>
<path d="M8.00033 11.1539C8.15288 11.1539 8.28077 11.1023 8.38399 10.9991C8.48721 10.8959 8.53883 10.768 8.53883 10.6154C8.53883 10.4629 8.48721 10.335 8.38399 10.2317C8.28077 10.1286 8.15288 10.0771 8.00033 10.0771C7.84777 10.0771 7.71988 10.1286 7.61666 10.2317C7.51344 10.335 7.46183 10.4629 7.46183 10.6154C7.46183 10.768 7.51344 10.8959 7.61666 10.9991C7.71988 11.1023 7.84777 11.1539 8.00033 11.1539ZM8.00049 8.71808C8.14227 8.71808 8.26099 8.67014 8.35666 8.57425C8.45244 8.47847 8.50033 8.35975 8.50033 8.21808V5.21808C8.50033 5.07642 8.45238 4.95764 8.35649 4.86175C8.2606 4.76597 8.14183 4.71808 8.00016 4.71808C7.85838 4.71808 7.73966 4.76597 7.64399 4.86175C7.54821 4.95764 7.50033 5.07642 7.50033 5.21808V8.21808C7.50033 8.35975 7.54827 8.47847 7.64416 8.57425C7.74005 8.67014 7.85883 8.71808 8.00049 8.71808ZM8.00149 14.3334C7.12549 14.3334 6.3021 14.1672 5.53133 13.8347C4.76055 13.5023 4.0901 13.0511 3.51999 12.4812C2.94988 11.9114 2.49849 11.2412 2.16583 10.4707C1.83327 9.7003 1.66699 8.87714 1.66699 8.00125C1.66699 7.12525 1.83321 6.30186 2.16566 5.53108C2.4981 4.7603 2.94927 4.08986 3.51916 3.51975C4.08905 2.94964 4.75921 2.49825 5.52966 2.16558C6.3001 1.83303 7.12327 1.66675 7.99916 1.66675C8.87516 1.66675 9.69855 1.83297 10.4693 2.16541C11.2401 2.49786 11.9105 2.94903 12.4807 3.51891C13.0508 4.0888 13.5022 4.75897 13.8348 5.52941C14.1674 6.29986 14.3337 7.12303 14.3337 7.99891C14.3337 8.87492 14.1674 9.6983 13.835 10.4691C13.5025 11.2399 13.0514 11.9103 12.4815 12.4804C11.9116 13.0505 11.2414 13.5019 10.471 13.8346C9.70055 14.1671 8.87738 14.3334 8.00149 14.3334Z" fill="#F44649"/>
</g>
</g>
<defs>
<clipPath id="clip0_1981_627688">
<rect width="16" height="16" fill="white"/>
</clipPath>
</defs>
</svg>
