<svg width="16" height="16" viewBox="0 0 16 16" fill="none" xmlns="http://www.w3.org/2000/svg">
<g id="State=Send">
<path id="Vector" d="M6.32227 10.3446L12.2389 4.4279C12.3522 4.31679 12.4842 4.26123 12.6349 4.26123C12.7858 4.26123 12.9168 4.31695 13.0279 4.4284C13.139 4.53995 13.1946 4.67234 13.1946 4.82556C13.1946 4.9789 13.139 5.11112 13.0279 5.22223L6.71127 11.5446C6.60016 11.6557 6.47049 11.7112 6.32227 11.7112C6.17416 11.7112 6.04455 11.6557 5.93344 11.5446L2.95561 8.56673C2.84449 8.45518 2.79172 8.32262 2.79727 8.16906C2.80283 8.01562 2.86138 7.88334 2.97294 7.77223C3.08438 7.66112 3.21677 7.60556 3.37011 7.60556C3.52344 7.60556 3.65566 7.66112 3.76677 7.77223L6.32227 10.3446Z" fill="#F9F8FD"/>
</g>
</svg>
