<svg width="16" height="16" viewBox="0 0 16 16" fill="none" xmlns="http://www.w3.org/2000/svg">
<g id="State=Delivered">
<path id="Vector" d="M1.39994 8.62199C1.28883 8.51088 1.23605 8.37943 1.24161 8.22765C1.24716 8.07576 1.3055 7.94426 1.41661 7.83315C1.52772 7.72571 1.65922 7.6711 1.81111 7.66932C1.96289 7.66743 2.09433 7.72204 2.20544 7.83315L4.76111 10.3998C4.824 10.4628 4.89066 10.5295 4.96111 10.5998L5.16111 10.7998C5.27222 10.9109 5.32683 11.0405 5.32494 11.1887C5.32305 11.3369 5.26655 11.4665 5.15544 11.5777L5.14444 11.5887C5.03333 11.6961 4.90366 11.7508 4.75544 11.7527C4.60733 11.7544 4.47772 11.6998 4.36661 11.5887L1.39994 8.62199ZM7.89994 10.3943L13.8221 4.47199C13.9332 4.36088 14.0647 4.30626 14.2166 4.30815C14.3685 4.31004 14.5 4.36654 14.6111 4.47765C14.7184 4.58876 14.7731 4.72021 14.7749 4.87199C14.7768 5.02388 14.7222 5.15538 14.6111 5.26649L8.28877 11.5887C8.17766 11.6998 8.04805 11.7553 7.89994 11.7553C7.75183 11.7553 7.62222 11.6998 7.51111 11.5887L4.54444 8.62199C4.437 8.51465 4.38511 8.3841 4.38877 8.23032C4.39255 8.07665 4.44811 7.94426 4.55544 7.83315C4.66655 7.72204 4.799 7.66649 4.95277 7.66649C5.10644 7.66649 5.23883 7.72204 5.34994 7.83315L7.89994 10.3943ZM11.4611 5.27199L8.28877 8.44432C8.18144 8.55165 8.05277 8.60349 7.90277 8.59982C7.75277 8.59615 7.62222 8.5406 7.51111 8.43315C7.4 8.32204 7.34444 8.18965 7.34444 8.03599C7.34444 7.88221 7.4 7.74976 7.51111 7.63865L10.6721 4.47765C10.7796 4.37021 10.9101 4.31649 11.0638 4.31649C11.2176 4.31649 11.35 4.37021 11.4611 4.47765C11.5722 4.58876 11.6278 4.72115 11.6278 4.87482C11.6278 5.02849 11.5722 5.16088 11.4611 5.27199Z" fill="#F9F8FD"/>
</g>
</svg>
