<svg width="24" height="24" viewBox="0 0 24 24" fill="none" xmlns="http://www.w3.org/2000/svg">
<path fill-rule="evenodd" clip-rule="evenodd" d="M6.42541 3.53198C4.94956 3.84953 3.82566 4.99078 3.52746 6.47483C3.45601 6.83038 3.44886 7.46378 3.46296 12.1748C3.47766 17.0965 3.48521 17.4962 3.56836 17.7748C3.88646 18.8403 4.62136 19.7197 5.57396 20.1745C6.31606 20.5288 6.19271 20.5178 9.60841 20.5369C12.2688 20.5517 12.7376 20.5434 13.0283 20.476C13.7571 20.3069 13.7108 20.3468 17.0291 17.0285C20.3474 13.7102 20.3075 13.7565 20.4766 13.0277C20.544 12.737 20.5523 12.2682 20.5375 9.60783C20.5183 6.18968 20.5292 6.30943 20.1734 5.57483C19.7047 4.60688 18.8447 3.88703 17.7754 3.56778C17.4962 3.48438 17.1045 3.47743 12.1254 3.46743C7.52016 3.45818 6.72671 3.46713 6.42541 3.53198ZM6.68181 5.00533C6.57531 5.03033 6.33286 5.13243 6.14306 5.23218C5.56891 5.53388 5.13371 6.10523 4.99936 6.73373C4.96531 6.89288 4.95251 8.73443 4.96161 12.1536L4.97541 17.3324L5.18781 17.761C5.51596 18.4232 6.05221 18.8491 6.74036 18.994C6.91436 19.0307 7.83586 19.0498 9.42486 19.0498H11.8444L11.8635 16.9873C11.8846 14.7089 11.8881 14.6806 12.2277 13.9694C12.5812 13.2291 13.2312 12.5798 13.974 12.2252C14.6807 11.8877 14.7113 11.884 16.9879 11.8629L19.0504 11.8438L19.0498 9.38433C19.0492 6.68873 19.0469 6.66358 18.7481 6.10313C18.468 5.57753 17.8902 5.14013 17.2948 5.00288C17.0151 4.93838 6.95691 4.94073 6.68181 5.00533ZM15.0818 13.4053C14.4926 13.5437 13.8387 14.0729 13.5792 14.6213C13.3666 15.0709 13.3474 15.277 13.3618 16.9625L13.3754 18.5502L15.9752 15.95L18.5751 13.3498L16.9252 13.3548C16.0178 13.3576 15.1883 13.3803 15.0818 13.4053Z" fill="#A1A1A1"/>
</svg>
