<svg width="24" height="24" viewBox="0 0 24 24" fill="none" xmlns="http://www.w3.org/2000/svg">
<mask id="mask0_740_8289" style="mask-type:alpha" maskUnits="userSpaceOnUse" x="0" y="0" width="24" height="24">
<rect width="24" height="24" fill="#D9D9D9"/>
</mask>
<g mask="url(#mask0_740_8289)">
<path d="M6.5 15.6923V8.30775C6.5 7.81058 6.677 7.385 7.031 7.031C7.385 6.677 7.81058 6.5 8.30775 6.5H15.6923C16.1894 6.5 16.615 6.677 16.969 7.031C17.323 7.385 17.5 7.81058 17.5 8.30775V15.6923C17.5 16.1894 17.323 16.615 16.969 16.969C16.615 17.323 16.1894 17.5 15.6923 17.5H8.30775C7.81058 17.5 7.385 17.323 7.031 16.969C6.677 16.615 6.5 16.1894 6.5 15.6923Z" fill="#141414"/>
</g>
</svg>
