<svg width="24" height="24" viewBox="0 0 24 24" fill="none" xmlns="http://www.w3.org/2000/svg">
<mask id="mask0_740_8288" style="mask-type:alpha" maskUnits="userSpaceOnUse" x="0" y="0" width="24" height="24">
<rect width="24" height="24" fill="#D9D9D9"/>
</mask>
<g mask="url(#mask0_740_8288)">
<path d="M9.15375 15.75H14.8462C15.1022 15.75 15.3169 15.6634 15.4902 15.4902C15.6634 15.3169 15.75 15.1023 15.75 14.8463V9.15375C15.75 8.89775 15.6634 8.68308 15.4902 8.50975C15.3169 8.33658 15.1022 8.25 14.8462 8.25H9.15375C8.89775 8.25 8.68308 8.33658 8.50975 8.50975C8.33658 8.68308 8.25 8.89775 8.25 9.15375V14.8463C8.25 15.1023 8.33658 15.3169 8.50975 15.4902C8.68308 15.6634 8.89775 15.75 9.15375 15.75ZM12.0017 21.5C10.6877 21.5 9.45267 21.2507 8.2965 20.752C7.14033 20.2533 6.13467 19.5766 5.2795 18.7218C4.42433 17.8669 3.74725 16.8617 3.24825 15.706C2.74942 14.5503 2.5 13.3156 2.5 12.0017C2.5 10.6877 2.74933 9.45267 3.248 8.2965C3.74667 7.14033 4.42342 6.13467 5.27825 5.2795C6.13308 4.42433 7.13833 3.74725 8.294 3.24825C9.44967 2.74942 10.6844 2.5 11.9983 2.5C13.3123 2.5 14.5473 2.74933 15.7035 3.248C16.8597 3.74667 17.8653 4.42342 18.7205 5.27825C19.5757 6.13308 20.2528 7.13833 20.7518 8.294C21.2506 9.44967 21.5 10.6844 21.5 11.9983C21.5 13.3123 21.2507 14.5473 20.752 15.7035C20.2533 16.8597 19.5766 17.8653 18.7218 18.7205C17.8669 19.5757 16.8617 20.2528 15.706 20.7518C14.5503 21.2506 13.3156 21.5 12.0017 21.5Z" fill="#141414"/>
</g>
</svg>
