<svg width="24" height="24" viewBox="0 0 24 24" fill="none" xmlns="http://www.w3.org/2000/svg">
<mask id="mask0_740_8287" style="mask-type:alpha" maskUnits="userSpaceOnUse" x="0" y="0" width="24" height="24">
<rect width="24" height="24" fill="#D9D9D9"/>
</mask>
<g mask="url(#mask0_740_8287)">
<path d="M18.1235 20.2307H2.1353C1.92246 20.2307 1.74421 20.1589 1.60055 20.0152C1.45705 19.8717 1.3853 19.6936 1.3853 19.4807C1.3853 19.2679 1.45705 19.0897 1.60055 18.9462C1.74421 18.8026 1.92246 18.7307 2.1353 18.7307H16.6083L15.6083 17.7307H4.3083C3.80313 17.7307 3.37555 17.5557 3.02555 17.2057C2.67555 16.8557 2.50055 16.4282 2.50055 15.923V5.44623C2.50055 5.33723 2.52938 5.23948 2.58705 5.15298C2.64488 5.06632 2.71863 4.9974 2.8083 4.94623L1.5583 3.68073C1.4198 3.53207 1.34896 3.35807 1.3458 3.15873C1.34263 2.95923 1.41855 2.78199 1.57355 2.62699C1.71855 2.48199 1.89421 2.40948 2.10055 2.40948C2.30688 2.40948 2.48255 2.48199 2.62755 2.62699L21.3735 21.373C21.512 21.5115 21.5829 21.6856 21.586 21.8952C21.5894 22.1047 21.5185 22.282 21.3735 22.427C21.2287 22.5718 21.0531 22.6442 20.8468 22.6442C20.6403 22.6442 20.4646 22.5718 20.3198 22.427L18.1235 20.2307ZM10.039 12.1672L8.7333 10.8462C8.6243 10.9962 8.53905 11.1737 8.47755 11.3787C8.41605 11.5839 8.3853 11.8102 8.3853 12.0577V13.3077C8.3853 13.5206 8.45705 13.6987 8.60055 13.8422C8.74422 13.9859 8.92247 14.0577 9.1353 14.0577C9.34797 14.0577 9.52613 13.9859 9.6698 13.8422C9.8133 13.6987 9.88505 13.5206 9.88505 13.3077V12.5807C9.88505 12.4909 9.89788 12.414 9.92355 12.35C9.94921 12.2858 9.98772 12.2249 10.039 12.1672ZM20.412 17.5615L14.2333 11.3827L15.2275 10.3787C15.321 10.2852 15.3678 10.1798 15.3678 10.0625C15.3678 9.94515 15.321 9.83973 15.2275 9.74623L13.5218 8.04048C13.4448 7.96348 13.3611 7.94423 13.2708 7.98273C13.1805 8.02123 13.1353 8.0924 13.1353 8.19623V9.30773H12.1583L6.5813 3.73073H19.6928C20.198 3.73073 20.6255 3.90573 20.9755 4.25573C21.3255 4.60573 21.5005 5.03332 21.5005 5.53848V15.923C21.5005 16.2795 21.4054 16.6042 21.215 16.897C21.0245 17.19 20.7569 17.4115 20.412 17.5615Z" fill="#141414"/>
</g>
</svg>
