<svg width="24" height="24" viewBox="0 0 24 24" fill="none" xmlns="http://www.w3.org/2000/svg">
<mask id="mask0_740_8307" style="mask-type:alpha" maskUnits="userSpaceOnUse" x="0" y="0" width="24" height="24">
<rect width="24" height="24" fill="#D9D9D9"/>
</mask>
<g mask="url(#mask0_740_8307)">
<path d="M7.37295 15.75L10.527 18.9038C10.6756 19.0526 10.7541 19.2267 10.7625 19.426C10.7708 19.6253 10.6974 19.8026 10.5422 19.9578C10.387 20.1128 10.2089 20.1902 10.0077 20.1902C9.80637 20.1902 9.62812 20.1128 9.47295 19.9578L5.1327 15.6328C5.03904 15.5391 4.97304 15.4403 4.9347 15.3365C4.8962 15.2327 4.87695 15.1205 4.87695 15C4.87695 14.8795 4.8962 14.7673 4.9347 14.6635C4.97304 14.5597 5.03904 14.4609 5.1327 14.3673L9.48845 10.0115C9.63712 9.86283 9.81112 9.7895 10.0105 9.7915C10.2098 9.79333 10.387 9.87183 10.5422 10.027C10.687 10.1822 10.762 10.3578 10.7672 10.5538C10.7724 10.7499 10.6974 10.9256 10.5422 11.0807L7.37295 14.25H16.6922C16.782 14.25 16.8558 14.2212 16.9135 14.1635C16.9711 14.1058 17 14.0321 17 13.9423V5.25C17 5.03717 17.0718 4.859 17.2155 4.7155C17.359 4.57183 17.5371 4.5 17.75 4.5C17.9628 4.5 18.141 4.57183 18.2845 4.7155C18.4281 4.859 18.5 5.03717 18.5 5.25V13.9423C18.5 14.4409 18.3234 14.8669 17.9702 15.2203C17.6169 15.5734 17.1909 15.75 16.6922 15.75H7.37295Z" fill="#141414"/>
</g>
</svg>
