<svg width="24" height="24" viewBox="0 0 24 24" fill="none" xmlns="http://www.w3.org/2000/svg">
<mask id="mask0_740_8476" style="mask-type:alpha" maskUnits="userSpaceOnUse" x="0" y="0" width="24" height="24">
<rect width="24" height="24" fill="#D9D9D9"/>
</mask>
<g mask="url(#mask0_740_8476)">
<path d="M12 5.21151C11.7874 5.21151 11.6093 5.13967 11.4658 4.99601C11.3221 4.85217 11.2503 4.67401 11.2503 4.46151V2.26926C11.2503 2.05676 11.3222 1.87867 11.466 1.73501C11.6099 1.59117 11.788 1.51926 12.0005 1.51926C12.2132 1.51926 12.3913 1.59117 12.5348 1.73501C12.6784 1.87867 12.7503 2.05676 12.7503 2.26926V4.46151C12.7503 4.67401 12.6784 4.85217 12.5345 4.99601C12.3907 5.13967 12.2125 5.21151 12 5.21151ZM16.7965 7.20376C16.658 7.06542 16.5904 6.89401 16.5935 6.68951C16.5967 6.48501 16.6675 6.30517 16.806 6.15001L18.331 4.59051C18.4815 4.43534 18.6602 4.35776 18.867 4.35776C19.0739 4.35776 19.2555 4.43601 19.412 4.59251C19.5555 4.73601 19.6273 4.91092 19.6273 5.11726C19.6273 5.32376 19.5548 5.49942 19.4098 5.64426L17.8503 7.20376C17.7055 7.34876 17.5298 7.42126 17.3233 7.42126C17.1169 7.42126 16.9414 7.34876 16.7965 7.20376ZM19.5388 12.75C19.3263 12.75 19.1481 12.6781 19.0043 12.5343C18.8606 12.3904 18.7888 12.2123 18.7888 11.9998C18.7888 11.7871 18.8606 11.609 19.0043 11.4655C19.1481 11.3218 19.3263 11.25 19.5388 11.25H21.731C21.9435 11.25 22.1216 11.3219 22.2653 11.4658C22.4091 11.6096 22.481 11.7878 22.481 12.0003C22.481 12.2129 22.4091 12.391 22.2653 12.5345C22.1216 12.6782 21.9435 12.75 21.731 12.75H19.5388ZM12 22.4808C11.7874 22.4808 11.6093 22.4088 11.4658 22.265C11.3221 22.1213 11.2503 21.9433 11.2503 21.7308V19.548C11.2503 19.3355 11.3222 19.1574 11.466 19.0138C11.6099 18.8699 11.788 18.798 12.0005 18.798C12.2132 18.798 12.3913 18.8699 12.5348 19.0138C12.6784 19.1574 12.7503 19.3355 12.7503 19.548V21.7308C12.7503 21.9433 12.6784 22.1213 12.5345 22.265C12.3907 22.4088 12.2125 22.4808 12 22.4808ZM6.16003 7.20376L4.59078 5.66926C4.43561 5.51942 4.35803 5.33834 4.35803 5.12601C4.35803 4.91384 4.43561 4.73534 4.59078 4.59051C4.73561 4.45201 4.91336 4.38276 5.12403 4.38276C5.3347 4.38276 5.5082 4.45201 5.64453 4.59051L7.21378 6.15976C7.35228 6.29609 7.42153 6.46959 7.42153 6.68026C7.42153 6.89092 7.35295 7.06542 7.21578 7.20376C7.06611 7.34226 6.89153 7.41151 6.69203 7.41151C6.49237 7.41151 6.31503 7.34226 6.16003 7.20376ZM18.3408 19.4095L16.806 17.85C16.6675 17.6948 16.5967 17.515 16.5935 17.3105C16.5904 17.106 16.6574 16.9346 16.7945 16.7963C16.9317 16.6578 17.1032 16.5885 17.309 16.5885C17.5147 16.5885 17.6951 16.6609 17.8503 16.8058L19.4098 18.3405C19.5586 18.4788 19.6304 18.6528 19.6253 18.8625C19.6201 19.0722 19.5474 19.2545 19.407 19.4095C19.2539 19.5647 19.0719 19.6423 18.8613 19.6423C18.6504 19.6423 18.4769 19.5647 18.3408 19.4095ZM2.26953 12.75C2.05703 12.75 1.87895 12.6781 1.73528 12.5343C1.59145 12.3904 1.51953 12.2123 1.51953 11.9998C1.51953 11.7871 1.59145 11.609 1.73528 11.4655C1.87895 11.3218 2.05703 11.25 2.26953 11.25H4.46178C4.67428 11.25 4.85245 11.3219 4.99628 11.4658C5.13995 11.6096 5.21178 11.7878 5.21178 12.0003C5.21178 12.2129 5.13995 12.391 4.99628 12.5345C4.85245 12.6782 4.67428 12.75 4.46178 12.75H2.26953ZM4.60028 19.4095C4.46178 19.2647 4.39095 19.0874 4.38778 18.8778C4.38461 18.6683 4.45228 18.4943 4.59078 18.3558L6.14078 16.8058C6.28561 16.6609 6.4587 16.5885 6.66003 16.5885C6.8612 16.5885 7.03936 16.6603 7.19453 16.8038C7.3497 16.9603 7.42728 17.1408 7.42728 17.3453C7.42728 17.5498 7.3497 17.7295 7.19453 17.8845L5.66953 19.4095C5.51437 19.5647 5.33145 19.6423 5.12078 19.6423C4.91012 19.6423 4.73661 19.5647 4.60028 19.4095ZM12.0025 17.5C10.4754 17.5 9.17653 16.9655 8.10603 15.8965C7.03553 14.8275 6.50028 13.5294 6.50028 12.0023C6.50028 10.4751 7.03478 9.17626 8.10378 8.10576C9.17278 7.03526 10.4709 6.50001 11.998 6.50001C13.5252 6.50001 14.824 7.03451 15.8945 8.10351C16.965 9.17251 17.5003 10.4706 17.5003 11.9978C17.5003 13.5249 16.9658 14.8238 15.8968 15.8943C14.8278 16.9648 13.5297 17.5 12.0025 17.5Z" fill="#141414"/>
</g>
</svg>
