<svg width="18" height="18" viewBox="0 0 18 18" fill="none" xmlns="http://www.w3.org/2000/svg">
<g id="Icon / Symbols" clip-path="url(#clip0_3328_49536)">
<g id="fill">
<path d="M10.0149 17.5333L12.9947 13.6424L15.7282 10.0204H17.0373L14.0142 13.7678L11.3628 17.5014L10.0149 17.5333ZM4.113 17.511C3.80341 17.5447 3.48991 17.5164 3.19227 17.4281C2.89463 17.3398 2.61933 17.1934 2.38374 16.998C2.14815 16.8026 1.95738 16.5625 1.82349 16.2929C1.68959 16.0233 1.61547 15.73 1.6058 15.4316C1.61838 15.007 1.75996 14.5952 2.01317 14.2466C2.26639 13.898 2.62024 13.6278 3.03135 13.4691C3.12651 13.4148 3.22464 13.3655 3.32534 13.3213C2.80895 12.9041 2.48164 12.3111 2.41232 11.6672C2.42021 11.4348 2.47697 11.2064 2.57922 10.9956C2.68147 10.7848 2.82709 10.5959 3.00735 10.4404C3.18761 10.2848 3.3988 10.1657 3.62825 10.0903C3.8577 10.0148 4.10069 9.98456 4.34264 10.0013C4.58508 9.98485 4.82847 10.0155 5.05822 10.0915C5.28797 10.1674 5.49933 10.2871 5.67962 10.4433C5.8599 10.5995 6.0054 10.789 6.10736 11.0004C6.20932 11.2118 6.26565 11.4407 6.27297 11.6735C6.27297 12.5878 5.52525 13.0981 4.71983 13.5138L6.30292 15.2689C6.57258 14.7114 6.69852 14.1 6.67013 13.4861V13.2108H7.63862V13.518C7.68679 14.3762 7.47694 15.2296 7.034 15.977L8.49395 17.4579H7.12387L6.38391 16.6648C5.75845 17.2006 4.95187 17.5005 4.113 17.511ZM3.87892 13.9411C3.80016 13.9762 3.73027 14.0113 3.64484 14.057C2.96035 14.4153 2.65527 14.815 2.65527 15.3529C2.65527 16.4043 3.71141 16.5223 4.16514 16.5223H4.26166C4.81483 16.5233 5.34732 16.3209 5.74934 15.9568L3.87892 13.9411ZM4.35041 10.7795C4.22231 10.7795 4.09554 10.8044 3.97783 10.8528C3.86012 10.9013 3.75392 10.9721 3.6657 11.0612C3.57748 11.1502 3.50909 11.2555 3.46469 11.3706C3.42029 11.4858 3.40081 11.6084 3.40744 11.7309C3.40744 12.102 3.59825 12.4081 4.16292 12.9471C4.87848 12.5952 5.29338 12.2816 5.29338 11.7256C5.29923 11.6035 5.27918 11.4814 5.23443 11.3669C5.18968 11.2524 5.12116 11.1478 5.03303 11.0593C4.94489 10.9709 4.83896 10.9005 4.72163 10.8524C4.60431 10.8043 4.47802 10.7795 4.35041 10.7795ZM15.6805 17.477C14.7664 17.477 14.1518 16.7541 14.1518 15.6793V15.5315C14.1221 15.3166 14.1391 15.0982 14.2018 14.8899C14.2644 14.6817 14.3714 14.4881 14.5159 14.3213C14.6604 14.1546 14.8394 14.0183 15.0415 13.921C15.2437 13.8238 15.4646 13.7676 15.6905 13.7562C16.6113 13.7562 17.2303 14.4716 17.2303 15.5379V15.6857C17.2597 15.9019 17.2421 16.1216 17.1788 16.331C17.1154 16.5405 17.0076 16.7351 16.8621 16.9028C16.7166 17.0704 16.5366 17.2075 16.3333 17.3054C16.13 17.4033 15.9077 17.4599 15.6805 17.4717V17.477ZM15.6961 14.5811C15.2645 14.5811 15.0071 14.9553 15.0071 15.5826V15.6251C15.0071 16.2629 15.2689 16.651 15.6905 16.651C16.1121 16.651 16.3739 16.2619 16.3739 15.6346V15.5921C16.375 14.9532 16.1221 14.5758 15.6972 14.5758L15.6961 14.5811ZM11.2419 13.7466C10.3278 13.7466 9.71316 13.0237 9.71316 11.9489V11.8022C9.68329 11.587 9.70025 11.3682 9.76296 11.1596C9.82567 10.951 9.93277 10.7571 10.0775 10.5901C10.2223 10.4232 10.4016 10.2867 10.604 10.1894C10.8065 10.0921 11.0279 10.036 11.2541 10.0247C12.1749 10.0247 12.7939 10.7401 12.7939 11.8064V11.9489C12.8241 12.1657 12.8071 12.3861 12.7441 12.5963C12.6811 12.8065 12.5733 13.0019 12.4277 13.1702C12.282 13.3386 12.1015 13.4762 11.8977 13.5745C11.6938 13.6728 11.4709 13.7295 11.243 13.7413L11.2419 13.7466ZM11.2585 10.855C10.8292 10.855 10.5729 11.2281 10.5729 11.8543V11.8947C10.5729 12.524 10.8336 12.9152 11.2541 12.9152C11.6746 12.9152 11.9353 12.5272 11.9353 11.9042V11.8617C11.9353 11.226 11.6823 10.8496 11.2596 10.8496L11.2585 10.855ZM11.6224 8.73939C11.3804 8.77098 11.1341 8.73 10.9174 8.62207C10.7007 8.51414 10.5242 8.34455 10.4121 8.13661C10.3211 7.93853 10.2719 7.72517 10.2673 7.5088C10.2627 7.29243 10.3028 7.07733 10.3853 6.87586C10.4678 6.6744 10.591 6.49056 10.7479 6.33491C10.9048 6.17927 11.0923 6.0549 11.2996 5.96895C11.6177 5.81543 11.9708 5.74051 12.3269 5.75101C12.5753 5.75109 12.823 5.77676 13.0657 5.82756L13.0979 0.46741C13.5886 0.457868 14.0764 0.541333 14.5333 0.71301C14.9902 0.884687 15.4072 1.14119 15.7604 1.46779C16.0979 1.81622 16.3572 2.22738 16.5221 2.67578C16.687 3.12419 16.754 3.60027 16.7189 4.07451C16.5406 4.97838 16.0559 5.80054 15.3399 6.41332C15.1025 6.19539 15.2712 5.90516 15.4842 5.53839C15.7753 5.12094 15.9298 4.62974 15.9279 4.12766C15.8388 3.65202 15.6375 3.20218 15.3393 2.8125C15.0411 2.42281 14.6539 2.10359 14.2073 1.87921V6.45691C14.2104 6.78607 14.1331 7.11136 13.9815 7.40673C13.8299 7.70211 13.6082 7.95935 13.3342 8.15787C12.8437 8.52157 12.2436 8.72367 11.6235 8.73407L11.6224 8.73939ZM9.00981 2.23109H1.24414V1.16799H9.00981V2.23109Z" fill="#A1A1A1"/>
<path d="M5.68167 8.60969H4.57229V4.35729H1.24414V3.29419H9.00981V4.35729H5.68167V8.60969Z" fill="#A1A1A1"/>
</g>
</g>
<defs>
<clipPath id="clip0_3328_49536">
<rect width="17.0667" height="17.0667" fill="white" transform="translate(0.466797 0.466675)"/>
</clipPath>
</defs>
</svg>
