<?xml version="1.0" encoding="iso-8859-1"?>
<!-- Generator: Adobe Illustrator 19.0.0, SVG Export Plug-In . SVG Version: 6.00 Build 0)  -->
<svg version="1.1" id="Capa_1" xmlns="http://www.w3.org/2000/svg" xmlns:xlink="http://www.w3.org/1999/xlink" x="0px" y="0px"
	 viewBox="0 0 512 512" style="enable-background:new 0 0 512 512;" xml:space="preserve">
<g>
	<g>
		<circle cx="256" cy="201.04" r="20"/>
	</g>
</g>
<g>
	<g>
		<circle cx="186" cy="201.04" r="20"/>
	</g>
</g>
<g>
	<g>
		<circle cx="326" cy="201.04" r="20"/>
	</g>
</g>
<g>
	<g>
		<path d="M434.339,82.242C386.473,52.45,323.138,36.043,256,36.043S125.527,52.45,77.661,82.242
			C27.581,113.413,0,155.604,0,201.043c0,41.235,23.293,80.566,65.587,110.749c36.838,26.289,86.136,44.211,140.033,51.082
			c-1.708,26.625-9.155,52.702-21.793,76.062l-20.03,37.021l38.928-16.011c46.355-19.065,84.424-53.563,107.98-97.647
			c53.867-7.49,103.002-26.161,139.07-52.957C489.901,279.531,512,241.07,512,201.043C512,155.604,484.419,113.413,434.339,82.242z
			 M431.885,285.26c-33.702,25.037-80.824,42.18-132.688,48.27l-8.148,0.957l-3.59,7.377c-13.93,28.626-34.804,52.916-60.48,70.856
			c5.949-19.931,9.021-40.747,9.021-61.677c0-0.397-0.007-0.793-0.015-1.188l-0.109-14.105l-13.545-1.228
			C112.684,324.585,30,267.202,30,201.043c0-34.693,22.556-67.839,63.514-93.331C136.686,80.841,194.391,66.043,256,66.043
			s119.314,14.798,162.486,41.669C459.444,133.204,482,166.35,482,201.043C482,231.342,464.202,261.251,431.885,285.26z"/>
	</g>
</g>
<g>
</g>
<g>
</g>
<g>
</g>
<g>
</g>
<g>
</g>
<g>
</g>
<g>
</g>
<g>
</g>
<g>
</g>
<g>
</g>
<g>
</g>
<g>
</g>
<g>
</g>
<g>
</g>
<g>
</g>
</svg>
