<svg width="24" height="24" viewBox="0 0 24 24" fill="none" xmlns="http://www.w3.org/2000/svg">
<mask id="mask0_740_8394" style="mask-type:alpha" maskUnits="userSpaceOnUse" x="0" y="0" width="24" height="24">
<rect width="24" height="24" fill="#D9D9D9"/>
</mask>
<g mask="url(#mask0_740_8394)">
<path d="M20.6923 8.5C21.1679 8.5 21.5881 8.68242 21.9527 9.04725C22.3176 9.41192 22.5 9.83208 22.5 10.3078V11.923C22.5 12.0268 22.4891 12.139 22.4673 12.2595C22.4454 12.38 22.4128 12.4923 22.3693 12.5963L19.5038 19.3577C19.3603 19.6782 19.1199 19.9487 18.7828 20.1693C18.4456 20.3898 18.0949 20.5 17.7308 20.5H9.6345C9.13583 20.5 8.70992 20.3234 8.35675 19.9703C8.00358 19.6169 7.827 19.1909 7.827 18.6923V9.248C7.827 9.007 7.87633 8.77533 7.975 8.553C8.07367 8.3305 8.20508 8.13717 8.36925 7.973L13.6595 2.71725C13.8583 2.52892 14.0885 2.41292 14.35 2.36925C14.6115 2.32575 14.8621 2.36483 15.1018 2.4865C15.3416 2.60833 15.5147 2.78717 15.621 3.023C15.7275 3.259 15.7487 3.50967 15.6845 3.775L14.6075 8.5H20.6923ZM4.30775 20.5C3.80908 20.5 3.38308 20.3234 3.02975 19.9703C2.67658 19.6169 2.5 19.1909 2.5 18.6923V10.3078C2.5 9.80908 2.67658 9.38308 3.02975 9.02975C3.38308 8.67658 3.80908 8.5 4.30775 8.5H4.51925C5.01792 8.5 5.44392 8.67658 5.79725 9.02975C6.15042 9.38308 6.327 9.80908 6.327 10.3078V18.702C6.327 19.2007 6.15042 19.625 5.79725 19.975C5.44392 20.325 5.01792 20.5 4.51925 20.5H4.30775Z" fill="#141414"/>
</g>
</svg>
