<svg width="24" height="24" viewBox="0 0 24 24" fill="none" xmlns="http://www.w3.org/2000/svg">
<path d="M14.6231 18.45L13.6674 21.0288C13.6135 21.1673 13.5241 21.2804 13.3991 21.3683C13.2741 21.4561 13.1341 21.5 12.9789 21.5C12.7226 21.5 12.5175 21.3945 12.3636 21.1835C12.2098 20.9727 12.1835 20.7423 12.2846 20.4923L16.1714 10.4615C16.2354 10.323 16.3283 10.2115 16.4501 10.127C16.572 10.0423 16.7072 10 16.8559 10H17.4136C17.5623 10 17.6975 10.0423 17.8194 10.127C17.941 10.2115 18.034 10.323 18.0981 10.4615L21.9846 20.5078C22.086 20.7474 22.0623 20.9727 21.9136 21.1835C21.7648 21.3945 21.5622 21.5 21.3059 21.5C21.1405 21.5 20.9979 21.4561 20.8779 21.3683C20.758 21.2804 20.6661 21.1622 20.6021 21.0135L19.6464 18.45H14.6231ZM8.98288 13.5903L4.53663 18.0308C4.39813 18.1756 4.22663 18.2506 4.02213 18.2558C3.8178 18.2609 3.63805 18.1859 3.48288 18.0308C3.33805 17.8859 3.26563 17.7103 3.26563 17.5038C3.26563 17.2974 3.33805 17.1218 3.48288 16.977L7.92888 12.5213C7.35205 11.9379 6.80372 11.2456 6.28388 10.4443C5.76388 9.64293 5.33597 8.82818 5.00013 8.00002H6.59038C6.87888 8.60518 7.22988 9.21035 7.64338 9.81552C8.05688 10.4205 8.50338 10.9711 8.98288 11.4673C9.69305 10.7506 10.3648 9.88043 10.9981 8.85677C11.6315 7.8331 12.079 6.88085 12.3406 6.00002H2.44238C2.22955 6.00002 2.05138 5.92818 1.90788 5.78452C1.76422 5.64102 1.69238 5.46285 1.69238 5.25002C1.69238 5.03718 1.76422 4.85902 1.90788 4.71552C2.05138 4.57185 2.22955 4.50002 2.44238 4.50002H8.25013V3.63477C8.25013 3.42193 8.32197 3.24368 8.46563 3.10002C8.60913 2.95652 8.7873 2.88477 9.00013 2.88477C9.21297 2.88477 9.39113 2.95652 9.53463 3.10002C9.6783 3.24368 9.75013 3.42193 9.75013 3.63477V4.50002H15.5579C15.7707 4.50002 15.9489 4.57185 16.0924 4.71552C16.236 4.85902 16.3079 5.03718 16.3079 5.25002C16.3079 5.46285 16.236 5.64102 16.0924 5.78452C15.9489 5.92818 15.7707 6.00002 15.5579 6.00002H13.8596C13.5353 7.12302 13.0184 8.29702 12.3089 9.52202C11.5992 10.747 10.8418 11.757 10.0366 12.552L12.5039 15.0788L11.9366 16.6193L8.98288 13.5903ZM15.1039 17.123H19.1654L17.1346 11.6673L15.1039 17.123Z" fill="#141414"/>
</svg>
