<?xml version="1.0" encoding="UTF-8" standalone="no"?> <svg id="Layer_1" data-name="Layer 1" xmlns="http://www.w3.org/2000/svg" viewBox="0 0 128 128"><defs><style>.cls-1{fill:#1d75b8;}.cls-2{fill:#2d3e50;}</style></defs><title>a</title><path class="cls-1" d="M89.8229,29.16655a48.45717,48.45717,0,0,1,8.24529,15.063l-6.28575,1.11819L105.141,56.76847l3.90824-7.2791.19-.35824,4.08738-7.61564-6.11748,1.08562A56.858,56.858,0,0,0,95.71781,24.04242,56.14343,56.14343,0,0,0,71.85589,8.76234l-2.01927,5.61807A49.2684,49.2684,0,0,1,89.8229,29.16655Z"/><path class="cls-2" d="M55.13581,49.26609a5.65761,5.65761,0,0,0-3.049-4.10606c-5.30165-2.64369-16.93554-6.54814-16.93554-6.54814v-3.8413l.32385-.2444a11.11461,11.11461,0,0,0,4.22013-7.06344l.06518-.40939h.31569a4.29348,4.29348,0,0,0,3.97369-2.67221,4.67554,4.67554,0,0,0,.58454-2.26486,4.30186,4.30186,0,0,0-.30551-1.59272,2.22146,2.22146,0,0,0-.86154-1.385l-1.07337-.65175.26681-1.165C44.59973,8.86932,38.05159,1.25594,29.259,1.04615c-.21386-.00408-.42567-.00609-.63546-.002-.20979-.00405-.42161-.002-.63546.002-8.79262.20979-15.34076,7.82317-13.40178,16.27566l.26681,1.165-1.07337.65175a2.22146,2.22146,0,0,0-.86154,1.385,4.30186,4.30186,0,0,0-.30551,1.59272,4.67554,4.67554,0,0,0,.58454,2.26486,4.29348,4.29348,0,0,0,3.97369,2.67221h.31569l.06518.40939a11.11461,11.11461,0,0,0,4.22013,7.06344l.32385.2444v3.8413S10.46185,42.51634,5.1602,45.16a5.65761,5.65761,0,0,0-3.049,4.10606A123.18723,123.18723,0,0,0,1.0419,63.5111H56.2051A123.18723,123.18723,0,0,0,55.13581,49.26609Z"/><path class="cls-2" d="M125.88881,112.71309a5.65761,5.65761,0,0,0-3.049-4.10606c-5.30165-2.64369-16.93554-6.54814-16.93554-6.54814v-3.8413l.32385-.2444a11.11461,11.11461,0,0,0,4.22013-7.06344l.06518-.40939h.31569a4.29348,4.29348,0,0,0,3.97369-2.67221,4.67554,4.67554,0,0,0,.58454-2.26486,4.30186,4.30186,0,0,0-.30551-1.59272,2.22146,2.22146,0,0,0-.86154-1.385l-1.07337-.65175.26681-1.165c1.939-8.45249-4.60915-16.06587-13.40178-16.27566-.21386-.00408-.42567-.00609-.63546-.002-.20979-.00405-.42161-.002-.63546.002-8.79262.20979-15.34076,7.82317-13.40178,16.27566l.26681,1.165-1.07337.65175a2.22146,2.22146,0,0,0-.86154,1.385,4.30186,4.30186,0,0,0-.30551,1.59272,4.67554,4.67554,0,0,0,.58454,2.26486,4.29348,4.29348,0,0,0,3.97369,2.67221h.31569l.06518.40939a11.11461,11.11461,0,0,0,4.22013,7.06344l.32385.2444v3.8413s-11.63389,3.90445-16.93554,6.54814a5.65761,5.65761,0,0,0-3.049,4.10606,123.18723,123.18723,0,0,0-1.06929,14.245H126.9581A123.18724,123.18724,0,0,0,125.88881,112.71309Z"/><path class="cls-1" d="M38.21426,98.79041a48.45739,48.45739,0,0,1-7.77175-15.31269l6.31756-.92172L23.764,70.7244l-4.13326,7.15374-.201.35214-4.3228,7.48451,6.14836-.89439a56.85828,56.85828,0,0,0,10.90719,18.90788,56.14343,56.14343,0,0,0,23.374,16.01651l2.19341-5.55241A49.268,49.268,0,0,1,38.21426,98.79041Z"/></svg>