<svg width="18" height="18" viewBox="0 0 18 18" fill="none" xmlns="http://www.w3.org/2000/svg">
<g id="Icon / Travel &#38; Places" clip-path="url(#clip0_3328_49530)">
<path id="fill" d="M5.80013 17.5323H3.6668V16.1094C3.47847 16.1091 3.29794 16.0342 3.16478 15.9011C3.03162 15.7679 2.95668 15.5874 2.9564 15.3991V12.5555C2.9564 12.367 3.03121 12.1862 3.1644 12.0528C3.2976 11.9195 3.47829 11.8444 3.6668 11.8441H4.73346V10.7775C4.76122 9.91752 5.12312 9.10224 5.74233 8.50478C6.36153 7.90732 7.18926 7.57475 8.04973 7.5777H9.9516C10.8119 7.57503 11.6393 7.90772 12.2583 8.50515C12.8773 9.10258 13.2391 9.91771 13.2668 10.7775V11.8441H14.3335C14.5221 11.8444 14.7029 11.9194 14.8362 12.0528C14.9696 12.1861 15.0446 12.3669 15.0449 12.5555V15.3991C15.0446 15.5876 14.9696 15.7683 14.8362 15.9014C14.7028 16.0346 14.522 16.1094 14.3335 16.1094V17.5323H12.2001V16.1094H5.80013V17.5323ZM3.6668 14.6887V15.3884H14.3335V14.6887H11.6668V14.677C11.6665 14.5827 11.6289 14.4924 11.5621 14.4258C11.4953 14.3592 11.4048 14.3218 11.3105 14.3218H6.68866C6.59446 14.3218 6.50411 14.3592 6.4375 14.4258C6.37089 14.4924 6.33346 14.5828 6.33346 14.677V14.6887H3.6668ZM13.0897 12.6334C12.9316 12.6336 12.777 12.6807 12.6456 12.7687C12.5141 12.8567 12.4118 12.9818 12.3514 13.1279C12.291 13.2741 12.2753 13.4349 12.3063 13.59C12.3373 13.7452 12.4136 13.8876 12.5255 13.9994C12.6374 14.1111 12.78 14.1872 12.9351 14.218C13.0903 14.2488 13.2511 14.2329 13.3972 14.1723C13.5433 14.1117 13.6682 14.0092 13.756 13.8776C13.8439 13.7461 13.8908 13.5915 13.8908 13.4333C13.8905 13.2211 13.806 13.0176 13.6558 12.8676C13.5056 12.7176 13.302 12.6334 13.0897 12.6334ZM4.89026 12.6334C4.73204 12.6334 4.57737 12.6803 4.44581 12.7682C4.31425 12.8561 4.21171 12.981 4.15116 13.1272C4.09061 13.2734 4.07477 13.4342 4.10564 13.5894C4.1365 13.7446 4.2127 13.8871 4.32458 13.999C4.43646 14.1109 4.57901 14.187 4.73419 14.2179C4.88938 14.2488 5.05023 14.2329 5.19641 14.1724C5.34259 14.1118 5.46753 14.0093 5.55544 13.8778C5.64334 13.7462 5.69026 13.5915 5.69026 13.4333C5.68998 13.2211 5.60546 13.0176 5.45526 12.8676C5.30506 12.7176 5.10147 12.6334 4.8892 12.6334H4.89026ZM9.00013 8.6443C5.80013 8.6443 5.80013 10.1983 5.80013 11.8441H12.2001V11.8324C12.2835 11.0742 12.1446 10.3082 11.8001 9.6277C11.3468 8.95681 10.4593 8.6443 9.00013 8.6443ZM1.53346 16.4561H0.466797V6.85668H4.02946L4.02306 0.466675H11.4897V4.72241H17.5335V16.455H16.4668V5.79967H11.4887V6.86628H10.422V1.53327H5.08866L5.08013 7.93288H1.53346V16.455V16.4561ZM15.4001 10.0565H14.3335V8.98988H15.4001V10.0565ZM3.6668 10.0565H2.60013V8.98988H3.6668V10.0565ZM15.4001 7.92328H14.3335V6.85668H15.4001V7.92328ZM9.35533 5.79967H8.28866V4.73308H9.35533V5.79967ZM7.222 5.79967H6.15533V4.73308H7.222V5.79967ZM9.35533 3.66648H8.28866V2.59987H9.35533V3.66648ZM7.222 3.66648H6.15533V2.58921L7.222 2.59987V3.66648Z" fill="#A1A1A1"/>
</g>
<defs>
<clipPath id="clip0_3328_49530">
<rect width="17.0667" height="17.0667" fill="white" transform="translate(0.466797 0.466675)"/>
</clipPath>
</defs>
</svg>
