<svg width="24" height="24" viewBox="0 0 24 24" fill="none" xmlns="http://www.w3.org/2000/svg">
<path d="M5.75024 19.8332C5.32208 19.8332 4.95116 19.6764 4.63749 19.3627C4.32383 19.049 4.16699 18.6781 4.16699 18.2499V15.6999C4.16699 15.4778 4.24433 15.2896 4.39899 15.1354C4.55366 14.9813 4.74116 14.9042 4.96149 14.9042C5.18183 14.9042 5.36833 14.9813 5.52099 15.1354C5.67383 15.2896 5.75024 15.4778 5.75024 15.6999V18.2499H18.2502V15.6999C18.2502 15.4778 18.3276 15.2896 18.4822 15.1354C18.6371 14.9813 18.8246 14.9042 19.0447 14.9042C19.2651 14.9042 19.4517 14.9813 19.6045 15.1354C19.7572 15.2896 19.8335 15.4778 19.8335 15.6999V18.2499C19.8335 18.6781 19.6767 19.049 19.363 19.3627C19.0493 19.6764 18.6784 19.8332 18.2502 19.8332H5.75024ZM11.2127 7.18744L8.92524 9.47494C8.77191 9.63044 8.58841 9.70477 8.37474 9.69794C8.16124 9.69094 7.97733 9.60969 7.82299 9.45419C7.66899 9.30419 7.59266 9.1196 7.59399 8.90044C7.59533 8.6811 7.67383 8.49344 7.82949 8.33744L11.4445 4.72244C11.5262 4.64077 11.6128 4.57977 11.7045 4.53944C11.7963 4.49927 11.8957 4.47919 12.0025 4.47919C12.1093 4.47919 12.2079 4.49927 12.2982 4.53944C12.3884 4.57977 12.4766 4.64019 12.5627 4.72069L16.196 8.35419C16.346 8.51019 16.4217 8.69502 16.4232 8.90869C16.4246 9.12235 16.351 9.30419 16.2025 9.45419C16.0427 9.60969 15.8537 9.6881 15.6357 9.68944C15.4176 9.69094 15.2307 9.61385 15.0752 9.45819L12.796 7.18744V15.2374C12.796 15.4596 12.7187 15.6478 12.564 15.8019C12.4093 15.9561 12.2204 16.0332 11.9972 16.0332C11.7742 16.0332 11.5877 15.9561 11.4377 15.8019C11.2877 15.6478 11.2127 15.4596 11.2127 15.2374V7.18744Z" fill="#141414"/>
</svg>
