<svg width="24" height="24" viewBox="0 0 24 24" fill="none" xmlns="http://www.w3.org/2000/svg">
<mask id="mask0_740_8283" style="mask-type:alpha" maskUnits="userSpaceOnUse" x="0" y="0" width="24" height="24">
<rect width="24" height="24" fill="#D9D9D9"/>
</mask>
<g mask="url(#mask0_740_8283)">
<path d="M17.769 10.8848L20.515 8.13851C20.6625 7.99101 20.8282 7.95417 21.0122 8.02801C21.1962 8.10167 21.2882 8.24234 21.2882 8.45001V15.55C21.2882 15.7577 21.1962 15.8983 21.0122 15.972C20.8282 16.0458 20.6625 16.009 20.515 15.8615L17.6612 13.0078V13.1808C17.5587 13.4526 17.3533 13.6279 17.045 13.7068C16.7367 13.7856 16.4658 13.7083 16.2325 13.475L8.79398 6.03651C8.64648 5.88917 8.5619 5.73184 8.54023 5.56451C8.5184 5.39717 8.54274 5.23142 8.61323 5.06726C8.68373 4.90326 8.78757 4.76767 8.92473 4.66051C9.0619 4.55351 9.23432 4.50001 9.44198 4.50001H15.9612C16.4664 4.50001 16.894 4.67501 17.244 5.02501C17.594 5.37501 17.769 5.80259 17.769 6.30776V10.8848ZM19.4457 21.6308L2.06123 4.24626C1.9229 4.10776 1.85207 3.93367 1.84873 3.72401C1.84557 3.51451 1.9164 3.33726 2.06123 3.19226C2.20623 3.04742 2.3819 2.97501 2.58823 2.97501C2.79457 2.97501 2.97023 3.04742 3.11523 3.19226L20.4997 20.5768C20.6382 20.7153 20.7091 20.8893 20.7122 21.099C20.7154 21.3087 20.6446 21.4859 20.4997 21.6308C20.3549 21.7756 20.1792 21.848 19.9727 21.848C19.7664 21.848 19.5907 21.7756 19.4457 21.6308ZM4.44198 4.51926L17.7497 17.827C17.7177 18.2937 17.5315 18.6892 17.191 19.0135C16.8507 19.3378 16.4407 19.5 15.9612 19.5H4.57673C4.07157 19.5 3.64398 19.325 3.29398 18.975C2.94398 18.625 2.76898 18.1974 2.76898 17.6923V6.30776C2.76898 5.82826 2.93115 5.41834 3.25548 5.07801C3.57982 4.73751 3.97532 4.55126 4.44198 4.51926Z" fill="#141414"/>
</g>
</svg>
