<svg width="24" height="24" viewBox="0 0 24 24" fill="none" xmlns="http://www.w3.org/2000/svg">
<mask id="mask0_740_8285" style="mask-type:alpha" maskUnits="userSpaceOnUse" x="0" y="0" width="24" height="24">
<rect width="24" height="24" fill="#D9D9D9"/>
</mask>
<g mask="url(#mask0_740_8285)">
<path d="M9.49023 12.75V15C9.49023 15.2125 9.56215 15.3906 9.70598 15.5343C9.84965 15.6781 10.0278 15.75 10.2405 15.75C10.4532 15.75 10.6312 15.6781 10.7747 15.5343C10.9184 15.3906 10.9902 15.2125 10.9902 15V12.75H13.2402C13.4527 12.75 13.6308 12.6781 13.7745 12.5343C13.9183 12.3904 13.9902 12.2122 13.9902 11.9997C13.9902 11.7871 13.9183 11.609 13.7745 11.4655C13.6308 11.3218 13.4527 11.25 13.2402 11.25H10.9902V9C10.9902 8.7875 10.9183 8.60942 10.7745 8.46575C10.6307 8.32192 10.4524 8.25 10.2397 8.25C10.0272 8.25 9.84915 8.32192 9.70548 8.46575C9.56199 8.60942 9.49023 8.7875 9.49023 9V11.25H7.24023C7.02773 11.25 6.84957 11.3219 6.70573 11.4658C6.56207 11.6096 6.49023 11.7878 6.49023 12.0003C6.49023 12.2129 6.56207 12.391 6.70573 12.5345C6.84957 12.6782 7.02773 12.75 7.24023 12.75H9.49023ZM4.54773 19.5C4.04273 19.5 3.61523 19.325 3.26523 18.975C2.91523 18.625 2.74023 18.1974 2.74023 17.6923V6.30775C2.74023 5.80258 2.91523 5.375 3.26523 5.025C3.61523 4.675 4.04273 4.5 4.54773 4.5H15.9325C16.4375 4.5 16.865 4.675 17.215 5.025C17.565 5.375 17.74 5.80258 17.74 6.30775V10.8848L20.4892 8.1355C20.6347 7.99 20.7994 7.95425 20.9832 8.02825C21.1672 8.10225 21.2592 8.24283 21.2592 8.45V15.55C21.2592 15.7572 21.1672 15.8977 20.9832 15.9718C20.7994 16.0458 20.6347 16.01 20.4892 15.8645L17.74 13.1152V17.6923C17.74 18.1974 17.565 18.625 17.215 18.975C16.865 19.325 16.4375 19.5 15.9325 19.5H4.54773Z" fill="#141414"/>
</g>
</svg>
