<?xml version="1.0" encoding="UTF-8" standalone="no"?> <svg width="48" height="48" viewBox="0 0 48 48" fill="none" xmlns="http://www.w3.org/2000/svg">
<path d="M43 15H24.02L42.9 13.01C43.0307 12.9962 43.1574 12.9569 43.2729 12.8942C43.3883 12.8314 43.4903 12.7466 43.573 12.6444C43.6556 12.5423 43.7174 12.4248 43.7546 12.2988C43.7918 12.1728 43.8039 12.0406 43.79 11.91L43.476 8.92696C43.4071 8.27368 43.2102 7.64036 42.8965 7.06321C42.5828 6.48606 42.1584 5.97639 41.6477 5.56331C41.1369 5.15024 40.5497 4.84186 39.9197 4.6558C39.2897 4.46974 38.6292 4.40965 37.976 4.47896L8.139 7.62496C6.82017 7.76529 5.61096 8.42335 4.77696 9.4546C3.94297 10.4858 3.55239 11.8059 3.691 13.125L4 16.053V39C4.00159 40.3256 4.52888 41.5964 5.46622 42.5337C6.40356 43.4711 7.67441 43.9984 9 44H39C40.3256 43.9984 41.5964 43.4711 42.5338 42.5337C43.4711 41.5964 43.9984 40.3256 44 39V16C44 15.7347 43.8946 15.4804 43.7071 15.2929C43.5196 15.1053 43.2652 15 43 15ZM42 22H33.174L37.46 17H42V22ZM19.825 8.39996L24.612 12.923L17.286 13.695L12.5 9.17596L19.825 8.39996ZM29.77 7.35496L34.557 11.878L27.231 12.65L22.445 8.12696L29.77 7.35496ZM6 17H14.826L10.54 22H6V17ZM17.46 17H24.826L20.54 22H13.174L17.46 17ZM27.46 17H34.826L30.54 22H23.174L27.46 17ZM38.183 6.46796C38.2896 6.45686 38.3968 6.45119 38.504 6.45096C39.2442 6.45257 39.9576 6.72774 40.5071 7.22356C41.0567 7.71939 41.4035 8.40086 41.481 9.13696L41.691 11.126L37.176 11.602L32.39 7.07896L38.183 6.46796ZM8.349 9.61396L9.88 9.45196L14.667 13.975L5.89 14.9L5.68 12.911C5.59686 12.1198 5.83133 11.3281 6.33184 10.7098C6.83235 10.0916 7.55792 9.69737 8.349 9.61396V9.61396ZM42 39C42 39.7956 41.6839 40.5587 41.1213 41.1213C40.5587 41.6839 39.7956 42 39 42H9C8.20435 42 7.44129 41.6839 6.87868 41.1213C6.31607 40.5587 6 39.7956 6 39V24H42V39Z" fill="black"/>
<path d="M19.987 39.358C20.2865 39.5335 20.6274 39.626 20.9745 39.626C21.3217 39.626 21.6625 39.5335 21.962 39.358L30.013 34.71C30.3131 34.5366 30.5622 34.2873 30.7354 33.9871C30.9086 33.687 30.9998 33.3465 30.9998 33C30.9998 32.6534 30.9086 32.313 30.7354 32.0128C30.5622 31.7127 30.3131 31.4634 30.013 31.29L21.962 26.642C21.6618 26.4688 21.3213 26.3776 20.9748 26.3777C20.6282 26.3777 20.2877 26.469 19.9876 26.6423C19.6874 26.8155 19.4381 27.0648 19.2648 27.3649C19.0915 27.665 19.0001 28.0054 19 28.352V37.652C18.9986 37.9983 19.0892 38.3388 19.2627 38.6386C19.4361 38.9383 19.6861 39.1866 19.987 39.358V39.358ZM21 28.4L28.975 33L21 37.6V28.4Z" fill="black"/>
</svg>
