<svg width="24" height="24" viewBox="0 0 24 24" fill="none" xmlns="http://www.w3.org/2000/svg">
<path d="M19.2347 21.3422L15.7155 17.8537C15.1256 18.0819 14.5195 18.2467 13.897 18.348C13.2746 18.4493 12.6423 18.5 12 18.5C9.89481 18.5 7.96689 17.9401 6.21623 16.8202C4.46573 15.7002 3.07831 14.2242 2.05398 12.3922C1.97064 12.2487 1.90973 12.1026 1.87123 11.9537C1.83273 11.8051 1.81348 11.6538 1.81348 11.5C1.81348 11.3462 1.83431 11.1932 1.87598 11.0412C1.91764 10.8894 1.98014 10.7449 2.06348 10.6077C2.46214 9.94491 2.88589 9.30358 3.33473 8.68375C3.78339 8.06375 4.30514 7.51533 4.89998 7.0385L2.64223 4.76525C2.50389 4.62691 2.43306 4.4555 2.42973 4.251C2.42656 4.0465 2.50256 3.86666 2.65773 3.7115C2.80256 3.56666 2.97823 3.49425 3.18473 3.49425C3.39106 3.49425 3.56664 3.56666 3.71148 3.7115L20.2885 20.2885C20.427 20.427 20.5004 20.5984 20.5087 20.8027C20.5171 21.0072 20.4436 21.1871 20.2885 21.3422C20.1436 21.4871 19.968 21.5595 19.7615 21.5595C19.5551 21.5595 19.3796 21.4871 19.2347 21.3422ZM12 15.577C12.2218 15.577 12.4336 15.5638 12.6355 15.5375C12.8375 15.5112 13.0346 15.4537 13.227 15.3652L8.13473 10.273C8.05256 10.4653 7.99673 10.6625 7.96723 10.8645C7.93773 11.0663 7.92298 11.2782 7.92298 11.5C7.92298 12.6347 8.31881 13.5978 9.11048 14.3895C9.90214 15.1812 10.8653 15.577 12 15.577ZM12 4.5C14.1115 4.5 16.0483 5.0625 17.8105 6.1875C19.5726 7.3125 20.9627 8.79741 21.9807 10.6422C22.0576 10.7692 22.1168 10.9055 22.1585 11.051C22.2001 11.1965 22.221 11.3462 22.221 11.5C22.221 11.6538 22.2027 11.8035 22.1662 11.949C22.1297 12.0945 22.073 12.2307 21.996 12.3577C21.6921 12.9359 21.3525 13.4807 20.977 13.9922C20.6013 14.5037 20.1814 14.9852 19.7172 15.4365C19.5096 15.6442 19.2634 15.7397 18.9787 15.723C18.6942 15.7063 18.4481 15.5942 18.2402 15.3865L16.1442 13.3C16.0404 13.1962 15.9718 13.0762 15.9385 12.9402C15.9051 12.8044 15.9071 12.6627 15.9442 12.5152C15.9916 12.3436 16.0255 12.1769 16.046 12.0152C16.0666 11.8537 16.077 11.682 16.077 11.5C16.077 10.3653 15.6811 9.40216 14.8895 8.6105C14.0978 7.81883 13.1346 7.423 12 7.423C11.818 7.423 11.6478 7.43491 11.4895 7.45875C11.3311 7.48241 11.1692 7.518 11.0037 7.5655C10.8564 7.609 10.709 7.61408 10.5615 7.58075C10.4141 7.54741 10.2886 7.47883 10.1847 7.375L9.25373 6.44425C8.96923 6.15958 8.87473 5.82816 8.97023 5.45C9.06573 5.07183 9.30581 4.83083 9.69048 4.727C10.0686 4.65 10.4494 4.59291 10.8327 4.55575C11.2161 4.51858 11.6051 4.5 12 4.5ZM13.9365 9.6115C14.1391 9.83466 14.3061 10.085 14.4375 10.3625C14.5688 10.64 14.6511 10.9301 14.6845 11.2327C14.7011 11.3532 14.656 11.4369 14.549 11.4837C14.442 11.5304 14.3416 11.507 14.248 11.4135L12.102 9.277C12.0083 9.18333 11.9875 9.083 12.0395 8.976C12.0913 8.869 12.1775 8.8155 12.298 8.8155C12.6211 8.84233 12.9192 8.92341 13.1922 9.05875C13.4654 9.19391 13.7135 9.37816 13.9365 9.6115Z" fill="#141414"/>
</svg>
