<svg width="24" height="24" viewBox="0 0 24 24" fill="none" xmlns="http://www.w3.org/2000/svg">
<mask id="mask0_740_8280" style="mask-type:alpha" maskUnits="userSpaceOnUse" x="0" y="0" width="24" height="24">
<rect width="24" height="24" fill="#D9D9D9"/>
</mask>
<g mask="url(#mask0_740_8280)">
<path d="M16.4579 19.123C16.2937 19.2268 16.1264 19.3256 15.9559 19.4192C15.7854 19.5127 15.6097 19.598 15.4289 19.675C15.2431 19.7597 15.0498 19.7597 14.8491 19.675C14.6485 19.5903 14.511 19.4499 14.4366 19.2537C14.3623 19.0679 14.3732 18.883 14.4694 18.699C14.5656 18.515 14.7066 18.3807 14.8924 18.2962C15.0284 18.2397 15.1544 18.1775 15.2704 18.1095C15.3864 18.0417 15.5008 17.9647 15.6136 17.8787L11.7886 14.4537V16.95C11.7886 17.291 11.6326 17.5266 11.3204 17.6567C11.0082 17.7867 10.7322 17.7319 10.4924 17.4922L7.50015 14.5H4.6924C4.43473 14.5 4.21973 14.4137 4.0474 14.2412C3.8749 14.0689 3.78865 13.8538 3.78865 13.596V10.404C3.78865 10.1462 3.8749 9.93107 4.0474 9.75874C4.21973 9.58624 4.43473 9.49999 4.6924 9.49999H6.8349L2.52315 5.18849C2.38482 5.04999 2.31398 4.87599 2.31065 4.66649C2.30748 4.45682 2.37832 4.27957 2.52315 4.13474C2.66815 3.98974 2.84382 3.91724 3.05015 3.91724C3.25665 3.91724 3.43232 3.98974 3.57715 4.13474L20.0001 20.5577C20.1386 20.6962 20.2095 20.8702 20.2126 21.0797C20.2158 21.2894 20.145 21.4667 20.0001 21.6115C19.8553 21.7563 19.6796 21.8287 19.4731 21.8287C19.2668 21.8287 19.0912 21.7563 18.9464 21.6115L16.4579 19.123ZM18.9809 11.975C18.9809 10.6045 18.6126 9.34999 17.8761 8.21149C17.1396 7.07299 16.1515 6.22365 14.9116 5.66349C14.7193 5.57249 14.5776 5.43657 14.4866 5.25574C14.3956 5.07507 14.3854 4.89174 14.4559 4.70574C14.5367 4.50324 14.6791 4.3629 14.8829 4.28474C15.0867 4.2064 15.2931 4.21282 15.5021 4.30399C17.0098 4.98849 18.2165 6.01599 19.1221 7.38649C20.028 8.75699 20.4809 10.2865 20.4809 11.975C20.4809 12.6148 20.4068 13.2376 20.2586 13.8432C20.1106 14.4491 19.8969 15.0244 19.6174 15.5692C19.5032 15.8397 19.3439 16.0064 19.1394 16.0692C18.9351 16.1321 18.7451 16.1314 18.5694 16.0672C18.3937 16.0032 18.2575 15.8885 18.1606 15.723C18.0638 15.5577 18.0661 15.3718 18.1674 15.1655C18.4406 14.6745 18.6444 14.1664 18.7789 13.6412C18.9136 13.1162 18.9809 12.5608 18.9809 11.975ZM14.8616 8.77124C15.3283 9.12757 15.6828 9.6109 15.9251 10.2212C16.1675 10.8314 16.2886 11.4243 16.2886 12C16.2886 12.1475 16.2806 12.2933 16.2646 12.4375C16.2485 12.5817 16.2193 12.7243 16.1771 12.8655C16.131 13.0565 16.0159 13.1773 15.8319 13.228C15.6479 13.2785 15.4821 13.2301 15.3346 13.0827L14.4444 12.1922C14.3507 12.0987 14.2821 11.9975 14.2386 11.8885C14.195 11.7795 14.1731 11.6647 14.1731 11.5442V9.12874C14.1731 8.9544 14.2526 8.82782 14.4116 8.74899C14.5707 8.67015 14.7206 8.67757 14.8616 8.77124ZM9.9424 7.69049C9.8489 7.59682 9.80373 7.48974 9.8069 7.36924C9.81007 7.24874 9.85848 7.14174 9.95215 7.04824L10.4924 6.50774C10.7322 6.26807 11.0082 6.21324 11.3204 6.34324C11.6326 6.4734 11.7886 6.70899 11.7886 7.04999V8.44224C11.7886 8.65007 11.6966 8.79399 11.5126 8.87399C11.3286 8.95415 11.1629 8.91732 11.0154 8.76349L9.9424 7.69049Z" fill="#141414"/>
</g>
</svg>
