<svg width="24" height="24" viewBox="0 0 24 24" fill="none" xmlns="http://www.w3.org/2000/svg">
<mask id="mask0_740_8279" style="mask-type:alpha" maskUnits="userSpaceOnUse" x="0" y="0" width="24" height="24">
<rect width="24" height="24" fill="#D9D9D9"/>
</mask>
<g mask="url(#mask0_740_8279)">
<path d="M18.8465 11.975C18.8465 10.598 18.4782 9.34194 17.7415 8.20677C17.005 7.07144 16.017 6.22369 14.7773 5.66352C14.585 5.57252 14.4433 5.4366 14.3523 5.25577C14.2613 5.0751 14.251 4.89177 14.3215 4.70577C14.4022 4.50327 14.5445 4.36294 14.7483 4.28477C14.9521 4.20644 15.1585 4.21285 15.3675 4.30402C16.8752 4.98852 18.082 6.0186 18.9878 7.39427C19.8935 8.76994 20.3463 10.2969 20.3463 11.975C20.3463 13.6532 19.8935 15.1801 18.9878 16.5558C18.082 17.9314 16.8752 18.9615 15.3675 19.646C15.1585 19.7372 14.9521 19.7436 14.7483 19.6653C14.5445 19.5871 14.4022 19.4468 14.3215 19.2443C14.251 19.0583 14.2613 18.8749 14.3523 18.6943C14.4433 18.5134 14.585 18.3775 14.7773 18.2865C16.017 17.7264 17.005 16.8786 17.7415 15.7433C18.4782 14.6081 18.8465 13.352 18.8465 11.975ZM7.3658 14.5H4.55805C4.30038 14.5 4.0853 14.4138 3.9128 14.2413C3.74046 14.0689 3.6543 13.8539 3.6543 13.596V10.404C3.6543 10.1462 3.74046 9.9311 3.9128 9.75877C4.0853 9.58627 4.30038 9.50002 4.55805 9.50002H7.3658L10.358 6.50777C10.5977 6.2681 10.8736 6.21327 11.1858 6.34327C11.498 6.47344 11.654 6.70902 11.654 7.05002V16.95C11.654 17.291 11.498 17.5266 11.1858 17.6568C10.8736 17.7868 10.5977 17.7319 10.358 17.4923L7.3658 14.5ZM16.154 12C16.154 12.623 16.0245 13.2134 15.7655 13.7713C15.5067 14.3289 15.1574 14.7981 14.7175 15.1788C14.5765 15.2724 14.4281 15.2814 14.2723 15.2058C14.1166 15.1301 14.0388 15.0051 14.0388 14.8308V9.11927C14.0388 8.94494 14.1166 8.81994 14.2723 8.74427C14.4281 8.6686 14.5765 8.6776 14.7175 8.77127C15.1574 9.16227 15.5067 9.64235 15.7655 10.2115C16.0245 10.7809 16.154 11.377 16.154 12Z" fill="#141414"/>
</g>
</svg>
