<svg width="24" height="24" viewBox="0 0 24 24" fill="none" xmlns="http://www.w3.org/2000/svg">
<mask id="mask0_740_8282" style="mask-type:alpha" maskUnits="userSpaceOnUse" x="0" y="0" width="24" height="24">
<rect width="24" height="24" fill="#D9D9D9"/>
</mask>
<g mask="url(#mask0_740_8282)">
<path d="M9.2115 14.5H6.404C6.14617 14.5 5.93108 14.4137 5.75875 14.2412C5.58625 14.0689 5.5 13.8538 5.5 13.596V10.404C5.5 10.1462 5.58625 9.93107 5.75875 9.75873C5.93108 9.58623 6.14617 9.49998 6.404 9.49998H9.2115L12.2038 6.50773C12.4436 6.26807 12.7196 6.21323 13.0318 6.34323C13.3439 6.4734 13.5 6.70898 13.5 7.04998V16.95C13.5 17.291 13.3439 17.5266 13.0318 17.6567C12.7196 17.7867 12.4436 17.7319 12.2038 17.4922L9.2115 14.5ZM18 12C18 12.623 17.8705 13.2134 17.6115 13.7712C17.3525 14.3289 17.0032 14.7981 16.5635 15.1787C16.4225 15.2724 16.2741 15.2814 16.1182 15.2057C15.9624 15.1301 15.8845 15.0051 15.8845 14.8307V9.11923C15.8845 8.9449 15.9624 8.8199 16.1182 8.74423C16.2741 8.66857 16.4225 8.67757 16.5635 8.77123C17.0032 9.16223 17.3525 9.64232 17.6115 10.2115C17.8705 10.7808 18 11.377 18 12Z" fill="#141414"/>
</g>
</svg>
