<svg width="24" height="24" viewBox="0 0 24 24" fill="none" xmlns="http://www.w3.org/2000/svg">
<mask id="mask0_740_8281" style="mask-type:alpha" maskUnits="userSpaceOnUse" x="0" y="0" width="24" height="24">
<rect width="24" height="24" fill="#D9D9D9"/>
</mask>
<g mask="url(#mask0_740_8281)">
<path d="M11.2115 14.5H8.404C8.14783 14.5 7.93317 14.4134 7.76 14.24C7.58667 14.0669 7.5 13.8522 7.5 13.596V10.404C7.5 10.1479 7.58667 9.93319 7.76 9.76002C7.93317 9.58669 8.14783 9.50002 8.404 9.50002H11.2115L14.2038 6.50777C14.4436 6.2681 14.7196 6.21402 15.0318 6.34552C15.3439 6.47702 15.5 6.71185 15.5 7.05002V16.95C15.5 17.2882 15.3439 17.523 15.0318 17.6545C14.7196 17.786 14.4436 17.7319 14.2038 17.4923L11.2115 14.5Z" fill="#141414"/>
</g>
</svg>
