<svg width="24" height="24" viewBox="0 0 24 24" fill="none" xmlns="http://www.w3.org/2000/svg">
<mask id="mask0_740_8435" style="mask-type:alpha" maskUnits="userSpaceOnUse" x="0" y="0" width="24" height="24">
<rect width="24" height="24" fill="#D9D9D9"/>
</mask>
<g mask="url(#mask0_740_8435)">
<path d="M3.4246 20.5C3.2551 20.5 3.10285 20.4586 2.96785 20.3757C2.83285 20.2929 2.72794 20.1837 2.6531 20.048C2.5751 19.9133 2.53219 19.7675 2.52435 19.6105C2.51652 19.4535 2.55885 19.298 2.65135 19.144L11.2121 4.35599C11.3048 4.20199 11.4206 4.08816 11.5596 4.01449C11.6988 3.94083 11.8453 3.90399 11.9991 3.90399C12.1529 3.90399 12.2994 3.94083 12.4386 4.01449C12.5776 4.08816 12.6934 4.20199 12.7861 4.35599L21.3469 19.144C21.4394 19.298 21.4817 19.4535 21.4739 19.6105C21.466 19.7675 21.4231 19.9133 21.3451 20.048C21.2703 20.1837 21.1654 20.2929 21.0304 20.3757C20.8954 20.4586 20.7431 20.5 20.5736 20.5H3.4246ZM11.9991 17.8077C12.2279 17.8077 12.4198 17.7303 12.5746 17.5755C12.7294 17.4207 12.8069 17.2288 12.8069 17C12.8069 16.7712 12.7294 16.5793 12.5746 16.4245C12.4198 16.2697 12.2279 16.1922 11.9991 16.1922C11.7703 16.1922 11.5784 16.2697 11.4236 16.4245C11.2688 16.5793 11.1914 16.7712 11.1914 17C11.1914 17.2288 11.2688 17.4207 11.4236 17.5755C11.5784 17.7303 11.7703 17.8077 11.9991 17.8077ZM11.9994 15.1922C12.212 15.1922 12.3901 15.1204 12.5336 14.9767C12.6773 14.8329 12.7491 14.6547 12.7491 14.4422V10.9422C12.7491 10.7297 12.6772 10.5517 12.5334 10.408C12.3895 10.2642 12.2114 10.1922 11.9989 10.1922C11.7862 10.1922 11.6081 10.2642 11.4646 10.408C11.3209 10.5517 11.2491 10.7297 11.2491 10.9422V14.4422C11.2491 14.6547 11.321 14.8329 11.4649 14.9767C11.6087 15.1204 11.7869 15.1922 11.9994 15.1922Z" fill="#141414"/>
</g>
</svg>
