<svg width="24" height="24" viewBox="0 0 24 24" fill="none" xmlns="http://www.w3.org/2000/svg">
<mask id="mask0_740_8278" style="mask-type:alpha" maskUnits="userSpaceOnUse" x="0" y="0" width="24" height="24">
<rect width="24" height="24" fill="#D9D9D9"/>
</mask>
<g mask="url(#mask0_740_8278)">
<path d="M12.0003 20.7115C11.435 20.7115 10.957 20.5164 10.5665 20.126C10.1762 19.7357 9.98104 19.2578 9.98104 18.6923C9.98104 18.127 10.1762 17.6491 10.5665 17.2588C10.957 16.8685 11.435 16.6733 12.0003 16.6733C12.5656 16.6733 13.0435 16.8685 13.434 17.2588C13.8244 17.6491 14.0195 18.127 14.0195 18.6923C14.0195 19.2578 13.8244 19.7357 13.434 20.126C13.0435 20.5164 12.5656 20.7115 12.0003 20.7115ZM12.0003 10.7693C13.2118 10.7693 14.3576 10.9693 15.4378 11.3693C16.518 11.7693 17.4939 12.3225 18.3655 13.029C18.6155 13.2212 18.7447 13.4702 18.753 13.776C18.7614 14.0819 18.654 14.3463 18.431 14.5693C18.2182 14.7821 17.9564 14.8895 17.6455 14.8913C17.3345 14.8933 17.054 14.8033 16.804 14.6213C16.1452 14.1175 15.4068 13.7213 14.5888 13.4328C13.7708 13.1443 12.908 13 12.0003 13C11.0926 13 10.2298 13.1443 9.41178 13.4328C8.59378 13.7213 7.85537 14.1175 7.19653 14.6213C6.94653 14.8033 6.66603 14.8908 6.35503 14.8838C6.0442 14.8766 5.78237 14.7666 5.56953 14.5538C5.3567 14.3308 5.25187 14.0664 5.25503 13.7605C5.25837 13.4549 5.38503 13.2059 5.63503 13.0135C6.5067 12.3072 7.48262 11.7565 8.56278 11.3615C9.64295 10.9667 10.7888 10.7693 12.0003 10.7693ZM12.0003 4.76929C14.058 4.76929 15.9852 5.11579 17.782 5.80879C19.5789 6.50179 21.185 7.47329 22.6003 8.72329C22.8503 8.93595 22.982 9.19937 22.9955 9.51354C23.0089 9.8277 22.904 10.0963 22.681 10.3193C22.4619 10.5385 22.1952 10.6442 21.881 10.6365C21.567 10.6289 21.2818 10.5205 21.0253 10.3115C19.8061 9.2642 18.4282 8.45045 16.8915 7.87029C15.355 7.29012 13.7246 7.00004 12.0003 7.00004C10.276 7.00004 8.64553 7.29012 7.10904 7.87029C5.57237 8.45045 4.19445 9.2642 2.97528 10.3115C2.71878 10.5205 2.43353 10.6289 2.11953 10.6365C1.80537 10.6442 1.5387 10.5385 1.31953 10.3193C1.09653 10.0963 0.991701 9.8277 1.00503 9.51354C1.01853 9.19937 1.15028 8.93595 1.40028 8.72329C2.81562 7.47329 4.4217 6.50179 6.21853 5.80879C8.01537 5.11579 9.94262 4.76929 12.0003 4.76929Z" fill="#141414"/>
</g>
</svg>
