<svg width="24" height="24" viewBox="0 0 24 24" fill="none" xmlns="http://www.w3.org/2000/svg">
<mask id="mask0_740_8277" style="mask-type:alpha" maskUnits="userSpaceOnUse" x="0" y="0" width="24" height="24">
<rect width="24" height="24" fill="#D9D9D9"/>
</mask>
<g mask="url(#mask0_740_8277)">
<path d="M6.05375 19H8.25C8.4625 19 8.64067 19.0719 8.7845 19.2158C8.92817 19.3596 9 19.5378 9 19.7502C9 19.9629 8.92817 20.141 8.7845 20.2845C8.64067 20.4282 8.4625 20.5 8.25 20.5H4.404C4.14783 20.5 3.93317 20.4133 3.76 20.24C3.58667 20.0668 3.5 19.8522 3.5 19.596V15.75C3.5 15.5375 3.57192 15.3593 3.71575 15.2155C3.85958 15.0718 4.03775 15 4.25025 15C4.46292 15 4.641 15.0718 4.7845 15.2155C4.92817 15.3593 5 15.5375 5 15.75V17.9462L7.823 15.123C7.9615 14.9847 8.13558 14.9138 8.34525 14.9105C8.55492 14.9073 8.73217 14.9782 8.877 15.123C9.02183 15.2678 9.09425 15.4435 9.09425 15.65C9.09425 15.8563 9.02183 16.032 8.877 16.177L6.05375 19ZM17.9462 19L15.123 16.177C14.9847 16.0385 14.9138 15.8644 14.9105 15.6547C14.9073 15.4451 14.9782 15.2678 15.123 15.123C15.2678 14.9782 15.4435 14.9058 15.65 14.9058C15.8563 14.9058 16.032 14.9782 16.177 15.123L19 17.9462V15.75C19 15.5375 19.0719 15.3593 19.2158 15.2155C19.3596 15.0718 19.5378 15 19.7502 15C19.9629 15 20.141 15.0718 20.2845 15.2155C20.4282 15.3593 20.5 15.5375 20.5 15.75V19.596C20.5 19.8522 20.4133 20.0668 20.24 20.24C20.0668 20.4133 19.8522 20.5 19.596 20.5H15.75C15.5375 20.5 15.3593 20.4281 15.2155 20.2843C15.0718 20.1404 15 19.9622 15 19.7498C15 19.5371 15.0718 19.359 15.2155 19.2155C15.3593 19.0718 15.5375 19 15.75 19H17.9462ZM5 6.05375V8.25C5 8.4625 4.92808 8.64067 4.78425 8.7845C4.64042 8.92817 4.46225 9 4.24975 9C4.03708 9 3.859 8.92817 3.7155 8.7845C3.57183 8.64067 3.5 8.4625 3.5 8.25V4.404C3.5 4.14783 3.58667 3.93317 3.76 3.76C3.93317 3.58667 4.14783 3.5 4.404 3.5H8.25C8.4625 3.5 8.64067 3.57192 8.7845 3.71575C8.92817 3.85958 9 4.03775 9 4.25025C9 4.46292 8.92817 4.641 8.7845 4.7845C8.64067 4.92817 8.4625 5 8.25 5H6.05375L8.877 7.823C9.01533 7.9615 9.08617 8.13558 9.0895 8.34525C9.09267 8.55492 9.02183 8.73217 8.877 8.877C8.73217 9.02183 8.5565 9.09425 8.35 9.09425C8.14367 9.09425 7.968 9.02183 7.823 8.877L5 6.05375ZM19 6.05375L16.177 8.877C16.0385 9.01533 15.8644 9.08617 15.6547 9.0895C15.4451 9.09267 15.2678 9.02183 15.123 8.877C14.9782 8.73217 14.9057 8.5565 14.9057 8.35C14.9057 8.14367 14.9782 7.968 15.123 7.823L17.9462 5H15.75C15.5375 5 15.3593 4.92808 15.2155 4.78425C15.0718 4.64042 15 4.46225 15 4.24975C15 4.03708 15.0718 3.859 15.2155 3.7155C15.3593 3.57183 15.5375 3.5 15.75 3.5H19.596C19.8522 3.5 20.0668 3.58667 20.24 3.76C20.4133 3.93317 20.5 4.14783 20.5 4.404V8.25C20.5 8.4625 20.4281 8.64067 20.2843 8.7845C20.1404 8.92817 19.9622 9 19.7498 9C19.5371 9 19.359 8.92817 19.2155 8.7845C19.0718 8.64067 19 8.4625 19 8.25V6.05375Z" fill="#141414"/>
</g>
</svg>
