<svg width="24" height="24" viewBox="0 0 24 24" fill="none" xmlns="http://www.w3.org/2000/svg">
<mask id="mask0_740_8341" style="mask-type:alpha" maskUnits="userSpaceOnUse" x="0" y="0" width="24" height="24">
<rect width="24" height="24" fill="#D9D9D9"/>
</mask>
<g mask="url(#mask0_740_8341)">
<path d="M7.5005 17.5538L4.6775 20.377C4.539 20.5153 4.36492 20.5862 4.15525 20.5895C3.94575 20.5927 3.7685 20.5218 3.6235 20.377C3.47867 20.232 3.40625 20.0563 3.40625 19.85C3.40625 19.6435 3.47867 19.4678 3.6235 19.323L6.44675 16.5H4.2505C4.038 16.5 3.85992 16.4281 3.71625 16.2843C3.57242 16.1404 3.5005 15.9623 3.5005 15.7498C3.5005 15.5371 3.57242 15.359 3.71625 15.2155C3.85992 15.0718 4.038 15 4.2505 15H8.09675C8.35275 15 8.56742 15.0866 8.74075 15.2598C8.91392 15.4331 9.0005 15.6478 9.0005 15.9038V19.75C9.0005 19.9625 8.92858 20.1406 8.78475 20.2843C8.64092 20.4281 8.46275 20.5 8.25025 20.5C8.03758 20.5 7.8595 20.4281 7.716 20.2843C7.57233 20.1406 7.5005 19.9625 7.5005 19.75V17.5538ZM16.5005 17.5538V19.75C16.5005 19.9625 16.4286 20.1406 16.2848 20.2843C16.1409 20.4281 15.9628 20.5 15.7503 20.5C15.5376 20.5 15.3595 20.4281 15.216 20.2843C15.0723 20.1406 15.0005 19.9625 15.0005 19.75V15.9038C15.0005 15.6478 15.0871 15.4331 15.2603 15.2598C15.4336 15.0866 15.6483 15 15.9043 15H19.7505C19.963 15 20.1411 15.0719 20.2847 15.2158C20.4286 15.3596 20.5005 15.5378 20.5005 15.7503C20.5005 15.9629 20.4286 16.141 20.2847 16.2845C20.1411 16.4282 19.963 16.5 19.7505 16.5H17.5543L20.3775 19.323C20.5158 19.4615 20.5867 19.6356 20.59 19.8453C20.5932 20.0548 20.5223 20.232 20.3775 20.377C20.2325 20.5218 20.0568 20.5943 19.8505 20.5943C19.644 20.5943 19.4683 20.5218 19.3235 20.377L16.5005 17.5538ZM6.44675 7.50001L3.6235 4.67701C3.48517 4.53851 3.41433 4.36443 3.411 4.15476C3.40783 3.94526 3.47867 3.76801 3.6235 3.62301C3.7685 3.47818 3.94417 3.40576 4.1505 3.40576C4.357 3.40576 4.53267 3.47818 4.6775 3.62301L7.5005 6.44626V4.25001C7.5005 4.03751 7.57242 3.85943 7.71625 3.71576C7.86008 3.57193 8.03825 3.50001 8.25075 3.50001C8.46342 3.50001 8.6415 3.57193 8.785 3.71576C8.92867 3.85943 9.0005 4.03751 9.0005 4.25001V8.09626C9.0005 8.35226 8.91392 8.56693 8.74075 8.74026C8.56742 8.91343 8.35275 9.00001 8.09675 9.00001H4.2505C4.038 9.00001 3.85992 8.9281 3.71625 8.78426C3.57242 8.64043 3.5005 8.46226 3.5005 8.24976C3.5005 8.0371 3.57242 7.85901 3.71625 7.71551C3.85992 7.57185 4.038 7.50001 4.2505 7.50001H6.44675ZM17.5543 7.50001H19.7505C19.963 7.50001 20.1411 7.57193 20.2847 7.71576C20.4286 7.8596 20.5005 8.03776 20.5005 8.25026C20.5005 8.46293 20.4286 8.64101 20.2847 8.78451C20.1411 8.92818 19.963 9.00001 19.7505 9.00001H15.9043C15.6483 9.00001 15.4336 8.91343 15.2603 8.74026C15.0871 8.56693 15.0005 8.35226 15.0005 8.09626V4.25001C15.0005 4.03751 15.0724 3.85943 15.2163 3.71576C15.3601 3.57193 15.5383 3.50001 15.7508 3.50001C15.9634 3.50001 16.1415 3.57193 16.285 3.71576C16.4287 3.85943 16.5005 4.03751 16.5005 4.25001V6.44626L19.3235 3.62301C19.462 3.48468 19.6361 3.41385 19.8458 3.41051C20.0553 3.40735 20.2325 3.47818 20.3775 3.62301C20.5223 3.76801 20.5948 3.94368 20.5948 4.15001C20.5948 4.35651 20.5223 4.53218 20.3775 4.67701L17.5543 7.50001Z" fill="#141414"/>
</g>
</svg>
