<svg width="24" height="24" viewBox="0 0 24 24" fill="none" xmlns="http://www.w3.org/2000/svg">
<path d="M7.44385 15.084C7.84078 16.0366 8.51082 16.8505 9.36952 17.4229C10.2282 17.9954 11.2372 18.3009 12.2692 18.3009C13.3012 18.3009 14.3101 17.9954 15.1688 17.4229C16.0275 16.8505 16.6976 16.0366 17.0945 15.084M7.84596 10.4597C7.88572 10.4597 7.9246 10.4715 7.95766 10.4936C7.99072 10.5157 8.01649 10.5471 8.03171 10.5838C8.04693 10.6206 8.05091 10.661 8.04315 10.7C8.03539 10.739 8.01624 10.7748 7.98813 10.8029C7.96001 10.8311 7.92418 10.8502 7.88518 10.858C7.84618 10.8657 7.80576 10.8617 7.76902 10.8465C7.73228 10.8313 7.70088 10.8055 7.67879 10.7725C7.65669 10.7394 7.6449 10.7005 7.6449 10.6608C7.6449 10.6074 7.66609 10.5563 7.70379 10.5186C7.7415 10.4809 7.79264 10.4597 7.84596 10.4597ZM16.6924 10.4597C16.6526 10.4597 16.6138 10.4715 16.5807 10.4936C16.5476 10.5157 16.5219 10.5471 16.5067 10.5838C16.4914 10.6206 16.4875 10.661 16.4952 10.7C16.503 10.739 16.5221 10.7748 16.5502 10.8029C16.5784 10.8311 16.6142 10.8502 16.6532 10.858C16.6922 10.8657 16.7326 10.8617 16.7693 10.8465C16.8061 10.8313 16.8375 10.8055 16.8596 10.7725C16.8817 10.7394 16.8935 10.7005 16.8935 10.6608C16.8935 10.6074 16.8723 10.5563 16.8346 10.5186C16.7969 10.4809 16.7457 10.4597 16.6924 10.4597Z" stroke="#808080" stroke-width="1.5" stroke-linecap="round" stroke-linejoin="round"/>
<path fill-rule="evenodd" clip-rule="evenodd" d="M12.2692 2.27069C10.9562 2.27069 9.65598 2.52931 8.4429 3.03179C7.22982 3.53426 6.12759 4.27075 5.19914 5.1992C4.27069 6.12765 3.5342 7.22988 3.03172 8.44296C2.52925 9.65604 2.27063 10.9562 2.27063 12.2692C2.27063 13.5823 2.52925 14.8824 3.03172 16.0955C3.5342 17.3086 4.27069 18.4108 5.19914 19.3393C6.12759 20.2677 7.22982 21.0042 8.4429 21.5067C9.65598 22.0092 10.9562 22.2678 12.2692 22.2678C13.5822 22.2678 14.8824 22.0092 16.0955 21.5067C17.3085 21.0042 18.4108 20.2677 19.3392 19.3393C20.2677 18.4108 21.0042 17.3086 21.5066 16.0955C22.0091 14.8824 22.2677 13.5823 22.2677 12.2692C22.2677 10.9562 22.0091 9.65604 21.5066 8.44296C21.4053 8.19828 21.2944 7.9581 21.1744 7.72295C20.8257 8.08666 20.3887 8.36506 19.8978 8.52372C19.9773 8.68552 20.0517 8.85002 20.1208 9.01699C20.5479 10.0481 20.7677 11.1532 20.7677 12.2692C20.7677 13.3853 20.5479 14.4904 20.1208 15.5215C19.6937 16.5526 19.0677 17.4895 18.2786 18.2786C17.4894 19.0678 16.5525 19.6938 15.5214 20.1209C14.4903 20.548 13.3852 20.7678 12.2692 20.7678C11.1531 20.7678 10.048 20.548 9.01693 20.1209C7.98584 19.6938 7.04896 19.0678 6.2598 18.2786C5.47064 17.4895 4.84464 16.5526 4.41754 15.5215C3.99045 14.4904 3.77063 13.3853 3.77063 12.2692C3.77063 11.1532 3.99045 10.0481 4.41754 9.01699C4.84464 7.9859 5.47064 7.04902 6.2598 6.25986C7.04896 5.4707 7.98584 4.8447 9.01693 4.4176C10.048 3.99051 11.1531 3.77069 12.2692 3.77069C13.3852 3.77069 14.4903 3.99051 15.5214 4.4176C15.6884 4.48677 15.8529 4.56116 16.0148 4.64061C16.1734 4.14978 16.4518 3.7128 16.8155 3.3641C16.5804 3.24403 16.3402 3.13315 16.0955 3.03179C14.8824 2.52931 13.5822 2.27069 12.2692 2.27069Z" fill="#808080"/>
<path d="M18.7775 3.87701V6.95987" stroke="#808080" stroke-width="1.5" stroke-linecap="round" stroke-linejoin="round"/>
<path d="M20.3189 5.41846H17.2361" stroke="#808080" stroke-width="1.5" stroke-linecap="round" stroke-linejoin="round"/>
</svg>
