<svg xmlns="http://www.w3.org/2000/svg" width="20" height="20" viewBox="0 0 20 20"><g><g><path fill="#141414" d="M12.17 10.17c-.5.51-.86.97-1.04 1.69-.08.32-.13.68-.13 1.14H9v-.5a3.997 3.997 0 0 1 1.17-2.83l1.24-1.26c.46-.44.68-1.1.55-1.8a1.99 1.99 0 0 0-1.39-1.53c-1.11-.31-2.14.32-2.47 1.27-.12.37-.43.65-.82.65h-.3C6.4 7 6 6.44 6.16 5.88a4.008 4.008 0 0 1 3.23-2.83c1.52-.24 2.97.55 3.87 1.8 1.18 1.63.83 3.38-.19 4.4zM11 17H9v-2h2zM10 0C4.48 0 0 4.48 0 10s4.48 10 10 10 10-4.48 10-10S15.52 0 10 0z"/></g></g></svg>