<svg width="24" height="24" viewBox="0 0 24 24" fill="none" xmlns="http://www.w3.org/2000/svg">
<path fill-rule="evenodd" clip-rule="evenodd" d="M3 12C3 14.3869 3.94821 16.6761 5.63604 18.364C7.32387 20.0518 9.61305 21 12 21C14.3869 21 16.6761 20.0518 18.364 18.364C20.0518 16.6761 21 14.3869 21 12C21 9.61305 20.0518 7.32387 18.364 5.63604C16.6761 3.94821 14.3869 3 12 3C9.61305 3 7.32387 3.94821 5.63604 5.63604C3.94821 7.32387 3 9.61305 3 12ZM10.05 10.8C10.05 10.3858 10.3858 10.05 10.8 10.05H11.4C11.7581 10.05 12.1015 10.1922 12.3546 10.4454C12.6078 10.6986 12.75 11.0419 12.75 11.4V14.4C12.75 14.5193 12.7975 14.6338 12.8819 14.7182C12.9662 14.8026 13.0807 14.85 13.2 14.85H13.8C14.2143 14.85 14.55 15.1858 14.55 15.6C14.55 16.0142 14.2143 16.35 13.8 16.35H13.2C12.6829 16.35 12.1869 16.1445 11.8212 15.7788C11.4555 15.4131 11.25 14.9172 11.25 14.4V11.55H10.8C10.3858 11.55 10.05 11.2142 10.05 10.8ZM11.7 7.04999C11.4924 7.04999 11.2893 7.11157 11.1167 7.22694C10.944 7.34232 10.8094 7.50631 10.73 7.69817C10.6505 7.89003 10.6297 8.10115 10.6702 8.30483C10.7107 8.50851 10.8107 8.6956 10.9576 8.84245C11.1044 8.98929 11.2915 9.0893 11.4952 9.12981C11.6989 9.17033 11.91 9.14953 12.1018 9.07006C12.2937 8.99059 12.4577 8.85601 12.5731 8.68334C12.6884 8.51067 12.75 8.30766 12.75 8.09999C12.75 7.82151 12.6394 7.55444 12.4425 7.35753C12.2456 7.16061 11.9785 7.04999 11.7 7.04999ZM11.95 8.47415C11.9254 8.49061 11.8993 8.50451 11.8722 8.51573C11.8179 8.53824 11.7594 8.54999 11.7 8.54999C11.6703 8.54999 11.6409 8.54705 11.6122 8.54134C11.5256 8.52411 11.4452 8.48158 11.3818 8.41819C11.3184 8.35479 11.2759 8.27443 11.2587 8.18778C11.253 8.15908 11.25 8.12968 11.25 8.09999C11.25 8.04061 11.2618 7.98211 11.2843 7.92778C11.2955 7.90068 11.3094 7.87461 11.3259 7.84998C11.3589 7.80061 11.4011 7.7585 11.45 7.72583C11.4744 7.70953 11.5005 7.69558 11.5278 7.68424C11.5827 7.66152 11.6412 7.64999 11.7 7.64999C11.7294 7.64999 11.7588 7.65285 11.7878 7.65863C11.8751 7.676 11.9553 7.71886 12.0182 7.78179C12.0812 7.84473 12.124 7.92491 12.1414 8.0122C12.1472 8.04125 12.15 8.07065 12.15 8.09999C12.15 8.1588 12.1385 8.21733 12.1158 8.2722C12.1044 8.29956 12.0905 8.3256 12.0742 8.34999C12.0415 8.39889 11.9994 8.44116 11.95 8.47415Z" fill="white"/>
</svg>
